  0
SECTION
  2
HEADER
  9
$ACADVER
  1
AC1014
  9
$HANDSEED
  5
FFFF
  9
$MEASUREMENT
 70
     1
  0
ENDSEC
  0
SECTION
  2
TABLES
  0
TABLE
  2
VPORT
  5
8
330
0
100
AcDbSymbolTable
 70
     4
  0
VPORT
  5
2E
330
8
100
AcDbSymbolTableRecord
100
AcDbViewportTableRecord
  2
*ACTIVE
 70
     0
 10
0.0
 20
0.0
 11
1.0
 21
1.0
 12
210.0
 22
148.5
 13
0.0
 23
0.0
 14
10.0
 24
10.0
 15
10.0
 25
10.0
 16
0.0
 26
0.0
 36
1.0
 17
0.0
 27
0.0
 37
0.0
 40
341.0
 41
1.24
 42
50.0
 43
0.0
 44
0.0
 50
0.0
 51
0.0
 71
     0
 72
   100
 73
     1
 74
     3
 75
     0
 76
     0
 77
     0
 78
     0
  0
ENDTAB
  0
TABLE
  2
LTYPE
  5
5
330
0
100
AcDbSymbolTable
 70
     1
  0
LTYPE
  5
14
330
5
100
AcDbSymbolTableRecord
100
AcDbLinetypeTableRecord
  2
BYBLOCK
 70
     0
  3

 72
    65
 73
     0
 40
0.0
  0
LTYPE
  5
15
330
5
100
AcDbSymbolTableRecord
100
AcDbLinetypeTableRecord
  2
BYLAYER
 70
     0
  3

 72
    65
 73
     0
 40
0.0
  0
LTYPE
  5
16
330
5
100
AcDbSymbolTableRecord
100
AcDbLinetypeTableRecord
  2
CONTINUOUS
 70
     0
  3
Solid line
 72
    65
 73
     0
 40
0.0
  0
ENDTAB
  0
TABLE
  2
LAYER
  5
2
100
AcDbSymbolTable
 70
2
  0
LAYER
  5
50
100
AcDbSymbolTableRecord
100
AcDbLayerTableRecord
  2
0
 70
0
  6
CONTINUOUS
  0
LAYER
  5
51
100
AcDbSymbolTableRecord
100
AcDbLayerTableRecord
  2
Layer_1
 70
0
  6
CONTINUOUS
  0
ENDTAB
  0
TABLE
  2
STYLE
  5
3
330
0
100
AcDbSymbolTable
 70
     1
  0
STYLE
  5
11
330
3
100
AcDbSymbolTableRecord
100
AcDbTextStyleTableRecord
  2
STANDARD
 70
     0
 40
0.0
 41
1.0
 50
0.0
 71
     0
 42
2.5
  3
txt
  4

  0
ENDTAB
  0
TABLE
  2
VIEW
  5
6
330
0
100
AcDbSymbolTable
 70
     0
  0
ENDTAB
  0
TABLE
  2
UCS
  5
7
330
0
100
AcDbSymbolTable
 70
     0
  0
ENDTAB
  0
TABLE
  2
APPID
  5
9
330
0
100
AcDbSymbolTable
 70
     2
  0
APPID
  5
12
330
9
100
AcDbSymbolTableRecord
100
AcDbRegAppTableRecord
  2
ACAD
 70
     0
  0
ENDTAB
  0
TABLE
  2
DIMSTYLE
  5
A
330
0
100
AcDbSymbolTable
 70
     1
  0
DIMSTYLE
105
27
330
A
100
AcDbSymbolTableRecord
100
AcDbDimStyleTableRecord
  2
ISO-25
 70
     0
  3

  4

  5

  6

  7

 40
1.0
 41
2.5
 42
0.625
 43
3.75
 44
1.25
 45
0.0
 46
0.0
 47
0.0
 48
0.0
140
2.5
141
2.5
142
0.0
143
0.03937007874016
144
1.0
145
0.0
146
1.0
147
0.625
 71
     0
 72
     0
 73
     0
 74
     0
 75
     0
 76
     0
 77
     1
 78
     8
170
     0
171
     3
172
     1
173
     0
174
     0
175
     0
176
     0
177
     0
178
     0
270
     2
271
     2
272
     2
273
     2
274
     3
340
11
275
     0
280
     0
281
     0
282
     0
283
     0
284
     8
285
     0
286
     0
287
     3
288
     0
  0
ENDTAB
  0
TABLE
  2
BLOCK_RECORD
  5
1
330
0
100
AcDbSymbolTable
 70
     1
  0
BLOCK_RECORD
  5
1F
330
1
100
AcDbSymbolTableRecord
100
AcDbBlockTableRecord
  2
*MODEL_SPACE
  0
BLOCK_RECORD
  5
1B
330
1
100
AcDbSymbolTableRecord
100
AcDbBlockTableRecord
  2
*PAPER_SPACE
  0
ENDTAB
  0
ENDSEC
  0
SECTION
  2
BLOCKS
  0
BLOCK
  5
20
330
1F
100
AcDbEntity
  8
0
100
AcDbBlockBegin
  2
*MODEL_SPACE
 70
     0
 10
0.0
 20
0.0
 30
0.0
  3
*MODEL_SPACE
  1

  0
ENDBLK
  5
21
330
1F
100
AcDbEntity
  8
0
100
AcDbBlockEnd
  0
BLOCK
  5
1C
330
1B
100
AcDbEntity
 67
     1
  8
0
100
AcDbBlockBegin
  2
*PAPER_SPACE
  1

  0
ENDBLK
  5
1D
330
1B
100
AcDbEntity
 67
     1
  8
0
100
AcDbBlockEnd
  0
ENDSEC
  0
SECTION
  2
ENTITIES
  0
SPLINE
  5
100
100
AcDbEntity
  8
Layer_1
 62
7
100
AcDbSpline
 70
8
 71
3
 72
8
 73
4
 74
0
 40
0
 40
0
 40
0
 40
0
 40
1
 40
1
 40
1
 40
1
 10
259.950000
 20
315.000000
 30
0.0
 10
259.950000
 20
281.861200
 30
0.0
 10
246.785663
 20
250.079678
 30
0.0
 10
223.352992
 20
226.647008
 30
0.0
  0
SPLINE
  5
101
100
AcDbEntity
  8
Layer_1
 62
7
100
AcDbSpline
 70
8
 71
3
 72
8
 73
4
 74
0
 40
0
 40
0
 40
0
 40
0
 40
1
 40
1
 40
1
 40
1
 10
223.352992
 20
226.647008
 30
0.0
 10
199.920322
 20
203.214337
 30
0.0
 10
168.138800
 20
190.050000
 30
0.0
 10
135.000000
 20
190.050000
 30
0.0
  0
SPLINE
  5
102
100
AcDbEntity
  8
Layer_1
 62
7
100
AcDbSpline
 70
8
 71
3
 72
8
 73
4
 74
0
 40
0
 40
0
 40
0
 40
0
 40
1
 40
1
 40
1
 40
1
 10
135.000000
 20
190.050000
 30
0.0
 10
101.861200
 20
190.050000
 30
0.0
 10
70.079678
 20
203.214337
 30
0.0
 10
46.647008
 20
226.647008
 30
0.0
  0
SPLINE
  5
103
100
AcDbEntity
  8
Layer_1
 62
7
100
AcDbSpline
 70
8
 71
3
 72
8
 73
4
 74
0
 40
0
 40
0
 40
0
 40
0
 40
1
 40
1
 40
1
 40
1
 10
46.647008
 20
226.647008
 30
0.0
 10
23.214337
 20
250.079678
 30
0.0
 10
10.050000
 20
281.861200
 30
0.0
 10
10.050000
 20
315.000000
 30
0.0
  0
SPLINE
  5
104
100
AcDbEntity
  8
Layer_1
 62
7
100
AcDbSpline
 70
8
 71
3
 72
8
 73
4
 74
0
 40
0
 40
0
 40
0
 40
0
 40
1
 40
1
 40
1
 40
1
 10
10.050000
 20
315.000000
 30
0.0
 10
10.050000
 20
348.138800
 30
0.0
 10
23.214337
 20
379.920322
 30
0.0
 10
46.647008
 20
403.352992
 30
0.0
  0
SPLINE
  5
105
100
AcDbEntity
  8
Layer_1
 62
7
100
AcDbSpline
 70
8
 71
3
 72
8
 73
4
 74
0
 40
0
 40
0
 40
0
 40
0
 40
1
 40
1
 40
1
 40
1
 10
46.647008
 20
403.352992
 30
0.0
 10
70.079678
 20
426.785663
 30
0.0
 10
101.861200
 20
439.950000
 30
0.0
 10
135.000000
 20
439.950000
 30
0.0
  0
SPLINE
  5
106
100
AcDbEntity
  8
Layer_1
 62
7
100
AcDbSpline
 70
8
 71
3
 72
8
 73
4
 74
0
 40
0
 40
0
 40
0
 40
0
 40
1
 40
1
 40
1
 40
1
 10
135.000000
 20
439.950000
 30
0.0
 10
204.007979
 20
439.950000
 30
0.0
 10
259.950000
 20
384.007979
 30
0.0
 10
259.950000
 20
315.000000
 30
0.0
  0
LINE
  5
107
100
AcDbEntity
  8
Layer_1
 62
7
100
AcDbLine
 10
259.950000
 20
315.000000
 30
0.0
 11
259.950000
 21
315.000000
 31
0.0
  0
SPLINE
  5
108
100
AcDbEntity
  8
Layer_1
 62
7
100
AcDbSpline
 70
8
 71
3
 72
8
 73
4
 74
0
 40
0
 40
0
 40
0
 40
0
 40
1
 40
1
 40
1
 40
1
 10
123.056848
 20
409.195487
 30
0.0
 10
118.974613
 20
408.678003
 30
0.0
 10
114.930334
 20
407.895695
 30
0.0
 10
110.949594
 20
406.853511
 30
0.0
  0
LINE
  5
109
100
AcDbEntity
  8
Layer_1
 62
7
100
AcDbLine
 10
110.949594
 20
406.853511
 30
0.0
 11
109.879355
 21
404.999878
 31
0.0
  0
LINE
  5
10a
100
AcDbEntity
  8
Layer_1
 62
7
100
AcDbLine
 10
109.879355
 20
404.999878
 30
0.0
 11
113.779392
 21
398.244735
 31
0.0
  0
LINE
  5
10b
100
AcDbEntity
  8
Layer_1
 62
7
100
AcDbLine
 10
113.779392
 20
398.244735
 30
0.0
 11
121.579415
 21
398.244735
 31
0.0
  0
LINE
  5
10c
100
AcDbEntity
  8
Layer_1
 62
7
100
AcDbLine
 10
121.579415
 20
398.244735
 30
0.0
 11
125.479452
 21
404.999878
 31
0.0
  0
LINE
  5
10d
100
AcDbEntity
  8
Layer_1
 62
7
100
AcDbLine
 10
125.479452
 20
404.999878
 30
0.0
 11
123.056848
 21
409.195487
 31
0.0
  0
LINE
  5
10e
100
AcDbEntity
  8
Layer_1
 62
7
100
AcDbLine
 10
156.220134
 20
318.245296
 30
0.0
 11
148.420249
 21
318.245293
 31
0.0
  0
LINE
  5
10f
100
AcDbEntity
  8
Layer_1
 62
7
100
AcDbLine
 10
148.420249
 20
318.245293
 30
0.0
 11
144.520304
 21
325.000196
 31
0.0
  0
LINE
  5
110
100
AcDbEntity
  8
Layer_1
 62
7
100
AcDbLine
 10
144.520304
 20
325.000196
 30
0.0
 11
148.420244
 21
331.755102
 31
0.0
  0
LINE
  5
111
100
AcDbEntity
  8
Layer_1
 62
7
100
AcDbLine
 10
148.420244
 20
331.755102
 30
0.0
 11
156.220134
 21
331.755096
 31
0.0
  0
LINE
  5
112
100
AcDbEntity
  8
Layer_1
 62
7
100
AcDbLine
 10
156.220134
 20
331.755096
 30
0.0
 11
160.120079
 21
325.000193
 31
0.0
  0
LINE
  5
113
100
AcDbEntity
  8
Layer_1
 62
7
100
AcDbLine
 10
160.120079
 20
325.000193
 30
0.0
 11
156.220134
 21
318.245296
 31
0.0
  0
SPLINE
  5
114
100
AcDbEntity
  8
Layer_1
 62
7
100
AcDbSpline
 70
8
 71
3
 72
8
 73
4
 74
0
 40
0
 40
0
 40
0
 40
0
 40
1
 40
1
 40
1
 40
1
 10
137.019880
 20
311.497154
 30
0.0
 10
135.082794
 20
310.378777
 30
0.0
 10
132.605853
 20
311.042471
 30
0.0
 10
131.487477
 20
312.979556
 30
0.0
  0
SPLINE
  5
115
100
AcDbEntity
  8
Layer_1
 62
7
100
AcDbSpline
 70
8
 71
3
 72
8
 73
4
 74
0
 40
0
 40
0
 40
0
 40
0
 40
1
 40
1
 40
1
 40
1
 10
131.487477
 20
312.979556
 30
0.0
 10
130.369100
 20
314.916642
 30
0.0
 10
131.032795
 20
317.393583
 30
0.0
 10
132.969880
 20
318.511959
 30
0.0
  0
SPLINE
  5
116
100
AcDbEntity
  8
Layer_1
 62
7
100
AcDbSpline
 70
8
 71
3
 72
8
 73
4
 74
0
 40
0
 40
0
 40
0
 40
0
 40
1
 40
1
 40
1
 40
1
 10
132.969880
 20
318.511959
 30
0.0
 10
134.906965
 20
319.630336
 30
0.0
 10
137.383906
 20
318.966641
 30
0.0
 10
138.502282
 20
317.029556
 30
0.0
  0
SPLINE
  5
117
100
AcDbEntity
  8
Layer_1
 62
7
100
AcDbSpline
 70
8
 71
3
 72
8
 73
4
 74
0
 40
0
 40
0
 40
0
 40
0
 40
1
 40
1
 40
1
 40
1
 10
138.502282
 20
317.029556
 30
0.0
 10
139.620659
 20
315.092471
 30
0.0
 10
138.956965
 20
312.615530
 30
0.0
 10
137.019880
 20
311.497154
 30
0.0
  0
LINE
  5
118
100
AcDbEntity
  8
Layer_1
 62
7
100
AcDbLine
 10
137.019880
 20
311.497154
 30
0.0
 11
137.019880
 21
311.497154
 31
0.0
  0
LINE
  5
119
100
AcDbEntity
  8
Layer_1
 62
7
100
AcDbLine
 10
121.579239
 20
298.245099
 30
0.0
 11
113.779385
 21
298.245042
 31
0.0
  0
LINE
  5
11a
100
AcDbEntity
  8
Layer_1
 62
7
100
AcDbLine
 10
113.779385
 20
298.245042
 30
0.0
 11
109.879503
 21
304.999836
 31
0.0
  0
LINE
  5
11b
100
AcDbEntity
  8
Layer_1
 62
7
100
AcDbLine
 10
109.879503
 20
304.999836
 30
0.0
 11
113.779474
 21
311.754687
 31
0.0
  0
LINE
  5
11c
100
AcDbEntity
  8
Layer_1
 62
7
100
AcDbLine
 10
113.779474
 20
311.754687
 30
0.0
 11
121.579333
 21
311.754736
 31
0.0
  0
LINE
  5
11d
100
AcDbEntity
  8
Layer_1
 62
7
100
AcDbLine
 10
121.579333
 20
311.754736
 30
0.0
 11
125.479215
 21
304.999942
 31
0.0
  0
LINE
  5
11e
100
AcDbEntity
  8
Layer_1
 62
7
100
AcDbLine
 10
125.479215
 20
304.999942
 30
0.0
 11
121.579239
 21
298.245099
 31
0.0
  0
LINE
  5
11f
100
AcDbEntity
  8
Layer_1
 62
7
100
AcDbLine
 10
173.540642
 20
328.245296
 30
0.0
 11
165.740757
 21
328.245293
 31
0.0
  0
LINE
  5
120
100
AcDbEntity
  8
Layer_1
 62
7
100
AcDbLine
 10
165.740757
 20
328.245293
 30
0.0
 11
161.840812
 21
335.000196
 31
0.0
  0
LINE
  5
121
100
AcDbEntity
  8
Layer_1
 62
7
100
AcDbLine
 10
161.840812
 20
335.000196
 30
0.0
 11
165.740752
 21
341.755102
 31
0.0
  0
LINE
  5
122
100
AcDbEntity
  8
Layer_1
 62
7
100
AcDbLine
 10
165.740752
 20
341.755102
 30
0.0
 11
173.540642
 21
341.755096
 31
0.0
  0
LINE
  5
123
100
AcDbEntity
  8
Layer_1
 62
7
100
AcDbLine
 10
173.540642
 20
341.755096
 30
0.0
 11
177.440587
 21
335.000193
 31
0.0
  0
LINE
  5
124
100
AcDbEntity
  8
Layer_1
 62
7
100
AcDbLine
 10
177.440587
 20
335.000193
 30
0.0
 11
173.540642
 21
328.245296
 31
0.0
  0
LINE
  5
125
100
AcDbEntity
  8
Layer_1
 62
7
100
AcDbLine
 10
190.861151
 20
338.245296
 30
0.0
 11
183.061266
 21
338.245293
 31
0.0
  0
LINE
  5
126
100
AcDbEntity
  8
Layer_1
 62
7
100
AcDbLine
 10
183.061266
 20
338.245293
 30
0.0
 11
179.161321
 21
345.000196
 31
0.0
  0
LINE
  5
127
100
AcDbEntity
  8
Layer_1
 62
7
100
AcDbLine
 10
179.161321
 20
345.000196
 30
0.0
 11
183.061261
 21
351.755102
 31
0.0
  0
LINE
  5
128
100
AcDbEntity
  8
Layer_1
 62
7
100
AcDbLine
 10
183.061261
 20
351.755102
 30
0.0
 11
190.861151
 21
351.755096
 31
0.0
  0
LINE
  5
129
100
AcDbEntity
  8
Layer_1
 62
7
100
AcDbLine
 10
190.861151
 20
351.755096
 30
0.0
 11
194.761096
 21
345.000193
 31
0.0
  0
LINE
  5
12a
100
AcDbEntity
  8
Layer_1
 62
7
100
AcDbLine
 10
194.761096
 20
345.000193
 30
0.0
 11
190.861151
 21
338.245296
 31
0.0
  0
LINE
  5
12b
100
AcDbEntity
  8
Layer_1
 62
7
100
AcDbLine
 10
208.181676
 20
348.245306
 30
0.0
 11
200.381782
 21
348.245298
 31
0.0
  0
LINE
  5
12c
100
AcDbEntity
  8
Layer_1
 62
7
100
AcDbLine
 10
200.381782
 20
348.245298
 30
0.0
 11
196.481837
 21
355.000201
 31
0.0
  0
LINE
  5
12d
100
AcDbEntity
  8
Layer_1
 62
7
100
AcDbLine
 10
196.481837
 20
355.000201
 30
0.0
 11
200.381786
 21
361.755112
 31
0.0
  0
LINE
  5
12e
100
AcDbEntity
  8
Layer_1
 62
7
100
AcDbLine
 10
200.381786
 20
361.755112
 30
0.0
 11
208.181676
 21
361.755106
 31
0.0
  0
LINE
  5
12f
100
AcDbEntity
  8
Layer_1
 62
7
100
AcDbLine
 10
208.181676
 20
361.755106
 30
0.0
 11
212.081621
 21
355.000203
 31
0.0
  0
LINE
  5
130
100
AcDbEntity
  8
Layer_1
 62
7
100
AcDbLine
 10
212.081621
 20
355.000203
 30
0.0
 11
208.181676
 21
348.245306
 31
0.0
  0
LINE
  5
131
100
AcDbEntity
  8
Layer_1
 62
7
100
AcDbLine
 10
214.715869
 20
366.583106
 30
0.0
 11
213.802210
 21
365.000262
 31
0.0
  0
LINE
  5
132
100
AcDbEntity
  8
Layer_1
 62
7
100
AcDbLine
 10
213.802210
 20
365.000262
 30
0.0
 11
217.702248
 21
358.245106
 31
0.0
  0
LINE
  5
133
100
AcDbEntity
  8
Layer_1
 62
7
100
AcDbLine
 10
217.702248
 20
358.245106
 30
0.0
 11
219.530042
 21
358.245106
 31
0.0
  0
SPLINE
  5
134
100
AcDbEntity
  8
Layer_1
 62
7
100
AcDbSpline
 70
8
 71
3
 72
8
 73
4
 74
0
 40
0
 40
0
 40
0
 40
0
 40
1
 40
1
 40
1
 40
1
 10
219.530042
 20
358.245106
 30
0.0
 10
218.067354
 20
361.104063
 30
0.0
 10
216.460565
 20
363.886973
 30
0.0
 10
214.715869
 20
366.583106
 30
0.0
  0
LINE
  5
135
100
AcDbEntity
  8
Layer_1
 62
7
100
AcDbLine
 10
214.715869
 20
366.583106
 30
0.0
 11
214.715869
 21
366.583106
 31
0.0
  0
LINE
  5
136
100
AcDbEntity
  8
Layer_1
 62
7
100
AcDbLine
 10
104.258739
 20
288.245095
 30
0.0
 11
96.458885
 21
288.245038
 31
0.0
  0
LINE
  5
137
100
AcDbEntity
  8
Layer_1
 62
7
100
AcDbLine
 10
96.458885
 20
288.245038
 30
0.0
 11
92.559003
 21
294.999832
 31
0.0
  0
LINE
  5
138
100
AcDbEntity
  8
Layer_1
 62
7
100
AcDbLine
 10
92.559003
 20
294.999832
 30
0.0
 11
96.458974
 21
301.754683
 31
0.0
  0
LINE
  5
139
100
AcDbEntity
  8
Layer_1
 62
7
100
AcDbLine
 10
96.458974
 20
301.754683
 30
0.0
 11
104.258833
 21
301.754732
 31
0.0
  0
LINE
  5
13a
100
AcDbEntity
  8
Layer_1
 62
7
100
AcDbLine
 10
104.258833
 20
301.754732
 30
0.0
 11
108.158715
 21
294.999938
 31
0.0
  0
LINE
  5
13b
100
AcDbEntity
  8
Layer_1
 62
7
100
AcDbLine
 10
108.158715
 20
294.999938
 30
0.0
 11
104.258739
 21
288.245095
 31
0.0
  0
LINE
  5
13c
100
AcDbEntity
  8
Layer_1
 62
7
100
AcDbLine
 10
86.938229
 20
278.245095
 30
0.0
 11
79.138375
 21
278.245038
 31
0.0
  0
LINE
  5
13d
100
AcDbEntity
  8
Layer_1
 62
7
100
AcDbLine
 10
79.138375
 20
278.245038
 30
0.0
 11
75.238493
 21
284.999832
 31
0.0
  0
LINE
  5
13e
100
AcDbEntity
  8
Layer_1
 62
7
100
AcDbLine
 10
75.238493
 20
284.999832
 30
0.0
 11
79.138464
 21
291.754683
 31
0.0
  0
LINE
  5
13f
100
AcDbEntity
  8
Layer_1
 62
7
100
AcDbLine
 10
79.138464
 20
291.754683
 30
0.0
 11
86.938323
 21
291.754732
 31
0.0
  0
LINE
  5
140
100
AcDbEntity
  8
Layer_1
 62
7
100
AcDbLine
 10
86.938323
 20
291.754732
 30
0.0
 11
90.838205
 21
284.999938
 31
0.0
  0
LINE
  5
141
100
AcDbEntity
  8
Layer_1
 62
7
100
AcDbLine
 10
90.838205
 20
284.999938
 30
0.0
 11
86.938229
 21
278.245095
 31
0.0
  0
LINE
  5
142
100
AcDbEntity
  8
Layer_1
 62
7
100
AcDbLine
 10
69.617719
 20
268.245095
 30
0.0
 11
61.817865
 21
268.245038
 31
0.0
  0
LINE
  5
143
100
AcDbEntity
  8
Layer_1
 62
7
100
AcDbLine
 10
61.817865
 20
268.245038
 30
0.0
 11
57.917983
 21
274.999832
 31
0.0
  0
LINE
  5
144
100
AcDbEntity
  8
Layer_1
 62
7
100
AcDbLine
 10
57.917983
 20
274.999832
 30
0.0
 11
61.817954
 21
281.754683
 31
0.0
  0
LINE
  5
145
100
AcDbEntity
  8
Layer_1
 62
7
100
AcDbLine
 10
61.817954
 20
281.754683
 30
0.0
 11
69.617813
 21
281.754732
 31
0.0
  0
LINE
  5
146
100
AcDbEntity
  8
Layer_1
 62
7
100
AcDbLine
 10
69.617813
 20
281.754732
 30
0.0
 11
73.517695
 21
274.999938
 31
0.0
  0
LINE
  5
147
100
AcDbEntity
  8
Layer_1
 62
7
100
AcDbLine
 10
73.517695
 20
274.999938
 30
0.0
 11
69.617719
 21
268.245095
 31
0.0
  0
SPLINE
  5
148
100
AcDbEntity
  8
Layer_1
 62
7
100
AcDbSpline
 70
8
 71
3
 72
8
 73
4
 74
0
 40
0
 40
0
 40
0
 40
0
 40
1
 40
1
 40
1
 40
1
 10
50.470073
 20
271.754773
 30
0.0
 10
51.932610
 20
268.896007
 30
0.0
 10
53.539227
 20
266.113274
 30
0.0
 10
55.283733
 20
263.417303
 30
0.0
  0
LINE
  5
149
100
AcDbEntity
  8
Layer_1
 62
7
100
AcDbLine
 10
55.283733
 20
263.417303
 30
0.0
 11
56.197374
 21
265.000146
 31
0.0
  0
LINE
  5
14a
100
AcDbEntity
  8
Layer_1
 62
7
100
AcDbLine
 10
56.197374
 20
265.000146
 30
0.0
 11
52.297352
 21
271.754773
 31
0.0
  0
LINE
  5
14b
100
AcDbEntity
  8
Layer_1
 62
7
100
AcDbLine
 10
52.297352
 20
271.754773
 30
0.0
 11
50.470073
 21
271.754773
 31
0.0
  0
LINE
  5
14c
100
AcDbEntity
  8
Layer_1
 62
7
100
AcDbLine
 10
138.899749
 20
288.244987
 30
0.0
 11
131.099895
 21
288.244930
 31
0.0
  0
LINE
  5
14d
100
AcDbEntity
  8
Layer_1
 62
7
100
AcDbLine
 10
131.099895
 20
288.244930
 30
0.0
 11
127.200013
 21
294.999724
 31
0.0
  0
LINE
  5
14e
100
AcDbEntity
  8
Layer_1
 62
7
100
AcDbLine
 10
127.200013
 20
294.999724
 30
0.0
 11
131.099984
 21
301.754575
 31
0.0
  0
LINE
  5
14f
100
AcDbEntity
  8
Layer_1
 62
7
100
AcDbLine
 10
131.099984
 20
301.754575
 30
0.0
 11
138.899843
 21
301.754624
 31
0.0
  0
LINE
  5
150
100
AcDbEntity
  8
Layer_1
 62
7
100
AcDbLine
 10
138.899843
 20
301.754624
 30
0.0
 11
142.799725
 21
294.999830
 31
0.0
  0
LINE
  5
151
100
AcDbEntity
  8
Layer_1
 62
7
100
AcDbLine
 10
142.799725
 20
294.999830
 30
0.0
 11
138.899749
 21
288.244987
 31
0.0
  0
LINE
  5
152
100
AcDbEntity
  8
Layer_1
 62
7
100
AcDbLine
 10
156.220132
 20
298.245191
 30
0.0
 11
148.420247
 21
298.245189
 31
0.0
  0
LINE
  5
153
100
AcDbEntity
  8
Layer_1
 62
7
100
AcDbLine
 10
148.420247
 20
298.245189
 30
0.0
 11
144.520302
 21
305.000091
 31
0.0
  0
LINE
  5
154
100
AcDbEntity
  8
Layer_1
 62
7
100
AcDbLine
 10
144.520302
 20
305.000091
 30
0.0
 11
148.420242
 21
311.754997
 31
0.0
  0
LINE
  5
155
100
AcDbEntity
  8
Layer_1
 62
7
100
AcDbLine
 10
148.420242
 20
311.754997
 30
0.0
 11
156.220132
 21
311.754991
 31
0.0
  0
LINE
  5
156
100
AcDbEntity
  8
Layer_1
 62
7
100
AcDbLine
 10
156.220132
 20
311.754991
 30
0.0
 11
160.120077
 21
305.000089
 31
0.0
  0
LINE
  5
157
100
AcDbEntity
  8
Layer_1
 62
7
100
AcDbLine
 10
160.120077
 20
305.000089
 30
0.0
 11
156.220132
 21
298.245191
 31
0.0
  0
LINE
  5
158
100
AcDbEntity
  8
Layer_1
 62
7
100
AcDbLine
 10
121.579239
 20
278.244990
 30
0.0
 11
113.779385
 21
278.244933
 31
0.0
  0
LINE
  5
159
100
AcDbEntity
  8
Layer_1
 62
7
100
AcDbLine
 10
113.779385
 20
278.244933
 30
0.0
 11
109.879503
 21
284.999727
 31
0.0
  0
LINE
  5
15a
100
AcDbEntity
  8
Layer_1
 62
7
100
AcDbLine
 10
109.879503
 20
284.999727
 30
0.0
 11
113.779474
 21
291.754578
 31
0.0
  0
LINE
  5
15b
100
AcDbEntity
  8
Layer_1
 62
7
100
AcDbLine
 10
113.779474
 20
291.754578
 30
0.0
 11
121.579333
 21
291.754627
 31
0.0
  0
LINE
  5
15c
100
AcDbEntity
  8
Layer_1
 62
7
100
AcDbLine
 10
121.579333
 20
291.754627
 30
0.0
 11
125.479215
 21
284.999833
 31
0.0
  0
LINE
  5
15d
100
AcDbEntity
  8
Layer_1
 62
7
100
AcDbLine
 10
125.479215
 20
284.999833
 30
0.0
 11
121.579239
 21
278.244990
 31
0.0
  0
LINE
  5
15e
100
AcDbEntity
  8
Layer_1
 62
7
100
AcDbLine
 10
173.540640
 20
308.245191
 30
0.0
 11
165.740755
 21
308.245189
 31
0.0
  0
LINE
  5
15f
100
AcDbEntity
  8
Layer_1
 62
7
100
AcDbLine
 10
165.740755
 20
308.245189
 30
0.0
 11
161.840810
 21
315.000091
 31
0.0
  0
LINE
  5
160
100
AcDbEntity
  8
Layer_1
 62
7
100
AcDbLine
 10
161.840810
 20
315.000091
 30
0.0
 11
165.740750
 21
321.754997
 31
0.0
  0
LINE
  5
161
100
AcDbEntity
  8
Layer_1
 62
7
100
AcDbLine
 10
165.740750
 20
321.754997
 30
0.0
 11
173.540640
 21
321.754991
 31
0.0
  0
LINE
  5
162
100
AcDbEntity
  8
Layer_1
 62
7
100
AcDbLine
 10
173.540640
 20
321.754991
 30
0.0
 11
177.440585
 21
315.000089
 31
0.0
  0
LINE
  5
163
100
AcDbEntity
  8
Layer_1
 62
7
100
AcDbLine
 10
177.440585
 20
315.000089
 30
0.0
 11
173.540640
 21
308.245191
 31
0.0
  0
LINE
  5
164
100
AcDbEntity
  8
Layer_1
 62
7
100
AcDbLine
 10
190.861148
 20
318.245191
 30
0.0
 11
183.061263
 21
318.245189
 31
0.0
  0
LINE
  5
165
100
AcDbEntity
  8
Layer_1
 62
7
100
AcDbLine
 10
183.061263
 20
318.245189
 30
0.0
 11
179.161318
 21
325.000091
 31
0.0
  0
LINE
  5
166
100
AcDbEntity
  8
Layer_1
 62
7
100
AcDbLine
 10
179.161318
 20
325.000091
 30
0.0
 11
183.061258
 21
331.754997
 31
0.0
  0
LINE
  5
167
100
AcDbEntity
  8
Layer_1
 62
7
100
AcDbLine
 10
183.061258
 20
331.754997
 30
0.0
 11
190.861148
 21
331.754991
 31
0.0
  0
LINE
  5
168
100
AcDbEntity
  8
Layer_1
 62
7
100
AcDbLine
 10
190.861148
 20
331.754991
 30
0.0
 11
194.761093
 21
325.000089
 31
0.0
  0
LINE
  5
169
100
AcDbEntity
  8
Layer_1
 62
7
100
AcDbLine
 10
194.761093
 20
325.000089
 30
0.0
 11
190.861148
 21
318.245191
 31
0.0
  0
LINE
  5
16a
100
AcDbEntity
  8
Layer_1
 62
7
100
AcDbLine
 10
208.181673
 20
328.245201
 30
0.0
 11
200.381780
 21
328.245194
 31
0.0
  0
LINE
  5
16b
100
AcDbEntity
  8
Layer_1
 62
7
100
AcDbLine
 10
200.381780
 20
328.245194
 30
0.0
 11
196.481835
 21
335.000096
 31
0.0
  0
LINE
  5
16c
100
AcDbEntity
  8
Layer_1
 62
7
100
AcDbLine
 10
196.481835
 20
335.000096
 30
0.0
 11
200.381783
 21
341.755007
 31
0.0
  0
LINE
  5
16d
100
AcDbEntity
  8
Layer_1
 62
7
100
AcDbLine
 10
200.381783
 20
341.755007
 30
0.0
 11
208.181673
 21
341.755001
 31
0.0
  0
LINE
  5
16e
100
AcDbEntity
  8
Layer_1
 62
7
100
AcDbLine
 10
208.181673
 20
341.755001
 30
0.0
 11
212.081618
 21
335.000099
 31
0.0
  0
LINE
  5
16f
100
AcDbEntity
  8
Layer_1
 62
7
100
AcDbLine
 10
212.081618
 20
335.000099
 30
0.0
 11
208.181673
 21
328.245201
 31
0.0
  0
LINE
  5
170
100
AcDbEntity
  8
Layer_1
 62
7
100
AcDbLine
 10
217.702248
 20
351.755062
 30
0.0
 11
213.802210
 21
344.999932
 31
0.0
  0
LINE
  5
171
100
AcDbEntity
  8
Layer_1
 62
7
100
AcDbLine
 10
213.802210
 20
344.999932
 30
0.0
 11
217.702248
 21
338.245305
 31
0.0
  0
LINE
  5
172
100
AcDbEntity
  8
Layer_1
 62
7
100
AcDbLine
 10
217.702248
 20
338.245305
 30
0.0
 11
225.502270
 21
338.245305
 31
0.0
  0
LINE
  5
173
100
AcDbEntity
  8
Layer_1
 62
7
100
AcDbLine
 10
225.502270
 20
338.245305
 30
0.0
 11
226.572510
 21
340.098923
 31
0.0
  0
SPLINE
  5
174
100
AcDbEntity
  8
Layer_1
 62
7
100
AcDbSpline
 70
8
 71
3
 72
8
 73
4
 74
0
 40
0
 40
0
 40
0
 40
0
 40
1
 40
1
 40
1
 40
1
 10
226.572510
 20
340.098923
 30
0.0
 10
225.484805
 20
344.067416
 30
0.0
 10
224.140277
 20
347.961005
 30
0.0
 10
222.547430
 20
351.755062
 30
0.0
  0
LINE
  5
175
100
AcDbEntity
  8
Layer_1
 62
7
100
AcDbLine
 10
222.547430
 20
351.755062
 30
0.0
 11
217.702248
 21
351.755062
 31
0.0
  0
LINE
  5
176
100
AcDbEntity
  8
Layer_1
 62
7
100
AcDbLine
 10
104.258729
 20
268.244990
 30
0.0
 11
96.458875
 21
268.244933
 31
0.0
  0
LINE
  5
177
100
AcDbEntity
  8
Layer_1
 62
7
100
AcDbLine
 10
96.458875
 20
268.244933
 30
0.0
 11
92.558993
 21
274.999727
 31
0.0
  0
LINE
  5
178
100
AcDbEntity
  8
Layer_1
 62
7
100
AcDbLine
 10
92.558993
 20
274.999727
 30
0.0
 11
96.458964
 21
281.754578
 31
0.0
  0
LINE
  5
179
100
AcDbEntity
  8
Layer_1
 62
7
100
AcDbLine
 10
96.458964
 20
281.754578
 30
0.0
 11
104.258823
 21
281.754627
 31
0.0
  0
LINE
  5
17a
100
AcDbEntity
  8
Layer_1
 62
7
100
AcDbLine
 10
104.258823
 20
281.754627
 30
0.0
 11
108.158705
 21
274.999833
 31
0.0
  0
LINE
  5
17b
100
AcDbEntity
  8
Layer_1
 62
7
100
AcDbLine
 10
108.158705
 20
274.999833
 30
0.0
 11
104.258729
 21
268.244990
 31
0.0
  0
LINE
  5
17c
100
AcDbEntity
  8
Layer_1
 62
7
100
AcDbLine
 10
86.938229
 20
258.244990
 30
0.0
 11
79.138375
 21
258.244933
 31
0.0
  0
LINE
  5
17d
100
AcDbEntity
  8
Layer_1
 62
7
100
AcDbLine
 10
79.138375
 20
258.244933
 30
0.0
 11
75.238493
 21
264.999727
 31
0.0
  0
LINE
  5
17e
100
AcDbEntity
  8
Layer_1
 62
7
100
AcDbLine
 10
75.238493
 20
264.999727
 30
0.0
 11
79.138464
 21
271.754578
 31
0.0
  0
LINE
  5
17f
100
AcDbEntity
  8
Layer_1
 62
7
100
AcDbLine
 10
79.138464
 20
271.754578
 30
0.0
 11
86.938323
 21
271.754627
 31
0.0
  0
LINE
  5
180
100
AcDbEntity
  8
Layer_1
 62
7
100
AcDbLine
 10
86.938323
 20
271.754627
 30
0.0
 11
90.838205
 21
264.999833
 31
0.0
  0
LINE
  5
181
100
AcDbEntity
  8
Layer_1
 62
7
100
AcDbLine
 10
90.838205
 20
264.999833
 30
0.0
 11
86.938229
 21
258.244990
 31
0.0
  0
LINE
  5
182
100
AcDbEntity
  8
Layer_1
 62
7
100
AcDbLine
 10
69.617741
 20
261.754873
 30
0.0
 11
61.817700
 21
261.754873
 31
0.0
  0
LINE
  5
183
100
AcDbEntity
  8
Layer_1
 62
7
100
AcDbLine
 10
61.817700
 20
261.754873
 30
0.0
 11
59.395628
 21
257.559772
 31
0.0
  0
SPLINE
  5
184
100
AcDbEntity
  8
Layer_1
 62
7
100
AcDbSpline
 70
8
 71
3
 72
8
 73
4
 74
0
 40
0
 40
0
 40
0
 40
0
 40
1
 40
1
 40
1
 40
1
 10
59.395628
 20
257.559772
 30
0.0
 10
61.885016
 20
254.283200
 30
0.0
 10
64.584773
 20
251.171922
 30
0.0
 10
67.477820
 20
248.245618
 30
0.0
  0
LINE
  5
185
100
AcDbEntity
  8
Layer_1
 62
7
100
AcDbLine
 10
67.477820
 20
248.245618
 30
0.0
 11
69.617741
 21
248.245618
 31
0.0
  0
LINE
  5
186
100
AcDbEntity
  8
Layer_1
 62
7
100
AcDbLine
 10
69.617741
 20
248.245618
 30
0.0
 11
73.517763
 21
255.000246
 31
0.0
  0
LINE
  5
187
100
AcDbEntity
  8
Layer_1
 62
7
100
AcDbLine
 10
73.517763
 20
255.000246
 30
0.0
 11
69.617741
 21
261.754873
 31
0.0
  0
LINE
  5
188
100
AcDbEntity
  8
Layer_1
 62
7
100
AcDbLine
 10
138.899749
 20
268.244974
 30
0.0
 11
131.099895
 21
268.244916
 31
0.0
  0
LINE
  5
189
100
AcDbEntity
  8
Layer_1
 62
7
100
AcDbLine
 10
131.099895
 20
268.244916
 30
0.0
 11
127.200013
 21
274.999711
 31
0.0
  0
LINE
  5
18a
100
AcDbEntity
  8
Layer_1
 62
7
100
AcDbLine
 10
127.200013
 20
274.999711
 30
0.0
 11
131.099984
 21
281.754562
 31
0.0
  0
LINE
  5
18b
100
AcDbEntity
  8
Layer_1
 62
7
100
AcDbLine
 10
131.099984
 20
281.754562
 30
0.0
 11
138.899843
 21
281.754611
 31
0.0
  0
LINE
  5
18c
100
AcDbEntity
  8
Layer_1
 62
7
100
AcDbLine
 10
138.899843
 20
281.754611
 30
0.0
 11
142.799725
 21
274.999816
 31
0.0
  0
LINE
  5
18d
100
AcDbEntity
  8
Layer_1
 62
7
100
AcDbLine
 10
142.799725
 20
274.999816
 30
0.0
 11
138.899749
 21
268.244974
 31
0.0
  0
LINE
  5
18e
100
AcDbEntity
  8
Layer_1
 62
7
100
AcDbLine
 10
156.220139
 20
278.245185
 30
0.0
 11
148.420254
 21
278.245182
 31
0.0
  0
LINE
  5
18f
100
AcDbEntity
  8
Layer_1
 62
7
100
AcDbLine
 10
148.420254
 20
278.245182
 30
0.0
 11
144.520309
 21
285.000085
 31
0.0
  0
LINE
  5
190
100
AcDbEntity
  8
Layer_1
 62
7
100
AcDbLine
 10
144.520309
 20
285.000085
 30
0.0
 11
148.420249
 21
291.754991
 31
0.0
  0
LINE
  5
191
100
AcDbEntity
  8
Layer_1
 62
7
100
AcDbLine
 10
148.420249
 20
291.754991
 30
0.0
 11
156.220139
 21
291.754985
 31
0.0
  0
LINE
  5
192
100
AcDbEntity
  8
Layer_1
 62
7
100
AcDbLine
 10
156.220139
 20
291.754985
 30
0.0
 11
160.120084
 21
285.000082
 31
0.0
  0
LINE
  5
193
100
AcDbEntity
  8
Layer_1
 62
7
100
AcDbLine
 10
160.120084
 20
285.000082
 30
0.0
 11
156.220139
 21
278.245185
 31
0.0
  0
LINE
  5
194
100
AcDbEntity
  8
Layer_1
 62
7
100
AcDbLine
 10
121.579219
 20
258.244964
 30
0.0
 11
113.779365
 21
258.244906
 31
0.0
  0
LINE
  5
195
100
AcDbEntity
  8
Layer_1
 62
7
100
AcDbLine
 10
113.779365
 20
258.244906
 30
0.0
 11
109.879483
 21
264.999701
 31
0.0
  0
LINE
  5
196
100
AcDbEntity
  8
Layer_1
 62
7
100
AcDbLine
 10
109.879483
 20
264.999701
 30
0.0
 11
113.779454
 21
271.754552
 31
0.0
  0
LINE
  5
197
100
AcDbEntity
  8
Layer_1
 62
7
100
AcDbLine
 10
113.779454
 20
271.754552
 30
0.0
 11
121.579313
 21
271.754601
 31
0.0
  0
LINE
  5
198
100
AcDbEntity
  8
Layer_1
 62
7
100
AcDbLine
 10
121.579313
 20
271.754601
 30
0.0
 11
125.479195
 21
264.999806
 31
0.0
  0
LINE
  5
199
100
AcDbEntity
  8
Layer_1
 62
7
100
AcDbLine
 10
125.479195
 20
264.999806
 30
0.0
 11
121.579219
 21
258.244964
 31
0.0
  0
LINE
  5
19a
100
AcDbEntity
  8
Layer_1
 62
7
100
AcDbLine
 10
173.540648
 20
288.245185
 30
0.0
 11
165.740763
 21
288.245182
 31
0.0
  0
LINE
  5
19b
100
AcDbEntity
  8
Layer_1
 62
7
100
AcDbLine
 10
165.740763
 20
288.245182
 30
0.0
 11
161.840818
 21
295.000085
 31
0.0
  0
LINE
  5
19c
100
AcDbEntity
  8
Layer_1
 62
7
100
AcDbLine
 10
161.840818
 20
295.000085
 30
0.0
 11
165.740758
 21
301.754991
 31
0.0
  0
LINE
  5
19d
100
AcDbEntity
  8
Layer_1
 62
7
100
AcDbLine
 10
165.740758
 20
301.754991
 30
0.0
 11
173.540648
 21
301.754985
 31
0.0
  0
LINE
  5
19e
100
AcDbEntity
  8
Layer_1
 62
7
100
AcDbLine
 10
173.540648
 20
301.754985
 30
0.0
 11
177.440593
 21
295.000082
 31
0.0
  0
LINE
  5
19f
100
AcDbEntity
  8
Layer_1
 62
7
100
AcDbLine
 10
177.440593
 20
295.000082
 30
0.0
 11
173.540648
 21
288.245185
 31
0.0
  0
LINE
  5
1a0
100
AcDbEntity
  8
Layer_1
 62
7
100
AcDbLine
 10
190.861156
 20
298.245185
 30
0.0
 11
183.061271
 21
298.245182
 31
0.0
  0
LINE
  5
1a1
100
AcDbEntity
  8
Layer_1
 62
7
100
AcDbLine
 10
183.061271
 20
298.245182
 30
0.0
 11
179.161326
 21
305.000085
 31
0.0
  0
LINE
  5
1a2
100
AcDbEntity
  8
Layer_1
 62
7
100
AcDbLine
 10
179.161326
 20
305.000085
 30
0.0
 11
183.061266
 21
311.754991
 31
0.0
  0
LINE
  5
1a3
100
AcDbEntity
  8
Layer_1
 62
7
100
AcDbLine
 10
183.061266
 20
311.754991
 30
0.0
 11
190.861156
 21
311.754985
 31
0.0
  0
LINE
  5
1a4
100
AcDbEntity
  8
Layer_1
 62
7
100
AcDbLine
 10
190.861156
 20
311.754985
 30
0.0
 11
194.761101
 21
305.000082
 31
0.0
  0
LINE
  5
1a5
100
AcDbEntity
  8
Layer_1
 62
7
100
AcDbLine
 10
194.761101
 20
305.000082
 30
0.0
 11
190.861156
 21
298.245185
 31
0.0
  0
LINE
  5
1a6
100
AcDbEntity
  8
Layer_1
 62
7
100
AcDbLine
 10
208.181681
 20
308.245195
 30
0.0
 11
200.381787
 21
308.245187
 31
0.0
  0
LINE
  5
1a7
100
AcDbEntity
  8
Layer_1
 62
7
100
AcDbLine
 10
200.381787
 20
308.245187
 30
0.0
 11
196.481842
 21
315.000090
 31
0.0
  0
LINE
  5
1a8
100
AcDbEntity
  8
Layer_1
 62
7
100
AcDbLine
 10
196.481842
 20
315.000090
 30
0.0
 11
200.381791
 21
321.755001
 31
0.0
  0
LINE
  5
1a9
100
AcDbEntity
  8
Layer_1
 62
7
100
AcDbLine
 10
200.381791
 20
321.755001
 30
0.0
 11
208.181681
 21
321.754995
 31
0.0
  0
LINE
  5
1aa
100
AcDbEntity
  8
Layer_1
 62
7
100
AcDbLine
 10
208.181681
 20
321.754995
 30
0.0
 11
212.081626
 21
315.000092
 31
0.0
  0
LINE
  5
1ab
100
AcDbEntity
  8
Layer_1
 62
7
100
AcDbLine
 10
212.081626
 20
315.000092
 30
0.0
 11
208.181681
 21
308.245195
 31
0.0
  0
LINE
  5
1ac
100
AcDbEntity
  8
Layer_1
 62
7
100
AcDbLine
 10
225.502189
 20
318.245195
 30
0.0
 11
217.702295
 21
318.245187
 31
0.0
  0
LINE
  5
1ad
100
AcDbEntity
  8
Layer_1
 62
7
100
AcDbLine
 10
217.702295
 20
318.245187
 30
0.0
 11
213.802350
 21
325.000090
 31
0.0
  0
LINE
  5
1ae
100
AcDbEntity
  8
Layer_1
 62
7
100
AcDbLine
 10
213.802350
 20
325.000090
 30
0.0
 11
217.702299
 21
331.755001
 31
0.0
  0
LINE
  5
1af
100
AcDbEntity
  8
Layer_1
 62
7
100
AcDbLine
 10
217.702299
 20
331.755001
 30
0.0
 11
225.502189
 21
331.754995
 31
0.0
  0
LINE
  5
1b0
100
AcDbEntity
  8
Layer_1
 62
7
100
AcDbLine
 10
225.502189
 20
331.754995
 30
0.0
 11
229.402134
 21
325.000092
 31
0.0
  0
LINE
  5
1b1
100
AcDbEntity
  8
Layer_1
 62
7
100
AcDbLine
 10
229.402134
 20
325.000092
 30
0.0
 11
225.502189
 21
318.245195
 31
0.0
  0
LINE
  5
1b2
100
AcDbEntity
  8
Layer_1
 62
7
100
AcDbLine
 10
104.258729
 20
248.244984
 30
0.0
 11
96.458875
 21
248.244926
 31
0.0
  0
LINE
  5
1b3
100
AcDbEntity
  8
Layer_1
 62
7
100
AcDbLine
 10
96.458875
 20
248.244926
 30
0.0
 11
92.558993
 21
254.999721
 31
0.0
  0
LINE
  5
1b4
100
AcDbEntity
  8
Layer_1
 62
7
100
AcDbLine
 10
92.558993
 20
254.999721
 30
0.0
 11
96.458964
 21
261.754572
 31
0.0
  0
LINE
  5
1b5
100
AcDbEntity
  8
Layer_1
 62
7
100
AcDbLine
 10
96.458964
 20
261.754572
 30
0.0
 11
104.258823
 21
261.754621
 31
0.0
  0
LINE
  5
1b6
100
AcDbEntity
  8
Layer_1
 62
7
100
AcDbLine
 10
104.258823
 20
261.754621
 30
0.0
 11
108.158705
 21
254.999826
 31
0.0
  0
LINE
  5
1b7
100
AcDbEntity
  8
Layer_1
 62
7
100
AcDbLine
 10
108.158705
 20
254.999826
 30
0.0
 11
104.258729
 21
248.244984
 31
0.0
  0
LINE
  5
1b8
100
AcDbEntity
  8
Layer_1
 62
7
100
AcDbLine
 10
86.938229
 20
238.244984
 30
0.0
 11
79.138375
 21
238.244926
 31
0.0
  0
LINE
  5
1b9
100
AcDbEntity
  8
Layer_1
 62
7
100
AcDbLine
 10
79.138375
 20
238.244926
 30
0.0
 11
75.238493
 21
244.999721
 31
0.0
  0
LINE
  5
1ba
100
AcDbEntity
  8
Layer_1
 62
7
100
AcDbLine
 10
75.238493
 20
244.999721
 30
0.0
 11
79.138464
 21
251.754572
 31
0.0
  0
LINE
  5
1bb
100
AcDbEntity
  8
Layer_1
 62
7
100
AcDbLine
 10
79.138464
 20
251.754572
 30
0.0
 11
86.938323
 21
251.754621
 31
0.0
  0
LINE
  5
1bc
100
AcDbEntity
  8
Layer_1
 62
7
100
AcDbLine
 10
86.938323
 20
251.754621
 30
0.0
 11
90.838205
 21
244.999826
 31
0.0
  0
LINE
  5
1bd
100
AcDbEntity
  8
Layer_1
 62
7
100
AcDbLine
 10
90.838205
 20
244.999826
 30
0.0
 11
86.938229
 21
238.244984
 31
0.0
  0
LINE
  5
1be
100
AcDbEntity
  8
Layer_1
 62
7
100
AcDbLine
 10
138.899749
 20
248.244976
 30
0.0
 11
131.099895
 21
248.244918
 31
0.0
  0
LINE
  5
1bf
100
AcDbEntity
  8
Layer_1
 62
7
100
AcDbLine
 10
131.099895
 20
248.244918
 30
0.0
 11
127.200013
 21
254.999713
 31
0.0
  0
LINE
  5
1c0
100
AcDbEntity
  8
Layer_1
 62
7
100
AcDbLine
 10
127.200013
 20
254.999713
 30
0.0
 11
131.099984
 21
261.754564
 31
0.0
  0
LINE
  5
1c1
100
AcDbEntity
  8
Layer_1
 62
7
100
AcDbLine
 10
131.099984
 20
261.754564
 30
0.0
 11
138.899843
 21
261.754613
 31
0.0
  0
LINE
  5
1c2
100
AcDbEntity
  8
Layer_1
 62
7
100
AcDbLine
 10
138.899843
 20
261.754613
 30
0.0
 11
142.799725
 21
254.999818
 31
0.0
  0
LINE
  5
1c3
100
AcDbEntity
  8
Layer_1
 62
7
100
AcDbLine
 10
142.799725
 20
254.999818
 30
0.0
 11
138.899749
 21
248.244976
 31
0.0
  0
LINE
  5
1c4
100
AcDbEntity
  8
Layer_1
 62
7
100
AcDbLine
 10
156.220138
 20
258.245183
 30
0.0
 11
148.420253
 21
258.245180
 31
0.0
  0
LINE
  5
1c5
100
AcDbEntity
  8
Layer_1
 62
7
100
AcDbLine
 10
148.420253
 20
258.245180
 30
0.0
 11
144.520308
 21
265.000083
 31
0.0
  0
LINE
  5
1c6
100
AcDbEntity
  8
Layer_1
 62
7
100
AcDbLine
 10
144.520308
 20
265.000083
 30
0.0
 11
148.420248
 21
271.754989
 31
0.0
  0
LINE
  5
1c7
100
AcDbEntity
  8
Layer_1
 62
7
100
AcDbLine
 10
148.420248
 20
271.754989
 30
0.0
 11
156.220138
 21
271.754983
 31
0.0
  0
LINE
  5
1c8
100
AcDbEntity
  8
Layer_1
 62
7
100
AcDbLine
 10
156.220138
 20
271.754983
 30
0.0
 11
160.120083
 21
265.000080
 31
0.0
  0
LINE
  5
1c9
100
AcDbEntity
  8
Layer_1
 62
7
100
AcDbLine
 10
160.120083
 20
265.000080
 30
0.0
 11
156.220138
 21
258.245183
 31
0.0
  0
LINE
  5
1ca
100
AcDbEntity
  8
Layer_1
 62
7
100
AcDbLine
 10
121.579219
 20
238.244966
 30
0.0
 11
113.779365
 21
238.244908
 31
0.0
  0
LINE
  5
1cb
100
AcDbEntity
  8
Layer_1
 62
7
100
AcDbLine
 10
113.779365
 20
238.244908
 30
0.0
 11
109.879483
 21
244.999703
 31
0.0
  0
LINE
  5
1cc
100
AcDbEntity
  8
Layer_1
 62
7
100
AcDbLine
 10
109.879483
 20
244.999703
 30
0.0
 11
113.779454
 21
251.754554
 31
0.0
  0
LINE
  5
1cd
100
AcDbEntity
  8
Layer_1
 62
7
100
AcDbLine
 10
113.779454
 20
251.754554
 30
0.0
 11
121.579313
 21
251.754603
 31
0.0
  0
LINE
  5
1ce
100
AcDbEntity
  8
Layer_1
 62
7
100
AcDbLine
 10
121.579313
 20
251.754603
 30
0.0
 11
125.479195
 21
244.999808
 31
0.0
  0
LINE
  5
1cf
100
AcDbEntity
  8
Layer_1
 62
7
100
AcDbLine
 10
125.479195
 20
244.999808
 30
0.0
 11
121.579219
 21
238.244966
 31
0.0
  0
LINE
  5
1d0
100
AcDbEntity
  8
Layer_1
 62
7
100
AcDbLine
 10
173.540647
 20
268.245183
 30
0.0
 11
165.740762
 21
268.245180
 31
0.0
  0
LINE
  5
1d1
100
AcDbEntity
  8
Layer_1
 62
7
100
AcDbLine
 10
165.740762
 20
268.245180
 30
0.0
 11
161.840817
 21
275.000083
 31
0.0
  0
LINE
  5
1d2
100
AcDbEntity
  8
Layer_1
 62
7
100
AcDbLine
 10
161.840817
 20
275.000083
 30
0.0
 11
165.740757
 21
281.754989
 31
0.0
  0
LINE
  5
1d3
100
AcDbEntity
  8
Layer_1
 62
7
100
AcDbLine
 10
165.740757
 20
281.754989
 30
0.0
 11
173.540647
 21
281.754983
 31
0.0
  0
LINE
  5
1d4
100
AcDbEntity
  8
Layer_1
 62
7
100
AcDbLine
 10
173.540647
 20
281.754983
 30
0.0
 11
177.440592
 21
275.000080
 31
0.0
  0
LINE
  5
1d5
100
AcDbEntity
  8
Layer_1
 62
7
100
AcDbLine
 10
177.440592
 20
275.000080
 30
0.0
 11
173.540647
 21
268.245183
 31
0.0
  0
LINE
  5
1d6
100
AcDbEntity
  8
Layer_1
 62
7
100
AcDbLine
 10
190.861155
 20
278.245183
 30
0.0
 11
183.061270
 21
278.245180
 31
0.0
  0
LINE
  5
1d7
100
AcDbEntity
  8
Layer_1
 62
7
100
AcDbLine
 10
183.061270
 20
278.245180
 30
0.0
 11
179.161325
 21
285.000083
 31
0.0
  0
LINE
  5
1d8
100
AcDbEntity
  8
Layer_1
 62
7
100
AcDbLine
 10
179.161325
 20
285.000083
 30
0.0
 11
183.061265
 21
291.754989
 31
0.0
  0
LINE
  5
1d9
100
AcDbEntity
  8
Layer_1
 62
7
100
AcDbLine
 10
183.061265
 20
291.754989
 30
0.0
 11
190.861155
 21
291.754983
 31
0.0
  0
LINE
  5
1da
100
AcDbEntity
  8
Layer_1
 62
7
100
AcDbLine
 10
190.861155
 20
291.754983
 30
0.0
 11
194.761100
 21
285.000080
 31
0.0
  0
LINE
  5
1db
100
AcDbEntity
  8
Layer_1
 62
7
100
AcDbLine
 10
194.761100
 20
285.000080
 30
0.0
 11
190.861155
 21
278.245183
 31
0.0
  0
LINE
  5
1dc
100
AcDbEntity
  8
Layer_1
 62
7
100
AcDbLine
 10
208.181680
 20
288.245193
 30
0.0
 11
200.381786
 21
288.245185
 31
0.0
  0
LINE
  5
1dd
100
AcDbEntity
  8
Layer_1
 62
7
100
AcDbLine
 10
200.381786
 20
288.245185
 30
0.0
 11
196.481841
 21
295.000088
 31
0.0
  0
LINE
  5
1de
100
AcDbEntity
  8
Layer_1
 62
7
100
AcDbLine
 10
196.481841
 20
295.000088
 30
0.0
 11
200.381790
 21
301.754999
 31
0.0
  0
LINE
  5
1df
100
AcDbEntity
  8
Layer_1
 62
7
100
AcDbLine
 10
200.381790
 20
301.754999
 30
0.0
 11
208.181680
 21
301.754993
 31
0.0
  0
LINE
  5
1e0
100
AcDbEntity
  8
Layer_1
 62
7
100
AcDbLine
 10
208.181680
 20
301.754993
 30
0.0
 11
212.081625
 21
295.000090
 31
0.0
  0
LINE
  5
1e1
100
AcDbEntity
  8
Layer_1
 62
7
100
AcDbLine
 10
212.081625
 20
295.000090
 30
0.0
 11
208.181680
 21
288.245193
 31
0.0
  0
LINE
  5
1e2
100
AcDbEntity
  8
Layer_1
 62
7
100
AcDbLine
 10
225.502188
 20
298.245193
 30
0.0
 11
217.702294
 21
298.245185
 31
0.0
  0
LINE
  5
1e3
100
AcDbEntity
  8
Layer_1
 62
7
100
AcDbLine
 10
217.702294
 20
298.245185
 30
0.0
 11
213.802349
 21
305.000088
 31
0.0
  0
LINE
  5
1e4
100
AcDbEntity
  8
Layer_1
 62
7
100
AcDbLine
 10
213.802349
 20
305.000088
 30
0.0
 11
217.702298
 21
311.754999
 31
0.0
  0
LINE
  5
1e5
100
AcDbEntity
  8
Layer_1
 62
7
100
AcDbLine
 10
217.702298
 20
311.754999
 30
0.0
 11
225.502188
 21
311.754993
 31
0.0
  0
LINE
  5
1e6
100
AcDbEntity
  8
Layer_1
 62
7
100
AcDbLine
 10
225.502188
 20
311.754993
 30
0.0
 11
229.402133
 21
305.000090
 31
0.0
  0
LINE
  5
1e7
100
AcDbEntity
  8
Layer_1
 62
7
100
AcDbLine
 10
229.402133
 20
305.000090
 30
0.0
 11
225.502188
 21
298.245193
 31
0.0
  0
LINE
  5
1e8
100
AcDbEntity
  8
Layer_1
 62
7
100
AcDbLine
 10
104.258729
 20
228.244986
 30
0.0
 11
96.458875
 21
228.244928
 31
0.0
  0
LINE
  5
1e9
100
AcDbEntity
  8
Layer_1
 62
7
100
AcDbLine
 10
96.458875
 20
228.244928
 30
0.0
 11
92.558993
 21
234.999723
 31
0.0
  0
LINE
  5
1ea
100
AcDbEntity
  8
Layer_1
 62
7
100
AcDbLine
 10
92.558993
 20
234.999723
 30
0.0
 11
96.458964
 21
241.754574
 31
0.0
  0
LINE
  5
1eb
100
AcDbEntity
  8
Layer_1
 62
7
100
AcDbLine
 10
96.458964
 20
241.754574
 30
0.0
 11
104.258823
 21
241.754623
 31
0.0
  0
LINE
  5
1ec
100
AcDbEntity
  8
Layer_1
 62
7
100
AcDbLine
 10
104.258823
 20
241.754623
 30
0.0
 11
108.158705
 21
234.999828
 31
0.0
  0
LINE
  5
1ed
100
AcDbEntity
  8
Layer_1
 62
7
100
AcDbLine
 10
108.158705
 20
234.999828
 30
0.0
 11
104.258729
 21
228.244986
 31
0.0
  0
LINE
  5
1ee
100
AcDbEntity
  8
Layer_1
 62
7
100
AcDbLine
 10
138.899749
 20
228.244978
 30
0.0
 11
131.099895
 21
228.244920
 31
0.0
  0
LINE
  5
1ef
100
AcDbEntity
  8
Layer_1
 62
7
100
AcDbLine
 10
131.099895
 20
228.244920
 30
0.0
 11
127.200013
 21
234.999715
 31
0.0
  0
LINE
  5
1f0
100
AcDbEntity
  8
Layer_1
 62
7
100
AcDbLine
 10
127.200013
 20
234.999715
 30
0.0
 11
131.099984
 21
241.754566
 31
0.0
  0
LINE
  5
1f1
100
AcDbEntity
  8
Layer_1
 62
7
100
AcDbLine
 10
131.099984
 20
241.754566
 30
0.0
 11
138.899843
 21
241.754615
 31
0.0
  0
LINE
  5
1f2
100
AcDbEntity
  8
Layer_1
 62
7
100
AcDbLine
 10
138.899843
 20
241.754615
 30
0.0
 11
142.799725
 21
234.999820
 31
0.0
  0
LINE
  5
1f3
100
AcDbEntity
  8
Layer_1
 62
7
100
AcDbLine
 10
142.799725
 20
234.999820
 30
0.0
 11
138.899749
 21
228.244978
 31
0.0
  0
LINE
  5
1f4
100
AcDbEntity
  8
Layer_1
 62
7
100
AcDbLine
 10
156.220143
 20
238.245190
 30
0.0
 11
148.420258
 21
238.245187
 31
0.0
  0
LINE
  5
1f5
100
AcDbEntity
  8
Layer_1
 62
7
100
AcDbLine
 10
148.420258
 20
238.245187
 30
0.0
 11
144.520313
 21
245.000090
 31
0.0
  0
LINE
  5
1f6
100
AcDbEntity
  8
Layer_1
 62
7
100
AcDbLine
 10
144.520313
 20
245.000090
 30
0.0
 11
148.420253
 21
251.754996
 31
0.0
  0
LINE
  5
1f7
100
AcDbEntity
  8
Layer_1
 62
7
100
AcDbLine
 10
148.420253
 20
251.754996
 30
0.0
 11
156.220143
 21
251.754990
 31
0.0
  0
LINE
  5
1f8
100
AcDbEntity
  8
Layer_1
 62
7
100
AcDbLine
 10
156.220143
 20
251.754990
 30
0.0
 11
160.120088
 21
245.000087
 31
0.0
  0
LINE
  5
1f9
100
AcDbEntity
  8
Layer_1
 62
7
100
AcDbLine
 10
160.120088
 20
245.000087
 30
0.0
 11
156.220143
 21
238.245190
 31
0.0
  0
LINE
  5
1fa
100
AcDbEntity
  8
Layer_1
 62
7
100
AcDbLine
 10
113.779392
 20
231.754642
 30
0.0
 11
109.879355
 21
224.999486
 31
0.0
  0
LINE
  5
1fb
100
AcDbEntity
  8
Layer_1
 62
7
100
AcDbLine
 10
109.879355
 20
224.999486
 30
0.0
 11
110.949065
 21
223.146371
 31
0.0
  0
SPLINE
  5
1fc
100
AcDbEntity
  8
Layer_1
 62
7
100
AcDbSpline
 70
8
 71
3
 72
8
 73
4
 74
0
 40
0
 40
0
 40
0
 40
0
 40
1
 40
1
 40
1
 40
1
 10
110.949065
 20
223.146371
 30
0.0
 10
114.930153
 20
222.104148
 30
0.0
 10
118.974786
 20
221.321845
 30
0.0
 10
123.057377
 20
220.804411
 30
0.0
  0
LINE
  5
1fd
100
AcDbEntity
  8
Layer_1
 62
7
100
AcDbLine
 10
123.057377
 20
220.804411
 30
0.0
 11
125.479452
 21
225.000015
 31
0.0
  0
LINE
  5
1fe
100
AcDbEntity
  8
Layer_1
 62
7
100
AcDbLine
 10
125.479452
 20
225.000015
 30
0.0
 11
121.579415
 21
231.754642
 31
0.0
  0
LINE
  5
1ff
100
AcDbEntity
  8
Layer_1
 62
7
100
AcDbLine
 10
121.579415
 20
231.754642
 30
0.0
 11
113.779392
 21
231.754642
 31
0.0
  0
LINE
  5
200
100
AcDbEntity
  8
Layer_1
 62
7
100
AcDbLine
 10
173.540651
 20
248.245190
 30
0.0
 11
165.740766
 21
248.245187
 31
0.0
  0
LINE
  5
201
100
AcDbEntity
  8
Layer_1
 62
7
100
AcDbLine
 10
165.740766
 20
248.245187
 30
0.0
 11
161.840821
 21
255.000090
 31
0.0
  0
LINE
  5
202
100
AcDbEntity
  8
Layer_1
 62
7
100
AcDbLine
 10
161.840821
 20
255.000090
 30
0.0
 11
165.740761
 21
261.754996
 31
0.0
  0
LINE
  5
203
100
AcDbEntity
  8
Layer_1
 62
7
100
AcDbLine
 10
165.740761
 20
261.754996
 30
0.0
 11
173.540651
 21
261.754990
 31
0.0
  0
LINE
  5
204
100
AcDbEntity
  8
Layer_1
 62
7
100
AcDbLine
 10
173.540651
 20
261.754990
 30
0.0
 11
177.440596
 21
255.000087
 31
0.0
  0
LINE
  5
205
100
AcDbEntity
  8
Layer_1
 62
7
100
AcDbLine
 10
177.440596
 20
255.000087
 30
0.0
 11
173.540651
 21
248.245190
 31
0.0
  0
LINE
  5
206
100
AcDbEntity
  8
Layer_1
 62
7
100
AcDbLine
 10
190.861159
 20
258.245190
 30
0.0
 11
183.061274
 21
258.245187
 31
0.0
  0
LINE
  5
207
100
AcDbEntity
  8
Layer_1
 62
7
100
AcDbLine
 10
183.061274
 20
258.245187
 30
0.0
 11
179.161329
 21
265.000090
 31
0.0
  0
LINE
  5
208
100
AcDbEntity
  8
Layer_1
 62
7
100
AcDbLine
 10
179.161329
 20
265.000090
 30
0.0
 11
183.061269
 21
271.754996
 31
0.0
  0
LINE
  5
209
100
AcDbEntity
  8
Layer_1
 62
7
100
AcDbLine
 10
183.061269
 20
271.754996
 30
0.0
 11
190.861159
 21
271.754990
 31
0.0
  0
LINE
  5
20a
100
AcDbEntity
  8
Layer_1
 62
7
100
AcDbLine
 10
190.861159
 20
271.754990
 30
0.0
 11
194.761104
 21
265.000087
 31
0.0
  0
LINE
  5
20b
100
AcDbEntity
  8
Layer_1
 62
7
100
AcDbLine
 10
194.761104
 20
265.000087
 30
0.0
 11
190.861159
 21
258.245190
 31
0.0
  0
LINE
  5
20c
100
AcDbEntity
  8
Layer_1
 62
7
100
AcDbLine
 10
208.181684
 20
268.245200
 30
0.0
 11
200.381790
 21
268.245192
 31
0.0
  0
LINE
  5
20d
100
AcDbEntity
  8
Layer_1
 62
7
100
AcDbLine
 10
200.381790
 20
268.245192
 30
0.0
 11
196.481845
 21
275.000095
 31
0.0
  0
LINE
  5
20e
100
AcDbEntity
  8
Layer_1
 62
7
100
AcDbLine
 10
196.481845
 20
275.000095
 30
0.0
 11
200.381794
 21
281.755006
 31
0.0
  0
LINE
  5
20f
100
AcDbEntity
  8
Layer_1
 62
7
100
AcDbLine
 10
200.381794
 20
281.755006
 30
0.0
 11
208.181684
 21
281.755000
 31
0.0
  0
LINE
  5
210
100
AcDbEntity
  8
Layer_1
 62
7
100
AcDbLine
 10
208.181684
 20
281.755000
 30
0.0
 11
212.081629
 21
275.000097
 31
0.0
  0
LINE
  5
211
100
AcDbEntity
  8
Layer_1
 62
7
100
AcDbLine
 10
212.081629
 20
275.000097
 30
0.0
 11
208.181684
 21
268.245200
 31
0.0
  0
LINE
  5
212
100
AcDbEntity
  8
Layer_1
 62
7
100
AcDbLine
 10
217.702248
 20
291.755104
 30
0.0
 11
213.802210
 21
284.999974
 31
0.0
  0
LINE
  5
213
100
AcDbEntity
  8
Layer_1
 62
7
100
AcDbLine
 10
213.802210
 20
284.999974
 30
0.0
 11
217.702248
 21
278.245346
 31
0.0
  0
LINE
  5
214
100
AcDbEntity
  8
Layer_1
 62
7
100
AcDbLine
 10
217.702248
 20
278.245346
 30
0.0
 11
222.547430
 21
278.245346
 31
0.0
  0
SPLINE
  5
215
100
AcDbEntity
  8
Layer_1
 62
7
100
AcDbSpline
 70
8
 71
3
 72
8
 73
4
 74
0
 40
0
 40
0
 40
0
 40
0
 40
1
 40
1
 40
1
 40
1
 10
222.547430
 20
278.245346
 30
0.0
 10
224.140277
 20
282.039404
 30
0.0
 10
225.484805
 20
285.932993
 30
0.0
 10
226.572510
 20
289.901486
 30
0.0
  0
LINE
  5
216
100
AcDbEntity
  8
Layer_1
 62
7
100
AcDbLine
 10
226.572510
 20
289.901486
 30
0.0
 11
225.502270
 21
291.755104
 31
0.0
  0
LINE
  5
217
100
AcDbEntity
  8
Layer_1
 62
7
100
AcDbLine
 10
225.502270
 20
291.755104
 30
0.0
 11
217.702248
 21
291.755104
 31
0.0
  0
LINE
  5
218
100
AcDbEntity
  8
Layer_1
 62
7
100
AcDbLine
 10
131.099784
 20
221.754742
 30
0.0
 11
130.186125
 21
220.172401
 31
0.0
  0
SPLINE
  5
219
100
AcDbEntity
  8
Layer_1
 62
7
100
AcDbSpline
 70
8
 71
3
 72
8
 73
4
 74
0
 40
0
 40
0
 40
0
 40
0
 40
1
 40
1
 40
1
 40
1
 10
130.186125
 20
220.172401
 30
0.0
 10
131.789389
 20
220.090890
 30
0.0
 10
133.394462
 20
220.050051
 30
0.0
 10
134.999796
 20
220.049925
 30
0.0
  0
SPLINE
  5
21a
100
AcDbEntity
  8
Layer_1
 62
7
100
AcDbSpline
 70
8
 71
3
 72
8
 73
4
 74
0
 40
0
 40
0
 40
0
 40
0
 40
1
 40
1
 40
1
 40
1
 10
134.999796
 20
220.049925
 30
0.0
 10
136.605130
 20
220.050051
 30
0.0
 10
138.210203
 20
220.090890
 30
0.0
 10
139.813466
 20
220.172401
 30
0.0
  0
LINE
  5
21b
100
AcDbEntity
  8
Layer_1
 62
7
100
AcDbLine
 10
139.813466
 20
220.172401
 30
0.0
 11
138.899807
 21
221.754742
 31
0.0
  0
LINE
  5
21c
100
AcDbEntity
  8
Layer_1
 62
7
100
AcDbLine
 10
138.899807
 20
221.754742
 30
0.0
 11
131.099784
 21
221.754742
 31
0.0
  0
LINE
  5
21d
100
AcDbEntity
  8
Layer_1
 62
7
100
AcDbLine
 10
148.420177
 20
231.755145
 30
0.0
 11
144.520139
 21
225.000015
 31
0.0
  0
LINE
  5
21e
100
AcDbEntity
  8
Layer_1
 62
7
100
AcDbLine
 10
144.520139
 20
225.000015
 30
0.0
 11
146.942743
 21
220.804411
 31
0.0
  0
SPLINE
  5
21f
100
AcDbEntity
  8
Layer_1
 62
7
100
AcDbSpline
 70
8
 71
3
 72
8
 73
4
 74
0
 40
0
 40
0
 40
0
 40
0
 40
1
 40
1
 40
1
 40
1
 10
146.942743
 20
220.804411
 30
0.0
 10
151.024978
 20
221.321890
 30
0.0
 10
155.069257
 20
222.104193
 30
0.0
 10
159.049997
 20
223.146371
 30
0.0
  0
LINE
  5
220
100
AcDbEntity
  8
Layer_1
 62
7
100
AcDbLine
 10
159.049997
 20
223.146371
 30
0.0
 11
160.120237
 21
225.000015
 31
0.0
  0
LINE
  5
221
100
AcDbEntity
  8
Layer_1
 62
7
100
AcDbLine
 10
160.120237
 20
225.000015
 30
0.0
 11
156.220199
 21
231.755145
 31
0.0
  0
LINE
  5
222
100
AcDbEntity
  8
Layer_1
 62
7
100
AcDbLine
 10
156.220199
 20
231.755145
 30
0.0
 11
148.420177
 21
231.755145
 31
0.0
  0
LINE
  5
223
100
AcDbEntity
  8
Layer_1
 62
7
100
AcDbLine
 10
173.540641
 20
228.245193
 30
0.0
 11
165.740756
 21
228.245191
 31
0.0
  0
LINE
  5
224
100
AcDbEntity
  8
Layer_1
 62
7
100
AcDbLine
 10
165.740756
 20
228.245191
 30
0.0
 11
161.840811
 21
235.000093
 31
0.0
  0
LINE
  5
225
100
AcDbEntity
  8
Layer_1
 62
7
100
AcDbLine
 10
161.840811
 20
235.000093
 30
0.0
 11
165.740751
 21
241.754999
 31
0.0
  0
LINE
  5
226
100
AcDbEntity
  8
Layer_1
 62
7
100
AcDbLine
 10
165.740751
 20
241.754999
 30
0.0
 11
173.540641
 21
241.754993
 31
0.0
  0
LINE
  5
227
100
AcDbEntity
  8
Layer_1
 62
7
100
AcDbLine
 10
173.540641
 20
241.754993
 30
0.0
 11
177.440586
 21
235.000091
 31
0.0
  0
LINE
  5
228
100
AcDbEntity
  8
Layer_1
 62
7
100
AcDbLine
 10
177.440586
 20
235.000091
 30
0.0
 11
173.540641
 21
228.245193
 31
0.0
  0
LINE
  5
229
100
AcDbEntity
  8
Layer_1
 62
7
100
AcDbLine
 10
190.861149
 20
238.245193
 30
0.0
 11
183.061264
 21
238.245191
 31
0.0
  0
LINE
  5
22a
100
AcDbEntity
  8
Layer_1
 62
7
100
AcDbLine
 10
183.061264
 20
238.245191
 30
0.0
 11
179.161319
 21
245.000093
 31
0.0
  0
LINE
  5
22b
100
AcDbEntity
  8
Layer_1
 62
7
100
AcDbLine
 10
179.161319
 20
245.000093
 30
0.0
 11
183.061259
 21
251.754999
 31
0.0
  0
LINE
  5
22c
100
AcDbEntity
  8
Layer_1
 62
7
100
AcDbLine
 10
183.061259
 20
251.754999
 30
0.0
 11
190.861149
 21
251.754993
 31
0.0
  0
LINE
  5
22d
100
AcDbEntity
  8
Layer_1
 62
7
100
AcDbLine
 10
190.861149
 20
251.754993
 30
0.0
 11
194.761094
 21
245.000091
 31
0.0
  0
LINE
  5
22e
100
AcDbEntity
  8
Layer_1
 62
7
100
AcDbLine
 10
194.761094
 20
245.000091
 30
0.0
 11
190.861149
 21
238.245193
 31
0.0
  0
LINE
  5
22f
100
AcDbEntity
  8
Layer_1
 62
7
100
AcDbLine
 10
200.381855
 20
261.754873
 30
0.0
 11
196.481844
 21
255.000246
 31
0.0
  0
LINE
  5
230
100
AcDbEntity
  8
Layer_1
 62
7
100
AcDbLine
 10
196.481844
 20
255.000246
 30
0.0
 11
200.381855
 21
248.245116
 31
0.0
  0
LINE
  5
231
100
AcDbEntity
  8
Layer_1
 62
7
100
AcDbLine
 10
200.381855
 20
248.245116
 30
0.0
 11
202.522282
 21
248.245116
 31
0.0
  0
SPLINE
  5
232
100
AcDbEntity
  8
Layer_1
 62
7
100
AcDbSpline
 70
8
 71
3
 72
8
 73
4
 74
0
 40
0
 40
0
 40
0
 40
0
 40
1
 40
1
 40
1
 40
1
 10
202.522282
 20
248.245116
 30
0.0
 10
205.415314
 20
251.171249
 30
0.0
 10
208.115073
 20
254.282350
 30
0.0
 10
210.604482
 20
257.558740
 30
0.0
  0
LINE
  5
233
100
AcDbEntity
  8
Layer_1
 62
7
100
AcDbLine
 10
210.604482
 20
257.558740
 30
0.0
 11
208.181904
 21
261.754873
 31
0.0
  0
LINE
  5
234
100
AcDbEntity
  8
Layer_1
 62
7
100
AcDbLine
 10
208.181904
 20
261.754873
 30
0.0
 11
200.381855
 21
261.754873
 31
0.0
  0
LINE
  5
235
100
AcDbEntity
  8
Layer_1
 62
7
100
AcDbLine
 10
217.702248
 20
271.754773
 30
0.0
 11
213.802210
 21
265.000146
 31
0.0
  0
LINE
  5
236
100
AcDbEntity
  8
Layer_1
 62
7
100
AcDbLine
 10
213.802210
 20
265.000146
 30
0.0
 11
214.716372
 21
263.417303
 31
0.0
  0
SPLINE
  5
237
100
AcDbEntity
  8
Layer_1
 62
7
100
AcDbSpline
 70
8
 71
3
 72
8
 73
4
 74
0
 40
0
 40
0
 40
0
 40
0
 40
1
 40
1
 40
1
 40
1
 10
214.716372
 20
263.417303
 30
0.0
 10
216.460881
 20
266.113274
 30
0.0
 10
218.067502
 20
268.896007
 30
0.0
 10
219.530042
 20
271.754773
 30
0.0
  0
LINE
  5
238
100
AcDbEntity
  8
Layer_1
 62
7
100
AcDbLine
 10
219.530042
 20
271.754773
 30
0.0
 11
217.702248
 21
271.754773
 31
0.0
  0
LINE
  5
239
100
AcDbEntity
  8
Layer_1
 62
7
100
AcDbLine
 10
138.899749
 20
328.244973
 30
0.0
 11
131.099895
 21
328.244915
 31
0.0
  0
LINE
  5
23a
100
AcDbEntity
  8
Layer_1
 62
7
100
AcDbLine
 10
131.099895
 20
328.244915
 30
0.0
 11
127.200013
 21
334.999710
 31
0.0
  0
LINE
  5
23b
100
AcDbEntity
  8
Layer_1
 62
7
100
AcDbLine
 10
127.200013
 20
334.999710
 30
0.0
 11
131.099984
 21
341.754561
 31
0.0
  0
LINE
  5
23c
100
AcDbEntity
  8
Layer_1
 62
7
100
AcDbLine
 10
131.099984
 20
341.754561
 30
0.0
 11
138.899843
 21
341.754610
 31
0.0
  0
LINE
  5
23d
100
AcDbEntity
  8
Layer_1
 62
7
100
AcDbLine
 10
138.899843
 20
341.754610
 30
0.0
 11
142.799725
 21
334.999815
 31
0.0
  0
LINE
  5
23e
100
AcDbEntity
  8
Layer_1
 62
7
100
AcDbLine
 10
142.799725
 20
334.999815
 30
0.0
 11
138.899749
 21
328.244973
 31
0.0
  0
LINE
  5
23f
100
AcDbEntity
  8
Layer_1
 62
7
100
AcDbLine
 10
156.220129
 20
338.245186
 30
0.0
 11
148.420244
 21
338.245183
 31
0.0
  0
LINE
  5
240
100
AcDbEntity
  8
Layer_1
 62
7
100
AcDbLine
 10
148.420244
 20
338.245183
 30
0.0
 11
144.520299
 21
345.000086
 31
0.0
  0
LINE
  5
241
100
AcDbEntity
  8
Layer_1
 62
7
100
AcDbLine
 10
144.520299
 20
345.000086
 30
0.0
 11
148.420239
 21
351.754992
 31
0.0
  0
LINE
  5
242
100
AcDbEntity
  8
Layer_1
 62
7
100
AcDbLine
 10
148.420239
 20
351.754992
 30
0.0
 11
156.220129
 21
351.754986
 31
0.0
  0
LINE
  5
243
100
AcDbEntity
  8
Layer_1
 62
7
100
AcDbLine
 10
156.220129
 20
351.754986
 30
0.0
 11
160.120074
 21
345.000083
 31
0.0
  0
LINE
  5
244
100
AcDbEntity
  8
Layer_1
 62
7
100
AcDbLine
 10
160.120074
 20
345.000083
 30
0.0
 11
156.220129
 21
338.245186
 31
0.0
  0
LINE
  5
245
100
AcDbEntity
  8
Layer_1
 62
7
100
AcDbLine
 10
121.579219
 20
318.244963
 30
0.0
 11
113.779365
 21
318.244905
 31
0.0
  0
LINE
  5
246
100
AcDbEntity
  8
Layer_1
 62
7
100
AcDbLine
 10
113.779365
 20
318.244905
 30
0.0
 11
109.879483
 21
324.999700
 31
0.0
  0
LINE
  5
247
100
AcDbEntity
  8
Layer_1
 62
7
100
AcDbLine
 10
109.879483
 20
324.999700
 30
0.0
 11
113.779454
 21
331.754551
 31
0.0
  0
LINE
  5
248
100
AcDbEntity
  8
Layer_1
 62
7
100
AcDbLine
 10
113.779454
 20
331.754551
 30
0.0
 11
121.579313
 21
331.754600
 31
0.0
  0
LINE
  5
249
100
AcDbEntity
  8
Layer_1
 62
7
100
AcDbLine
 10
121.579313
 20
331.754600
 30
0.0
 11
125.479195
 21
324.999805
 31
0.0
  0
LINE
  5
24a
100
AcDbEntity
  8
Layer_1
 62
7
100
AcDbLine
 10
125.479195
 20
324.999805
 30
0.0
 11
121.579219
 21
318.244963
 31
0.0
  0
LINE
  5
24b
100
AcDbEntity
  8
Layer_1
 62
7
100
AcDbLine
 10
173.540637
 20
348.245186
 30
0.0
 11
165.740752
 21
348.245183
 31
0.0
  0
LINE
  5
24c
100
AcDbEntity
  8
Layer_1
 62
7
100
AcDbLine
 10
165.740752
 20
348.245183
 30
0.0
 11
161.840807
 21
355.000086
 31
0.0
  0
LINE
  5
24d
100
AcDbEntity
  8
Layer_1
 62
7
100
AcDbLine
 10
161.840807
 20
355.000086
 30
0.0
 11
165.740747
 21
361.754992
 31
0.0
  0
LINE
  5
24e
100
AcDbEntity
  8
Layer_1
 62
7
100
AcDbLine
 10
165.740747
 20
361.754992
 30
0.0
 11
173.540637
 21
361.754986
 31
0.0
  0
LINE
  5
24f
100
AcDbEntity
  8
Layer_1
 62
7
100
AcDbLine
 10
173.540637
 20
361.754986
 30
0.0
 11
177.440582
 21
355.000083
 31
0.0
  0
LINE
  5
250
100
AcDbEntity
  8
Layer_1
 62
7
100
AcDbLine
 10
177.440582
 20
355.000083
 30
0.0
 11
173.540637
 21
348.245186
 31
0.0
  0
LINE
  5
251
100
AcDbEntity
  8
Layer_1
 62
7
100
AcDbLine
 10
190.861145
 20
358.245186
 30
0.0
 11
183.061260
 21
358.245183
 31
0.0
  0
LINE
  5
252
100
AcDbEntity
  8
Layer_1
 62
7
100
AcDbLine
 10
183.061260
 20
358.245183
 30
0.0
 11
179.161315
 21
365.000086
 31
0.0
  0
LINE
  5
253
100
AcDbEntity
  8
Layer_1
 62
7
100
AcDbLine
 10
179.161315
 20
365.000086
 30
0.0
 11
183.061255
 21
371.754992
 31
0.0
  0
LINE
  5
254
100
AcDbEntity
  8
Layer_1
 62
7
100
AcDbLine
 10
183.061255
 20
371.754992
 30
0.0
 11
190.861145
 21
371.754986
 31
0.0
  0
LINE
  5
255
100
AcDbEntity
  8
Layer_1
 62
7
100
AcDbLine
 10
190.861145
 20
371.754986
 30
0.0
 11
194.761090
 21
365.000083
 31
0.0
  0
LINE
  5
256
100
AcDbEntity
  8
Layer_1
 62
7
100
AcDbLine
 10
194.761090
 20
365.000083
 30
0.0
 11
190.861145
 21
358.245186
 31
0.0
  0
LINE
  5
257
100
AcDbEntity
  8
Layer_1
 62
7
100
AcDbLine
 10
200.381855
 20
381.754785
 30
0.0
 11
196.481844
 21
375.000163
 31
0.0
  0
LINE
  5
258
100
AcDbEntity
  8
Layer_1
 62
7
100
AcDbLine
 10
196.481844
 20
375.000163
 30
0.0
 11
200.381855
 21
368.245007
 31
0.0
  0
LINE
  5
259
100
AcDbEntity
  8
Layer_1
 62
7
100
AcDbLine
 10
200.381855
 20
368.245007
 30
0.0
 11
208.181904
 21
368.245007
 31
0.0
  0
LINE
  5
25a
100
AcDbEntity
  8
Layer_1
 62
7
100
AcDbLine
 10
208.181904
 20
368.245007
 30
0.0
 11
210.603980
 21
372.441139
 31
0.0
  0
SPLINE
  5
25b
100
AcDbEntity
  8
Layer_1
 62
7
100
AcDbSpline
 70
8
 71
3
 72
8
 73
4
 74
0
 40
0
 40
0
 40
0
 40
0
 40
1
 40
1
 40
1
 40
1
 10
210.603980
 20
372.441139
 30
0.0
 10
208.114733
 20
375.717522
 30
0.0
 10
205.415142
 20
378.828629
 30
0.0
 10
202.522282
 20
381.754785
 30
0.0
  0
LINE
  5
25c
100
AcDbEntity
  8
Layer_1
 62
7
100
AcDbLine
 10
202.522282
 20
381.754785
 30
0.0
 11
200.381855
 21
381.754785
 31
0.0
  0
LINE
  5
25d
100
AcDbEntity
  8
Layer_1
 62
7
100
AcDbLine
 10
104.258729
 20
308.244993
 30
0.0
 11
96.458875
 21
308.244935
 31
0.0
  0
LINE
  5
25e
100
AcDbEntity
  8
Layer_1
 62
7
100
AcDbLine
 10
96.458875
 20
308.244935
 30
0.0
 11
92.558993
 21
314.999730
 31
0.0
  0
LINE
  5
25f
100
AcDbEntity
  8
Layer_1
 62
7
100
AcDbLine
 10
92.558993
 20
314.999730
 30
0.0
 11
96.458964
 21
321.754581
 31
0.0
  0
LINE
  5
260
100
AcDbEntity
  8
Layer_1
 62
7
100
AcDbLine
 10
96.458964
 20
321.754581
 30
0.0
 11
104.258823
 21
321.754630
 31
0.0
  0
LINE
  5
261
100
AcDbEntity
  8
Layer_1
 62
7
100
AcDbLine
 10
104.258823
 20
321.754630
 30
0.0
 11
108.158705
 21
314.999835
 31
0.0
  0
LINE
  5
262
100
AcDbEntity
  8
Layer_1
 62
7
100
AcDbLine
 10
108.158705
 20
314.999835
 30
0.0
 11
104.258729
 21
308.244993
 31
0.0
  0
LINE
  5
263
100
AcDbEntity
  8
Layer_1
 62
7
100
AcDbLine
 10
86.938229
 20
298.244993
 30
0.0
 11
79.138375
 21
298.244935
 31
0.0
  0
LINE
  5
264
100
AcDbEntity
  8
Layer_1
 62
7
100
AcDbLine
 10
79.138375
 20
298.244935
 30
0.0
 11
75.238493
 21
304.999730
 31
0.0
  0
LINE
  5
265
100
AcDbEntity
  8
Layer_1
 62
7
100
AcDbLine
 10
75.238493
 20
304.999730
 30
0.0
 11
79.138464
 21
311.754581
 31
0.0
  0
LINE
  5
266
100
AcDbEntity
  8
Layer_1
 62
7
100
AcDbLine
 10
79.138464
 20
311.754581
 30
0.0
 11
86.938323
 21
311.754630
 31
0.0
  0
LINE
  5
267
100
AcDbEntity
  8
Layer_1
 62
7
100
AcDbLine
 10
86.938323
 20
311.754630
 30
0.0
 11
90.838205
 21
304.999835
 31
0.0
  0
LINE
  5
268
100
AcDbEntity
  8
Layer_1
 62
7
100
AcDbLine
 10
90.838205
 20
304.999835
 30
0.0
 11
86.938229
 21
298.244993
 31
0.0
  0
LINE
  5
269
100
AcDbEntity
  8
Layer_1
 62
7
100
AcDbLine
 10
69.617699
 20
288.244980
 30
0.0
 11
61.817845
 21
288.244922
 31
0.0
  0
LINE
  5
26a
100
AcDbEntity
  8
Layer_1
 62
7
100
AcDbLine
 10
61.817845
 20
288.244922
 30
0.0
 11
57.917963
 21
294.999717
 31
0.0
  0
LINE
  5
26b
100
AcDbEntity
  8
Layer_1
 62
7
100
AcDbLine
 10
57.917963
 20
294.999717
 30
0.0
 11
61.817934
 21
301.754568
 31
0.0
  0
LINE
  5
26c
100
AcDbEntity
  8
Layer_1
 62
7
100
AcDbLine
 10
61.817934
 20
301.754568
 30
0.0
 11
69.617793
 21
301.754617
 31
0.0
  0
LINE
  5
26d
100
AcDbEntity
  8
Layer_1
 62
7
100
AcDbLine
 10
69.617793
 20
301.754617
 30
0.0
 11
73.517675
 21
294.999822
 31
0.0
  0
LINE
  5
26e
100
AcDbEntity
  8
Layer_1
 62
7
100
AcDbLine
 10
73.517675
 20
294.999822
 30
0.0
 11
69.617699
 21
288.244980
 31
0.0
  0
LINE
  5
26f
100
AcDbEntity
  8
Layer_1
 62
7
100
AcDbLine
 10
44.497311
 20
291.754601
 30
0.0
 11
43.427092
 21
289.901486
 31
0.0
  0
SPLINE
  5
270
100
AcDbEntity
  8
Layer_1
 62
7
100
AcDbSpline
 70
8
 71
3
 72
8
 73
4
 74
0
 40
0
 40
0
 40
0
 40
0
 40
1
 40
1
 40
1
 40
1
 10
43.427092
 20
289.901486
 30
0.0
 10
44.514942
 20
285.932801
 30
0.0
 10
45.859642
 20
282.039035
 30
0.0
 10
47.452685
 20
278.244817
 30
0.0
  0
LINE
  5
271
100
AcDbEntity
  8
Layer_1
 62
7
100
AcDbLine
 10
47.452685
 20
278.244817
 30
0.0
 11
52.297352
 21
278.244817
 31
0.0
  0
LINE
  5
272
100
AcDbEntity
  8
Layer_1
 62
7
100
AcDbLine
 10
52.297352
 20
278.244817
 30
0.0
 11
56.197374
 21
284.999974
 31
0.0
  0
LINE
  5
273
100
AcDbEntity
  8
Layer_1
 62
7
100
AcDbLine
 10
56.197374
 20
284.999974
 30
0.0
 11
52.297352
 21
291.754601
 31
0.0
  0
LINE
  5
274
100
AcDbEntity
  8
Layer_1
 62
7
100
AcDbLine
 10
52.297352
 20
291.754601
 30
0.0
 11
44.497311
 21
291.754601
 31
0.0
  0
LINE
  5
275
100
AcDbEntity
  8
Layer_1
 62
7
100
AcDbLine
 10
138.899749
 20
348.244973
 30
0.0
 11
131.099895
 21
348.244915
 31
0.0
  0
LINE
  5
276
100
AcDbEntity
  8
Layer_1
 62
7
100
AcDbLine
 10
131.099895
 20
348.244915
 30
0.0
 11
127.200013
 21
354.999710
 31
0.0
  0
LINE
  5
277
100
AcDbEntity
  8
Layer_1
 62
7
100
AcDbLine
 10
127.200013
 20
354.999710
 30
0.0
 11
131.099984
 21
361.754561
 31
0.0
  0
LINE
  5
278
100
AcDbEntity
  8
Layer_1
 62
7
100
AcDbLine
 10
131.099984
 20
361.754561
 30
0.0
 11
138.899843
 21
361.754610
 31
0.0
  0
LINE
  5
279
100
AcDbEntity
  8
Layer_1
 62
7
100
AcDbLine
 10
138.899843
 20
361.754610
 30
0.0
 11
142.799725
 21
354.999815
 31
0.0
  0
LINE
  5
27a
100
AcDbEntity
  8
Layer_1
 62
7
100
AcDbLine
 10
142.799725
 20
354.999815
 30
0.0
 11
138.899749
 21
348.244973
 31
0.0
  0
LINE
  5
27b
100
AcDbEntity
  8
Layer_1
 62
7
100
AcDbLine
 10
156.220130
 20
358.245188
 30
0.0
 11
148.420245
 21
358.245185
 31
0.0
  0
LINE
  5
27c
100
AcDbEntity
  8
Layer_1
 62
7
100
AcDbLine
 10
148.420245
 20
358.245185
 30
0.0
 11
144.520300
 21
365.000088
 31
0.0
  0
LINE
  5
27d
100
AcDbEntity
  8
Layer_1
 62
7
100
AcDbLine
 10
144.520300
 20
365.000088
 30
0.0
 11
148.420240
 21
371.754994
 31
0.0
  0
LINE
  5
27e
100
AcDbEntity
  8
Layer_1
 62
7
100
AcDbLine
 10
148.420240
 20
371.754994
 30
0.0
 11
156.220130
 21
371.754988
 31
0.0
  0
LINE
  5
27f
100
AcDbEntity
  8
Layer_1
 62
7
100
AcDbLine
 10
156.220130
 20
371.754988
 30
0.0
 11
160.120075
 21
365.000085
 31
0.0
  0
LINE
  5
280
100
AcDbEntity
  8
Layer_1
 62
7
100
AcDbLine
 10
160.120075
 20
365.000085
 30
0.0
 11
156.220130
 21
358.245188
 31
0.0
  0
LINE
  5
281
100
AcDbEntity
  8
Layer_1
 62
7
100
AcDbLine
 10
121.579219
 20
338.244963
 30
0.0
 11
113.779365
 21
338.244905
 31
0.0
  0
LINE
  5
282
100
AcDbEntity
  8
Layer_1
 62
7
100
AcDbLine
 10
113.779365
 20
338.244905
 30
0.0
 11
109.879483
 21
344.999700
 31
0.0
  0
LINE
  5
283
100
AcDbEntity
  8
Layer_1
 62
7
100
AcDbLine
 10
109.879483
 20
344.999700
 30
0.0
 11
113.779454
 21
351.754551
 31
0.0
  0
LINE
  5
284
100
AcDbEntity
  8
Layer_1
 62
7
100
AcDbLine
 10
113.779454
 20
351.754551
 30
0.0
 11
121.579313
 21
351.754600
 31
0.0
  0
LINE
  5
285
100
AcDbEntity
  8
Layer_1
 62
7
100
AcDbLine
 10
121.579313
 20
351.754600
 30
0.0
 11
125.479195
 21
344.999805
 31
0.0
  0
LINE
  5
286
100
AcDbEntity
  8
Layer_1
 62
7
100
AcDbLine
 10
125.479195
 20
344.999805
 30
0.0
 11
121.579219
 21
338.244963
 31
0.0
  0
LINE
  5
287
100
AcDbEntity
  8
Layer_1
 62
7
100
AcDbLine
 10
173.540638
 20
368.245188
 30
0.0
 11
165.740753
 21
368.245185
 31
0.0
  0
LINE
  5
288
100
AcDbEntity
  8
Layer_1
 62
7
100
AcDbLine
 10
165.740753
 20
368.245185
 30
0.0
 11
161.840808
 21
375.000088
 31
0.0
  0
LINE
  5
289
100
AcDbEntity
  8
Layer_1
 62
7
100
AcDbLine
 10
161.840808
 20
375.000088
 30
0.0
 11
165.740748
 21
381.754994
 31
0.0
  0
LINE
  5
28a
100
AcDbEntity
  8
Layer_1
 62
7
100
AcDbLine
 10
165.740748
 20
381.754994
 30
0.0
 11
173.540638
 21
381.754988
 31
0.0
  0
LINE
  5
28b
100
AcDbEntity
  8
Layer_1
 62
7
100
AcDbLine
 10
173.540638
 20
381.754988
 30
0.0
 11
177.440583
 21
375.000085
 31
0.0
  0
LINE
  5
28c
100
AcDbEntity
  8
Layer_1
 62
7
100
AcDbLine
 10
177.440583
 20
375.000085
 30
0.0
 11
173.540638
 21
368.245188
 31
0.0
  0
LINE
  5
28d
100
AcDbEntity
  8
Layer_1
 62
7
100
AcDbLine
 10
190.861146
 20
378.245188
 30
0.0
 11
183.061261
 21
378.245185
 31
0.0
  0
LINE
  5
28e
100
AcDbEntity
  8
Layer_1
 62
7
100
AcDbLine
 10
183.061261
 20
378.245185
 30
0.0
 11
179.161316
 21
385.000088
 31
0.0
  0
LINE
  5
28f
100
AcDbEntity
  8
Layer_1
 62
7
100
AcDbLine
 10
179.161316
 20
385.000088
 30
0.0
 11
183.061256
 21
391.754994
 31
0.0
  0
LINE
  5
290
100
AcDbEntity
  8
Layer_1
 62
7
100
AcDbLine
 10
183.061256
 20
391.754994
 30
0.0
 11
190.861146
 21
391.754988
 31
0.0
  0
LINE
  5
291
100
AcDbEntity
  8
Layer_1
 62
7
100
AcDbLine
 10
190.861146
 20
391.754988
 30
0.0
 11
194.761091
 21
385.000085
 31
0.0
  0
LINE
  5
292
100
AcDbEntity
  8
Layer_1
 62
7
100
AcDbLine
 10
194.761091
 20
385.000085
 30
0.0
 11
190.861146
 21
378.245188
 31
0.0
  0
LINE
  5
293
100
AcDbEntity
  8
Layer_1
 62
7
100
AcDbLine
 10
104.258729
 20
328.244983
 30
0.0
 11
96.458875
 21
328.244925
 31
0.0
  0
LINE
  5
294
100
AcDbEntity
  8
Layer_1
 62
7
100
AcDbLine
 10
96.458875
 20
328.244925
 30
0.0
 11
92.558993
 21
334.999720
 31
0.0
  0
LINE
  5
295
100
AcDbEntity
  8
Layer_1
 62
7
100
AcDbLine
 10
92.558993
 20
334.999720
 30
0.0
 11
96.458964
 21
341.754571
 31
0.0
  0
LINE
  5
296
100
AcDbEntity
  8
Layer_1
 62
7
100
AcDbLine
 10
96.458964
 20
341.754571
 30
0.0
 11
104.258823
 21
341.754620
 31
0.0
  0
LINE
  5
297
100
AcDbEntity
  8
Layer_1
 62
7
100
AcDbLine
 10
104.258823
 20
341.754620
 30
0.0
 11
108.158705
 21
334.999825
 31
0.0
  0
LINE
  5
298
100
AcDbEntity
  8
Layer_1
 62
7
100
AcDbLine
 10
108.158705
 20
334.999825
 30
0.0
 11
104.258729
 21
328.244983
 31
0.0
  0
LINE
  5
299
100
AcDbEntity
  8
Layer_1
 62
7
100
AcDbLine
 10
86.938229
 20
318.244983
 30
0.0
 11
79.138375
 21
318.244925
 31
0.0
  0
LINE
  5
29a
100
AcDbEntity
  8
Layer_1
 62
7
100
AcDbLine
 10
79.138375
 20
318.244925
 30
0.0
 11
75.238493
 21
324.999720
 31
0.0
  0
LINE
  5
29b
100
AcDbEntity
  8
Layer_1
 62
7
100
AcDbLine
 10
75.238493
 20
324.999720
 30
0.0
 11
79.138464
 21
331.754571
 31
0.0
  0
LINE
  5
29c
100
AcDbEntity
  8
Layer_1
 62
7
100
AcDbLine
 10
79.138464
 20
331.754571
 30
0.0
 11
86.938323
 21
331.754620
 31
0.0
  0
LINE
  5
29d
100
AcDbEntity
  8
Layer_1
 62
7
100
AcDbLine
 10
86.938323
 20
331.754620
 30
0.0
 11
90.838205
 21
324.999825
 31
0.0
  0
LINE
  5
29e
100
AcDbEntity
  8
Layer_1
 62
7
100
AcDbLine
 10
90.838205
 20
324.999825
 30
0.0
 11
86.938229
 21
318.244983
 31
0.0
  0
LINE
  5
29f
100
AcDbEntity
  8
Layer_1
 62
7
100
AcDbLine
 10
69.617699
 20
308.244983
 30
0.0
 11
61.817845
 21
308.244925
 31
0.0
  0
LINE
  5
2a0
100
AcDbEntity
  8
Layer_1
 62
7
100
AcDbLine
 10
61.817845
 20
308.244925
 30
0.0
 11
57.917963
 21
314.999720
 31
0.0
  0
LINE
  5
2a1
100
AcDbEntity
  8
Layer_1
 62
7
100
AcDbLine
 10
57.917963
 20
314.999720
 30
0.0
 11
61.817934
 21
321.754571
 31
0.0
  0
LINE
  5
2a2
100
AcDbEntity
  8
Layer_1
 62
7
100
AcDbLine
 10
61.817934
 20
321.754571
 30
0.0
 11
69.617793
 21
321.754620
 31
0.0
  0
LINE
  5
2a3
100
AcDbEntity
  8
Layer_1
 62
7
100
AcDbLine
 10
69.617793
 20
321.754620
 30
0.0
 11
73.517675
 21
314.999825
 31
0.0
  0
LINE
  5
2a4
100
AcDbEntity
  8
Layer_1
 62
7
100
AcDbLine
 10
73.517675
 20
314.999825
 30
0.0
 11
69.617699
 21
308.244983
 31
0.0
  0
LINE
  5
2a5
100
AcDbEntity
  8
Layer_1
 62
7
100
AcDbLine
 10
52.297209
 20
298.244973
 30
0.0
 11
44.497355
 21
298.244915
 31
0.0
  0
LINE
  5
2a6
100
AcDbEntity
  8
Layer_1
 62
7
100
AcDbLine
 10
44.497355
 20
298.244915
 30
0.0
 11
40.597473
 21
304.999710
 31
0.0
  0
LINE
  5
2a7
100
AcDbEntity
  8
Layer_1
 62
7
100
AcDbLine
 10
40.597473
 20
304.999710
 30
0.0
 11
44.497444
 21
311.754561
 31
0.0
  0
LINE
  5
2a8
100
AcDbEntity
  8
Layer_1
 62
7
100
AcDbLine
 10
44.497444
 20
311.754561
 30
0.0
 11
52.297303
 21
311.754610
 31
0.0
  0
LINE
  5
2a9
100
AcDbEntity
  8
Layer_1
 62
7
100
AcDbLine
 10
52.297303
 20
311.754610
 30
0.0
 11
56.197185
 21
304.999815
 31
0.0
  0
LINE
  5
2aa
100
AcDbEntity
  8
Layer_1
 62
7
100
AcDbLine
 10
56.197185
 20
304.999815
 30
0.0
 11
52.297209
 21
298.244973
 31
0.0
  0
LINE
  5
2ab
100
AcDbEntity
  8
Layer_1
 62
7
100
AcDbLine
 10
138.899749
 20
368.244973
 30
0.0
 11
131.099895
 21
368.244915
 31
0.0
  0
LINE
  5
2ac
100
AcDbEntity
  8
Layer_1
 62
7
100
AcDbLine
 10
131.099895
 20
368.244915
 30
0.0
 11
127.200013
 21
374.999710
 31
0.0
  0
LINE
  5
2ad
100
AcDbEntity
  8
Layer_1
 62
7
100
AcDbLine
 10
127.200013
 20
374.999710
 30
0.0
 11
131.099984
 21
381.754561
 31
0.0
  0
LINE
  5
2ae
100
AcDbEntity
  8
Layer_1
 62
7
100
AcDbLine
 10
131.099984
 20
381.754561
 30
0.0
 11
138.899843
 21
381.754610
 31
0.0
  0
LINE
  5
2af
100
AcDbEntity
  8
Layer_1
 62
7
100
AcDbLine
 10
138.899843
 20
381.754610
 30
0.0
 11
142.799725
 21
374.999815
 31
0.0
  0
LINE
  5
2b0
100
AcDbEntity
  8
Layer_1
 62
7
100
AcDbLine
 10
142.799725
 20
374.999815
 30
0.0
 11
138.899749
 21
368.244973
 31
0.0
  0
LINE
  5
2b1
100
AcDbEntity
  8
Layer_1
 62
7
100
AcDbLine
 10
156.220139
 20
378.245184
 30
0.0
 11
148.420254
 21
378.245182
 31
0.0
  0
LINE
  5
2b2
100
AcDbEntity
  8
Layer_1
 62
7
100
AcDbLine
 10
148.420254
 20
378.245182
 30
0.0
 11
144.520309
 21
385.000084
 31
0.0
  0
LINE
  5
2b3
100
AcDbEntity
  8
Layer_1
 62
7
100
AcDbLine
 10
144.520309
 20
385.000084
 30
0.0
 11
148.420249
 21
391.754990
 31
0.0
  0
LINE
  5
2b4
100
AcDbEntity
  8
Layer_1
 62
7
100
AcDbLine
 10
148.420249
 20
391.754990
 30
0.0
 11
156.220139
 21
391.754984
 31
0.0
  0
LINE
  5
2b5
100
AcDbEntity
  8
Layer_1
 62
7
100
AcDbLine
 10
156.220139
 20
391.754984
 30
0.0
 11
160.120084
 21
385.000082
 31
0.0
  0
LINE
  5
2b6
100
AcDbEntity
  8
Layer_1
 62
7
100
AcDbLine
 10
160.120084
 20
385.000082
 30
0.0
 11
156.220139
 21
378.245184
 31
0.0
  0
LINE
  5
2b7
100
AcDbEntity
  8
Layer_1
 62
7
100
AcDbLine
 10
121.579219
 20
358.244963
 30
0.0
 11
113.779365
 21
358.244905
 31
0.0
  0
LINE
  5
2b8
100
AcDbEntity
  8
Layer_1
 62
7
100
AcDbLine
 10
113.779365
 20
358.244905
 30
0.0
 11
109.879483
 21
364.999700
 31
0.0
  0
LINE
  5
2b9
100
AcDbEntity
  8
Layer_1
 62
7
100
AcDbLine
 10
109.879483
 20
364.999700
 30
0.0
 11
113.779454
 21
371.754551
 31
0.0
  0
LINE
  5
2ba
100
AcDbEntity
  8
Layer_1
 62
7
100
AcDbLine
 10
113.779454
 20
371.754551
 30
0.0
 11
121.579313
 21
371.754600
 31
0.0
  0
LINE
  5
2bb
100
AcDbEntity
  8
Layer_1
 62
7
100
AcDbLine
 10
121.579313
 20
371.754600
 30
0.0
 11
125.479195
 21
364.999805
 31
0.0
  0
LINE
  5
2bc
100
AcDbEntity
  8
Layer_1
 62
7
100
AcDbLine
 10
125.479195
 20
364.999805
 30
0.0
 11
121.579219
 21
358.244963
 31
0.0
  0
LINE
  5
2bd
100
AcDbEntity
  8
Layer_1
 62
7
100
AcDbLine
 10
173.540647
 20
388.245184
 30
0.0
 11
165.740762
 21
388.245182
 31
0.0
  0
LINE
  5
2be
100
AcDbEntity
  8
Layer_1
 62
7
100
AcDbLine
 10
165.740762
 20
388.245182
 30
0.0
 11
161.840817
 21
395.000084
 31
0.0
  0
LINE
  5
2bf
100
AcDbEntity
  8
Layer_1
 62
7
100
AcDbLine
 10
161.840817
 20
395.000084
 30
0.0
 11
165.740757
 21
401.754990
 31
0.0
  0
LINE
  5
2c0
100
AcDbEntity
  8
Layer_1
 62
7
100
AcDbLine
 10
165.740757
 20
401.754990
 30
0.0
 11
173.540647
 21
401.754984
 31
0.0
  0
LINE
  5
2c1
100
AcDbEntity
  8
Layer_1
 62
7
100
AcDbLine
 10
173.540647
 20
401.754984
 30
0.0
 11
177.440592
 21
395.000082
 31
0.0
  0
LINE
  5
2c2
100
AcDbEntity
  8
Layer_1
 62
7
100
AcDbLine
 10
177.440592
 20
395.000082
 30
0.0
 11
173.540647
 21
388.245184
 31
0.0
  0
LINE
  5
2c3
100
AcDbEntity
  8
Layer_1
 62
7
100
AcDbLine
 10
104.258729
 20
348.244983
 30
0.0
 11
96.458875
 21
348.244925
 31
0.0
  0
LINE
  5
2c4
100
AcDbEntity
  8
Layer_1
 62
7
100
AcDbLine
 10
96.458875
 20
348.244925
 30
0.0
 11
92.558993
 21
354.999720
 31
0.0
  0
LINE
  5
2c5
100
AcDbEntity
  8
Layer_1
 62
7
100
AcDbLine
 10
92.558993
 20
354.999720
 30
0.0
 11
96.458964
 21
361.754571
 31
0.0
  0
LINE
  5
2c6
100
AcDbEntity
  8
Layer_1
 62
7
100
AcDbLine
 10
96.458964
 20
361.754571
 30
0.0
 11
104.258823
 21
361.754620
 31
0.0
  0
LINE
  5
2c7
100
AcDbEntity
  8
Layer_1
 62
7
100
AcDbLine
 10
104.258823
 20
361.754620
 30
0.0
 11
108.158705
 21
354.999825
 31
0.0
  0
LINE
  5
2c8
100
AcDbEntity
  8
Layer_1
 62
7
100
AcDbLine
 10
108.158705
 20
354.999825
 30
0.0
 11
104.258729
 21
348.244983
 31
0.0
  0
LINE
  5
2c9
100
AcDbEntity
  8
Layer_1
 62
7
100
AcDbLine
 10
86.938229
 20
338.244983
 30
0.0
 11
79.138375
 21
338.244925
 31
0.0
  0
LINE
  5
2ca
100
AcDbEntity
  8
Layer_1
 62
7
100
AcDbLine
 10
79.138375
 20
338.244925
 30
0.0
 11
75.238493
 21
344.999720
 31
0.0
  0
LINE
  5
2cb
100
AcDbEntity
  8
Layer_1
 62
7
100
AcDbLine
 10
75.238493
 20
344.999720
 30
0.0
 11
79.138464
 21
351.754571
 31
0.0
  0
LINE
  5
2cc
100
AcDbEntity
  8
Layer_1
 62
7
100
AcDbLine
 10
79.138464
 20
351.754571
 30
0.0
 11
86.938323
 21
351.754620
 31
0.0
  0
LINE
  5
2cd
100
AcDbEntity
  8
Layer_1
 62
7
100
AcDbLine
 10
86.938323
 20
351.754620
 30
0.0
 11
90.838205
 21
344.999825
 31
0.0
  0
LINE
  5
2ce
100
AcDbEntity
  8
Layer_1
 62
7
100
AcDbLine
 10
90.838205
 20
344.999825
 30
0.0
 11
86.938229
 21
338.244983
 31
0.0
  0
LINE
  5
2cf
100
AcDbEntity
  8
Layer_1
 62
7
100
AcDbLine
 10
69.617699
 20
328.244973
 30
0.0
 11
61.817845
 21
328.244915
 31
0.0
  0
LINE
  5
2d0
100
AcDbEntity
  8
Layer_1
 62
7
100
AcDbLine
 10
61.817845
 20
328.244915
 30
0.0
 11
57.917963
 21
334.999710
 31
0.0
  0
LINE
  5
2d1
100
AcDbEntity
  8
Layer_1
 62
7
100
AcDbLine
 10
57.917963
 20
334.999710
 30
0.0
 11
61.817934
 21
341.754561
 31
0.0
  0
LINE
  5
2d2
100
AcDbEntity
  8
Layer_1
 62
7
100
AcDbLine
 10
61.817934
 20
341.754561
 30
0.0
 11
69.617793
 21
341.754610
 31
0.0
  0
LINE
  5
2d3
100
AcDbEntity
  8
Layer_1
 62
7
100
AcDbLine
 10
69.617793
 20
341.754610
 30
0.0
 11
73.517675
 21
334.999815
 31
0.0
  0
LINE
  5
2d4
100
AcDbEntity
  8
Layer_1
 62
7
100
AcDbLine
 10
73.517675
 20
334.999815
 30
0.0
 11
69.617699
 21
328.244973
 31
0.0
  0
LINE
  5
2d5
100
AcDbEntity
  8
Layer_1
 62
7
100
AcDbLine
 10
52.297209
 20
318.244963
 30
0.0
 11
44.497355
 21
318.244905
 31
0.0
  0
LINE
  5
2d6
100
AcDbEntity
  8
Layer_1
 62
7
100
AcDbLine
 10
44.497355
 20
318.244905
 30
0.0
 11
40.597473
 21
324.999700
 31
0.0
  0
LINE
  5
2d7
100
AcDbEntity
  8
Layer_1
 62
7
100
AcDbLine
 10
40.597473
 20
324.999700
 30
0.0
 11
44.497444
 21
331.754551
 31
0.0
  0
LINE
  5
2d8
100
AcDbEntity
  8
Layer_1
 62
7
100
AcDbLine
 10
44.497444
 20
331.754551
 30
0.0
 11
52.297303
 21
331.754600
 31
0.0
  0
LINE
  5
2d9
100
AcDbEntity
  8
Layer_1
 62
7
100
AcDbLine
 10
52.297303
 20
331.754600
 30
0.0
 11
56.197185
 21
324.999805
 31
0.0
  0
LINE
  5
2da
100
AcDbEntity
  8
Layer_1
 62
7
100
AcDbLine
 10
56.197185
 20
324.999805
 30
0.0
 11
52.297209
 21
318.244963
 31
0.0
  0
LINE
  5
2db
100
AcDbEntity
  8
Layer_1
 62
7
100
AcDbLine
 10
138.899749
 20
388.244973
 30
0.0
 11
131.099895
 21
388.244915
 31
0.0
  0
LINE
  5
2dc
100
AcDbEntity
  8
Layer_1
 62
7
100
AcDbLine
 10
131.099895
 20
388.244915
 30
0.0
 11
127.200013
 21
394.999710
 31
0.0
  0
LINE
  5
2dd
100
AcDbEntity
  8
Layer_1
 62
7
100
AcDbLine
 10
127.200013
 20
394.999710
 30
0.0
 11
131.099984
 21
401.754561
 31
0.0
  0
LINE
  5
2de
100
AcDbEntity
  8
Layer_1
 62
7
100
AcDbLine
 10
131.099984
 20
401.754561
 30
0.0
 11
138.899843
 21
401.754610
 31
0.0
  0
LINE
  5
2df
100
AcDbEntity
  8
Layer_1
 62
7
100
AcDbLine
 10
138.899843
 20
401.754610
 30
0.0
 11
142.799725
 21
394.999815
 31
0.0
  0
LINE
  5
2e0
100
AcDbEntity
  8
Layer_1
 62
7
100
AcDbLine
 10
142.799725
 20
394.999815
 30
0.0
 11
138.899749
 21
388.244973
 31
0.0
  0
LINE
  5
2e1
100
AcDbEntity
  8
Layer_1
 62
7
100
AcDbLine
 10
146.942743
 20
409.196003
 30
0.0
 11
144.520139
 21
404.999878
 31
0.0
  0
LINE
  5
2e2
100
AcDbEntity
  8
Layer_1
 62
7
100
AcDbLine
 10
144.520139
 20
404.999878
 30
0.0
 11
148.420177
 21
398.245250
 31
0.0
  0
LINE
  5
2e3
100
AcDbEntity
  8
Layer_1
 62
7
100
AcDbLine
 10
148.420177
 20
398.245250
 30
0.0
 11
156.220199
 21
398.245250
 31
0.0
  0
LINE
  5
2e4
100
AcDbEntity
  8
Layer_1
 62
7
100
AcDbLine
 10
156.220199
 20
398.245250
 30
0.0
 11
160.120237
 21
404.999878
 31
0.0
  0
LINE
  5
2e5
100
AcDbEntity
  8
Layer_1
 62
7
100
AcDbLine
 10
160.120237
 20
404.999878
 30
0.0
 11
159.049997
 21
406.853511
 31
0.0
  0
SPLINE
  5
2e6
100
AcDbEntity
  8
Layer_1
 62
7
100
AcDbSpline
 70
8
 71
3
 72
8
 73
4
 74
0
 40
0
 40
0
 40
0
 40
0
 40
1
 40
1
 40
1
 40
1
 10
159.049997
 20
406.853511
 30
0.0
 10
155.069269
 20
407.895869
 30
0.0
 10
151.024990
 20
408.678349
 30
0.0
 10
146.942743
 20
409.196003
 30
0.0
  0
LINE
  5
2e7
100
AcDbEntity
  8
Layer_1
 62
7
100
AcDbLine
 10
146.942743
 20
409.196003
 30
0.0
 11
146.942743
 21
409.196003
 31
0.0
  0
LINE
  5
2e8
100
AcDbEntity
  8
Layer_1
 62
7
100
AcDbLine
 10
121.579219
 20
378.244963
 30
0.0
 11
113.779365
 21
378.244905
 31
0.0
  0
LINE
  5
2e9
100
AcDbEntity
  8
Layer_1
 62
7
100
AcDbLine
 10
113.779365
 20
378.244905
 30
0.0
 11
109.879483
 21
384.999700
 31
0.0
  0
LINE
  5
2ea
100
AcDbEntity
  8
Layer_1
 62
7
100
AcDbLine
 10
109.879483
 20
384.999700
 30
0.0
 11
113.779454
 21
391.754551
 31
0.0
  0
LINE
  5
2eb
100
AcDbEntity
  8
Layer_1
 62
7
100
AcDbLine
 10
113.779454
 20
391.754551
 30
0.0
 11
121.579313
 21
391.754600
 31
0.0
  0
LINE
  5
2ec
100
AcDbEntity
  8
Layer_1
 62
7
100
AcDbLine
 10
121.579313
 20
391.754600
 30
0.0
 11
125.479195
 21
384.999805
 31
0.0
  0
LINE
  5
2ed
100
AcDbEntity
  8
Layer_1
 62
7
100
AcDbLine
 10
125.479195
 20
384.999805
 30
0.0
 11
121.579219
 21
378.244963
 31
0.0
  0
LINE
  5
2ee
100
AcDbEntity
  8
Layer_1
 62
7
100
AcDbLine
 10
104.258729
 20
368.244983
 30
0.0
 11
96.458875
 21
368.244925
 31
0.0
  0
LINE
  5
2ef
100
AcDbEntity
  8
Layer_1
 62
7
100
AcDbLine
 10
96.458875
 20
368.244925
 30
0.0
 11
92.558993
 21
374.999720
 31
0.0
  0
LINE
  5
2f0
100
AcDbEntity
  8
Layer_1
 62
7
100
AcDbLine
 10
92.558993
 20
374.999720
 30
0.0
 11
96.458964
 21
381.754571
 31
0.0
  0
LINE
  5
2f1
100
AcDbEntity
  8
Layer_1
 62
7
100
AcDbLine
 10
96.458964
 20
381.754571
 30
0.0
 11
104.258823
 21
381.754620
 31
0.0
  0
LINE
  5
2f2
100
AcDbEntity
  8
Layer_1
 62
7
100
AcDbLine
 10
104.258823
 20
381.754620
 30
0.0
 11
108.158705
 21
374.999825
 31
0.0
  0
LINE
  5
2f3
100
AcDbEntity
  8
Layer_1
 62
7
100
AcDbLine
 10
108.158705
 20
374.999825
 30
0.0
 11
104.258729
 21
368.244983
 31
0.0
  0
LINE
  5
2f4
100
AcDbEntity
  8
Layer_1
 62
7
100
AcDbLine
 10
86.938229
 20
358.244983
 30
0.0
 11
79.138375
 21
358.244925
 31
0.0
  0
LINE
  5
2f5
100
AcDbEntity
  8
Layer_1
 62
7
100
AcDbLine
 10
79.138375
 20
358.244925
 30
0.0
 11
75.238493
 21
364.999720
 31
0.0
  0
LINE
  5
2f6
100
AcDbEntity
  8
Layer_1
 62
7
100
AcDbLine
 10
75.238493
 20
364.999720
 30
0.0
 11
79.138464
 21
371.754571
 31
0.0
  0
LINE
  5
2f7
100
AcDbEntity
  8
Layer_1
 62
7
100
AcDbLine
 10
79.138464
 20
371.754571
 30
0.0
 11
86.938323
 21
371.754620
 31
0.0
  0
LINE
  5
2f8
100
AcDbEntity
  8
Layer_1
 62
7
100
AcDbLine
 10
86.938323
 20
371.754620
 30
0.0
 11
90.838205
 21
364.999825
 31
0.0
  0
LINE
  5
2f9
100
AcDbEntity
  8
Layer_1
 62
7
100
AcDbLine
 10
90.838205
 20
364.999825
 30
0.0
 11
86.938229
 21
358.244983
 31
0.0
  0
LINE
  5
2fa
100
AcDbEntity
  8
Layer_1
 62
7
100
AcDbLine
 10
69.617699
 20
348.244973
 30
0.0
 11
61.817845
 21
348.244915
 31
0.0
  0
LINE
  5
2fb
100
AcDbEntity
  8
Layer_1
 62
7
100
AcDbLine
 10
61.817845
 20
348.244915
 30
0.0
 11
57.917963
 21
354.999710
 31
0.0
  0
LINE
  5
2fc
100
AcDbEntity
  8
Layer_1
 62
7
100
AcDbLine
 10
57.917963
 20
354.999710
 30
0.0
 11
61.817934
 21
361.754561
 31
0.0
  0
LINE
  5
2fd
100
AcDbEntity
  8
Layer_1
 62
7
100
AcDbLine
 10
61.817934
 20
361.754561
 30
0.0
 11
69.617793
 21
361.754610
 31
0.0
  0
LINE
  5
2fe
100
AcDbEntity
  8
Layer_1
 62
7
100
AcDbLine
 10
69.617793
 20
361.754610
 30
0.0
 11
73.517675
 21
354.999815
 31
0.0
  0
LINE
  5
2ff
100
AcDbEntity
  8
Layer_1
 62
7
100
AcDbLine
 10
73.517675
 20
354.999815
 30
0.0
 11
69.617699
 21
348.244973
 31
0.0
  0
SPLINE
  5
300
100
AcDbEntity
  8
Layer_1
 62
7
100
AcDbSpline
 70
8
 71
3
 72
8
 73
4
 74
0
 40
0
 40
0
 40
0
 40
0
 40
1
 40
1
 40
1
 40
1
 10
47.452685
 20
351.754559
 30
0.0
 10
45.859642
 20
347.960342
 30
0.0
 10
44.514942
 20
344.066575
 30
0.0
 10
43.427092
 20
340.097891
 30
0.0
  0
LINE
  5
301
100
AcDbEntity
  8
Layer_1
 62
7
100
AcDbLine
 10
43.427092
 20
340.097891
 30
0.0
 11
44.497311
 21
338.244776
 31
0.0
  0
LINE
  5
302
100
AcDbEntity
  8
Layer_1
 62
7
100
AcDbLine
 10
44.497311
 20
338.244776
 30
0.0
 11
52.297352
 21
338.244776
 31
0.0
  0
LINE
  5
303
100
AcDbEntity
  8
Layer_1
 62
7
100
AcDbLine
 10
52.297352
 20
338.244776
 30
0.0
 11
56.197374
 21
344.999932
 31
0.0
  0
LINE
  5
304
100
AcDbEntity
  8
Layer_1
 62
7
100
AcDbLine
 10
56.197374
 20
344.999932
 30
0.0
 11
52.297352
 21
351.754559
 31
0.0
  0
LINE
  5
305
100
AcDbEntity
  8
Layer_1
 62
7
100
AcDbLine
 10
52.297352
 20
351.754559
 30
0.0
 11
47.452685
 21
351.754559
 31
0.0
  0
SPLINE
  5
306
100
AcDbEntity
  8
Layer_1
 62
7
100
AcDbSpline
 70
8
 71
3
 72
8
 73
4
 74
0
 40
0
 40
0
 40
0
 40
0
 40
1
 40
1
 40
1
 40
1
 10
134.999796
 20
409.949962
 30
0.0
 10
133.394462
 20
409.949837
 30
0.0
 10
131.789389
 20
409.908999
 30
0.0
 10
130.186125
 20
409.827489
 30
0.0
  0
LINE
  5
307
100
AcDbEntity
  8
Layer_1
 62
7
100
AcDbLine
 10
130.186125
 20
409.827489
 30
0.0
 11
131.099784
 21
408.245156
 31
0.0
  0
LINE
  5
308
100
AcDbEntity
  8
Layer_1
 62
7
100
AcDbLine
 10
131.099784
 20
408.245156
 30
0.0
 11
138.899807
 21
408.245156
 31
0.0
  0
LINE
  5
309
100
AcDbEntity
  8
Layer_1
 62
7
100
AcDbLine
 10
138.899807
 20
408.245156
 30
0.0
 11
139.813466
 21
409.827489
 31
0.0
  0
SPLINE
  5
30a
100
AcDbEntity
  8
Layer_1
 62
7
100
AcDbSpline
 70
8
 71
3
 72
8
 73
4
 74
0
 40
0
 40
0
 40
0
 40
0
 40
1
 40
1
 40
1
 40
1
 10
139.813466
 20
409.827489
 30
0.0
 10
138.210203
 20
409.908999
 30
0.0
 10
136.605130
 20
409.949837
 30
0.0
 10
134.999796
 20
409.949962
 30
0.0
  0
LINE
  5
30b
100
AcDbEntity
  8
Layer_1
 62
7
100
AcDbLine
 10
134.999796
 20
409.949962
 30
0.0
 11
134.999796
 21
409.949962
 31
0.0
  0
LINE
  5
30c
100
AcDbEntity
  8
Layer_1
 62
7
100
AcDbLine
 10
104.258729
 20
388.244983
 30
0.0
 11
96.458875
 21
388.244925
 31
0.0
  0
LINE
  5
30d
100
AcDbEntity
  8
Layer_1
 62
7
100
AcDbLine
 10
96.458875
 20
388.244925
 30
0.0
 11
92.558993
 21
394.999720
 31
0.0
  0
LINE
  5
30e
100
AcDbEntity
  8
Layer_1
 62
7
100
AcDbLine
 10
92.558993
 20
394.999720
 30
0.0
 11
96.458964
 21
401.754571
 31
0.0
  0
LINE
  5
30f
100
AcDbEntity
  8
Layer_1
 62
7
100
AcDbLine
 10
96.458964
 20
401.754571
 30
0.0
 11
104.258823
 21
401.754620
 31
0.0
  0
LINE
  5
310
100
AcDbEntity
  8
Layer_1
 62
7
100
AcDbLine
 10
104.258823
 20
401.754620
 30
0.0
 11
108.158705
 21
394.999825
 31
0.0
  0
LINE
  5
311
100
AcDbEntity
  8
Layer_1
 62
7
100
AcDbLine
 10
108.158705
 20
394.999825
 30
0.0
 11
104.258729
 21
388.244983
 31
0.0
  0
LINE
  5
312
100
AcDbEntity
  8
Layer_1
 62
7
100
AcDbLine
 10
86.938229
 20
378.244983
 30
0.0
 11
79.138375
 21
378.244925
 31
0.0
  0
LINE
  5
313
100
AcDbEntity
  8
Layer_1
 62
7
100
AcDbLine
 10
79.138375
 20
378.244925
 30
0.0
 11
75.238493
 21
384.999720
 31
0.0
  0
LINE
  5
314
100
AcDbEntity
  8
Layer_1
 62
7
100
AcDbLine
 10
75.238493
 20
384.999720
 30
0.0
 11
79.138464
 21
391.754571
 31
0.0
  0
LINE
  5
315
100
AcDbEntity
  8
Layer_1
 62
7
100
AcDbLine
 10
79.138464
 20
391.754571
 30
0.0
 11
86.938323
 21
391.754620
 31
0.0
  0
LINE
  5
316
100
AcDbEntity
  8
Layer_1
 62
7
100
AcDbLine
 10
86.938323
 20
391.754620
 30
0.0
 11
90.838205
 21
384.999825
 31
0.0
  0
LINE
  5
317
100
AcDbEntity
  8
Layer_1
 62
7
100
AcDbLine
 10
90.838205
 20
384.999825
 30
0.0
 11
86.938229
 21
378.244983
 31
0.0
  0
SPLINE
  5
318
100
AcDbEntity
  8
Layer_1
 62
7
100
AcDbSpline
 70
8
 71
3
 72
8
 73
4
 74
0
 40
0
 40
0
 40
0
 40
0
 40
1
 40
1
 40
1
 40
1
 10
67.477820
 20
381.754785
 30
0.0
 10
64.584773
 20
378.828483
 30
0.0
 10
61.885016
 20
375.717207
 30
0.0
 10
59.395628
 20
372.440637
 30
0.0
  0
LINE
  5
319
100
AcDbEntity
  8
Layer_1
 62
7
100
AcDbLine
 10
59.395628
 20
372.440637
 30
0.0
 11
61.817700
 21
368.245007
 31
0.0
  0
LINE
  5
31a
100
AcDbEntity
  8
Layer_1
 62
7
100
AcDbLine
 10
61.817700
 20
368.245007
 30
0.0
 11
69.617741
 21
368.245007
 31
0.0
  0
LINE
  5
31b
100
AcDbEntity
  8
Layer_1
 62
7
100
AcDbLine
 10
69.617741
 20
368.245007
 30
0.0
 11
73.517763
 21
374.999634
 31
0.0
  0
LINE
  5
31c
100
AcDbEntity
  8
Layer_1
 62
7
100
AcDbLine
 10
73.517763
 20
374.999634
 30
0.0
 11
69.617741
 21
381.754785
 31
0.0
  0
LINE
  5
31d
100
AcDbEntity
  8
Layer_1
 62
7
100
AcDbLine
 10
69.617741
 20
381.754785
 30
0.0
 11
67.477820
 21
381.754785
 31
0.0
  0
SPLINE
  5
31e
100
AcDbEntity
  8
Layer_1
 62
7
100
AcDbSpline
 70
8
 71
3
 72
8
 73
4
 74
0
 40
0
 40
0
 40
0
 40
0
 40
1
 40
1
 40
1
 40
1
 10
55.283733
 20
366.582577
 30
0.0
 10
53.539227
 20
363.886606
 30
0.0
 10
51.932610
 20
361.103873
 30
0.0
 10
50.470073
 20
358.245106
 30
0.0
  0
LINE
  5
31f
100
AcDbEntity
  8
Layer_1
 62
7
100
AcDbLine
 10
50.470073
 20
358.245106
 30
0.0
 11
52.297352
 21
358.245106
 31
0.0
  0
LINE
  5
320
100
AcDbEntity
  8
Layer_1
 62
7
100
AcDbLine
 10
52.297352
 20
358.245106
 30
0.0
 11
56.197374
 21
364.999733
 31
0.0
  0
LINE
  5
321
100
AcDbEntity
  8
Layer_1
 62
7
100
AcDbLine
 10
56.197374
 20
364.999733
 30
0.0
 11
55.283733
 21
366.582577
 31
0.0
  0
SPLINE
  5
322
100
AcDbEntity
  8
Layer_1
 62
7
100
AcDbSpline
 70
8
 71
3
 72
8
 73
4
 74
0
 40
0
 40
0
 40
0
 40
0
 40
1
 40
1
 40
1
 40
1
 10
79.950000
 20
164.999996
 30
0.0
 10
79.950000
 20
145.697644
 30
0.0
 10
64.302352
 20
130.049996
 30
0.0
 10
45.000000
 20
130.049995
 30
0.0
  0
SPLINE
  5
323
100
AcDbEntity
  8
Layer_1
 62
7
100
AcDbSpline
 70
8
 71
3
 72
8
 73
4
 74
0
 40
0
 40
0
 40
0
 40
0
 40
1
 40
1
 40
1
 40
1
 10
45.000000
 20
130.049995
 30
0.0
 10
25.697648
 20
130.049996
 30
0.0
 10
10.050000
 20
145.697644
 30
0.0
 10
10.050000
 20
164.999996
 30
0.0
  0
SPLINE
  5
324
100
AcDbEntity
  8
Layer_1
 62
7
100
AcDbSpline
 70
8
 71
3
 72
8
 73
4
 74
0
 40
0
 40
0
 40
0
 40
0
 40
1
 40
1
 40
1
 40
1
 10
10.050000
 20
164.999996
 30
0.0
 10
10.050000
 20
184.302348
 30
0.0
 10
25.697648
 20
199.949996
 30
0.0
 10
45.000000
 20
199.949997
 30
0.0
  0
SPLINE
  5
325
100
AcDbEntity
  8
Layer_1
 62
7
100
AcDbSpline
 70
8
 71
3
 72
8
 73
4
 74
0
 40
0
 40
0
 40
0
 40
0
 40
1
 40
1
 40
1
 40
1
 10
45.000000
 20
199.949997
 30
0.0
 10
64.302352
 20
199.949996
 30
0.0
 10
79.950000
 20
184.302348
 30
0.0
 10
79.950000
 20
164.999996
 30
0.0
  0
LINE
  5
326
100
AcDbEntity
  8
Layer_1
 62
7
100
AcDbLine
 10
79.950000
 20
164.999996
 30
0.0
 11
79.950000
 21
164.999996
 31
0.0
  0
SPLINE
  5
327
100
AcDbEntity
  8
Layer_1
 62
7
100
AcDbSpline
 70
8
 71
3
 72
8
 73
4
 74
0
 40
0
 40
0
 40
0
 40
0
 40
1
 40
1
 40
1
 40
1
 10
45.000160
 20
196.012158
 30
0.0
 10
43.085120
 20
196.012073
 30
0.0
 10
41.174204
 20
195.834603
 30
0.0
 10
39.291900
 20
195.482022
 30
0.0
  0
LINE
  5
328
100
AcDbEntity
  8
Layer_1
 62
7
100
AcDbLine
 10
39.291900
 20
195.482022
 30
0.0
 11
41.100020
 21
192.350122
 31
0.0
  0
LINE
  5
329
100
AcDbEntity
  8
Layer_1
 62
7
100
AcDbLine
 10
41.100020
 20
192.350122
 30
0.0
 11
48.899790
 21
192.350122
 31
0.0
  0
LINE
  5
32a
100
AcDbEntity
  8
Layer_1
 62
7
100
AcDbLine
 10
48.899790
 20
192.350122
 30
0.0
 11
50.708400
 21
195.482022
 31
0.0
  0
SPLINE
  5
32b
100
AcDbEntity
  8
Layer_1
 62
7
100
AcDbSpline
 70
8
 71
3
 72
8
 73
4
 74
0
 40
0
 40
0
 40
0
 40
0
 40
1
 40
1
 40
1
 40
1
 10
50.708400
 20
195.482022
 30
0.0
 10
48.826103
 20
195.834601
 30
0.0
 10
46.915194
 20
196.012071
 30
0.0
 10
45.000160
 20
196.012158
 30
0.0
  0
LINE
  5
32c
100
AcDbEntity
  8
Layer_1
 62
7
100
AcDbLine
 10
45.000160
 20
196.012158
 30
0.0
 11
45.000160
 21
196.012158
 31
0.0
  0
LINE
  5
32d
100
AcDbEntity
  8
Layer_1
 62
7
100
AcDbLine
 10
52.799830
 20
182.052444
 30
0.0
 11
48.899880
 21
175.297541
 31
0.0
  0
LINE
  5
32e
100
AcDbEntity
  8
Layer_1
 62
7
100
AcDbLine
 10
48.899880
 20
175.297541
 30
0.0
 11
41.099990
 21
175.297541
 31
0.0
  0
LINE
  5
32f
100
AcDbEntity
  8
Layer_1
 62
7
100
AcDbLine
 10
41.099990
 20
175.297541
 30
0.0
 11
37.200050
 21
182.052444
 31
0.0
  0
LINE
  5
330
100
AcDbEntity
  8
Layer_1
 62
7
100
AcDbLine
 10
37.200050
 20
182.052444
 30
0.0
 11
41.099990
 21
188.807348
 31
0.0
  0
LINE
  5
331
100
AcDbEntity
  8
Layer_1
 62
7
100
AcDbLine
 10
41.099990
 20
188.807348
 30
0.0
 11
48.899880
 21
188.807348
 31
0.0
  0
LINE
  5
332
100
AcDbEntity
  8
Layer_1
 62
7
100
AcDbLine
 10
48.899880
 20
188.807348
 30
0.0
 11
52.799830
 21
182.052444
 31
0.0
  0
LINE
  5
333
100
AcDbEntity
  8
Layer_1
 62
7
100
AcDbLine
 10
52.799830
 20
147.948212
 30
0.0
 11
48.899880
 21
141.193308
 31
0.0
  0
LINE
  5
334
100
AcDbEntity
  8
Layer_1
 62
7
100
AcDbLine
 10
48.899880
 20
141.193308
 30
0.0
 11
41.099990
 21
141.193308
 31
0.0
  0
LINE
  5
335
100
AcDbEntity
  8
Layer_1
 62
7
100
AcDbLine
 10
41.099990
 20
141.193308
 30
0.0
 11
37.200050
 21
147.948212
 31
0.0
  0
LINE
  5
336
100
AcDbEntity
  8
Layer_1
 62
7
100
AcDbLine
 10
37.200050
 20
147.948212
 30
0.0
 11
41.099990
 21
154.703115
 31
0.0
  0
LINE
  5
337
100
AcDbEntity
  8
Layer_1
 62
7
100
AcDbLine
 10
41.099990
 20
154.703115
 30
0.0
 11
48.899880
 21
154.703115
 31
0.0
  0
LINE
  5
338
100
AcDbEntity
  8
Layer_1
 62
7
100
AcDbLine
 10
48.899880
 20
154.703115
 30
0.0
 11
52.799830
 21
147.948212
 31
0.0
  0
LINE
  5
339
100
AcDbEntity
  8
Layer_1
 62
7
100
AcDbLine
 10
41.100020
 20
137.650588
 30
0.0
 11
39.291400
 21
134.518168
 31
0.0
  0
SPLINE
  5
33a
100
AcDbEntity
  8
Layer_1
 62
7
100
AcDbSpline
 70
8
 71
3
 72
8
 73
4
 74
0
 40
0
 40
0
 40
0
 40
0
 40
1
 40
1
 40
1
 40
1
 10
39.291400
 20
134.518168
 30
0.0
 10
41.173868
 20
134.165556
 30
0.0
 10
43.084953
 20
133.988086
 30
0.0
 10
45.000160
 20
133.988031
 30
0.0
  0
SPLINE
  5
33b
100
AcDbEntity
  8
Layer_1
 62
7
100
AcDbSpline
 70
8
 71
3
 72
8
 73
4
 74
0
 40
0
 40
0
 40
0
 40
0
 40
1
 40
1
 40
1
 40
1
 10
45.000160
 20
133.988031
 30
0.0
 10
46.915194
 20
133.988118
 30
0.0
 10
48.826103
 20
134.165588
 30
0.0
 10
50.708400
 20
134.518168
 30
0.0
  0
LINE
  5
33c
100
AcDbEntity
  8
Layer_1
 62
7
100
AcDbLine
 10
50.708400
 20
134.518168
 30
0.0
 11
48.899790
 21
137.650588
 31
0.0
  0
LINE
  5
33d
100
AcDbEntity
  8
Layer_1
 62
7
100
AcDbLine
 10
48.899790
 20
137.650588
 30
0.0
 11
41.100020
 21
137.650588
 31
0.0
  0
LINE
  5
33e
100
AcDbEntity
  8
Layer_1
 62
7
100
AcDbLine
 10
67.567410
 20
156.474030
 30
0.0
 11
63.667460
 21
149.719126
 31
0.0
  0
LINE
  5
33f
100
AcDbEntity
  8
Layer_1
 62
7
100
AcDbLine
 10
63.667460
 20
149.719126
 30
0.0
 11
55.867570
 21
149.719126
 31
0.0
  0
LINE
  5
340
100
AcDbEntity
  8
Layer_1
 62
7
100
AcDbLine
 10
55.867570
 20
149.719126
 30
0.0
 11
51.967630
 21
156.474030
 31
0.0
  0
LINE
  5
341
100
AcDbEntity
  8
Layer_1
 62
7
100
AcDbLine
 10
51.967630
 20
156.474030
 30
0.0
 11
55.867570
 21
163.228933
 31
0.0
  0
LINE
  5
342
100
AcDbEntity
  8
Layer_1
 62
7
100
AcDbLine
 10
55.867570
 20
163.228933
 30
0.0
 11
63.667460
 21
163.228933
 31
0.0
  0
LINE
  5
343
100
AcDbEntity
  8
Layer_1
 62
7
100
AcDbLine
 10
63.667460
 20
163.228933
 30
0.0
 11
67.567410
 21
156.474030
 31
0.0
  0
LINE
  5
344
100
AcDbEntity
  8
Layer_1
 62
7
100
AcDbLine
 10
67.567410
 20
173.526627
 30
0.0
 11
63.667460
 21
166.771723
 31
0.0
  0
LINE
  5
345
100
AcDbEntity
  8
Layer_1
 62
7
100
AcDbLine
 10
63.667460
 20
166.771723
 30
0.0
 11
55.867570
 21
166.771723
 31
0.0
  0
LINE
  5
346
100
AcDbEntity
  8
Layer_1
 62
7
100
AcDbLine
 10
55.867570
 20
166.771723
 30
0.0
 11
51.967630
 21
173.526627
 31
0.0
  0
LINE
  5
347
100
AcDbEntity
  8
Layer_1
 62
7
100
AcDbLine
 10
51.967630
 20
173.526627
 30
0.0
 11
55.867570
 21
180.281530
 31
0.0
  0
LINE
  5
348
100
AcDbEntity
  8
Layer_1
 62
7
100
AcDbLine
 10
55.867570
 20
180.281530
 30
0.0
 11
63.667460
 21
180.281530
 31
0.0
  0
LINE
  5
349
100
AcDbEntity
  8
Layer_1
 62
7
100
AcDbLine
 10
63.667460
 20
180.281530
 30
0.0
 11
67.567410
 21
173.526627
 31
0.0
  0
LINE
  5
34a
100
AcDbEntity
  8
Layer_1
 62
7
100
AcDbLine
 10
54.282940
 20
194.589657
 30
0.0
 11
51.967580
 21
190.579120
 31
0.0
  0
LINE
  5
34b
100
AcDbEntity
  8
Layer_1
 62
7
100
AcDbLine
 10
51.967580
 20
190.579120
 30
0.0
 11
55.867720
 21
183.824362
 31
0.0
  0
LINE
  5
34c
100
AcDbEntity
  8
Layer_1
 62
7
100
AcDbLine
 10
55.867720
 20
183.824362
 30
0.0
 11
63.667460
 21
183.824362
 31
0.0
  0
LINE
  5
34d
100
AcDbEntity
  8
Layer_1
 62
7
100
AcDbLine
 10
63.667460
 20
183.824362
 30
0.0
 11
65.983350
 21
187.834899
 31
0.0
  0
SPLINE
  5
34e
100
AcDbEntity
  8
Layer_1
 62
7
100
AcDbSpline
 70
8
 71
3
 72
8
 73
4
 74
0
 40
0
 40
0
 40
0
 40
0
 40
1
 40
1
 40
1
 40
1
 10
65.983350
 20
187.834899
 30
0.0
 10
62.627014
 20
190.918988
 30
0.0
 10
58.632091
 20
193.225296
 30
0.0
 10
54.282940
 20
194.589657
 30
0.0
  0
LINE
  5
34f
100
AcDbEntity
  8
Layer_1
 62
7
100
AcDbLine
 10
54.282940
 20
194.589657
 30
0.0
 11
54.282940
 21
194.589657
 31
0.0
  0
LINE
  5
350
100
AcDbEntity
  8
Layer_1
 62
7
100
AcDbLine
 10
55.867720
 20
146.176348
 30
0.0
 11
51.967580
 21
139.421564
 31
0.0
  0
LINE
  5
351
100
AcDbEntity
  8
Layer_1
 62
7
100
AcDbLine
 10
51.967580
 20
139.421564
 30
0.0
 11
54.283440
 21
135.410533
 31
0.0
  0
SPLINE
  5
352
100
AcDbEntity
  8
Layer_1
 62
7
100
AcDbSpline
 70
8
 71
3
 72
8
 73
4
 74
0
 40
0
 40
0
 40
0
 40
0
 40
1
 40
1
 40
1
 40
1
 10
54.283440
 20
135.410533
 30
0.0
 10
58.632413
 20
136.774961
 30
0.0
 10
62.627160
 20
139.081265
 30
0.0
 10
65.983350
 20
142.165290
 30
0.0
  0
LINE
  5
353
100
AcDbEntity
  8
Layer_1
 62
7
100
AcDbLine
 10
65.983350
 20
142.165290
 30
0.0
 11
63.667460
 21
146.176348
 31
0.0
  0
LINE
  5
354
100
AcDbEntity
  8
Layer_1
 62
7
100
AcDbLine
 10
63.667460
 20
146.176348
 30
0.0
 11
55.867720
 21
146.176348
 31
0.0
  0
LINE
  5
355
100
AcDbEntity
  8
Layer_1
 62
7
100
AcDbLine
 10
68.543900
 20
185.184790
 30
0.0
 11
66.735280
 21
182.052370
 31
0.0
  0
LINE
  5
356
100
AcDbEntity
  8
Layer_1
 62
7
100
AcDbLine
 10
66.735280
 20
182.052370
 30
0.0
 11
70.634910
 21
175.297586
 31
0.0
  0
LINE
  5
357
100
AcDbEntity
  8
Layer_1
 62
7
100
AcDbLine
 10
70.634910
 20
175.297586
 30
0.0
 11
74.252170
 21
175.297586
 31
0.0
  0
SPLINE
  5
358
100
AcDbEntity
  8
Layer_1
 62
7
100
AcDbSpline
 70
8
 71
3
 72
8
 73
4
 74
0
 40
0
 40
0
 40
0
 40
0
 40
1
 40
1
 40
1
 40
1
 10
74.252170
 20
175.297586
 30
0.0
 10
72.977682
 20
178.918179
 30
0.0
 10
71.042133
 20
182.270713
 30
0.0
 10
68.543900
 20
185.184790
 30
0.0
  0
LINE
  5
359
100
AcDbEntity
  8
Layer_1
 62
7
100
AcDbLine
 10
68.543900
 20
185.184790
 30
0.0
 11
68.543900
 21
185.184790
 31
0.0
  0
LINE
  5
35a
100
AcDbEntity
  8
Layer_1
 62
7
100
AcDbLine
 10
70.634910
 20
171.755113
 30
0.0
 11
66.735280
 21
164.999834
 31
0.0
  0
LINE
  5
35b
100
AcDbEntity
  8
Layer_1
 62
7
100
AcDbLine
 10
66.735280
 20
164.999834
 30
0.0
 11
70.634910
 21
158.245076
 31
0.0
  0
LINE
  5
35c
100
AcDbEntity
  8
Layer_1
 62
7
100
AcDbLine
 10
70.634910
 20
158.245076
 30
0.0
 11
75.267140
 21
158.245076
 31
0.0
  0
SPLINE
  5
35d
100
AcDbEntity
  8
Layer_1
 62
7
100
AcDbSpline
 70
8
 71
3
 72
8
 73
4
 74
0
 40
0
 40
0
 40
0
 40
0
 40
1
 40
1
 40
1
 40
1
 10
75.267140
 20
158.245076
 30
0.0
 10
75.762109
 20
160.462579
 30
0.0
 10
76.011885
 20
162.727761
 30
0.0
 10
76.011970
 20
164.999834
 30
0.0
  0
SPLINE
  5
35e
100
AcDbEntity
  8
Layer_1
 62
7
100
AcDbSpline
 70
8
 71
3
 72
8
 73
4
 74
0
 40
0
 40
0
 40
0
 40
0
 40
1
 40
1
 40
1
 40
1
 10
76.011970
 20
164.999834
 30
0.0
 10
76.011923
 20
167.272081
 30
0.0
 10
75.762147
 20
169.537440
 30
0.0
 10
75.267140
 20
171.755113
 30
0.0
  0
LINE
  5
35f
100
AcDbEntity
  8
Layer_1
 62
7
100
AcDbLine
 10
75.267140
 20
171.755113
 30
0.0
 11
70.634910
 21
171.755113
 31
0.0
  0
LINE
  5
360
100
AcDbEntity
  8
Layer_1
 62
7
100
AcDbLine
 10
70.634910
 20
154.703098
 30
0.0
 11
66.735280
 21
147.948340
 31
0.0
  0
LINE
  5
361
100
AcDbEntity
  8
Layer_1
 62
7
100
AcDbLine
 10
66.735280
 20
147.948340
 30
0.0
 11
68.543900
 21
144.815920
 31
0.0
  0
SPLINE
  5
362
100
AcDbEntity
  8
Layer_1
 62
7
100
AcDbSpline
 70
8
 71
3
 72
8
 73
4
 74
0
 40
0
 40
0
 40
0
 40
0
 40
1
 40
1
 40
1
 40
1
 10
68.543900
 20
144.815920
 30
0.0
 10
71.042315
 20
147.729948
 30
0.0
 10
72.978042
 20
151.082475
 30
0.0
 10
74.252690
 20
154.703098
 30
0.0
  0
LINE
  5
363
100
AcDbEntity
  8
Layer_1
 62
7
100
AcDbLine
 10
74.252690
 20
154.703098
 30
0.0
 11
70.634910
 21
154.703098
 31
0.0
  0
SPLINE
  5
364
100
AcDbEntity
  8
Layer_1
 62
7
100
AcDbSpline
 70
8
 71
3
 72
8
 73
4
 74
0
 40
0
 40
0
 40
0
 40
0
 40
1
 40
1
 40
1
 40
1
 10
35.716870
 20
194.589657
 30
0.0
 10
31.367904
 20
193.225226
 30
0.0
 10
27.373164
 20
190.918922
 30
0.0
 10
24.016980
 20
187.834899
 30
0.0
  0
LINE
  5
365
100
AcDbEntity
  8
Layer_1
 62
7
100
AcDbLine
 10
24.016980
 20
187.834899
 30
0.0
 11
26.332340
 21
183.824362
 31
0.0
  0
LINE
  5
366
100
AcDbEntity
  8
Layer_1
 62
7
100
AcDbLine
 10
26.332340
 20
183.824362
 30
0.0
 11
34.132080
 21
183.824362
 31
0.0
  0
LINE
  5
367
100
AcDbEntity
  8
Layer_1
 62
7
100
AcDbLine
 10
34.132080
 20
183.824362
 30
0.0
 11
38.032230
 21
190.579120
 31
0.0
  0
LINE
  5
368
100
AcDbEntity
  8
Layer_1
 62
7
100
AcDbLine
 10
38.032230
 20
190.579120
 30
0.0
 11
35.716870
 21
194.589657
 31
0.0
  0
LINE
  5
369
100
AcDbEntity
  8
Layer_1
 62
7
100
AcDbLine
 10
38.032250
 20
173.526627
 30
0.0
 11
34.132310
 21
166.771723
 31
0.0
  0
LINE
  5
36a
100
AcDbEntity
  8
Layer_1
 62
7
100
AcDbLine
 10
34.132310
 20
166.771723
 30
0.0
 11
26.332420
 21
166.771723
 31
0.0
  0
LINE
  5
36b
100
AcDbEntity
  8
Layer_1
 62
7
100
AcDbLine
 10
26.332420
 20
166.771723
 30
0.0
 11
22.432470
 21
173.526627
 31
0.0
  0
LINE
  5
36c
100
AcDbEntity
  8
Layer_1
 62
7
100
AcDbLine
 10
22.432470
 20
173.526627
 30
0.0
 11
26.332420
 21
180.281530
 31
0.0
  0
LINE
  5
36d
100
AcDbEntity
  8
Layer_1
 62
7
100
AcDbLine
 10
26.332420
 20
180.281530
 30
0.0
 11
34.132310
 21
180.281530
 31
0.0
  0
LINE
  5
36e
100
AcDbEntity
  8
Layer_1
 62
7
100
AcDbLine
 10
34.132310
 20
180.281530
 30
0.0
 11
38.032250
 21
173.526627
 31
0.0
  0
LINE
  5
36f
100
AcDbEntity
  8
Layer_1
 62
7
100
AcDbLine
 10
38.032250
 20
156.474030
 30
0.0
 11
34.132310
 21
149.719126
 31
0.0
  0
LINE
  5
370
100
AcDbEntity
  8
Layer_1
 62
7
100
AcDbLine
 10
34.132310
 20
149.719126
 30
0.0
 11
26.332420
 21
149.719126
 31
0.0
  0
LINE
  5
371
100
AcDbEntity
  8
Layer_1
 62
7
100
AcDbLine
 10
26.332420
 20
149.719126
 30
0.0
 11
22.432470
 21
156.474030
 31
0.0
  0
LINE
  5
372
100
AcDbEntity
  8
Layer_1
 62
7
100
AcDbLine
 10
22.432470
 20
156.474030
 30
0.0
 11
26.332420
 21
163.228933
 31
0.0
  0
LINE
  5
373
100
AcDbEntity
  8
Layer_1
 62
7
100
AcDbLine
 10
26.332420
 20
163.228933
 30
0.0
 11
34.132310
 21
163.228933
 31
0.0
  0
LINE
  5
374
100
AcDbEntity
  8
Layer_1
 62
7
100
AcDbLine
 10
34.132310
 20
163.228933
 30
0.0
 11
38.032250
 21
156.474030
 31
0.0
  0
LINE
  5
375
100
AcDbEntity
  8
Layer_1
 62
7
100
AcDbLine
 10
26.332340
 20
146.176348
 30
0.0
 11
24.016980
 21
142.165290
 31
0.0
  0
SPLINE
  5
376
100
AcDbEntity
  8
Layer_1
 62
7
100
AcDbSpline
 70
8
 71
3
 72
8
 73
4
 74
0
 40
0
 40
0
 40
0
 40
0
 40
1
 40
1
 40
1
 40
1
 10
24.016980
 20
142.165290
 30
0.0
 10
27.373019
 20
139.081330
 30
0.0
 10
31.367582
 20
136.775030
 30
0.0
 10
35.716370
 20
135.410533
 30
0.0
  0
LINE
  5
377
100
AcDbEntity
  8
Layer_1
 62
7
100
AcDbLine
 10
35.716370
 20
135.410533
 30
0.0
 11
38.032230
 21
139.421564
 31
0.0
  0
LINE
  5
378
100
AcDbEntity
  8
Layer_1
 62
7
100
AcDbLine
 10
38.032230
 20
139.421564
 30
0.0
 11
34.132080
 21
146.176348
 31
0.0
  0
LINE
  5
379
100
AcDbEntity
  8
Layer_1
 62
7
100
AcDbLine
 10
34.132080
 20
146.176348
 30
0.0
 11
26.332340
 21
146.176348
 31
0.0
  0
SPLINE
  5
37a
100
AcDbEntity
  8
Layer_1
 62
7
100
AcDbSpline
 70
8
 71
3
 72
8
 73
4
 74
0
 40
0
 40
0
 40
0
 40
0
 40
1
 40
1
 40
1
 40
1
 10
21.456400
 20
185.184790
 30
0.0
 10
18.957993
 20
182.270752
 30
0.0
 10
17.022276
 20
178.918216
 30
0.0
 10
15.747640
 20
175.297586
 30
0.0
  0
LINE
  5
37b
100
AcDbEntity
  8
Layer_1
 62
7
100
AcDbLine
 10
15.747640
 20
175.297586
 30
0.0
 11
19.364900
 21
175.297586
 31
0.0
  0
LINE
  5
37c
100
AcDbEntity
  8
Layer_1
 62
7
100
AcDbLine
 10
19.364900
 20
175.297586
 30
0.0
 11
23.264520
 21
182.052370
 31
0.0
  0
LINE
  5
37d
100
AcDbEntity
  8
Layer_1
 62
7
100
AcDbLine
 10
23.264520
 20
182.052370
 30
0.0
 11
21.456400
 21
185.184790
 31
0.0
  0
SPLINE
  5
37e
100
AcDbEntity
  8
Layer_1
 62
7
100
AcDbSpline
 70
8
 71
3
 72
8
 73
4
 74
0
 40
0
 40
0
 40
0
 40
0
 40
1
 40
1
 40
1
 40
1
 10
14.732670
 20
171.754618
 30
0.0
 10
14.237699
 20
169.537107
 30
0.0
 10
13.987923
 20
167.271915
 30
0.0
 10
13.987840
 20
164.999834
 30
0.0
  0
SPLINE
  5
37f
100
AcDbEntity
  8
Layer_1
 62
7
100
AcDbSpline
 70
8
 71
3
 72
8
 73
4
 74
0
 40
0
 40
0
 40
0
 40
0
 40
1
 40
1
 40
1
 40
1
 10
13.987840
 20
164.999834
 30
0.0
 10
13.987925
 20
162.727761
 30
0.0
 10
14.237701
 20
160.462579
 30
0.0
 10
14.732670
 20
158.245076
 30
0.0
  0
LINE
  5
380
100
AcDbEntity
  8
Layer_1
 62
7
100
AcDbLine
 10
14.732670
 20
158.245076
 30
0.0
 11
19.364900
 21
158.245076
 31
0.0
  0
LINE
  5
381
100
AcDbEntity
  8
Layer_1
 62
7
100
AcDbLine
 10
19.364900
 20
158.245076
 30
0.0
 11
23.264520
 21
164.999834
 31
0.0
  0
LINE
  5
382
100
AcDbEntity
  8
Layer_1
 62
7
100
AcDbLine
 10
23.264520
 20
164.999834
 30
0.0
 11
19.364900
 21
171.754618
 31
0.0
  0
LINE
  5
383
100
AcDbEntity
  8
Layer_1
 62
7
100
AcDbLine
 10
19.364900
 20
171.754618
 30
0.0
 11
14.732670
 21
171.754618
 31
0.0
  0
SPLINE
  5
384
100
AcDbEntity
  8
Layer_1
 62
7
100
AcDbSpline
 70
8
 71
3
 72
8
 73
4
 74
0
 40
0
 40
0
 40
0
 40
0
 40
1
 40
1
 40
1
 40
1
 10
15.747640
 20
154.703098
 30
0.0
 10
17.022073
 20
151.082330
 30
0.0
 10
18.957624
 20
147.729624
 30
0.0
 10
21.455910
 20
144.815399
 30
0.0
  0
LINE
  5
385
100
AcDbEntity
  8
Layer_1
 62
7
100
AcDbLine
 10
21.455910
 20
144.815399
 30
0.0
 11
23.264520
 21
147.948340
 31
0.0
  0
LINE
  5
386
100
AcDbEntity
  8
Layer_1
 62
7
100
AcDbLine
 10
23.264520
 20
147.948340
 30
0.0
 11
19.364900
 21
154.703098
 31
0.0
  0
LINE
  5
387
100
AcDbEntity
  8
Layer_1
 62
7
100
AcDbLine
 10
19.364900
 20
154.703098
 30
0.0
 11
15.747640
 21
154.703098
 31
0.0
  0
SPLINE
  5
388
100
AcDbEntity
  8
Layer_1
 62
7
100
AcDbSpline
 70
8
 71
3
 72
8
 73
4
 74
0
 40
0
 40
0
 40
0
 40
0
 40
1
 40
1
 40
1
 40
1
 10
43.860273
 20
166.050018
 30
0.0
 10
43.596554
 20
165.763904
 30
0.0
 10
43.450094
 20
165.389066
 30
0.0
 10
43.449984
 20
164.999952
 30
0.0
  0
LINE
  5
389
100
AcDbEntity
  8
Layer_1
 62
7
100
AcDbLine
 10
43.449984
 20
164.999952
 30
0.0
 11
43.449984
 21
164.988575
 31
0.0
  0
SPLINE
  5
38a
100
AcDbEntity
  8
Layer_1
 62
7
100
AcDbSpline
 70
8
 71
3
 72
8
 73
4
 74
0
 40
0
 40
0
 40
0
 40
0
 40
1
 40
1
 40
1
 40
1
 10
43.449984
 20
164.988575
 30
0.0
 10
43.456352
 20
164.137155
 30
0.0
 10
44.148310
 20
163.450271
 30
0.0
 10
44.999754
 20
163.450169
 30
0.0
  0
LINE
  5
38b
100
AcDbEntity
  8
Layer_1
 62
7
100
AcDbLine
 10
44.999754
 20
163.450169
 30
0.0
 11
45.011661
 21
163.450169
 31
0.0
  0
SPLINE
  5
38c
100
AcDbEntity
  8
Layer_1
 62
7
100
AcDbSpline
 70
8
 71
3
 72
8
 73
4
 74
0
 40
0
 40
0
 40
0
 40
0
 40
1
 40
1
 40
1
 40
1
 10
45.011661
 20
163.450169
 30
0.0
 10
45.863089
 20
163.456530
 30
0.0
 10
46.549981
 20
164.148493
 30
0.0
 10
46.550080
 20
164.999945
 30
0.0
  0
LINE
  5
38d
100
AcDbEntity
  8
Layer_1
 62
7
100
AcDbLine
 10
46.550080
 20
164.999945
 30
0.0
 11
46.550080
 21
165.011322
 31
0.0
  0
SPLINE
  5
38e
100
AcDbEntity
  8
Layer_1
 62
7
100
AcDbSpline
 70
8
 71
3
 72
8
 73
4
 74
0
 40
0
 40
0
 40
0
 40
0
 40
1
 40
1
 40
1
 40
1
 10
46.550080
 20
165.011322
 30
0.0
 10
46.547264
 20
165.396443
 30
0.0
 10
46.401171
 20
165.766723
 30
0.0
 10
46.140267
 20
166.050018
 30
0.0
  0
LINE
  5
38f
100
AcDbEntity
  8
Layer_1
 62
7
100
AcDbLine
 10
46.140267
 20
166.050018
 30
0.0
 11
43.860273
 21
166.050018
 31
0.0
  0
LINE
  5
390
100
AcDbEntity
  8
Layer_1
 62
7
100
AcDbLine
 10
47.450060
 20
97.650010
 30
0.0
 11
47.450060
 21
94.550010
 31
0.0
  0
LINE
  5
391
100
AcDbEntity
  8
Layer_1
 62
7
100
AcDbLine
 10
47.450060
 20
94.550010
 30
0.0
 11
37.350060
 21
94.550010
 31
0.0
  0
LINE
  5
392
100
AcDbEntity
  8
Layer_1
 62
7
100
AcDbLine
 10
37.350060
 20
94.550010
 30
0.0
 11
37.350060
 21
97.650010
 31
0.0
  0
LINE
  5
393
100
AcDbEntity
  8
Layer_1
 62
7
100
AcDbLine
 10
37.350060
 20
97.650010
 30
0.0
 11
47.450060
 21
97.650010
 31
0.0
  0
LINE
  5
394
100
AcDbEntity
  8
Layer_1
 62
7
100
AcDbLine
 10
73.650020
 20
66.550000
 30
0.0
 11
73.650020
 21
51.450000
 31
0.0
  0
LINE
  5
395
100
AcDbEntity
  8
Layer_1
 62
7
100
AcDbLine
 10
73.650020
 20
51.450000
 30
0.0
 11
70.550020
 21
51.450000
 31
0.0
  0
LINE
  5
396
100
AcDbEntity
  8
Layer_1
 62
7
100
AcDbLine
 10
70.550020
 20
51.450000
 30
0.0
 11
70.550020
 21
66.550000
 31
0.0
  0
LINE
  5
397
100
AcDbEntity
  8
Layer_1
 62
7
100
AcDbLine
 10
70.550020
 20
66.550000
 30
0.0
 11
73.650020
 21
66.550000
 31
0.0
  0
LINE
  5
398
100
AcDbEntity
  8
Layer_1
 62
7
100
AcDbLine
 10
47.450060
 20
23.449960
 30
0.0
 11
47.450060
 21
20.349960
 31
0.0
  0
LINE
  5
399
100
AcDbEntity
  8
Layer_1
 62
7
100
AcDbLine
 10
47.450060
 20
20.349960
 30
0.0
 11
37.350060
 21
20.349960
 31
0.0
  0
LINE
  5
39a
100
AcDbEntity
  8
Layer_1
 62
7
100
AcDbLine
 10
37.350060
 20
20.349960
 30
0.0
 11
37.350060
 21
23.449960
 31
0.0
  0
LINE
  5
39b
100
AcDbEntity
  8
Layer_1
 62
7
100
AcDbLine
 10
37.350060
 20
23.449960
 30
0.0
 11
47.450060
 21
23.449960
 31
0.0
  0
SPLINE
  5
39c
100
AcDbEntity
  8
Layer_1
 62
7
100
AcDbSpline
 70
8
 71
3
 72
8
 73
4
 74
0
 40
0
 40
0
 40
0
 40
0
 40
1
 40
1
 40
1
 40
1
 10
60.999990
 20
75.800010
 30
0.0
 10
60.549122
 20
75.800010
 30
0.0
 10
60.116720
 20
75.979117
 30
0.0
 10
59.797908
 20
76.297928
 30
0.0
  0
SPLINE
  5
39d
100
AcDbEntity
  8
Layer_1
 62
7
100
AcDbSpline
 70
8
 71
3
 72
8
 73
4
 74
0
 40
0
 40
0
 40
0
 40
0
 40
1
 40
1
 40
1
 40
1
 10
59.797908
 20
76.297928
 30
0.0
 10
59.479097
 20
76.616740
 30
0.0
 10
59.299990
 20
77.049142
 30
0.0
 10
59.299990
 20
77.500010
 30
0.0
  0
SPLINE
  5
39e
100
AcDbEntity
  8
Layer_1
 62
7
100
AcDbSpline
 70
8
 71
3
 72
8
 73
4
 74
0
 40
0
 40
0
 40
0
 40
0
 40
1
 40
1
 40
1
 40
1
 10
59.299990
 20
77.500010
 30
0.0
 10
59.299990
 20
77.950878
 30
0.0
 10
59.479097
 20
78.383280
 30
0.0
 10
59.797908
 20
78.702092
 30
0.0
  0
SPLINE
  5
39f
100
AcDbEntity
  8
Layer_1
 62
7
100
AcDbSpline
 70
8
 71
3
 72
8
 73
4
 74
0
 40
0
 40
0
 40
0
 40
0
 40
1
 40
1
 40
1
 40
1
 10
59.797908
 20
78.702092
 30
0.0
 10
60.116720
 20
79.020903
 30
0.0
 10
60.549122
 20
79.200010
 30
0.0
 10
60.999990
 20
79.200010
 30
0.0
  0
SPLINE
  5
3a0
100
AcDbEntity
  8
Layer_1
 62
7
100
AcDbSpline
 70
8
 71
3
 72
8
 73
4
 74
0
 40
0
 40
0
 40
0
 40
0
 40
1
 40
1
 40
1
 40
1
 10
60.999990
 20
79.200010
 30
0.0
 10
61.450858
 20
79.200010
 30
0.0
 10
61.883260
 20
79.020903
 30
0.0
 10
62.202072
 20
78.702092
 30
0.0
  0
SPLINE
  5
3a1
100
AcDbEntity
  8
Layer_1
 62
7
100
AcDbSpline
 70
8
 71
3
 72
8
 73
4
 74
0
 40
0
 40
0
 40
0
 40
0
 40
1
 40
1
 40
1
 40
1
 10
62.202072
 20
78.702092
 30
0.0
 10
62.520883
 20
78.383280
 30
0.0
 10
62.699990
 20
77.950878
 30
0.0
 10
62.699990
 20
77.500010
 30
0.0
  0
SPLINE
  5
3a2
100
AcDbEntity
  8
Layer_1
 62
7
100
AcDbSpline
 70
8
 71
3
 72
8
 73
4
 74
0
 40
0
 40
0
 40
0
 40
0
 40
1
 40
1
 40
1
 40
1
 10
62.699990
 20
77.500010
 30
0.0
 10
62.699990
 20
77.049142
 30
0.0
 10
62.520883
 20
76.616740
 30
0.0
 10
62.202072
 20
76.297928
 30
0.0
  0
SPLINE
  5
3a3
100
AcDbEntity
  8
Layer_1
 62
7
100
AcDbSpline
 70
8
 71
3
 72
8
 73
4
 74
0
 40
0
 40
0
 40
0
 40
0
 40
1
 40
1
 40
1
 40
1
 10
62.202072
 20
76.297928
 30
0.0
 10
61.883260
 20
75.979117
 30
0.0
 10
61.450858
 20
75.800010
 30
0.0
 10
60.999990
 20
75.800010
 30
0.0
  0
LINE
  5
3a4
100
AcDbEntity
  8
Layer_1
 62
7
100
AcDbLine
 10
60.999990
 20
75.800010
 30
0.0
 11
60.999990
 21
75.800010
 31
0.0
  0
SPLINE
  5
3a5
100
AcDbEntity
  8
Layer_1
 62
7
100
AcDbSpline
 70
8
 71
3
 72
8
 73
4
 74
0
 40
0
 40
0
 40
0
 40
0
 40
1
 40
1
 40
1
 40
1
 10
23.999990
 20
75.800010
 30
0.0
 10
23.549122
 20
75.800010
 30
0.0
 10
23.116720
 20
75.979117
 30
0.0
 10
22.797908
 20
76.297928
 30
0.0
  0
SPLINE
  5
3a6
100
AcDbEntity
  8
Layer_1
 62
7
100
AcDbSpline
 70
8
 71
3
 72
8
 73
4
 74
0
 40
0
 40
0
 40
0
 40
0
 40
1
 40
1
 40
1
 40
1
 10
22.797908
 20
76.297928
 30
0.0
 10
22.479097
 20
76.616740
 30
0.0
 10
22.299990
 20
77.049142
 30
0.0
 10
22.299990
 20
77.500010
 30
0.0
  0
SPLINE
  5
3a7
100
AcDbEntity
  8
Layer_1
 62
7
100
AcDbSpline
 70
8
 71
3
 72
8
 73
4
 74
0
 40
0
 40
0
 40
0
 40
0
 40
1
 40
1
 40
1
 40
1
 10
22.299990
 20
77.500010
 30
0.0
 10
22.299990
 20
77.950878
 30
0.0
 10
22.479097
 20
78.383280
 30
0.0
 10
22.797908
 20
78.702092
 30
0.0
  0
SPLINE
  5
3a8
100
AcDbEntity
  8
Layer_1
 62
7
100
AcDbSpline
 70
8
 71
3
 72
8
 73
4
 74
0
 40
0
 40
0
 40
0
 40
0
 40
1
 40
1
 40
1
 40
1
 10
22.797908
 20
78.702092
 30
0.0
 10
23.116720
 20
79.020903
 30
0.0
 10
23.549122
 20
79.200010
 30
0.0
 10
23.999990
 20
79.200010
 30
0.0
  0
SPLINE
  5
3a9
100
AcDbEntity
  8
Layer_1
 62
7
100
AcDbSpline
 70
8
 71
3
 72
8
 73
4
 74
0
 40
0
 40
0
 40
0
 40
0
 40
1
 40
1
 40
1
 40
1
 10
23.999990
 20
79.200010
 30
0.0
 10
24.450858
 20
79.200010
 30
0.0
 10
24.883260
 20
79.020903
 30
0.0
 10
25.202072
 20
78.702092
 30
0.0
  0
SPLINE
  5
3aa
100
AcDbEntity
  8
Layer_1
 62
7
100
AcDbSpline
 70
8
 71
3
 72
8
 73
4
 74
0
 40
0
 40
0
 40
0
 40
0
 40
1
 40
1
 40
1
 40
1
 10
25.202072
 20
78.702092
 30
0.0
 10
25.520883
 20
78.383280
 30
0.0
 10
25.699990
 20
77.950878
 30
0.0
 10
25.699990
 20
77.500010
 30
0.0
  0
SPLINE
  5
3ab
100
AcDbEntity
  8
Layer_1
 62
7
100
AcDbSpline
 70
8
 71
3
 72
8
 73
4
 74
0
 40
0
 40
0
 40
0
 40
0
 40
1
 40
1
 40
1
 40
1
 10
25.699990
 20
77.500010
 30
0.0
 10
25.699990
 20
77.049142
 30
0.0
 10
25.520883
 20
76.616740
 30
0.0
 10
25.202072
 20
76.297928
 30
0.0
  0
SPLINE
  5
3ac
100
AcDbEntity
  8
Layer_1
 62
7
100
AcDbSpline
 70
8
 71
3
 72
8
 73
4
 74
0
 40
0
 40
0
 40
0
 40
0
 40
1
 40
1
 40
1
 40
1
 10
25.202072
 20
76.297928
 30
0.0
 10
24.883260
 20
75.979117
 30
0.0
 10
24.450858
 20
75.800010
 30
0.0
 10
23.999990
 20
75.800010
 30
0.0
  0
LINE
  5
3ad
100
AcDbEntity
  8
Layer_1
 62
7
100
AcDbLine
 10
23.999990
 20
75.800010
 30
0.0
 11
23.999990
 21
75.800010
 31
0.0
  0
SPLINE
  5
3ae
100
AcDbEntity
  8
Layer_1
 62
7
100
AcDbSpline
 70
8
 71
3
 72
8
 73
4
 74
0
 40
0
 40
0
 40
0
 40
0
 40
1
 40
1
 40
1
 40
1
 10
60.999990
 20
38.800010
 30
0.0
 10
60.061106
 20
38.800010
 30
0.0
 10
59.299990
 20
39.561126
 30
0.0
 10
59.299990
 20
40.500010
 30
0.0
  0
SPLINE
  5
3af
100
AcDbEntity
  8
Layer_1
 62
7
100
AcDbSpline
 70
8
 71
3
 72
8
 73
4
 74
0
 40
0
 40
0
 40
0
 40
0
 40
1
 40
1
 40
1
 40
1
 10
59.299990
 20
40.500010
 30
0.0
 10
59.299990
 20
40.950878
 30
0.0
 10
59.479097
 20
41.383280
 30
0.0
 10
59.797908
 20
41.702092
 30
0.0
  0
SPLINE
  5
3b0
100
AcDbEntity
  8
Layer_1
 62
7
100
AcDbSpline
 70
8
 71
3
 72
8
 73
4
 74
0
 40
0
 40
0
 40
0
 40
0
 40
1
 40
1
 40
1
 40
1
 10
59.797908
 20
41.702092
 30
0.0
 10
60.116720
 20
42.020903
 30
0.0
 10
60.549122
 20
42.200010
 30
0.0
 10
60.999990
 20
42.200010
 30
0.0
  0
SPLINE
  5
3b1
100
AcDbEntity
  8
Layer_1
 62
7
100
AcDbSpline
 70
8
 71
3
 72
8
 73
4
 74
0
 40
0
 40
0
 40
0
 40
0
 40
1
 40
1
 40
1
 40
1
 10
60.999990
 20
42.200010
 30
0.0
 10
61.450858
 20
42.200010
 30
0.0
 10
61.883260
 20
42.020903
 30
0.0
 10
62.202072
 20
41.702092
 30
0.0
  0
SPLINE
  5
3b2
100
AcDbEntity
  8
Layer_1
 62
7
100
AcDbSpline
 70
8
 71
3
 72
8
 73
4
 74
0
 40
0
 40
0
 40
0
 40
0
 40
1
 40
1
 40
1
 40
1
 10
62.202072
 20
41.702092
 30
0.0
 10
62.520883
 20
41.383280
 30
0.0
 10
62.699990
 20
40.950878
 30
0.0
 10
62.699990
 20
40.500010
 30
0.0
  0
SPLINE
  5
3b3
100
AcDbEntity
  8
Layer_1
 62
7
100
AcDbSpline
 70
8
 71
3
 72
8
 73
4
 74
0
 40
0
 40
0
 40
0
 40
0
 40
1
 40
1
 40
1
 40
1
 10
62.699990
 20
40.500010
 30
0.0
 10
62.699990
 20
39.561126
 30
0.0
 10
61.938874
 20
38.800010
 30
0.0
 10
60.999990
 20
38.800010
 30
0.0
  0
LINE
  5
3b4
100
AcDbEntity
  8
Layer_1
 62
7
100
AcDbLine
 10
60.999990
 20
38.800010
 30
0.0
 11
60.999990
 21
38.800010
 31
0.0
  0
SPLINE
  5
3b5
100
AcDbEntity
  8
Layer_1
 62
7
100
AcDbSpline
 70
8
 71
3
 72
8
 73
4
 74
0
 40
0
 40
0
 40
0
 40
0
 40
1
 40
1
 40
1
 40
1
 10
23.999990
 20
38.800010
 30
0.0
 10
23.061106
 20
38.800010
 30
0.0
 10
22.299990
 20
39.561126
 30
0.0
 10
22.299990
 20
40.500010
 30
0.0
  0
SPLINE
  5
3b6
100
AcDbEntity
  8
Layer_1
 62
7
100
AcDbSpline
 70
8
 71
3
 72
8
 73
4
 74
0
 40
0
 40
0
 40
0
 40
0
 40
1
 40
1
 40
1
 40
1
 10
22.299990
 20
40.500010
 30
0.0
 10
22.299990
 20
40.950878
 30
0.0
 10
22.479097
 20
41.383280
 30
0.0
 10
22.797908
 20
41.702092
 30
0.0
  0
SPLINE
  5
3b7
100
AcDbEntity
  8
Layer_1
 62
7
100
AcDbSpline
 70
8
 71
3
 72
8
 73
4
 74
0
 40
0
 40
0
 40
0
 40
0
 40
1
 40
1
 40
1
 40
1
 10
22.797908
 20
41.702092
 30
0.0
 10
23.116720
 20
42.020903
 30
0.0
 10
23.549122
 20
42.200010
 30
0.0
 10
23.999990
 20
42.200010
 30
0.0
  0
SPLINE
  5
3b8
100
AcDbEntity
  8
Layer_1
 62
7
100
AcDbSpline
 70
8
 71
3
 72
8
 73
4
 74
0
 40
0
 40
0
 40
0
 40
0
 40
1
 40
1
 40
1
 40
1
 10
23.999990
 20
42.200010
 30
0.0
 10
24.450858
 20
42.200010
 30
0.0
 10
24.883260
 20
42.020903
 30
0.0
 10
25.202072
 20
41.702092
 30
0.0
  0
SPLINE
  5
3b9
100
AcDbEntity
  8
Layer_1
 62
7
100
AcDbSpline
 70
8
 71
3
 72
8
 73
4
 74
0
 40
0
 40
0
 40
0
 40
0
 40
1
 40
1
 40
1
 40
1
 10
25.202072
 20
41.702092
 30
0.0
 10
25.520883
 20
41.383280
 30
0.0
 10
25.699990
 20
40.950878
 30
0.0
 10
25.699990
 20
40.500010
 30
0.0
  0
SPLINE
  5
3ba
100
AcDbEntity
  8
Layer_1
 62
7
100
AcDbSpline
 70
8
 71
3
 72
8
 73
4
 74
0
 40
0
 40
0
 40
0
 40
0
 40
1
 40
1
 40
1
 40
1
 10
25.699990
 20
40.500010
 30
0.0
 10
25.699990
 20
39.561126
 30
0.0
 10
24.938874
 20
38.800010
 30
0.0
 10
23.999990
 20
38.800010
 30
0.0
  0
LINE
  5
3bb
100
AcDbEntity
  8
Layer_1
 62
7
100
AcDbLine
 10
23.999990
 20
38.800010
 30
0.0
 11
23.999990
 21
38.800010
 31
0.0
  0
LINE
  5
3bc
100
AcDbEntity
  8
Layer_1
 62
7
100
AcDbLine
 10
14.450000
 20
66.550000
 30
0.0
 11
14.450000
 21
51.450000
 31
0.0
  0
LINE
  5
3bd
100
AcDbEntity
  8
Layer_1
 62
7
100
AcDbLine
 10
14.450000
 20
51.450000
 30
0.0
 11
11.350000
 21
51.450000
 31
0.0
  0
LINE
  5
3be
100
AcDbEntity
  8
Layer_1
 62
7
100
AcDbLine
 10
11.350000
 20
51.450000
 30
0.0
 11
11.350000
 21
66.550000
 31
0.0
  0
LINE
  5
3bf
100
AcDbEntity
  8
Layer_1
 62
7
100
AcDbLine
 10
11.350000
 20
66.550000
 30
0.0
 11
14.450000
 21
66.550000
 31
0.0
  0
LINE
  5
3c0
100
AcDbEntity
  8
Layer_1
 62
7
100
AcDbLine
 10
74.950000
 20
98.949990
 30
0.0
 11
74.950000
 21
19.049990
 31
0.0
  0
LINE
  5
3c1
100
AcDbEntity
  8
Layer_1
 62
7
100
AcDbLine
 10
74.950000
 20
19.049990
 30
0.0
 11
10.050000
 21
19.049990
 31
0.0
  0
LINE
  5
3c2
100
AcDbEntity
  8
Layer_1
 62
7
100
AcDbLine
 10
10.050000
 20
19.049990
 30
0.0
 11
10.050000
 21
98.949990
 31
0.0
  0
LINE
  5
3c3
100
AcDbEntity
  8
Layer_1
 62
7
100
AcDbLine
 10
10.050000
 20
98.949990
 30
0.0
 11
74.950000
 21
98.949990
 31
0.0
  0
LINE
  5
3c4
100
AcDbEntity
  8
Layer_1
 62
7
100
AcDbLine
 10
75.050200
 20
99.949970
 30
0.0
 11
184.950200
 21
99.949970
 31
0.0
  0
LINE
  5
3c5
100
AcDbEntity
  8
Layer_1
 62
7
100
AcDbLine
 10
184.950200
 20
99.949970
 30
0.0
 11
184.950200
 21
19.049970
 31
0.0
  0
LINE
  5
3c6
100
AcDbEntity
  8
Layer_1
 62
7
100
AcDbLine
 10
184.950200
 20
19.049970
 30
0.0
 11
75.050200
 21
19.049970
 31
0.0
  0
LINE
  5
3c7
100
AcDbEntity
  8
Layer_1
 62
7
100
AcDbLine
 10
75.050200
 20
19.049970
 30
0.0
 11
75.050200
 21
99.949970
 31
0.0
  0
LINE
  5
3c8
100
AcDbEntity
  8
Layer_1
 62
7
100
AcDbLine
 10
94.950200
 20
99.049940
 30
0.0
 11
105.050200
 21
99.049940
 31
0.0
  0
LINE
  5
3c9
100
AcDbEntity
  8
Layer_1
 62
7
100
AcDbLine
 10
105.050200
 20
99.049940
 30
0.0
 11
105.050200
 21
95.949940
 31
0.0
  0
LINE
  5
3ca
100
AcDbEntity
  8
Layer_1
 62
7
100
AcDbLine
 10
105.050200
 20
95.949940
 30
0.0
 11
94.950200
 21
95.949940
 31
0.0
  0
LINE
  5
3cb
100
AcDbEntity
  8
Layer_1
 62
7
100
AcDbLine
 10
94.950200
 20
95.949940
 30
0.0
 11
94.950200
 21
99.049940
 31
0.0
  0
LINE
  5
3cc
100
AcDbEntity
  8
Layer_1
 62
7
100
AcDbLine
 10
154.950160
 20
99.049940
 30
0.0
 11
165.050170
 21
99.049940
 31
0.0
  0
LINE
  5
3cd
100
AcDbEntity
  8
Layer_1
 62
7
100
AcDbLine
 10
165.050170
 20
99.049940
 30
0.0
 11
165.050170
 21
95.949940
 31
0.0
  0
LINE
  5
3ce
100
AcDbEntity
  8
Layer_1
 62
7
100
AcDbLine
 10
165.050170
 20
95.949940
 30
0.0
 11
154.950160
 21
95.949940
 31
0.0
  0
LINE
  5
3cf
100
AcDbEntity
  8
Layer_1
 62
7
100
AcDbLine
 10
154.950160
 20
95.949940
 30
0.0
 11
154.950160
 21
99.049940
 31
0.0
  0
LINE
  5
3d0
100
AcDbEntity
  8
Layer_1
 62
7
100
AcDbLine
 10
154.950160
 20
23.049910
 30
0.0
 11
165.050170
 21
23.049910
 31
0.0
  0
LINE
  5
3d1
100
AcDbEntity
  8
Layer_1
 62
7
100
AcDbLine
 10
165.050170
 20
23.049910
 30
0.0
 11
165.050170
 21
19.949910
 31
0.0
  0
LINE
  5
3d2
100
AcDbEntity
  8
Layer_1
 62
7
100
AcDbLine
 10
165.050170
 20
19.949910
 30
0.0
 11
154.950160
 21
19.949910
 31
0.0
  0
LINE
  5
3d3
100
AcDbEntity
  8
Layer_1
 62
7
100
AcDbLine
 10
154.950160
 20
19.949910
 30
0.0
 11
154.950160
 21
23.049910
 31
0.0
  0
LINE
  5
3d4
100
AcDbEntity
  8
Layer_1
 62
7
100
AcDbLine
 10
94.950200
 20
23.049910
 30
0.0
 11
105.050200
 21
23.049910
 31
0.0
  0
LINE
  5
3d5
100
AcDbEntity
  8
Layer_1
 62
7
100
AcDbLine
 10
105.050200
 20
23.049910
 30
0.0
 11
105.050200
 21
19.949910
 31
0.0
  0
LINE
  5
3d6
100
AcDbEntity
  8
Layer_1
 62
7
100
AcDbLine
 10
105.050200
 20
19.949910
 30
0.0
 11
94.950200
 21
19.949910
 31
0.0
  0
LINE
  5
3d7
100
AcDbEntity
  8
Layer_1
 62
7
100
AcDbLine
 10
94.950200
 20
19.949910
 30
0.0
 11
94.950200
 21
23.049910
 31
0.0
  0
SPLINE
  5
3d8
100
AcDbEntity
  8
Layer_1
 62
7
100
AcDbSpline
 70
8
 71
3
 72
8
 73
4
 74
0
 40
0
 40
0
 40
0
 40
0
 40
1
 40
1
 40
1
 40
1
 10
92.350180
 20
83.999890
 30
0.0
 10
92.350180
 20
83.641848
 30
0.0
 10
92.207948
 20
83.298470
 30
0.0
 10
91.954774
 20
83.045296
 30
0.0
  0
SPLINE
  5
3d9
100
AcDbEntity
  8
Layer_1
 62
7
100
AcDbSpline
 70
8
 71
3
 72
8
 73
4
 74
0
 40
0
 40
0
 40
0
 40
0
 40
1
 40
1
 40
1
 40
1
 10
91.954774
 20
83.045296
 30
0.0
 10
91.701600
 20
82.792122
 30
0.0
 10
91.358222
 20
82.649890
 30
0.0
 10
91.000180
 20
82.649890
 30
0.0
  0
SPLINE
  5
3da
100
AcDbEntity
  8
Layer_1
 62
7
100
AcDbSpline
 70
8
 71
3
 72
8
 73
4
 74
0
 40
0
 40
0
 40
0
 40
0
 40
1
 40
1
 40
1
 40
1
 10
91.000180
 20
82.649890
 30
0.0
 10
90.642138
 20
82.649890
 30
0.0
 10
90.298760
 20
82.792122
 30
0.0
 10
90.045586
 20
83.045296
 30
0.0
  0
SPLINE
  5
3db
100
AcDbEntity
  8
Layer_1
 62
7
100
AcDbSpline
 70
8
 71
3
 72
8
 73
4
 74
0
 40
0
 40
0
 40
0
 40
0
 40
1
 40
1
 40
1
 40
1
 10
90.045586
 20
83.045296
 30
0.0
 10
89.792412
 20
83.298470
 30
0.0
 10
89.650180
 20
83.641848
 30
0.0
 10
89.650180
 20
83.999890
 30
0.0
  0
SPLINE
  5
3dc
100
AcDbEntity
  8
Layer_1
 62
7
100
AcDbSpline
 70
8
 71
3
 72
8
 73
4
 74
0
 40
0
 40
0
 40
0
 40
0
 40
1
 40
1
 40
1
 40
1
 10
89.650180
 20
83.999890
 30
0.0
 10
89.650180
 20
84.357932
 30
0.0
 10
89.792412
 20
84.701310
 30
0.0
 10
90.045586
 20
84.954484
 30
0.0
  0
SPLINE
  5
3dd
100
AcDbEntity
  8
Layer_1
 62
7
100
AcDbSpline
 70
8
 71
3
 72
8
 73
4
 74
0
 40
0
 40
0
 40
0
 40
0
 40
1
 40
1
 40
1
 40
1
 10
90.045586
 20
84.954484
 30
0.0
 10
90.298760
 20
85.207658
 30
0.0
 10
90.642138
 20
85.349890
 30
0.0
 10
91.000180
 20
85.349890
 30
0.0
  0
SPLINE
  5
3de
100
AcDbEntity
  8
Layer_1
 62
7
100
AcDbSpline
 70
8
 71
3
 72
8
 73
4
 74
0
 40
0
 40
0
 40
0
 40
0
 40
1
 40
1
 40
1
 40
1
 10
91.000180
 20
85.349890
 30
0.0
 10
91.358222
 20
85.349890
 30
0.0
 10
91.701600
 20
85.207658
 30
0.0
 10
91.954774
 20
84.954484
 30
0.0
  0
SPLINE
  5
3df
100
AcDbEntity
  8
Layer_1
 62
7
100
AcDbSpline
 70
8
 71
3
 72
8
 73
4
 74
0
 40
0
 40
0
 40
0
 40
0
 40
1
 40
1
 40
1
 40
1
 10
91.954774
 20
84.954484
 30
0.0
 10
92.207948
 20
84.701310
 30
0.0
 10
92.350180
 20
84.357932
 30
0.0
 10
92.350180
 20
83.999890
 30
0.0
  0
LINE
  5
3e0
100
AcDbEntity
  8
Layer_1
 62
7
100
AcDbLine
 10
92.350180
 20
83.999890
 30
0.0
 11
92.350180
 21
83.999890
 31
0.0
  0
SPLINE
  5
3e1
100
AcDbEntity
  8
Layer_1
 62
7
100
AcDbSpline
 70
8
 71
3
 72
8
 73
4
 74
0
 40
0
 40
0
 40
0
 40
0
 40
1
 40
1
 40
1
 40
1
 10
92.350180
 20
34.999890
 30
0.0
 10
92.350180
 20
34.641848
 30
0.0
 10
92.207948
 20
34.298470
 30
0.0
 10
91.954774
 20
34.045296
 30
0.0
  0
SPLINE
  5
3e2
100
AcDbEntity
  8
Layer_1
 62
7
100
AcDbSpline
 70
8
 71
3
 72
8
 73
4
 74
0
 40
0
 40
0
 40
0
 40
0
 40
1
 40
1
 40
1
 40
1
 10
91.954774
 20
34.045296
 30
0.0
 10
91.701600
 20
33.792122
 30
0.0
 10
91.358222
 20
33.649890
 30
0.0
 10
91.000180
 20
33.649890
 30
0.0
  0
SPLINE
  5
3e3
100
AcDbEntity
  8
Layer_1
 62
7
100
AcDbSpline
 70
8
 71
3
 72
8
 73
4
 74
0
 40
0
 40
0
 40
0
 40
0
 40
1
 40
1
 40
1
 40
1
 10
91.000180
 20
33.649890
 30
0.0
 10
90.642138
 20
33.649890
 30
0.0
 10
90.298760
 20
33.792122
 30
0.0
 10
90.045586
 20
34.045296
 30
0.0
  0
SPLINE
  5
3e4
100
AcDbEntity
  8
Layer_1
 62
7
100
AcDbSpline
 70
8
 71
3
 72
8
 73
4
 74
0
 40
0
 40
0
 40
0
 40
0
 40
1
 40
1
 40
1
 40
1
 10
90.045586
 20
34.045296
 30
0.0
 10
89.792412
 20
34.298470
 30
0.0
 10
89.650180
 20
34.641848
 30
0.0
 10
89.650180
 20
34.999890
 30
0.0
  0
SPLINE
  5
3e5
100
AcDbEntity
  8
Layer_1
 62
7
100
AcDbSpline
 70
8
 71
3
 72
8
 73
4
 74
0
 40
0
 40
0
 40
0
 40
0
 40
1
 40
1
 40
1
 40
1
 10
89.650180
 20
34.999890
 30
0.0
 10
89.650180
 20
35.357932
 30
0.0
 10
89.792412
 20
35.701310
 30
0.0
 10
90.045586
 20
35.954484
 30
0.0
  0
SPLINE
  5
3e6
100
AcDbEntity
  8
Layer_1
 62
7
100
AcDbSpline
 70
8
 71
3
 72
8
 73
4
 74
0
 40
0
 40
0
 40
0
 40
0
 40
1
 40
1
 40
1
 40
1
 10
90.045586
 20
35.954484
 30
0.0
 10
90.298760
 20
36.207658
 30
0.0
 10
90.642138
 20
36.349890
 30
0.0
 10
91.000180
 20
36.349890
 30
0.0
  0
SPLINE
  5
3e7
100
AcDbEntity
  8
Layer_1
 62
7
100
AcDbSpline
 70
8
 71
3
 72
8
 73
4
 74
0
 40
0
 40
0
 40
0
 40
0
 40
1
 40
1
 40
1
 40
1
 10
91.000180
 20
36.349890
 30
0.0
 10
91.358222
 20
36.349890
 30
0.0
 10
91.701600
 20
36.207658
 30
0.0
 10
91.954774
 20
35.954484
 30
0.0
  0
SPLINE
  5
3e8
100
AcDbEntity
  8
Layer_1
 62
7
100
AcDbSpline
 70
8
 71
3
 72
8
 73
4
 74
0
 40
0
 40
0
 40
0
 40
0
 40
1
 40
1
 40
1
 40
1
 10
91.954774
 20
35.954484
 30
0.0
 10
92.207948
 20
35.701310
 30
0.0
 10
92.350180
 20
35.357932
 30
0.0
 10
92.350180
 20
34.999890
 30
0.0
  0
LINE
  5
3e9
100
AcDbEntity
  8
Layer_1
 62
7
100
AcDbLine
 10
92.350180
 20
34.999890
 30
0.0
 11
92.350180
 21
34.999890
 31
0.0
  0
SPLINE
  5
3ea
100
AcDbEntity
  8
Layer_1
 62
7
100
AcDbSpline
 70
8
 71
3
 72
8
 73
4
 74
0
 40
0
 40
0
 40
0
 40
0
 40
1
 40
1
 40
1
 40
1
 10
150.350180
 20
83.999890
 30
0.0
 10
150.350180
 20
83.641848
 30
0.0
 10
150.207948
 20
83.298470
 30
0.0
 10
149.954774
 20
83.045296
 30
0.0
  0
SPLINE
  5
3eb
100
AcDbEntity
  8
Layer_1
 62
7
100
AcDbSpline
 70
8
 71
3
 72
8
 73
4
 74
0
 40
0
 40
0
 40
0
 40
0
 40
1
 40
1
 40
1
 40
1
 10
149.954774
 20
83.045296
 30
0.0
 10
149.701600
 20
82.792122
 30
0.0
 10
149.358222
 20
82.649890
 30
0.0
 10
149.000180
 20
82.649890
 30
0.0
  0
SPLINE
  5
3ec
100
AcDbEntity
  8
Layer_1
 62
7
100
AcDbSpline
 70
8
 71
3
 72
8
 73
4
 74
0
 40
0
 40
0
 40
0
 40
0
 40
1
 40
1
 40
1
 40
1
 10
149.000180
 20
82.649890
 30
0.0
 10
148.642138
 20
82.649890
 30
0.0
 10
148.298760
 20
82.792122
 30
0.0
 10
148.045586
 20
83.045296
 30
0.0
  0
SPLINE
  5
3ed
100
AcDbEntity
  8
Layer_1
 62
7
100
AcDbSpline
 70
8
 71
3
 72
8
 73
4
 74
0
 40
0
 40
0
 40
0
 40
0
 40
1
 40
1
 40
1
 40
1
 10
148.045586
 20
83.045296
 30
0.0
 10
147.792412
 20
83.298470
 30
0.0
 10
147.650180
 20
83.641848
 30
0.0
 10
147.650180
 20
83.999890
 30
0.0
  0
SPLINE
  5
3ee
100
AcDbEntity
  8
Layer_1
 62
7
100
AcDbSpline
 70
8
 71
3
 72
8
 73
4
 74
0
 40
0
 40
0
 40
0
 40
0
 40
1
 40
1
 40
1
 40
1
 10
147.650180
 20
83.999890
 30
0.0
 10
147.650180
 20
84.357932
 30
0.0
 10
147.792412
 20
84.701310
 30
0.0
 10
148.045586
 20
84.954484
 30
0.0
  0
SPLINE
  5
3ef
100
AcDbEntity
  8
Layer_1
 62
7
100
AcDbSpline
 70
8
 71
3
 72
8
 73
4
 74
0
 40
0
 40
0
 40
0
 40
0
 40
1
 40
1
 40
1
 40
1
 10
148.045586
 20
84.954484
 30
0.0
 10
148.298760
 20
85.207658
 30
0.0
 10
148.642138
 20
85.349890
 30
0.0
 10
149.000180
 20
85.349890
 30
0.0
  0
SPLINE
  5
3f0
100
AcDbEntity
  8
Layer_1
 62
7
100
AcDbSpline
 70
8
 71
3
 72
8
 73
4
 74
0
 40
0
 40
0
 40
0
 40
0
 40
1
 40
1
 40
1
 40
1
 10
149.000180
 20
85.349890
 30
0.0
 10
149.358222
 20
85.349890
 30
0.0
 10
149.701600
 20
85.207658
 30
0.0
 10
149.954774
 20
84.954484
 30
0.0
  0
SPLINE
  5
3f1
100
AcDbEntity
  8
Layer_1
 62
7
100
AcDbSpline
 70
8
 71
3
 72
8
 73
4
 74
0
 40
0
 40
0
 40
0
 40
0
 40
1
 40
1
 40
1
 40
1
 10
149.954774
 20
84.954484
 30
0.0
 10
150.207948
 20
84.701310
 30
0.0
 10
150.350180
 20
84.357932
 30
0.0
 10
150.350180
 20
83.999890
 30
0.0
  0
LINE
  5
3f2
100
AcDbEntity
  8
Layer_1
 62
7
100
AcDbLine
 10
150.350180
 20
83.999890
 30
0.0
 11
150.350180
 21
83.999890
 31
0.0
  0
SPLINE
  5
3f3
100
AcDbEntity
  8
Layer_1
 62
7
100
AcDbSpline
 70
8
 71
3
 72
8
 73
4
 74
0
 40
0
 40
0
 40
0
 40
0
 40
1
 40
1
 40
1
 40
1
 10
150.350180
 20
34.999890
 30
0.0
 10
150.350180
 20
34.641848
 30
0.0
 10
150.207948
 20
34.298470
 30
0.0
 10
149.954774
 20
34.045296
 30
0.0
  0
SPLINE
  5
3f4
100
AcDbEntity
  8
Layer_1
 62
7
100
AcDbSpline
 70
8
 71
3
 72
8
 73
4
 74
0
 40
0
 40
0
 40
0
 40
0
 40
1
 40
1
 40
1
 40
1
 10
149.954774
 20
34.045296
 30
0.0
 10
149.701600
 20
33.792122
 30
0.0
 10
149.358222
 20
33.649890
 30
0.0
 10
149.000180
 20
33.649890
 30
0.0
  0
SPLINE
  5
3f5
100
AcDbEntity
  8
Layer_1
 62
7
100
AcDbSpline
 70
8
 71
3
 72
8
 73
4
 74
0
 40
0
 40
0
 40
0
 40
0
 40
1
 40
1
 40
1
 40
1
 10
149.000180
 20
33.649890
 30
0.0
 10
148.642138
 20
33.649890
 30
0.0
 10
148.298760
 20
33.792122
 30
0.0
 10
148.045586
 20
34.045296
 30
0.0
  0
SPLINE
  5
3f6
100
AcDbEntity
  8
Layer_1
 62
7
100
AcDbSpline
 70
8
 71
3
 72
8
 73
4
 74
0
 40
0
 40
0
 40
0
 40
0
 40
1
 40
1
 40
1
 40
1
 10
148.045586
 20
34.045296
 30
0.0
 10
147.792412
 20
34.298470
 30
0.0
 10
147.650180
 20
34.641848
 30
0.0
 10
147.650180
 20
34.999890
 30
0.0
  0
SPLINE
  5
3f7
100
AcDbEntity
  8
Layer_1
 62
7
100
AcDbSpline
 70
8
 71
3
 72
8
 73
4
 74
0
 40
0
 40
0
 40
0
 40
0
 40
1
 40
1
 40
1
 40
1
 10
147.650180
 20
34.999890
 30
0.0
 10
147.650180
 20
35.357932
 30
0.0
 10
147.792412
 20
35.701310
 30
0.0
 10
148.045586
 20
35.954484
 30
0.0
  0
SPLINE
  5
3f8
100
AcDbEntity
  8
Layer_1
 62
7
100
AcDbSpline
 70
8
 71
3
 72
8
 73
4
 74
0
 40
0
 40
0
 40
0
 40
0
 40
1
 40
1
 40
1
 40
1
 10
148.045586
 20
35.954484
 30
0.0
 10
148.298760
 20
36.207658
 30
0.0
 10
148.642138
 20
36.349890
 30
0.0
 10
149.000180
 20
36.349890
 30
0.0
  0
SPLINE
  5
3f9
100
AcDbEntity
  8
Layer_1
 62
7
100
AcDbSpline
 70
8
 71
3
 72
8
 73
4
 74
0
 40
0
 40
0
 40
0
 40
0
 40
1
 40
1
 40
1
 40
1
 10
149.000180
 20
36.349890
 30
0.0
 10
149.358222
 20
36.349890
 30
0.0
 10
149.701600
 20
36.207658
 30
0.0
 10
149.954774
 20
35.954484
 30
0.0
  0
SPLINE
  5
3fa
100
AcDbEntity
  8
Layer_1
 62
7
100
AcDbSpline
 70
8
 71
3
 72
8
 73
4
 74
0
 40
0
 40
0
 40
0
 40
0
 40
1
 40
1
 40
1
 40
1
 10
149.954774
 20
35.954484
 30
0.0
 10
150.207948
 20
35.701310
 30
0.0
 10
150.350180
 20
35.357932
 30
0.0
 10
150.350180
 20
34.999890
 30
0.0
  0
LINE
  5
3fb
100
AcDbEntity
  8
Layer_1
 62
7
100
AcDbLine
 10
150.350180
 20
34.999890
 30
0.0
 11
150.350180
 21
34.999890
 31
0.0
  0
LINE
  5
3fc
100
AcDbEntity
  8
Layer_1
 62
7
100
AcDbLine
 10
180.950160
 20
54.949970
 30
0.0
 11
180.950160
 21
65.049970
 31
0.0
  0
LINE
  5
3fd
100
AcDbEntity
  8
Layer_1
 62
7
100
AcDbLine
 10
180.950160
 20
65.049970
 30
0.0
 11
184.050170
 21
65.049970
 31
0.0
  0
LINE
  5
3fe
100
AcDbEntity
  8
Layer_1
 62
7
100
AcDbLine
 10
184.050170
 20
65.049970
 30
0.0
 11
184.050170
 21
54.949970
 31
0.0
  0
LINE
  5
3ff
100
AcDbEntity
  8
Layer_1
 62
7
100
AcDbLine
 10
184.050170
 20
54.949970
 30
0.0
 11
180.950160
 21
54.949970
 31
0.0
  0
LINE
  5
400
100
AcDbEntity
  8
Layer_1
 62
7
100
AcDbLine
 10
75.950200
 20
54.949970
 30
0.0
 11
75.950200
 21
65.049970
 31
0.0
  0
LINE
  5
401
100
AcDbEntity
  8
Layer_1
 62
7
100
AcDbLine
 10
75.950200
 20
65.049970
 30
0.0
 11
79.050200
 21
65.049970
 31
0.0
  0
LINE
  5
402
100
AcDbEntity
  8
Layer_1
 62
7
100
AcDbLine
 10
79.050200
 20
65.049970
 30
0.0
 11
79.050200
 21
54.949970
 31
0.0
  0
LINE
  5
403
100
AcDbEntity
  8
Layer_1
 62
7
100
AcDbLine
 10
79.050200
 20
54.949970
 30
0.0
 11
75.950200
 21
54.949970
 31
0.0
  0
LINE
  5
404
100
AcDbEntity
  8
Layer_1
 62
7
100
AcDbLine
 10
230.049810
 20
224.950000
 30
0.0
 11
230.049810
 21
214.950090
 31
0.0
  0
LINE
  5
405
100
AcDbEntity
  8
Layer_1
 62
7
100
AcDbLine
 10
230.049810
 20
214.950090
 30
0.0
 11
227.050000
 21
214.950090
 31
0.0
  0
LINE
  5
406
100
AcDbEntity
  8
Layer_1
 62
7
100
AcDbLine
 10
227.050000
 20
214.950090
 30
0.0
 11
227.050000
 21
205.049920
 31
0.0
  0
LINE
  5
407
100
AcDbEntity
  8
Layer_1
 62
7
100
AcDbLine
 10
227.050000
 20
205.049920
 30
0.0
 11
230.049810
 21
205.049920
 31
0.0
  0
LINE
  5
408
100
AcDbEntity
  8
Layer_1
 62
7
100
AcDbLine
 10
230.049810
 20
205.049920
 30
0.0
 11
230.049810
 21
195.050010
 31
0.0
  0
LINE
  5
409
100
AcDbEntity
  8
Layer_1
 62
7
100
AcDbLine
 10
230.049810
 20
195.050010
 30
0.0
 11
249.949890
 21
195.050010
 31
0.0
  0
LINE
  5
40a
100
AcDbEntity
  8
Layer_1
 62
7
100
AcDbLine
 10
249.949890
 20
195.050010
 30
0.0
 11
249.949890
 21
205.049920
 31
0.0
  0
LINE
  5
40b
100
AcDbEntity
  8
Layer_1
 62
7
100
AcDbLine
 10
249.949890
 20
205.049920
 30
0.0
 11
252.949710
 21
205.049920
 31
0.0
  0
LINE
  5
40c
100
AcDbEntity
  8
Layer_1
 62
7
100
AcDbLine
 10
252.949710
 20
205.049920
 30
0.0
 11
252.949710
 21
214.950090
 31
0.0
  0
LINE
  5
40d
100
AcDbEntity
  8
Layer_1
 62
7
100
AcDbLine
 10
252.949710
 20
214.950090
 30
0.0
 11
249.949890
 21
214.950090
 31
0.0
  0
LINE
  5
40e
100
AcDbEntity
  8
Layer_1
 62
7
100
AcDbLine
 10
249.949890
 20
214.950090
 30
0.0
 11
249.949890
 21
224.950000
 31
0.0
  0
LINE
  5
40f
100
AcDbEntity
  8
Layer_1
 62
7
100
AcDbLine
 10
249.949890
 20
224.950000
 30
0.0
 11
230.049810
 21
224.950000
 31
0.0
  0
LINE
  5
410
100
AcDbEntity
  8
Layer_1
 62
7
100
AcDbLine
 10
210.049920
 20
186.950000
 30
0.0
 11
210.049920
 21
107.049970
 31
0.0
  0
LINE
  5
411
100
AcDbEntity
  8
Layer_1
 62
7
100
AcDbLine
 10
210.049920
 20
107.049970
 30
0.0
 11
215.050140
 21
107.049970
 31
0.0
  0
LINE
  5
412
100
AcDbEntity
  8
Layer_1
 62
7
100
AcDbLine
 10
215.050140
 20
107.049970
 30
0.0
 11
215.050140
 21
104.050150
 31
0.0
  0
LINE
  5
413
100
AcDbEntity
  8
Layer_1
 62
7
100
AcDbLine
 10
215.050140
 20
104.050150
 30
0.0
 11
224.949790
 21
104.050150
 31
0.0
  0
LINE
  5
414
100
AcDbEntity
  8
Layer_1
 62
7
100
AcDbLine
 10
224.949790
 20
104.050150
 30
0.0
 11
224.949790
 21
107.049970
 31
0.0
  0
LINE
  5
415
100
AcDbEntity
  8
Layer_1
 62
7
100
AcDbLine
 10
224.949790
 20
107.049970
 30
0.0
 11
229.949990
 21
107.049970
 31
0.0
  0
LINE
  5
416
100
AcDbEntity
  8
Layer_1
 62
7
100
AcDbLine
 10
229.949990
 20
107.049970
 30
0.0
 11
229.949990
 21
186.950000
 31
0.0
  0
LINE
  5
417
100
AcDbEntity
  8
Layer_1
 62
7
100
AcDbLine
 10
229.949990
 20
186.950000
 30
0.0
 11
224.041320
 21
186.950000
 31
0.0
  0
LINE
  5
418
100
AcDbEntity
  8
Layer_1
 62
7
100
AcDbLine
 10
224.041320
 20
186.950000
 30
0.0
 11
219.999700
 21
179.949920
 31
0.0
  0
LINE
  5
419
100
AcDbEntity
  8
Layer_1
 62
7
100
AcDbLine
 10
219.999700
 20
179.949920
 30
0.0
 11
215.958620
 21
186.950000
 31
0.0
  0
LINE
  5
41a
100
AcDbEntity
  8
Layer_1
 62
7
100
AcDbLine
 10
215.958620
 20
186.950000
 30
0.0
 11
210.049920
 21
186.950000
 31
0.0
  0
LINE
  5
41b
100
AcDbEntity
  8
Layer_1
 62
7
100
AcDbLine
 10
214.950030
 20
167.050170
 30
0.0
 11
225.050030
 21
167.050170
 31
0.0
  0
LINE
  5
41c
100
AcDbEntity
  8
Layer_1
 62
7
100
AcDbLine
 10
225.050030
 20
167.050170
 30
0.0
 11
225.050030
 21
163.950170
 31
0.0
  0
LINE
  5
41d
100
AcDbEntity
  8
Layer_1
 62
7
100
AcDbLine
 10
225.050030
 20
163.950170
 30
0.0
 11
214.950030
 21
163.950170
 31
0.0
  0
LINE
  5
41e
100
AcDbEntity
  8
Layer_1
 62
7
100
AcDbLine
 10
214.950030
 20
163.950170
 30
0.0
 11
214.950030
 21
167.050170
 31
0.0
  0
LINE
  5
41f
100
AcDbEntity
  8
Layer_1
 62
7
100
AcDbLine
 10
150.050020
 20
186.950000
 30
0.0
 11
150.050020
 21
107.050000
 31
0.0
  0
LINE
  5
420
100
AcDbEntity
  8
Layer_1
 62
7
100
AcDbLine
 10
150.050020
 20
107.050000
 30
0.0
 11
155.050250
 21
107.050000
 31
0.0
  0
LINE
  5
421
100
AcDbEntity
  8
Layer_1
 62
7
100
AcDbLine
 10
155.050250
 20
107.050000
 30
0.0
 11
155.050250
 21
104.050100
 31
0.0
  0
LINE
  5
422
100
AcDbEntity
  8
Layer_1
 62
7
100
AcDbLine
 10
155.050250
 20
104.050100
 30
0.0
 11
164.949900
 21
104.050100
 31
0.0
  0
LINE
  5
423
100
AcDbEntity
  8
Layer_1
 62
7
100
AcDbLine
 10
164.949900
 20
104.050100
 30
0.0
 11
164.949900
 21
107.050000
 31
0.0
  0
LINE
  5
424
100
AcDbEntity
  8
Layer_1
 62
7
100
AcDbLine
 10
164.949900
 20
107.050000
 30
0.0
 11
169.950100
 21
107.050000
 31
0.0
  0
LINE
  5
425
100
AcDbEntity
  8
Layer_1
 62
7
100
AcDbLine
 10
169.950100
 20
107.050000
 30
0.0
 11
169.950100
 21
186.950000
 31
0.0
  0
LINE
  5
426
100
AcDbEntity
  8
Layer_1
 62
7
100
AcDbLine
 10
169.950100
 20
186.950000
 30
0.0
 11
164.041430
 21
186.950000
 31
0.0
  0
LINE
  5
427
100
AcDbEntity
  8
Layer_1
 62
7
100
AcDbLine
 10
164.041430
 20
186.950000
 30
0.0
 11
159.999810
 21
179.949900
 31
0.0
  0
LINE
  5
428
100
AcDbEntity
  8
Layer_1
 62
7
100
AcDbLine
 10
159.999810
 20
179.949900
 30
0.0
 11
155.958730
 21
186.950000
 31
0.0
  0
LINE
  5
429
100
AcDbEntity
  8
Layer_1
 62
7
100
AcDbLine
 10
155.958730
 20
186.950000
 30
0.0
 11
150.050020
 21
186.950000
 31
0.0
  0
LINE
  5
42a
100
AcDbEntity
  8
Layer_1
 62
7
100
AcDbLine
 10
154.900130
 20
167.100230
 30
0.0
 11
165.000130
 21
167.100230
 31
0.0
  0
LINE
  5
42b
100
AcDbEntity
  8
Layer_1
 62
7
100
AcDbLine
 10
165.000130
 20
167.100230
 30
0.0
 11
165.000130
 21
164.000230
 31
0.0
  0
LINE
  5
42c
100
AcDbEntity
  8
Layer_1
 62
7
100
AcDbLine
 10
165.000130
 20
164.000230
 30
0.0
 11
154.900130
 21
164.000230
 31
0.0
  0
LINE
  5
42d
100
AcDbEntity
  8
Layer_1
 62
7
100
AcDbLine
 10
154.900130
 20
164.000230
 30
0.0
 11
154.900130
 21
167.100230
 31
0.0
  0
LINE
  5
42e
100
AcDbEntity
  8
Layer_1
 62
7
100
AcDbLine
 10
130.049930
 20
186.950040
 30
0.0
 11
130.049930
 21
107.050010
 31
0.0
  0
LINE
  5
42f
100
AcDbEntity
  8
Layer_1
 62
7
100
AcDbLine
 10
130.049930
 20
107.050010
 30
0.0
 11
135.050150
 21
107.050010
 31
0.0
  0
LINE
  5
430
100
AcDbEntity
  8
Layer_1
 62
7
100
AcDbLine
 10
135.050150
 20
107.050010
 30
0.0
 11
135.050150
 21
104.050190
 31
0.0
  0
LINE
  5
431
100
AcDbEntity
  8
Layer_1
 62
7
100
AcDbLine
 10
135.050150
 20
104.050190
 30
0.0
 11
144.949800
 21
104.050190
 31
0.0
  0
LINE
  5
432
100
AcDbEntity
  8
Layer_1
 62
7
100
AcDbLine
 10
144.949800
 20
104.050190
 30
0.0
 11
144.949800
 21
107.050010
 31
0.0
  0
LINE
  5
433
100
AcDbEntity
  8
Layer_1
 62
7
100
AcDbLine
 10
144.949800
 20
107.050010
 30
0.0
 11
149.950000
 21
107.050010
 31
0.0
  0
LINE
  5
434
100
AcDbEntity
  8
Layer_1
 62
7
100
AcDbLine
 10
149.950000
 20
107.050010
 30
0.0
 11
149.950000
 21
186.950040
 31
0.0
  0
LINE
  5
435
100
AcDbEntity
  8
Layer_1
 62
7
100
AcDbLine
 10
149.950000
 20
186.950040
 30
0.0
 11
144.041330
 21
186.950040
 31
0.0
  0
LINE
  5
436
100
AcDbEntity
  8
Layer_1
 62
7
100
AcDbLine
 10
144.041330
 20
186.950040
 30
0.0
 11
139.999710
 21
179.949960
 31
0.0
  0
LINE
  5
437
100
AcDbEntity
  8
Layer_1
 62
7
100
AcDbLine
 10
139.999710
 20
179.949960
 30
0.0
 11
135.958630
 21
186.950040
 31
0.0
  0
LINE
  5
438
100
AcDbEntity
  8
Layer_1
 62
7
100
AcDbLine
 10
135.958630
 20
186.950040
 30
0.0
 11
130.049930
 21
186.950040
 31
0.0
  0
LINE
  5
439
100
AcDbEntity
  8
Layer_1
 62
7
100
AcDbLine
 10
134.950030
 20
167.050210
 30
0.0
 11
145.050030
 21
167.050210
 31
0.0
  0
LINE
  5
43a
100
AcDbEntity
  8
Layer_1
 62
7
100
AcDbLine
 10
145.050030
 20
167.050210
 30
0.0
 11
145.050030
 21
163.950210
 31
0.0
  0
LINE
  5
43b
100
AcDbEntity
  8
Layer_1
 62
7
100
AcDbLine
 10
145.050030
 20
163.950210
 30
0.0
 11
134.950030
 21
163.950210
 31
0.0
  0
LINE
  5
43c
100
AcDbEntity
  8
Layer_1
 62
7
100
AcDbLine
 10
134.950030
 20
163.950210
 30
0.0
 11
134.950030
 21
167.050210
 31
0.0
  0
LINE
  5
43d
100
AcDbEntity
  8
Layer_1
 62
7
100
AcDbLine
 10
110.050030
 20
186.950050
 30
0.0
 11
110.050030
 21
107.050050
 31
0.0
  0
LINE
  5
43e
100
AcDbEntity
  8
Layer_1
 62
7
100
AcDbLine
 10
110.050030
 20
107.050050
 30
0.0
 11
115.050260
 21
107.050050
 31
0.0
  0
LINE
  5
43f
100
AcDbEntity
  8
Layer_1
 62
7
100
AcDbLine
 10
115.050260
 20
107.050050
 30
0.0
 11
115.050260
 21
104.050150
 31
0.0
  0
LINE
  5
440
100
AcDbEntity
  8
Layer_1
 62
7
100
AcDbLine
 10
115.050260
 20
104.050150
 30
0.0
 11
124.949910
 21
104.050150
 31
0.0
  0
LINE
  5
441
100
AcDbEntity
  8
Layer_1
 62
7
100
AcDbLine
 10
124.949910
 20
104.050150
 30
0.0
 11
124.949910
 21
107.050050
 31
0.0
  0
LINE
  5
442
100
AcDbEntity
  8
Layer_1
 62
7
100
AcDbLine
 10
124.949910
 20
107.050050
 30
0.0
 11
129.950110
 21
107.050050
 31
0.0
  0
LINE
  5
443
100
AcDbEntity
  8
Layer_1
 62
7
100
AcDbLine
 10
129.950110
 20
107.050050
 30
0.0
 11
129.950110
 21
186.950050
 31
0.0
  0
LINE
  5
444
100
AcDbEntity
  8
Layer_1
 62
7
100
AcDbLine
 10
129.950110
 20
186.950050
 30
0.0
 11
124.041440
 21
186.950050
 31
0.0
  0
LINE
  5
445
100
AcDbEntity
  8
Layer_1
 62
7
100
AcDbLine
 10
124.041440
 20
186.950050
 30
0.0
 11
119.999820
 21
179.949950
 31
0.0
  0
LINE
  5
446
100
AcDbEntity
  8
Layer_1
 62
7
100
AcDbLine
 10
119.999820
 20
179.949950
 30
0.0
 11
115.958740
 21
186.950050
 31
0.0
  0
LINE
  5
447
100
AcDbEntity
  8
Layer_1
 62
7
100
AcDbLine
 10
115.958740
 20
186.950050
 30
0.0
 11
110.050030
 21
186.950050
 31
0.0
  0
LINE
  5
448
100
AcDbEntity
  8
Layer_1
 62
7
100
AcDbLine
 10
114.900130
 20
167.100280
 30
0.0
 11
125.000130
 21
167.100280
 31
0.0
  0
LINE
  5
449
100
AcDbEntity
  8
Layer_1
 62
7
100
AcDbLine
 10
125.000130
 20
167.100280
 30
0.0
 11
125.000130
 21
164.000280
 31
0.0
  0
LINE
  5
44a
100
AcDbEntity
  8
Layer_1
 62
7
100
AcDbLine
 10
125.000130
 20
164.000280
 30
0.0
 11
114.900130
 21
164.000280
 31
0.0
  0
LINE
  5
44b
100
AcDbEntity
  8
Layer_1
 62
7
100
AcDbLine
 10
114.900130
 20
164.000280
 30
0.0
 11
114.900130
 21
167.100280
 31
0.0
  0
LINE
  5
44c
100
AcDbEntity
  8
Layer_1
 62
7
100
AcDbLine
 10
190.049930
 20
186.950050
 30
0.0
 11
190.049930
 21
107.050010
 31
0.0
  0
LINE
  5
44d
100
AcDbEntity
  8
Layer_1
 62
7
100
AcDbLine
 10
190.049930
 20
107.050010
 30
0.0
 11
195.050150
 21
107.050010
 31
0.0
  0
LINE
  5
44e
100
AcDbEntity
  8
Layer_1
 62
7
100
AcDbLine
 10
195.050150
 20
107.050010
 30
0.0
 11
195.050150
 21
104.050190
 31
0.0
  0
LINE
  5
44f
100
AcDbEntity
  8
Layer_1
 62
7
100
AcDbLine
 10
195.050150
 20
104.050190
 30
0.0
 11
204.949800
 21
104.050190
 31
0.0
  0
LINE
  5
450
100
AcDbEntity
  8
Layer_1
 62
7
100
AcDbLine
 10
204.949800
 20
104.050190
 30
0.0
 11
204.949800
 21
107.050010
 31
0.0
  0
LINE
  5
451
100
AcDbEntity
  8
Layer_1
 62
7
100
AcDbLine
 10
204.949800
 20
107.050010
 30
0.0
 11
209.950000
 21
107.050010
 31
0.0
  0
LINE
  5
452
100
AcDbEntity
  8
Layer_1
 62
7
100
AcDbLine
 10
209.950000
 20
107.050010
 30
0.0
 11
209.950000
 21
186.950050
 31
0.0
  0
LINE
  5
453
100
AcDbEntity
  8
Layer_1
 62
7
100
AcDbLine
 10
209.950000
 20
186.950050
 30
0.0
 11
204.041330
 21
186.950050
 31
0.0
  0
LINE
  5
454
100
AcDbEntity
  8
Layer_1
 62
7
100
AcDbLine
 10
204.041330
 20
186.950050
 30
0.0
 11
199.999710
 21
179.949970
 31
0.0
  0
LINE
  5
455
100
AcDbEntity
  8
Layer_1
 62
7
100
AcDbLine
 10
199.999710
 20
179.949970
 30
0.0
 11
195.958630
 21
186.950050
 31
0.0
  0
LINE
  5
456
100
AcDbEntity
  8
Layer_1
 62
7
100
AcDbLine
 10
195.958630
 20
186.950050
 30
0.0
 11
190.049930
 21
186.950050
 31
0.0
  0
LINE
  5
457
100
AcDbEntity
  8
Layer_1
 62
7
100
AcDbLine
 10
194.950030
 20
167.050210
 30
0.0
 11
205.050030
 21
167.050210
 31
0.0
  0
LINE
  5
458
100
AcDbEntity
  8
Layer_1
 62
7
100
AcDbLine
 10
205.050030
 20
167.050210
 30
0.0
 11
205.050030
 21
163.950210
 31
0.0
  0
LINE
  5
459
100
AcDbEntity
  8
Layer_1
 62
7
100
AcDbLine
 10
205.050030
 20
163.950210
 30
0.0
 11
194.950030
 21
163.950210
 31
0.0
  0
LINE
  5
45a
100
AcDbEntity
  8
Layer_1
 62
7
100
AcDbLine
 10
194.950030
 20
163.950210
 30
0.0
 11
194.950030
 21
167.050210
 31
0.0
  0
LINE
  5
45b
100
AcDbEntity
  8
Layer_1
 62
7
100
AcDbLine
 10
170.050030
 20
186.949960
 30
0.0
 11
170.050030
 21
107.049950
 31
0.0
  0
LINE
  5
45c
100
AcDbEntity
  8
Layer_1
 62
7
100
AcDbLine
 10
170.050030
 20
107.049950
 30
0.0
 11
175.050260
 21
107.049950
 31
0.0
  0
LINE
  5
45d
100
AcDbEntity
  8
Layer_1
 62
7
100
AcDbLine
 10
175.050260
 20
107.049950
 30
0.0
 11
175.050260
 21
104.050050
 31
0.0
  0
LINE
  5
45e
100
AcDbEntity
  8
Layer_1
 62
7
100
AcDbLine
 10
175.050260
 20
104.050050
 30
0.0
 11
184.949910
 21
104.050050
 31
0.0
  0
LINE
  5
45f
100
AcDbEntity
  8
Layer_1
 62
7
100
AcDbLine
 10
184.949910
 20
104.050050
 30
0.0
 11
184.949910
 21
107.049950
 31
0.0
  0
LINE
  5
460
100
AcDbEntity
  8
Layer_1
 62
7
100
AcDbLine
 10
184.949910
 20
107.049950
 30
0.0
 11
189.950110
 21
107.049950
 31
0.0
  0
LINE
  5
461
100
AcDbEntity
  8
Layer_1
 62
7
100
AcDbLine
 10
189.950110
 20
107.049950
 30
0.0
 11
189.950110
 21
186.949960
 31
0.0
  0
LINE
  5
462
100
AcDbEntity
  8
Layer_1
 62
7
100
AcDbLine
 10
189.950110
 20
186.949960
 30
0.0
 11
184.041440
 21
186.949960
 31
0.0
  0
LINE
  5
463
100
AcDbEntity
  8
Layer_1
 62
7
100
AcDbLine
 10
184.041440
 20
186.949960
 30
0.0
 11
179.999820
 21
179.949860
 31
0.0
  0
LINE
  5
464
100
AcDbEntity
  8
Layer_1
 62
7
100
AcDbLine
 10
179.999820
 20
179.949860
 30
0.0
 11
175.958740
 21
186.949960
 31
0.0
  0
LINE
  5
465
100
AcDbEntity
  8
Layer_1
 62
7
100
AcDbLine
 10
175.958740
 20
186.949960
 30
0.0
 11
170.050030
 21
186.949960
 31
0.0
  0
LINE
  5
466
100
AcDbEntity
  8
Layer_1
 62
7
100
AcDbLine
 10
174.900130
 20
167.100180
 30
0.0
 11
185.000130
 21
167.100180
 31
0.0
  0
LINE
  5
467
100
AcDbEntity
  8
Layer_1
 62
7
100
AcDbLine
 10
185.000130
 20
167.100180
 30
0.0
 11
185.000130
 21
164.000180
 31
0.0
  0
LINE
  5
468
100
AcDbEntity
  8
Layer_1
 62
7
100
AcDbLine
 10
185.000130
 20
164.000180
 30
0.0
 11
174.900130
 21
164.000180
 31
0.0
  0
LINE
  5
469
100
AcDbEntity
  8
Layer_1
 62
7
100
AcDbLine
 10
174.900130
 20
164.000180
 30
0.0
 11
174.900130
 21
167.100180
 31
0.0
  0
LINE
  5
46a
100
AcDbEntity
  8
Layer_1
 62
7
100
AcDbLine
 10
230.049930
 20
186.950040
 30
0.0
 11
230.049930
 21
107.050010
 31
0.0
  0
LINE
  5
46b
100
AcDbEntity
  8
Layer_1
 62
7
100
AcDbLine
 10
230.049930
 20
107.050010
 30
0.0
 11
235.050150
 21
107.050010
 31
0.0
  0
LINE
  5
46c
100
AcDbEntity
  8
Layer_1
 62
7
100
AcDbLine
 10
235.050150
 20
107.050010
 30
0.0
 11
235.050150
 21
104.050190
 31
0.0
  0
LINE
  5
46d
100
AcDbEntity
  8
Layer_1
 62
7
100
AcDbLine
 10
235.050150
 20
104.050190
 30
0.0
 11
244.949800
 21
104.050190
 31
0.0
  0
LINE
  5
46e
100
AcDbEntity
  8
Layer_1
 62
7
100
AcDbLine
 10
244.949800
 20
104.050190
 30
0.0
 11
244.949800
 21
107.050010
 31
0.0
  0
LINE
  5
46f
100
AcDbEntity
  8
Layer_1
 62
7
100
AcDbLine
 10
244.949800
 20
107.050010
 30
0.0
 11
249.950000
 21
107.050010
 31
0.0
  0
LINE
  5
470
100
AcDbEntity
  8
Layer_1
 62
7
100
AcDbLine
 10
249.950000
 20
107.050010
 30
0.0
 11
249.950000
 21
186.950040
 31
0.0
  0
LINE
  5
471
100
AcDbEntity
  8
Layer_1
 62
7
100
AcDbLine
 10
249.950000
 20
186.950040
 30
0.0
 11
244.041330
 21
186.950040
 31
0.0
  0
LINE
  5
472
100
AcDbEntity
  8
Layer_1
 62
7
100
AcDbLine
 10
244.041330
 20
186.950040
 30
0.0
 11
239.999710
 21
179.949960
 31
0.0
  0
LINE
  5
473
100
AcDbEntity
  8
Layer_1
 62
7
100
AcDbLine
 10
239.999710
 20
179.949960
 30
0.0
 11
235.958630
 21
186.950040
 31
0.0
  0
LINE
  5
474
100
AcDbEntity
  8
Layer_1
 62
7
100
AcDbLine
 10
235.958630
 20
186.950040
 30
0.0
 11
230.049930
 21
186.950040
 31
0.0
  0
LINE
  5
475
100
AcDbEntity
  8
Layer_1
 62
7
100
AcDbLine
 10
234.950030
 20
167.050210
 30
0.0
 11
245.050030
 21
167.050210
 31
0.0
  0
LINE
  5
476
100
AcDbEntity
  8
Layer_1
 62
7
100
AcDbLine
 10
245.050030
 20
167.050210
 30
0.0
 11
245.050030
 21
163.950210
 31
0.0
  0
LINE
  5
477
100
AcDbEntity
  8
Layer_1
 62
7
100
AcDbLine
 10
245.050030
 20
163.950210
 30
0.0
 11
234.950030
 21
163.950210
 31
0.0
  0
LINE
  5
478
100
AcDbEntity
  8
Layer_1
 62
7
100
AcDbLine
 10
234.950030
 20
163.950210
 30
0.0
 11
234.950030
 21
167.050210
 31
0.0
  0
ENDSEC
  0
SECTION
  2
OBJECTS
  0
DICTIONARY
  5
C
330
0
100
AcDbDictionary
  3
ACAD_GROUP
350
D
  3
ACAD_MLINESTYLE
350
17
  0
DICTIONARY
  5
D
330
C
100
AcDbDictionary
  0
DICTIONARY
  5
1A
330
C
100
AcDbDictionary
  0
DICTIONARY
  5
17
330
C
100
AcDbDictionary
  3
STANDARD
350
18
  0
DICTIONARY
  5
19
330
C
100
AcDbDictionary
  0
ENDSEC
  0
EOF
