999
"DXF R12 Output" (www.mydxf.blogspot.com)
 0 
SECTION
 2 
HEADER
 9 
$ACADVER
 1 
AC1009
 9 
$EXTMIN
 10 
 0 
 20 
 0 
 9 
$EXTMAX
 10 
 8.5 
 20 
 11 
 0 
ENDSEC
 0 
SECTION
 2 
ENTITIES
0
LINE
8
Layer 1
10
31.594800
20
140.462000
11
29.250798
21
140.384246
0
LINE
8
Layer 1
10
29.250798
20
140.384246
11
26.935431
21
140.153433
0
LINE
8
Layer 1
10
26.935431
20
140.153433
11
24.655081
21
139.773234
0
LINE
8
Layer 1
10
24.655081
20
139.773234
11
22.416130
21
139.247323
0
LINE
8
Layer 1
10
22.416130
20
139.247323
11
18.087949
21
137.773058
0
LINE
8
Layer 1
10
18.087949
20
137.773058
11
14.001939
21
135.760026
0
LINE
8
Layer 1
10
14.001939
20
135.760026
11
10.209154
21
133.237616
0
LINE
8
Layer 1
10
10.209154
20
133.237616
11
6.760646
21
130.235216
0
LINE
8
Layer 1
10
6.760646
20
130.235216
11
5.181450
21
128.563204
0
LINE
8
Layer 1
10
5.181450
20
128.563204
11
3.707467
21
126.782214
0
LINE
8
Layer 1
10
3.707467
20
126.782214
11
2.345080
21
124.895922
0
LINE
8
Layer 1
10
2.345080
20
124.895922
11
1.100670
21
122.908000
0
LINE
8
Layer 1
10
1.100670
20
122.908000
11
1.100670
21
106.581000
0
LINE
8
Layer 1
10
1.100670
20
106.581000
11
1.693370
21
106.581000
0
LINE
8
Layer 1
10
1.693370
20
106.581000
11
1.693370
21
103.731000
0
LINE
8
Layer 1
10
1.693370
20
103.731000
11
1.100670
21
103.731000
0
LINE
8
Layer 1
10
1.100670
20
103.731000
11
1.100670
21
87.489100
0
LINE
8
Layer 1
10
1.100670
20
87.489100
11
2.345076
21
85.501171
0
LINE
8
Layer 1
10
2.345076
20
85.501171
11
3.707459
21
83.614871
0
LINE
8
Layer 1
10
3.707459
20
83.614871
11
5.181439
21
81.833875
0
LINE
8
Layer 1
10
5.181439
20
81.833875
11
6.760633
21
80.161855
0
LINE
8
Layer 1
10
6.760633
20
80.161855
11
10.209138
21
77.159441
0
LINE
8
Layer 1
10
10.209138
20
77.159441
11
14.001922
21
74.637018
0
LINE
8
Layer 1
10
14.001922
20
74.637018
11
18.087933
21
72.623973
0
LINE
8
Layer 1
10
18.087933
20
72.623973
11
22.416118
21
71.149696
0
LINE
8
Layer 1
10
22.416118
20
71.149696
11
24.655072
21
70.623779
0
LINE
8
Layer 1
10
24.655072
20
70.623779
11
26.935424
21
70.243576
0
LINE
8
Layer 1
10
26.935424
20
70.243576
11
29.250794
21
70.012758
0
LINE
8
Layer 1
10
29.250794
20
70.012758
11
31.594800
21
69.935000
0
LINE
8
Layer 1
10
31.594800
20
69.935000
11
33.938786
21
70.012754
0
LINE
8
Layer 1
10
33.938786
20
70.012754
11
36.254137
21
70.243565
0
LINE
8
Layer 1
10
36.254137
20
70.243565
11
38.534472
21
70.623759
0
LINE
8
Layer 1
10
38.534472
20
70.623759
11
40.773409
21
71.149664
0
LINE
8
Layer 1
10
40.773409
20
71.149664
11
45.101565
21
72.623912
0
LINE
8
Layer 1
10
45.101565
20
72.623912
11
49.187553
21
74.636920
0
LINE
8
Layer 1
10
49.187553
20
74.636920
11
52.980322
21
77.159300
0
LINE
8
Layer 1
10
52.980322
20
77.159300
11
56.428820
21
80.161666
0
LINE
8
Layer 1
10
56.428820
20
80.161666
11
58.008014
21
81.833659
0
LINE
8
Layer 1
10
58.008014
20
81.833659
11
59.481997
21
83.614628
0
LINE
8
Layer 1
10
59.481997
20
83.614628
11
60.844386
21
85.500900
0
LINE
8
Layer 1
10
60.844386
20
85.500900
11
62.088800
21
87.488800
0
LINE
8
Layer 1
10
62.088800
20
87.488800
11
62.088800
21
103.759000
0
LINE
8
Layer 1
10
62.088800
20
103.759000
11
61.496300
21
103.759000
0
LINE
8
Layer 1
10
61.496300
20
103.759000
11
61.496300
21
106.610000
0
LINE
8
Layer 1
10
61.496300
20
106.610000
11
62.088800
21
106.610000
0
LINE
8
Layer 1
10
62.088800
20
106.610000
11
62.088800
21
122.908000
0
LINE
8
Layer 1
10
62.088800
20
122.908000
11
60.844395
21
124.895915
0
LINE
8
Layer 1
10
60.844395
20
124.895915
11
59.482013
21
126.782201
0
LINE
8
Layer 1
10
59.482013
20
126.782201
11
58.008037
21
128.563185
0
LINE
8
Layer 1
10
58.008037
20
128.563185
11
56.428847
21
130.235192
0
LINE
8
Layer 1
10
56.428847
20
130.235192
11
52.980355
21
133.237586
0
LINE
8
Layer 1
10
52.980355
20
133.237586
11
49.187587
21
135.759993
0
LINE
8
Layer 1
10
49.187587
20
135.759993
11
45.101596
21
137.773027
0
LINE
8
Layer 1
10
45.101596
20
137.773027
11
40.773433
21
139.247298
0
LINE
8
Layer 1
10
40.773433
20
139.247298
11
38.534491
21
139.773213
0
LINE
8
Layer 1
10
38.534491
20
139.773213
11
36.254151
21
140.153418
0
LINE
8
Layer 1
10
36.254151
20
140.153418
11
33.938793
21
140.384238
0
LINE
8
Layer 1
10
33.938793
20
140.384238
11
31.594800
21
140.462000
0
LINE
8
Layer 1
10
31.594800
20
140.462000
11
31.594800
21
140.462000
0
LINE
8
Layer 1
10
88.351600
20
-27.802600
11
84.934660
21
-28.463557
0
LINE
8
Layer 1
10
84.934660
20
-28.463557
11
84.632615
21
-28.986694
0
LINE
8
Layer 1
10
84.632615
20
-28.986694
11
85.733295
21
-30.893144
0
LINE
8
Layer 1
10
85.733295
20
-30.893144
11
87.934600
21
-30.893100
0
LINE
8
Layer 1
10
87.934600
20
-30.893100
11
89.035280
21
-28.986650
0
LINE
8
Layer 1
10
89.035280
20
-28.986650
11
88.351600
21
-27.802600
0
LINE
8
Layer 1
10
443.259000
20
-10.101100
11
444.359650
21
-12.007480
0
LINE
8
Layer 1
10
444.359650
20
-12.007480
11
443.259000
21
-13.913900
0
LINE
8
Layer 1
10
443.259000
20
-13.913900
11
441.057700
21
-13.913904
0
LINE
8
Layer 1
10
441.057700
20
-13.913904
11
439.957050
21
-12.007514
0
LINE
8
Layer 1
10
439.957050
20
-12.007514
11
441.057700
21
-10.101124
0
LINE
8
Layer 1
10
441.057700
20
-10.101124
11
443.259000
21
-10.101100
0
LINE
8
Layer 1
10
430.728000
20
-3.095840
11
431.828660
21
-5.002210
0
LINE
8
Layer 1
10
431.828660
20
-5.002210
11
430.728000
21
-6.908570
0
LINE
8
Layer 1
10
430.728000
20
-6.908570
11
428.527000
21
-6.908560
0
LINE
8
Layer 1
10
428.527000
20
-6.908560
11
427.426340
21
-5.002190
0
LINE
8
Layer 1
10
427.426340
20
-5.002190
11
428.526970
21
-3.095830
0
LINE
8
Layer 1
10
428.526970
20
-3.095830
11
430.728000
21
-3.095840
0
LINE
8
Layer 1
10
438.371000
20
-7.278930
11
439.471650
21
-9.185310
0
LINE
8
Layer 1
10
439.471650
20
-9.185310
11
438.371000
21
-11.091700
0
LINE
8
Layer 1
10
438.371000
20
-11.091700
11
436.169700
21
-11.091704
0
LINE
8
Layer 1
10
436.169700
20
-11.091704
11
435.069050
21
-9.185314
0
LINE
8
Layer 1
10
435.069050
20
-9.185314
11
436.169700
21
-7.278924
0
LINE
8
Layer 1
10
436.169700
20
-7.278924
11
438.371000
21
-7.278930
0
LINE
8
Layer 1
10
433.483000
20
-4.456710
11
434.583650
21
-6.363090
0
LINE
8
Layer 1
10
434.583650
20
-6.363090
11
433.483000
21
-8.269480
0
LINE
8
Layer 1
10
433.483000
20
-8.269480
11
431.281700
21
-8.269484
0
LINE
8
Layer 1
10
431.281700
20
-8.269484
11
430.181050
21
-6.363094
0
LINE
8
Layer 1
10
430.181050
20
-6.363094
11
431.281700
21
-4.456704
0
LINE
8
Layer 1
10
431.281700
20
-4.456704
11
433.483000
21
-4.456710
0
LINE
8
Layer 1
10
428.595000
20
-1.634480
11
429.695660
21
-3.540860
0
LINE
8
Layer 1
10
429.695660
20
-3.540860
11
428.595000
21
-5.447250
0
LINE
8
Layer 1
10
428.595000
20
-5.447250
11
426.393690
21
-5.447252
0
LINE
8
Layer 1
10
426.393690
20
-5.447252
11
425.293040
21
-3.540862
0
LINE
8
Layer 1
10
425.293040
20
-3.540862
11
426.393000
21
-1.634480
0
LINE
8
Layer 1
10
426.393000
20
-1.634480
11
428.595000
21
-1.634480
0
LINE
8
Layer 1
10
114.220000
20
-39.828700
11
113.962145
21
-40.275414
0
LINE
8
Layer 1
10
113.962145
20
-40.275414
11
115.062825
21
-42.181874
0
LINE
8
Layer 1
10
115.062825
20
-42.181874
11
115.578000
21
-42.181900
0
LINE
8
Layer 1
10
115.578000
20
-42.181900
11
114.219330
21
-39.828730
0
LINE
8
Layer 1
10
114.219330
20
-39.828730
11
114.220000
21
-39.828700
0
LINE
8
Layer 1
10
413.408000
20
6.904160
11
414.508660
21
4.997790
0
LINE
8
Layer 1
10
414.508660
20
4.997790
11
413.408000
21
3.091430
0
LINE
8
Layer 1
10
413.408000
20
3.091430
11
411.207000
21
3.091440
0
LINE
8
Layer 1
10
411.207000
20
3.091440
11
410.106340
21
4.997810
0
LINE
8
Layer 1
10
410.106340
20
4.997810
11
411.206970
21
6.904170
0
LINE
8
Layer 1
10
411.206970
20
6.904170
11
413.408000
21
6.904160
0
LINE
8
Layer 1
10
396.087000
20
16.904200
11
397.187660
21
14.997830
0
LINE
8
Layer 1
10
397.187660
20
14.997830
11
396.087000
21
13.091400
0
LINE
8
Layer 1
10
396.087000
20
13.091400
11
393.886000
21
13.091400
0
LINE
8
Layer 1
10
393.886000
20
13.091400
11
392.785340
21
14.997770
0
LINE
8
Layer 1
10
392.785340
20
14.997770
11
393.885970
21
16.904130
0
LINE
8
Layer 1
10
393.885970
20
16.904130
11
396.087000
21
16.904200
0
LINE
8
Layer 1
10
378.767000
20
26.904100
11
379.867660
21
24.997730
0
LINE
8
Layer 1
10
379.867660
20
24.997730
11
378.767000
21
23.091400
0
LINE
8
Layer 1
10
378.767000
20
23.091400
11
376.566000
21
23.091400
0
LINE
8
Layer 1
10
376.566000
20
23.091400
11
375.465340
21
24.997770
0
LINE
8
Layer 1
10
375.465340
20
24.997770
11
376.565970
21
26.904130
0
LINE
8
Layer 1
10
376.565970
20
26.904130
11
378.767000
21
26.904100
0
LINE
8
Layer 1
10
67.866000
20
-66.591400
11
69.224520
21
-68.944420
0
LINE
8
Layer 1
10
69.224520
20
-68.944420
11
69.482370
21
-68.497706
0
LINE
8
Layer 1
10
69.482370
20
-68.497706
11
68.381700
21
-66.591396
0
LINE
8
Layer 1
10
68.381700
20
-66.591396
11
67.866000
21
-66.591400
0
LINE
8
Layer 1
10
448.049000
20
6.904260
11
449.149660
21
4.997890
0
LINE
8
Layer 1
10
449.149660
20
4.997890
11
448.049000
21
3.091530
0
LINE
8
Layer 1
10
448.049000
20
3.091530
11
445.848000
21
3.091540
0
LINE
8
Layer 1
10
445.848000
20
3.091540
11
444.747340
21
4.997910
0
LINE
8
Layer 1
10
444.747340
20
4.997910
11
445.847970
21
6.904270
0
LINE
8
Layer 1
10
445.847970
20
6.904270
11
448.049000
21
6.904260
0
LINE
8
Layer 1
10
443.259000
20
9.898950
11
444.359650
21
7.992570
0
LINE
8
Layer 1
10
444.359650
20
7.992570
11
443.259000
21
6.086180
0
LINE
8
Layer 1
10
443.259000
20
6.086180
11
441.057700
21
6.086176
0
LINE
8
Layer 1
10
441.057700
20
6.086176
11
439.957050
21
7.992566
0
LINE
8
Layer 1
10
439.957050
20
7.992566
11
441.057700
21
9.898956
0
LINE
8
Layer 1
10
441.057700
20
9.898956
11
443.259000
21
9.898950
0
LINE
8
Layer 1
10
430.728000
20
16.904300
11
431.828660
21
14.997930
0
LINE
8
Layer 1
10
431.828660
20
14.997930
11
430.728000
21
13.091500
0
LINE
8
Layer 1
10
430.728000
20
13.091500
11
428.527000
21
13.091500
0
LINE
8
Layer 1
10
428.527000
20
13.091500
11
427.426340
21
14.997870
0
LINE
8
Layer 1
10
427.426340
20
14.997870
11
428.526970
21
16.904230
0
LINE
8
Layer 1
10
428.526970
20
16.904230
11
430.728000
21
16.904300
0
LINE
8
Layer 1
10
438.371000
20
12.721200
11
439.471650
21
10.814820
0
LINE
8
Layer 1
10
439.471650
20
10.814820
11
438.371000
21
8.908400
0
LINE
8
Layer 1
10
438.371000
20
8.908400
11
436.169700
21
8.908396
0
LINE
8
Layer 1
10
436.169700
20
8.908396
11
435.069050
21
10.814786
0
LINE
8
Layer 1
10
435.069050
20
10.814786
11
436.169700
21
12.721176
0
LINE
8
Layer 1
10
436.169700
20
12.721176
11
438.371000
21
12.721200
0
LINE
8
Layer 1
10
433.483000
20
15.543400
11
434.583650
21
13.637020
0
LINE
8
Layer 1
10
434.583650
20
13.637020
11
433.483000
21
11.730600
0
LINE
8
Layer 1
10
433.483000
20
11.730600
11
431.281700
21
11.730596
0
LINE
8
Layer 1
10
431.281700
20
11.730596
11
430.181050
21
13.636986
0
LINE
8
Layer 1
10
430.181050
20
13.636986
11
431.281700
21
15.543376
0
LINE
8
Layer 1
10
431.281700
20
15.543376
11
433.483000
21
15.543400
0
LINE
8
Layer 1
10
428.595000
20
18.365600
11
429.695660
21
16.459220
0
LINE
8
Layer 1
10
429.695660
20
16.459220
11
428.595000
21
14.552800
0
LINE
8
Layer 1
10
428.595000
20
14.552800
11
426.393690
21
14.552798
0
LINE
8
Layer 1
10
426.393690
20
14.552798
11
425.293040
21
16.459188
0
LINE
8
Layer 1
10
425.293040
20
16.459188
11
426.393000
21
18.365600
0
LINE
8
Layer 1
10
426.393000
20
18.365600
11
428.595000
21
18.365600
0
LINE
8
Layer 1
10
115.063000
20
-44.013500
11
113.962320
21
-45.919950
0
LINE
8
Layer 1
10
113.962320
20
-45.919950
11
115.063000
21
-47.826260
0
LINE
8
Layer 1
10
115.063000
20
-47.826260
11
117.264000
21
-47.826300
0
LINE
8
Layer 1
10
117.264000
20
-47.826300
11
117.566045
21
-47.303168
0
LINE
8
Layer 1
10
117.566045
20
-47.303168
11
116.430075
21
-44.013548
0
LINE
8
Layer 1
10
116.430075
20
-44.013548
11
115.063000
21
-44.013500
0
LINE
8
Layer 1
10
413.408000
20
26.904200
11
414.508660
21
24.997830
0
LINE
8
Layer 1
10
414.508660
20
24.997830
11
413.408000
21
23.091500
0
LINE
8
Layer 1
10
413.408000
20
23.091500
11
411.207000
21
23.091500
0
LINE
8
Layer 1
10
411.207000
20
23.091500
11
410.106340
21
24.997870
0
LINE
8
Layer 1
10
410.106340
20
24.997870
11
411.206970
21
26.904230
0
LINE
8
Layer 1
10
411.206970
20
26.904230
11
413.408000
21
26.904200
0
LINE
8
Layer 1
10
396.087000
20
36.904200
11
397.187660
21
34.997830
0
LINE
8
Layer 1
10
397.187660
20
34.997830
11
396.087000
21
33.091500
0
LINE
8
Layer 1
10
396.087000
20
33.091500
11
393.886000
21
33.091500
0
LINE
8
Layer 1
10
393.886000
20
33.091500
11
392.785340
21
34.997870
0
LINE
8
Layer 1
10
392.785340
20
34.997870
11
393.885970
21
36.904230
0
LINE
8
Layer 1
10
393.885970
20
36.904230
11
396.087000
21
36.904200
0
LINE
8
Layer 1
10
73.269900
20
-69.413600
11
71.068600
21
-69.413600
0
LINE
8
Layer 1
10
71.068600
20
-69.413600
11
70.385037
21
-70.597550
0
LINE
8
Layer 1
10
70.385037
20
-70.597550
11
72.666007
21
-73.226210
0
LINE
8
Layer 1
10
72.666007
20
-73.226210
11
73.269900
21
-73.226200
0
LINE
8
Layer 1
10
73.269900
20
-73.226200
11
74.370570
21
-71.319890
0
LINE
8
Layer 1
10
74.370570
20
-71.319890
11
73.269900
21
-69.413600
0
LINE
8
Layer 1
10
448.049000
20
26.904300
11
449.149660
21
24.997930
0
LINE
8
Layer 1
10
449.149660
20
24.997930
11
448.049000
21
23.091500
0
LINE
8
Layer 1
10
448.049000
20
23.091500
11
445.848000
21
23.091600
0
LINE
8
Layer 1
10
445.848000
20
23.091600
11
444.747340
21
24.997970
0
LINE
8
Layer 1
10
444.747340
20
24.997970
11
445.847970
21
26.904330
0
LINE
8
Layer 1
10
445.847970
20
26.904330
11
448.049000
21
26.904300
0
LINE
8
Layer 1
10
443.259000
20
29.898900
11
444.359650
21
27.992520
0
LINE
8
Layer 1
10
444.359650
20
27.992520
11
443.259000
21
26.086200
0
LINE
8
Layer 1
10
443.259000
20
26.086200
11
441.057700
21
26.086196
0
LINE
8
Layer 1
10
441.057700
20
26.086196
11
439.957050
21
27.992586
0
LINE
8
Layer 1
10
439.957050
20
27.992586
11
441.057700
21
29.898976
0
LINE
8
Layer 1
10
441.057700
20
29.898976
11
443.259000
21
29.898900
0
LINE
8
Layer 1
10
430.728000
20
36.904300
11
431.828660
21
34.997930
0
LINE
8
Layer 1
10
431.828660
20
34.997930
11
430.728000
21
33.091600
0
LINE
8
Layer 1
10
430.728000
20
33.091600
11
428.527000
21
33.091600
0
LINE
8
Layer 1
10
428.527000
20
33.091600
11
427.426340
21
34.997970
0
LINE
8
Layer 1
10
427.426340
20
34.997970
11
428.526970
21
36.904330
0
LINE
8
Layer 1
10
428.526970
20
36.904330
11
430.728000
21
36.904300
0
LINE
8
Layer 1
10
438.371000
20
32.721200
11
439.471650
21
30.814820
0
LINE
8
Layer 1
10
439.471650
20
30.814820
11
438.371000
21
28.908400
0
LINE
8
Layer 1
10
438.371000
20
28.908400
11
436.169700
21
28.908396
0
LINE
8
Layer 1
10
436.169700
20
28.908396
11
435.069050
21
30.814786
0
LINE
8
Layer 1
10
435.069050
20
30.814786
11
436.169700
21
32.721176
0
LINE
8
Layer 1
10
436.169700
20
32.721176
11
438.371000
21
32.721200
0
LINE
8
Layer 1
10
433.483000
20
35.543400
11
434.583650
21
33.637020
0
LINE
8
Layer 1
10
434.583650
20
33.637020
11
433.483000
21
31.730600
0
LINE
8
Layer 1
10
433.483000
20
31.730600
11
431.281700
21
31.730596
0
LINE
8
Layer 1
10
431.281700
20
31.730596
11
430.181050
21
33.636986
0
LINE
8
Layer 1
10
430.181050
20
33.636986
11
431.281700
21
35.543376
0
LINE
8
Layer 1
10
431.281700
20
35.543376
11
433.483000
21
35.543400
0
LINE
8
Layer 1
10
428.595000
20
38.365600
11
429.695660
21
36.459220
0
LINE
8
Layer 1
10
429.695660
20
36.459220
11
428.595000
21
34.552800
0
LINE
8
Layer 1
10
428.595000
20
34.552800
11
426.393690
21
34.552798
0
LINE
8
Layer 1
10
426.393690
20
34.552798
11
425.293040
21
36.459188
0
LINE
8
Layer 1
10
425.293040
20
36.459188
11
426.393000
21
38.365600
0
LINE
8
Layer 1
10
426.393000
20
38.365600
11
428.595000
21
38.365600
0
LINE
8
Layer 1
10
423.706000
20
41.187800
11
424.806660
21
39.281420
0
LINE
8
Layer 1
10
424.806660
20
39.281420
11
423.706000
21
37.375000
0
LINE
8
Layer 1
10
423.706000
20
37.375000
11
421.504690
21
37.374998
0
LINE
8
Layer 1
10
421.504690
20
37.374998
11
420.404040
21
39.281388
0
LINE
8
Layer 1
10
420.404040
20
39.281388
11
421.505000
21
41.187800
0
LINE
8
Layer 1
10
421.505000
20
41.187800
11
423.706000
21
41.187800
0
LINE
8
Layer 1
10
413.408000
20
46.904300
11
414.508660
21
44.997930
0
LINE
8
Layer 1
10
414.508660
20
44.997930
11
413.408000
21
43.091500
0
LINE
8
Layer 1
10
413.408000
20
43.091500
11
411.207000
21
43.091500
0
LINE
8
Layer 1
10
411.207000
20
43.091500
11
410.106340
21
44.997870
0
LINE
8
Layer 1
10
410.106340
20
44.997870
11
411.206970
21
46.904230
0
LINE
8
Layer 1
10
411.206970
20
46.904230
11
413.408000
21
46.904300
0
LINE
8
Layer 1
10
396.087000
20
56.904300
11
397.187660
21
54.997930
0
LINE
8
Layer 1
10
397.187660
20
54.997930
11
396.087000
21
53.091500
0
LINE
8
Layer 1
10
396.087000
20
53.091500
11
393.886000
21
53.091500
0
LINE
8
Layer 1
10
393.886000
20
53.091500
11
392.785340
21
54.997870
0
LINE
8
Layer 1
10
392.785340
20
54.997870
11
393.885970
21
56.904230
0
LINE
8
Layer 1
10
393.885970
20
56.904230
11
396.087000
21
56.904300
0
LINE
8
Layer 1
10
448.049000
20
46.904300
11
449.149660
21
44.997930
0
LINE
8
Layer 1
10
449.149660
20
44.997930
11
448.049000
21
43.091500
0
LINE
8
Layer 1
10
448.049000
20
43.091500
11
445.848000
21
43.091500
0
LINE
8
Layer 1
10
445.848000
20
43.091500
11
444.747340
21
44.997870
0
LINE
8
Layer 1
10
444.747340
20
44.997870
11
445.847970
21
46.904230
0
LINE
8
Layer 1
10
445.847970
20
46.904230
11
448.049000
21
46.904300
0
LINE
8
Layer 1
10
443.259000
20
49.899000
11
444.359650
21
47.992620
0
LINE
8
Layer 1
10
444.359650
20
47.992620
11
443.259000
21
46.086200
0
LINE
8
Layer 1
10
443.259000
20
46.086200
11
441.057700
21
46.086196
0
LINE
8
Layer 1
10
441.057700
20
46.086196
11
439.957050
21
47.992586
0
LINE
8
Layer 1
10
439.957050
20
47.992586
11
441.057700
21
49.898976
0
LINE
8
Layer 1
10
441.057700
20
49.898976
11
443.259000
21
49.899000
0
LINE
8
Layer 1
10
430.728000
20
56.904300
11
431.828660
21
54.997930
0
LINE
8
Layer 1
10
431.828660
20
54.997930
11
430.728000
21
53.091500
0
LINE
8
Layer 1
10
430.728000
20
53.091500
11
428.527000
21
53.091500
0
LINE
8
Layer 1
10
428.527000
20
53.091500
11
427.426340
21
54.997870
0
LINE
8
Layer 1
10
427.426340
20
54.997870
11
428.526970
21
56.904230
0
LINE
8
Layer 1
10
428.526970
20
56.904230
11
430.728000
21
56.904300
0
LINE
8
Layer 1
10
438.371000
20
52.721200
11
439.471650
21
50.814820
0
LINE
8
Layer 1
10
439.471650
20
50.814820
11
438.371000
21
48.908400
0
LINE
8
Layer 1
10
438.371000
20
48.908400
11
436.169700
21
48.908396
0
LINE
8
Layer 1
10
436.169700
20
48.908396
11
435.069050
21
50.814786
0
LINE
8
Layer 1
10
435.069050
20
50.814786
11
436.169700
21
52.721176
0
LINE
8
Layer 1
10
436.169700
20
52.721176
11
438.371000
21
52.721200
0
LINE
8
Layer 1
10
433.483000
20
55.543400
11
434.583650
21
53.637020
0
LINE
8
Layer 1
10
434.583650
20
53.637020
11
433.483000
21
51.730600
0
LINE
8
Layer 1
10
433.483000
20
51.730600
11
431.281700
21
51.730596
0
LINE
8
Layer 1
10
431.281700
20
51.730596
11
430.181050
21
53.636986
0
LINE
8
Layer 1
10
430.181050
20
53.636986
11
431.281700
21
55.543376
0
LINE
8
Layer 1
10
431.281700
20
55.543376
11
433.483000
21
55.543400
0
LINE
8
Layer 1
10
428.595000
20
58.365600
11
429.695660
21
56.459220
0
LINE
8
Layer 1
10
429.695660
20
56.459220
11
428.595000
21
54.552800
0
LINE
8
Layer 1
10
428.595000
20
54.552800
11
426.393690
21
54.552798
0
LINE
8
Layer 1
10
426.393690
20
54.552798
11
425.293040
21
56.459188
0
LINE
8
Layer 1
10
425.293040
20
56.459188
11
426.393000
21
58.365600
0
LINE
8
Layer 1
10
426.393000
20
58.365600
11
428.595000
21
58.365600
0
LINE
8
Layer 1
10
423.706000
20
61.187800
11
424.806660
21
59.281420
0
LINE
8
Layer 1
10
424.806660
20
59.281420
11
423.706000
21
57.375100
0
LINE
8
Layer 1
10
423.706000
20
57.375100
11
421.504690
21
57.375098
0
LINE
8
Layer 1
10
421.504690
20
57.375098
11
420.404040
21
59.281488
0
LINE
8
Layer 1
10
420.404040
20
59.281488
11
421.505000
21
61.187800
0
LINE
8
Layer 1
10
421.505000
20
61.187800
11
423.706000
21
61.187800
0
LINE
8
Layer 1
10
413.408000
20
66.904300
11
414.508660
21
64.997930
0
LINE
8
Layer 1
10
414.508660
20
64.997930
11
413.408000
21
63.091500
0
LINE
8
Layer 1
10
413.408000
20
63.091500
11
411.207000
21
63.091500
0
LINE
8
Layer 1
10
411.207000
20
63.091500
11
410.106340
21
64.997870
0
LINE
8
Layer 1
10
410.106340
20
64.997870
11
411.206970
21
66.904230
0
LINE
8
Layer 1
10
411.206970
20
66.904230
11
413.408000
21
66.904300
0
LINE
8
Layer 1
10
448.049000
20
66.904300
11
449.149660
21
64.997930
0
LINE
8
Layer 1
10
449.149660
20
64.997930
11
448.049000
21
63.091500
0
LINE
8
Layer 1
10
448.049000
20
63.091500
11
445.848000
21
63.091500
0
LINE
8
Layer 1
10
445.848000
20
63.091500
11
444.747340
21
64.997870
0
LINE
8
Layer 1
10
444.747340
20
64.997870
11
445.847970
21
66.904230
0
LINE
8
Layer 1
10
445.847970
20
66.904230
11
448.049000
21
66.904300
0
LINE
8
Layer 1
10
443.259000
20
69.899000
11
444.359650
21
67.992620
0
LINE
8
Layer 1
10
444.359650
20
67.992620
11
443.259000
21
66.086200
0
LINE
8
Layer 1
10
443.259000
20
66.086200
11
441.057700
21
66.086196
0
LINE
8
Layer 1
10
441.057700
20
66.086196
11
439.957050
21
67.992586
0
LINE
8
Layer 1
10
439.957050
20
67.992586
11
441.057700
21
69.898976
0
LINE
8
Layer 1
10
441.057700
20
69.898976
11
443.259000
21
69.899000
0
LINE
8
Layer 1
10
85.733300
20
-77.880300
11
84.632620
21
-79.786760
0
LINE
8
Layer 1
10
84.632620
20
-79.786760
11
84.934516
21
-80.309750
0
LINE
8
Layer 1
10
84.934516
20
-80.309750
11
88.351746
21
-80.970703
0
LINE
8
Layer 1
10
88.351746
20
-80.970703
11
89.035309
21
-79.786613
0
LINE
8
Layer 1
10
89.035309
20
-79.786613
11
87.934629
21
-77.880303
0
LINE
8
Layer 1
10
87.934629
20
-77.880303
11
85.733300
21
-77.880300
0
LINE
8
Layer 1
10
438.371000
20
72.721200
11
439.471650
21
70.814820
0
LINE
8
Layer 1
10
439.471650
20
70.814820
11
438.371000
21
68.908400
0
LINE
8
Layer 1
10
438.371000
20
68.908400
11
436.169700
21
68.908396
0
LINE
8
Layer 1
10
436.169700
20
68.908396
11
435.069050
21
70.814786
0
LINE
8
Layer 1
10
435.069050
20
70.814786
11
436.169700
21
72.721176
0
LINE
8
Layer 1
10
436.169700
20
72.721176
11
438.371000
21
72.721200
0
LINE
8
Layer 1
10
433.483000
20
75.543400
11
434.583650
21
73.637020
0
LINE
8
Layer 1
10
434.583650
20
73.637020
11
433.483000
21
71.730600
0
LINE
8
Layer 1
10
433.483000
20
71.730600
11
431.281700
21
71.730596
0
LINE
8
Layer 1
10
431.281700
20
71.730596
11
430.181050
21
73.636986
0
LINE
8
Layer 1
10
430.181050
20
73.636986
11
431.281700
21
75.543376
0
LINE
8
Layer 1
10
431.281700
20
75.543376
11
433.483000
21
75.543400
0
LINE
8
Layer 1
10
428.595000
20
78.365600
11
429.695660
21
76.459220
0
LINE
8
Layer 1
10
429.695660
20
76.459220
11
428.595000
21
74.552800
0
LINE
8
Layer 1
10
428.595000
20
74.552800
11
426.393690
21
74.552798
0
LINE
8
Layer 1
10
426.393690
20
74.552798
11
425.293040
21
76.459188
0
LINE
8
Layer 1
10
425.293040
20
76.459188
11
426.393000
21
78.365600
0
LINE
8
Layer 1
10
426.393000
20
78.365600
11
428.595000
21
78.365600
0
LINE
8
Layer 1
10
115.063000
20
-60.946900
11
113.962320
21
-62.853350
0
LINE
8
Layer 1
10
113.962320
20
-62.853350
11
115.063000
21
-64.759660
0
LINE
8
Layer 1
10
115.063000
20
-64.759660
11
116.430000
21
-64.759600
0
LINE
8
Layer 1
10
116.430000
20
-64.759600
11
117.565970
21
-61.469980
0
LINE
8
Layer 1
10
117.565970
20
-61.469980
11
117.263925
21
-60.946848
0
LINE
8
Layer 1
10
117.263925
20
-60.946848
11
115.063000
21
-60.946900
0
LINE
8
Layer 1
10
90.621500
20
-80.702500
11
90.363645
21
-81.149072
0
LINE
8
Layer 1
10
90.363645
20
-81.149072
11
91.722165
21
-81.183637
0
LINE
8
Layer 1
10
91.722165
20
-81.183637
11
93.080685
21
-81.149072
0
LINE
8
Layer 1
10
93.080685
20
-81.149072
11
92.822830
21
-80.702500
0
LINE
8
Layer 1
10
92.822830
20
-80.702500
11
90.621500
21
-80.702500
0
LINE
8
Layer 1
10
95.509700
20
-77.880200
11
94.409020
21
-79.786650
0
LINE
8
Layer 1
10
94.409020
20
-79.786650
11
95.092733
21
-80.970740
0
LINE
8
Layer 1
10
95.092733
20
-80.970740
11
98.509673
21
-80.309787
0
LINE
8
Layer 1
10
98.509673
20
-80.309787
11
98.811718
21
-79.786647
0
LINE
8
Layer 1
10
98.811718
20
-79.786647
11
97.711038
21
-77.880197
0
LINE
8
Layer 1
10
97.711038
20
-77.880197
11
95.509700
21
-77.880200
0
LINE
8
Layer 1
10
438.371000
20
92.721200
11
439.471650
21
90.814820
0
LINE
8
Layer 1
10
439.471650
20
90.814820
11
438.371000
21
88.908400
0
LINE
8
Layer 1
10
438.371000
20
88.908400
11
436.169700
21
88.908396
0
LINE
8
Layer 1
10
436.169700
20
88.908396
11
435.069050
21
90.814786
0
LINE
8
Layer 1
10
435.069050
20
90.814786
11
436.169700
21
92.721176
0
LINE
8
Layer 1
10
436.169700
20
92.721176
11
438.371000
21
92.721200
0
LINE
8
Layer 1
10
433.483000
20
95.543400
11
434.583650
21
93.637020
0
LINE
8
Layer 1
10
434.583650
20
93.637020
11
433.483000
21
91.730600
0
LINE
8
Layer 1
10
433.483000
20
91.730600
11
431.281700
21
91.730596
0
LINE
8
Layer 1
10
431.281700
20
91.730596
11
430.181050
21
93.636986
0
LINE
8
Layer 1
10
430.181050
20
93.636986
11
431.281700
21
95.543376
0
LINE
8
Layer 1
10
431.281700
20
95.543376
11
433.483000
21
95.543400
0
LINE
8
Layer 1
10
110.174000
20
-69.413600
11
109.073330
21
-71.319910
0
LINE
8
Layer 1
10
109.073330
20
-71.319910
11
110.174000
21
-73.226360
0
LINE
8
Layer 1
10
110.174000
20
-73.226360
11
110.779000
21
-73.226300
0
LINE
8
Layer 1
10
110.779000
20
-73.226300
11
113.059980
21
-70.597790
0
LINE
8
Layer 1
10
113.059980
20
-70.597790
11
112.376275
21
-69.413550
0
LINE
8
Layer 1
10
112.376275
20
-69.413550
11
110.174000
21
-69.413600
0
LINE
8
Layer 1
10
115.063000
20
-66.591400
11
113.962320
21
-68.497710
0
LINE
8
Layer 1
10
113.962320
20
-68.497710
11
114.220317
21
-68.944424
0
LINE
8
Layer 1
10
114.220317
20
-68.944424
11
115.578837
21
-66.591404
0
LINE
8
Layer 1
10
115.578837
20
-66.591404
11
115.063000
21
-66.591400
0
LINE
8
Layer 1
10
448.049000
20
-33.095700
11
449.149660
21
-35.002070
0
LINE
8
Layer 1
10
449.149660
20
-35.002070
11
448.049000
21
-36.908500
0
LINE
8
Layer 1
10
448.049000
20
-36.908500
11
445.848000
21
-36.908500
0
LINE
8
Layer 1
10
445.848000
20
-36.908500
11
444.747340
21
-35.002130
0
LINE
8
Layer 1
10
444.747340
20
-35.002130
11
445.847970
21
-33.095770
0
LINE
8
Layer 1
10
445.847970
20
-33.095770
11
448.049000
21
-33.095700
0
LINE
8
Layer 1
10
443.259000
20
-30.101000
11
444.359650
21
-32.007380
0
LINE
8
Layer 1
10
444.359650
20
-32.007380
11
443.259000
21
-33.913800
0
LINE
8
Layer 1
10
443.259000
20
-33.913800
11
441.057700
21
-33.913804
0
LINE
8
Layer 1
10
441.057700
20
-33.913804
11
439.957050
21
-32.007414
0
LINE
8
Layer 1
10
439.957050
20
-32.007414
11
441.057700
21
-30.101024
0
LINE
8
Layer 1
10
441.057700
20
-30.101024
11
443.259000
21
-30.101000
0
LINE
8
Layer 1
10
430.728000
20
-23.095700
11
431.828660
21
-25.002070
0
LINE
8
Layer 1
10
431.828660
20
-25.002070
11
430.728000
21
-26.908500
0
LINE
8
Layer 1
10
430.728000
20
-26.908500
11
428.527000
21
-26.908500
0
LINE
8
Layer 1
10
428.527000
20
-26.908500
11
427.426340
21
-25.002130
0
LINE
8
Layer 1
10
427.426340
20
-25.002130
11
428.526970
21
-23.095770
0
LINE
8
Layer 1
10
428.526970
20
-23.095770
11
430.728000
21
-23.095700
0
LINE
8
Layer 1
10
438.371000
20
-27.278800
11
439.471650
21
-29.185180
0
LINE
8
Layer 1
10
439.471650
20
-29.185180
11
438.371000
21
-31.091600
0
LINE
8
Layer 1
10
438.371000
20
-31.091600
11
436.169700
21
-31.091604
0
LINE
8
Layer 1
10
436.169700
20
-31.091604
11
435.069050
21
-29.185214
0
LINE
8
Layer 1
10
435.069050
20
-29.185214
11
436.169700
21
-27.278824
0
LINE
8
Layer 1
10
436.169700
20
-27.278824
11
438.371000
21
-27.278800
0
LINE
8
Layer 1
10
433.483000
20
-24.456600
11
434.583650
21
-26.362980
0
LINE
8
Layer 1
10
434.583650
20
-26.362980
11
433.483000
21
-28.269400
0
LINE
8
Layer 1
10
433.483000
20
-28.269400
11
431.281700
21
-28.269404
0
LINE
8
Layer 1
10
431.281700
20
-28.269404
11
430.181050
21
-26.363014
0
LINE
8
Layer 1
10
430.181050
20
-26.363014
11
431.281700
21
-24.456624
0
LINE
8
Layer 1
10
431.281700
20
-24.456624
11
433.483000
21
-24.456600
0
LINE
8
Layer 1
10
110.174000
20
-35.546900
11
109.073330
21
-37.453200
0
LINE
8
Layer 1
10
109.073330
20
-37.453200
11
110.174000
21
-39.359660
0
LINE
8
Layer 1
10
110.174000
20
-39.359660
11
112.376000
21
-39.359700
0
LINE
8
Layer 1
10
112.376000
20
-39.359700
11
113.059563
21
-38.175460
0
LINE
8
Layer 1
10
113.059563
20
-38.175460
11
110.778733
21
-35.546940
0
LINE
8
Layer 1
10
110.778733
20
-35.546940
11
110.174000
21
-35.546900
0
LINE
8
Layer 1
10
413.408000
20
-13.095700
11
414.508660
21
-15.002070
0
LINE
8
Layer 1
10
414.508660
20
-15.002070
11
413.408000
21
-16.908500
0
LINE
8
Layer 1
10
413.408000
20
-16.908500
11
411.207000
21
-16.908500
0
LINE
8
Layer 1
10
411.207000
20
-16.908500
11
410.106340
21
-15.002130
0
LINE
8
Layer 1
10
410.106340
20
-15.002130
11
411.206970
21
-13.095770
0
LINE
8
Layer 1
10
411.206970
20
-13.095770
11
413.408000
21
-13.095700
0
LINE
8
Layer 1
10
396.087000
20
-3.095740
11
397.187660
21
-5.002110
0
LINE
8
Layer 1
10
397.187660
20
-5.002110
11
396.087000
21
-6.908470
0
LINE
8
Layer 1
10
396.087000
20
-6.908470
11
393.886000
21
-6.908460
0
LINE
8
Layer 1
10
393.886000
20
-6.908460
11
392.785340
21
-5.002090
0
LINE
8
Layer 1
10
392.785340
20
-5.002090
11
393.885970
21
-3.095730
0
LINE
8
Layer 1
10
393.885970
20
-3.095730
11
396.087000
21
-3.095740
0
LINE
8
Layer 1
10
378.767000
20
6.904260
11
379.867660
21
4.997890
0
LINE
8
Layer 1
10
379.867660
20
4.997890
11
378.767000
21
3.091530
0
LINE
8
Layer 1
10
378.767000
20
3.091530
11
376.566000
21
3.091540
0
LINE
8
Layer 1
10
376.566000
20
3.091540
11
375.465340
21
4.997910
0
LINE
8
Layer 1
10
375.465340
20
4.997910
11
376.565970
21
6.904270
0
LINE
8
Layer 1
10
376.565970
20
6.904270
11
378.767000
21
6.904260
0
LINE
8
Layer 1
10
66.180400
20
-60.947000
11
65.878361
21
-61.469990
0
LINE
8
Layer 1
10
65.878361
20
-61.469990
11
67.014471
21
-64.759760
0
LINE
8
Layer 1
10
67.014471
20
-64.759760
11
68.381700
21
-64.759800
0
LINE
8
Layer 1
10
68.381700
20
-64.759800
11
69.482370
21
-62.853340
0
LINE
8
Layer 1
10
69.482370
20
-62.853340
11
68.381700
21
-60.947030
0
LINE
8
Layer 1
10
68.381700
20
-60.947030
11
66.180400
21
-60.947000
0
LINE
8
Layer 1
10
448.049000
20
-53.095700
11
449.149660
21
-55.002070
0
LINE
8
Layer 1
10
449.149660
20
-55.002070
11
448.049000
21
-56.908500
0
LINE
8
Layer 1
10
448.049000
20
-56.908500
11
445.848000
21
-56.908500
0
LINE
8
Layer 1
10
445.848000
20
-56.908500
11
444.747340
21
-55.002130
0
LINE
8
Layer 1
10
444.747340
20
-55.002130
11
445.847970
21
-53.095770
0
LINE
8
Layer 1
10
445.847970
20
-53.095770
11
448.049000
21
-53.095700
0
LINE
8
Layer 1
10
443.259000
20
-50.101000
11
444.359650
21
-52.007380
0
LINE
8
Layer 1
10
444.359650
20
-52.007380
11
443.259000
21
-53.913800
0
LINE
8
Layer 1
10
443.259000
20
-53.913800
11
441.057700
21
-53.913804
0
LINE
8
Layer 1
10
441.057700
20
-53.913804
11
439.957050
21
-52.007414
0
LINE
8
Layer 1
10
439.957050
20
-52.007414
11
441.057700
21
-50.101024
0
LINE
8
Layer 1
10
441.057700
20
-50.101024
11
443.259000
21
-50.101000
0
LINE
8
Layer 1
10
430.728000
20
-43.095700
11
431.828660
21
-45.002070
0
LINE
8
Layer 1
10
431.828660
20
-45.002070
11
430.728000
21
-46.908500
0
LINE
8
Layer 1
10
430.728000
20
-46.908500
11
428.527000
21
-46.908500
0
LINE
8
Layer 1
10
428.527000
20
-46.908500
11
427.426340
21
-45.002130
0
LINE
8
Layer 1
10
427.426340
20
-45.002130
11
428.526970
21
-43.095770
0
LINE
8
Layer 1
10
428.526970
20
-43.095770
11
430.728000
21
-43.095700
0
LINE
8
Layer 1
10
438.371000
20
-47.278800
11
439.471650
21
-49.185180
0
LINE
8
Layer 1
10
439.471650
20
-49.185180
11
438.371000
21
-51.091600
0
LINE
8
Layer 1
10
438.371000
20
-51.091600
11
436.169700
21
-51.091604
0
LINE
8
Layer 1
10
436.169700
20
-51.091604
11
435.069050
21
-49.185214
0
LINE
8
Layer 1
10
435.069050
20
-49.185214
11
436.169700
21
-47.278824
0
LINE
8
Layer 1
10
436.169700
20
-47.278824
11
438.371000
21
-47.278800
0
LINE
8
Layer 1
10
433.483000
20
-44.456600
11
434.583650
21
-46.362980
0
LINE
8
Layer 1
10
434.583650
20
-46.362980
11
433.483000
21
-48.269400
0
LINE
8
Layer 1
10
433.483000
20
-48.269400
11
431.281700
21
-48.269404
0
LINE
8
Layer 1
10
431.281700
20
-48.269404
11
430.181050
21
-46.363014
0
LINE
8
Layer 1
10
430.181050
20
-46.363014
11
431.281700
21
-44.456624
0
LINE
8
Layer 1
10
431.281700
20
-44.456624
11
433.483000
21
-44.456600
0
LINE
8
Layer 1
10
413.408000
20
-33.095700
11
414.508660
21
-35.002070
0
LINE
8
Layer 1
10
414.508660
20
-35.002070
11
413.408000
21
-36.908500
0
LINE
8
Layer 1
10
413.408000
20
-36.908500
11
411.207000
21
-36.908500
0
LINE
8
Layer 1
10
411.207000
20
-36.908500
11
410.106340
21
-35.002130
0
LINE
8
Layer 1
10
410.106340
20
-35.002130
11
411.206970
21
-33.095770
0
LINE
8
Layer 1
10
411.206970
20
-33.095770
11
413.408000
21
-33.095700
0
LINE
8
Layer 1
10
396.087000
20
-23.095700
11
397.187660
21
-25.002070
0
LINE
8
Layer 1
10
397.187660
20
-25.002070
11
396.087000
21
-26.908500
0
LINE
8
Layer 1
10
396.087000
20
-26.908500
11
393.886000
21
-26.908500
0
LINE
8
Layer 1
10
393.886000
20
-26.908500
11
392.785340
21
-25.002130
0
LINE
8
Layer 1
10
392.785340
20
-25.002130
11
393.885970
21
-23.095770
0
LINE
8
Layer 1
10
393.885970
20
-23.095770
11
396.087000
21
-23.095700
0
LINE
8
Layer 1
10
378.767000
20
-13.095700
11
379.867660
21
-15.002070
0
LINE
8
Layer 1
10
379.867660
20
-15.002070
11
378.767000
21
-16.908500
0
LINE
8
Layer 1
10
378.767000
20
-16.908500
11
376.566000
21
-16.908500
0
LINE
8
Layer 1
10
376.566000
20
-16.908500
11
375.465340
21
-15.002130
0
LINE
8
Layer 1
10
375.465340
20
-15.002130
11
376.565970
21
-13.095770
0
LINE
8
Layer 1
10
376.565970
20
-13.095770
11
378.767000
21
-13.095700
0
LINE
8
Layer 1
10
361.446000
20
-3.095740
11
362.546660
21
-5.002110
0
LINE
8
Layer 1
10
362.546660
20
-5.002110
11
361.446000
21
-6.908470
0
LINE
8
Layer 1
10
361.446000
20
-6.908470
11
359.245000
21
-6.908460
0
LINE
8
Layer 1
10
359.245000
20
-6.908460
11
358.144340
21
-5.002090
0
LINE
8
Layer 1
10
358.144340
20
-5.002090
11
359.244970
21
-3.095730
0
LINE
8
Layer 1
10
359.244970
20
-3.095730
11
361.446000
21
-3.095740
0
LINE
8
Layer 1
10
448.049000
20
-73.096000
11
449.149660
21
-75.002370
0
LINE
8
Layer 1
10
449.149660
20
-75.002370
11
448.049000
21
-76.908800
0
LINE
8
Layer 1
10
448.049000
20
-76.908800
11
445.848000
21
-76.908800
0
LINE
8
Layer 1
10
445.848000
20
-76.908800
11
444.747340
21
-75.002430
0
LINE
8
Layer 1
10
444.747340
20
-75.002430
11
445.847970
21
-73.096070
0
LINE
8
Layer 1
10
445.847970
20
-73.096070
11
448.049000
21
-73.096000
0
LINE
8
Layer 1
10
443.259000
20
-70.100600
11
444.359650
21
-72.006980
0
LINE
8
Layer 1
10
444.359650
20
-72.006980
11
443.259000
21
-73.913400
0
LINE
8
Layer 1
10
443.259000
20
-73.913400
11
441.057700
21
-73.913404
0
LINE
8
Layer 1
10
441.057700
20
-73.913404
11
439.957050
21
-72.007014
0
LINE
8
Layer 1
10
439.957050
20
-72.007014
11
441.057700
21
-70.100624
0
LINE
8
Layer 1
10
441.057700
20
-70.100624
11
443.259000
21
-70.100600
0
LINE
8
Layer 1
10
430.728000
20
-63.095700
11
431.828660
21
-65.002070
0
LINE
8
Layer 1
10
431.828660
20
-65.002070
11
430.728000
21
-66.908500
0
LINE
8
Layer 1
10
430.728000
20
-66.908500
11
428.527000
21
-66.908500
0
LINE
8
Layer 1
10
428.527000
20
-66.908500
11
427.426340
21
-65.002130
0
LINE
8
Layer 1
10
427.426340
20
-65.002130
11
428.526970
21
-63.095770
0
LINE
8
Layer 1
10
428.526970
20
-63.095770
11
430.728000
21
-63.095700
0
LINE
8
Layer 1
10
438.371000
20
-67.278400
11
439.471650
21
-69.184780
0
LINE
8
Layer 1
10
439.471650
20
-69.184780
11
438.371000
21
-71.091200
0
LINE
8
Layer 1
10
438.371000
20
-71.091200
11
436.169700
21
-71.091204
0
LINE
8
Layer 1
10
436.169700
20
-71.091204
11
435.069050
21
-69.184814
0
LINE
8
Layer 1
10
435.069050
20
-69.184814
11
436.169700
21
-67.278424
0
LINE
8
Layer 1
10
436.169700
20
-67.278424
11
438.371000
21
-67.278400
0
LINE
8
Layer 1
10
413.408000
20
-53.095700
11
414.508660
21
-55.002070
0
LINE
8
Layer 1
10
414.508660
20
-55.002070
11
413.408000
21
-56.908500
0
LINE
8
Layer 1
10
413.408000
20
-56.908500
11
411.207000
21
-56.908500
0
LINE
8
Layer 1
10
411.207000
20
-56.908500
11
410.106340
21
-55.002130
0
LINE
8
Layer 1
10
410.106340
20
-55.002130
11
411.206970
21
-53.095770
0
LINE
8
Layer 1
10
411.206970
20
-53.095770
11
413.408000
21
-53.095700
0
LINE
8
Layer 1
10
396.087000
20
-43.095700
11
397.187660
21
-45.002070
0
LINE
8
Layer 1
10
397.187660
20
-45.002070
11
396.087000
21
-46.908500
0
LINE
8
Layer 1
10
396.087000
20
-46.908500
11
393.886000
21
-46.908500
0
LINE
8
Layer 1
10
393.886000
20
-46.908500
11
392.785340
21
-45.002130
0
LINE
8
Layer 1
10
392.785340
20
-45.002130
11
393.885970
21
-43.095770
0
LINE
8
Layer 1
10
393.885970
20
-43.095770
11
396.087000
21
-43.095700
0
LINE
8
Layer 1
10
378.767000
20
-33.095700
11
379.867660
21
-35.002070
0
LINE
8
Layer 1
10
379.867660
20
-35.002070
11
378.767000
21
-36.908500
0
LINE
8
Layer 1
10
378.767000
20
-36.908500
11
376.566000
21
-36.908500
0
LINE
8
Layer 1
10
376.566000
20
-36.908500
11
375.465340
21
-35.002130
0
LINE
8
Layer 1
10
375.465340
20
-35.002130
11
376.565970
21
-33.095770
0
LINE
8
Layer 1
10
376.565970
20
-33.095770
11
378.767000
21
-33.095700
0
LINE
8
Layer 1
10
361.446000
20
-23.095700
11
362.546660
21
-25.002070
0
LINE
8
Layer 1
10
362.546660
20
-25.002070
11
361.446000
21
-26.908500
0
LINE
8
Layer 1
10
361.446000
20
-26.908500
11
359.245000
21
-26.908500
0
LINE
8
Layer 1
10
359.245000
20
-26.908500
11
358.144340
21
-25.002130
0
LINE
8
Layer 1
10
358.144340
20
-25.002130
11
359.244970
21
-23.095770
0
LINE
8
Layer 1
10
359.244970
20
-23.095770
11
361.446000
21
-23.095700
0
LINE
8
Layer 1
10
448.049000
20
-93.096000
11
449.149660
21
-95.002370
0
LINE
8
Layer 1
10
449.149660
20
-95.002370
11
448.049000
21
-96.908800
0
LINE
8
Layer 1
10
448.049000
20
-96.908800
11
445.848000
21
-96.908800
0
LINE
8
Layer 1
10
445.848000
20
-96.908800
11
444.747340
21
-95.002430
0
LINE
8
Layer 1
10
444.747340
20
-95.002430
11
445.847970
21
-93.096070
0
LINE
8
Layer 1
10
445.847970
20
-93.096070
11
448.049000
21
-93.096000
0
LINE
8
Layer 1
10
95.092700
20
-27.802400
11
94.408987
21
-28.986640
0
LINE
8
Layer 1
10
94.408987
20
-28.986640
11
95.509667
21
-30.892950
0
LINE
8
Layer 1
10
95.509667
20
-30.892950
11
97.711000
21
-30.893000
0
LINE
8
Layer 1
10
97.711000
20
-30.893000
11
98.811680
21
-28.986690
0
LINE
8
Layer 1
10
98.811680
20
-28.986690
11
98.509635
21
-28.463553
0
LINE
8
Layer 1
10
98.509635
20
-28.463553
11
95.092695
21
-27.802450
0
LINE
8
Layer 1
10
95.092695
20
-27.802450
11
95.092700
21
-27.802400
0
LINE
8
Layer 1
10
430.728000
20
-83.096000
11
431.828660
21
-85.002370
0
LINE
8
Layer 1
10
431.828660
20
-85.002370
11
430.728000
21
-86.908800
0
LINE
8
Layer 1
10
430.728000
20
-86.908800
11
428.527000
21
-86.908800
0
LINE
8
Layer 1
10
428.527000
20
-86.908800
11
427.426340
21
-85.002430
0
LINE
8
Layer 1
10
427.426340
20
-85.002430
11
428.526970
21
-83.096070
0
LINE
8
Layer 1
10
428.526970
20
-83.096070
11
430.728000
21
-83.096000
0
LINE
8
Layer 1
10
413.408000
20
-73.096000
11
414.508660
21
-75.002370
0
LINE
8
Layer 1
10
414.508660
20
-75.002370
11
413.408000
21
-76.908800
0
LINE
8
Layer 1
10
413.408000
20
-76.908800
11
411.207000
21
-76.908800
0
LINE
8
Layer 1
10
411.207000
20
-76.908800
11
410.106340
21
-75.002430
0
LINE
8
Layer 1
10
410.106340
20
-75.002430
11
411.206970
21
-73.096070
0
LINE
8
Layer 1
10
411.206970
20
-73.096070
11
413.408000
21
-73.096000
0
LINE
8
Layer 1
10
396.087000
20
-63.095700
11
397.187660
21
-65.002070
0
LINE
8
Layer 1
10
397.187660
20
-65.002070
11
396.087000
21
-66.908500
0
LINE
8
Layer 1
10
396.087000
20
-66.908500
11
393.886000
21
-66.908500
0
LINE
8
Layer 1
10
393.886000
20
-66.908500
11
392.785340
21
-65.002130
0
LINE
8
Layer 1
10
392.785340
20
-65.002130
11
393.885970
21
-63.095770
0
LINE
8
Layer 1
10
393.885970
20
-63.095770
11
396.087000
21
-63.095700
0
LINE
8
Layer 1
10
378.767000
20
-53.095700
11
379.867660
21
-55.002070
0
LINE
8
Layer 1
10
379.867660
20
-55.002070
11
378.767000
21
-56.908500
0
LINE
8
Layer 1
10
378.767000
20
-56.908500
11
376.566000
21
-56.908500
0
LINE
8
Layer 1
10
376.566000
20
-56.908500
11
375.465340
21
-55.002130
0
LINE
8
Layer 1
10
375.465340
20
-55.002130
11
376.565970
21
-53.095770
0
LINE
8
Layer 1
10
376.565970
20
-53.095770
11
378.767000
21
-53.095700
0
LINE
8
Layer 1
10
67.014400
20
-44.013700
11
65.878290
21
-47.303470
0
LINE
8
Layer 1
10
65.878290
20
-47.303470
11
66.180329
21
-47.826460
0
LINE
8
Layer 1
10
66.180329
20
-47.826460
11
68.381700
21
-47.826400
0
LINE
8
Layer 1
10
68.381700
20
-47.826400
11
69.482370
21
-45.919940
0
LINE
8
Layer 1
10
69.482370
20
-45.919940
11
68.381700
21
-44.013630
0
LINE
8
Layer 1
10
68.381700
20
-44.013630
11
67.014400
21
-44.013700
0
LINE
8
Layer 1
10
91.722200
20
-27.589600
11
90.363680
21
-27.624165
0
LINE
8
Layer 1
10
90.363680
20
-27.624165
11
90.621535
21
-28.070734
0
LINE
8
Layer 1
10
90.621535
20
-28.070734
11
92.822800
21
-28.070800
0
LINE
8
Layer 1
10
92.822800
20
-28.070800
11
93.080655
21
-27.624231
0
LINE
8
Layer 1
10
93.080655
20
-27.624231
11
91.722135
21
-27.589666
0
LINE
8
Layer 1
10
91.722135
20
-27.589666
11
91.722200
21
-27.589600
0
LINE
8
Layer 1
10
413.408000
20
-93.096000
11
414.508660
21
-95.002370
0
LINE
8
Layer 1
10
414.508660
20
-95.002370
11
413.408000
21
-96.908800
0
LINE
8
Layer 1
10
413.408000
20
-96.908800
11
411.207000
21
-96.908800
0
LINE
8
Layer 1
10
411.207000
20
-96.908800
11
410.106340
21
-95.002430
0
LINE
8
Layer 1
10
410.106340
20
-95.002430
11
411.206970
21
-93.096070
0
LINE
8
Layer 1
10
411.206970
20
-93.096070
11
413.408000
21
-93.096000
0
LINE
8
Layer 1
10
396.087000
20
-83.096000
11
397.187660
21
-85.002370
0
LINE
8
Layer 1
10
397.187660
20
-85.002370
11
396.087000
21
-86.908800
0
LINE
8
Layer 1
10
396.087000
20
-86.908800
11
393.886000
21
-86.908800
0
LINE
8
Layer 1
10
393.886000
20
-86.908800
11
392.785340
21
-85.002430
0
LINE
8
Layer 1
10
392.785340
20
-85.002430
11
393.885970
21
-83.096070
0
LINE
8
Layer 1
10
393.885970
20
-83.096070
11
396.087000
21
-83.096000
0
LINE
8
Layer 1
10
72.666000
20
-35.546900
11
70.385030
21
-38.175560
0
LINE
8
Layer 1
10
70.385030
20
-38.175560
11
71.068593
21
-39.359660
0
LINE
8
Layer 1
10
71.068593
20
-39.359660
11
73.269900
21
-39.359700
0
LINE
8
Layer 1
10
73.269900
20
-39.359700
11
74.370570
21
-37.453390
0
LINE
8
Layer 1
10
74.370570
20
-37.453390
11
73.269900
21
-35.546940
0
LINE
8
Layer 1
10
73.269900
20
-35.546940
11
72.666000
21
-35.546900
0
LINE
8
Layer 1
10
69.224500
20
-39.828900
11
67.865980
21
-42.181920
0
LINE
8
Layer 1
10
67.865980
20
-42.181920
11
68.381700
21
-42.181900
0
LINE
8
Layer 1
10
68.381700
20
-42.181900
11
69.482370
21
-40.275590
0
LINE
8
Layer 1
10
69.482370
20
-40.275590
11
69.224500
21
-39.828900
0
LINE
8
Layer 1
10
108.656000
20
135.752000
11
107.045000
21
135.602384
0
LINE
8
Layer 1
10
107.045000
20
135.602384
11
107.555291
21
134.718493
0
LINE
8
Layer 1
10
107.555291
20
134.718493
11
109.756000
21
134.719000
0
LINE
8
Layer 1
10
109.756000
20
134.719000
11
110.266430
21
135.602891
0
LINE
8
Layer 1
10
110.266430
20
135.602891
11
108.655440
21
135.752507
0
LINE
8
Layer 1
10
108.655440
20
135.752507
11
108.656000
21
135.752000
0
LINE
8
Layer 1
10
110.857000
20
131.812000
11
109.756350
21
129.905620
0
LINE
8
Layer 1
10
109.756350
20
129.905620
11
107.555000
21
129.906000
0
LINE
8
Layer 1
10
107.555000
20
129.906000
11
106.454350
21
131.812380
0
LINE
8
Layer 1
10
106.454350
20
131.812380
11
107.555000
21
133.718760
0
LINE
8
Layer 1
10
107.555000
20
133.718760
11
109.756300
21
133.718760
0
LINE
8
Layer 1
10
109.756300
20
133.718760
11
110.857000
21
131.812000
0
LINE
8
Layer 1
10
110.857000
20
122.188000
11
109.756350
21
120.281620
0
LINE
8
Layer 1
10
109.756350
20
120.281620
11
107.555000
21
120.281000
0
LINE
8
Layer 1
10
107.555000
20
120.281000
11
106.454350
21
122.187380
0
LINE
8
Layer 1
10
106.454350
20
122.187380
11
107.555000
21
124.093760
0
LINE
8
Layer 1
10
107.555000
20
124.093760
11
109.756300
21
124.093760
0
LINE
8
Layer 1
10
109.756300
20
124.093760
11
110.857000
21
122.188000
0
LINE
8
Layer 1
10
107.555000
20
119.281000
11
107.044568
21
118.396962
0
LINE
8
Layer 1
10
107.044568
20
118.396962
11
108.655708
21
118.247346
0
LINE
8
Layer 1
10
108.655708
20
118.247346
11
110.266698
21
118.396962
0
LINE
8
Layer 1
10
110.266698
20
118.396962
11
109.756268
21
119.281000
0
LINE
8
Layer 1
10
109.756268
20
119.281000
11
107.555000
21
119.281000
0
LINE
8
Layer 1
10
115.024000
20
124.594000
11
113.923350
21
122.687620
0
LINE
8
Layer 1
10
113.923350
20
122.687620
11
111.723000
21
122.687000
0
LINE
8
Layer 1
10
111.723000
20
122.687000
11
110.622350
21
124.593380
0
LINE
8
Layer 1
10
110.622350
20
124.593380
11
111.723000
21
126.499760
0
LINE
8
Layer 1
10
111.723000
20
126.499760
11
113.924300
21
126.499760
0
LINE
8
Layer 1
10
113.924300
20
126.499760
11
115.024000
21
124.594000
0
LINE
8
Layer 1
10
115.024000
20
129.406000
11
113.923350
21
127.499620
0
LINE
8
Layer 1
10
113.923350
20
127.499620
11
111.723000
21
127.500000
0
LINE
8
Layer 1
10
111.723000
20
127.500000
11
110.622350
21
129.406380
0
LINE
8
Layer 1
10
110.622350
20
129.406380
11
111.723000
21
131.312760
0
LINE
8
Layer 1
10
111.723000
20
131.312760
11
113.924300
21
131.312760
0
LINE
8
Layer 1
10
113.924300
20
131.312760
11
115.024000
21
129.406000
0
LINE
8
Layer 1
10
111.275000
20
135.351000
11
110.621554
21
134.219140
0
LINE
8
Layer 1
10
110.621554
20
134.219140
11
111.722264
21
132.312800
0
LINE
8
Layer 1
10
111.722264
20
132.312800
11
113.924000
21
132.313000
0
LINE
8
Layer 1
10
113.924000
20
132.313000
11
114.577595
21
133.444860
0
LINE
8
Layer 1
10
114.577595
20
133.444860
11
113.031613
21
134.580034
0
LINE
8
Layer 1
10
113.031613
20
134.580034
11
111.275485
21
135.351200
0
LINE
8
Layer 1
10
111.275485
20
135.351200
11
111.275000
21
135.351000
0
LINE
8
Layer 1
10
111.723000
20
121.687000
11
110.622290
21
119.780650
0
LINE
8
Layer 1
10
110.622290
20
119.780650
11
111.275877
21
118.648650
0
LINE
8
Layer 1
10
111.275877
20
118.648650
11
113.031931
21
119.419830
0
LINE
8
Layer 1
10
113.031931
20
119.419830
11
114.577847
21
120.554990
0
LINE
8
Layer 1
10
114.577847
20
120.554990
11
113.924252
21
121.687000
0
LINE
8
Layer 1
10
113.924252
20
121.687000
11
111.723000
21
121.687000
0
LINE
8
Layer 1
10
115.300000
20
132.696000
11
114.789568
21
131.811962
0
LINE
8
Layer 1
10
114.789568
20
131.811962
11
115.890128
21
129.905612
0
LINE
8
Layer 1
10
115.890128
20
129.905612
11
116.911000
21
129.906000
0
LINE
8
Layer 1
10
116.911000
20
129.906000
11
116.234981
21
131.375765
0
LINE
8
Layer 1
10
116.234981
20
131.375765
11
115.300000
21
132.696000
0
LINE
8
Layer 1
10
115.300000
20
132.696000
11
115.300000
21
132.696000
0
LINE
8
Layer 1
10
115.890000
20
128.906000
11
114.789440
21
126.999510
0
LINE
8
Layer 1
10
114.789440
20
126.999510
11
115.890000
21
125.093170
0
LINE
8
Layer 1
10
115.890000
20
125.093170
11
117.198000
21
125.094000
0
LINE
8
Layer 1
10
117.198000
20
125.094000
11
117.408207
21
127.000340
0
LINE
8
Layer 1
10
117.408207
20
127.000340
11
117.198000
21
128.906830
0
LINE
8
Layer 1
10
117.198000
20
128.906830
11
115.890000
21
128.906000
0
LINE
8
Layer 1
10
115.890000
20
124.094000
11
114.789440
21
122.187660
0
LINE
8
Layer 1
10
114.789440
20
122.187660
11
115.299872
21
121.303622
0
LINE
8
Layer 1
10
115.299872
20
121.303622
11
116.234962
21
122.624030
0
LINE
8
Layer 1
10
116.234962
20
122.624030
11
116.911022
21
124.094002
0
LINE
8
Layer 1
10
116.911022
20
124.094002
11
115.890000
21
124.094000
0
LINE
8
Layer 1
10
106.036000
20
135.351000
11
104.279946
21
134.579820
0
LINE
8
Layer 1
10
104.279946
20
134.579820
11
102.734030
21
133.444660
0
LINE
8
Layer 1
10
102.734030
20
133.444660
11
103.387476
21
132.312800
0
LINE
8
Layer 1
10
103.387476
20
132.312800
11
105.588000
21
132.313000
0
LINE
8
Layer 1
10
105.588000
20
132.313000
11
106.688710
21
134.219340
0
LINE
8
Layer 1
10
106.688710
20
134.219340
11
106.036000
21
135.351000
0
LINE
8
Layer 1
10
106.689000
20
129.406000
11
105.588350
21
127.499620
0
LINE
8
Layer 1
10
105.588350
20
127.499620
11
103.387000
21
127.500000
0
LINE
8
Layer 1
10
103.387000
20
127.500000
11
102.286350
21
129.406380
0
LINE
8
Layer 1
10
102.286350
20
129.406380
11
103.387000
21
131.312760
0
LINE
8
Layer 1
10
103.387000
20
131.312760
11
105.588300
21
131.312760
0
LINE
8
Layer 1
10
105.588300
20
131.312760
11
106.689000
21
129.406000
0
LINE
8
Layer 1
10
106.689000
20
124.594000
11
105.588350
21
122.687620
0
LINE
8
Layer 1
10
105.588350
20
122.687620
11
103.387000
21
122.687000
0
LINE
8
Layer 1
10
103.387000
20
122.687000
11
102.286350
21
124.593380
0
LINE
8
Layer 1
10
102.286350
20
124.593380
11
103.387000
21
126.499760
0
LINE
8
Layer 1
10
103.387000
20
126.499760
11
105.588300
21
126.499760
0
LINE
8
Layer 1
10
105.588300
20
126.499760
11
106.689000
21
124.594000
0
LINE
8
Layer 1
10
103.387000
20
121.687000
11
102.733554
21
120.554990
0
LINE
8
Layer 1
10
102.733554
20
120.554990
11
104.279403
21
119.419843
0
LINE
8
Layer 1
10
104.279403
20
119.419843
11
106.035384
21
118.648650
0
LINE
8
Layer 1
10
106.035384
20
118.648650
11
106.688971
21
119.780650
0
LINE
8
Layer 1
10
106.688971
20
119.780650
11
105.588261
21
121.687000
0
LINE
8
Layer 1
10
105.588261
20
121.687000
11
103.387000
21
121.687000
0
LINE
8
Layer 1
10
102.011000
20
132.696000
11
101.075914
21
131.375586
0
LINE
8
Layer 1
10
101.075914
20
131.375586
11
100.399860
21
129.905610
0
LINE
8
Layer 1
10
100.399860
20
129.905610
11
101.421000
21
129.906000
0
LINE
8
Layer 1
10
101.421000
20
129.906000
11
102.521560
21
131.812350
0
LINE
8
Layer 1
10
102.521560
20
131.812350
11
102.011000
21
132.696000
0
LINE
8
Layer 1
10
100.113000
20
128.906000
11
99.902793
21
126.999650
0
LINE
8
Layer 1
10
99.902793
20
126.999650
11
100.113000
21
125.093310
0
LINE
8
Layer 1
10
100.113000
20
125.093310
11
101.421000
21
125.094000
0
LINE
8
Layer 1
10
101.421000
20
125.094000
11
102.521560
21
127.000340
0
LINE
8
Layer 1
10
102.521560
20
127.000340
11
101.421000
21
128.906690
0
LINE
8
Layer 1
10
101.421000
20
128.906690
11
100.113000
21
128.906000
0
LINE
8
Layer 1
10
100.400000
20
124.094000
11
101.075975
21
122.623959
0
LINE
8
Layer 1
10
101.075975
20
122.623959
11
102.011000
21
121.303470
0
LINE
8
Layer 1
10
102.011000
20
121.303470
11
102.521430
21
122.187655
0
LINE
8
Layer 1
10
102.521430
20
122.187655
11
101.420870
21
124.093995
0
LINE
8
Layer 1
10
101.420870
20
124.093995
11
100.400000
21
124.094000
0
LINE
8
Layer 1
10
108.334000
20
23.520800
11
108.218207
21
23.224448
0
LINE
8
Layer 1
10
108.218207
20
23.224448
11
108.218207
21
23.221237
0
LINE
8
Layer 1
10
108.218207
20
23.221237
11
108.347459
21
22.914052
0
LINE
8
Layer 1
10
108.347459
20
22.914052
11
108.655587
21
22.787064
0
LINE
8
Layer 1
10
108.655587
20
22.787064
11
108.659000
21
22.787100
0
LINE
8
Layer 1
10
108.659000
20
22.787100
11
108.966187
21
22.916352
0
LINE
8
Layer 1
10
108.966187
20
22.916352
11
109.093176
21
23.224481
0
LINE
8
Layer 1
10
109.093176
20
23.224481
11
109.093176
21
23.227692
0
LINE
8
Layer 1
10
109.093176
20
23.227692
11
108.977518
21
23.520835
0
LINE
8
Layer 1
10
108.977518
20
23.520835
11
108.334000
21
23.520800
0
LINE
8
Layer 1
10
129.822000
20
-5.358810
11
128.211000
21
-5.508424
0
LINE
8
Layer 1
10
128.211000
20
-5.508424
11
128.721291
21
-6.392315
0
LINE
8
Layer 1
10
128.721291
20
-6.392315
11
130.923000
21
-6.392320
0
LINE
8
Layer 1
10
130.923000
20
-6.392320
11
131.433430
21
-5.508429
0
LINE
8
Layer 1
10
131.433430
20
-5.508429
11
129.822440
21
-5.358815
0
LINE
8
Layer 1
10
129.822440
20
-5.358815
11
129.822000
21
-5.358810
0
LINE
8
Layer 1
10
132.023000
20
-9.298550
11
130.922350
21
-11.204930
0
LINE
8
Layer 1
10
130.922350
20
-11.204930
11
128.721000
21
-11.204900
0
LINE
8
Layer 1
10
128.721000
20
-11.204900
11
127.620350
21
-9.298520
0
LINE
8
Layer 1
10
127.620350
20
-9.298520
11
128.721000
21
-7.392140
0
LINE
8
Layer 1
10
128.721000
20
-7.392140
11
130.923000
21
-7.392160
0
LINE
8
Layer 1
10
130.923000
20
-7.392160
11
132.023000
21
-9.298550
0
LINE
8
Layer 1
10
132.023000
20
-18.923500
11
130.922350
21
-20.829880
0
LINE
8
Layer 1
10
130.922350
20
-20.829880
11
128.721000
21
-20.829900
0
LINE
8
Layer 1
10
128.721000
20
-20.829900
11
127.620350
21
-18.923520
0
LINE
8
Layer 1
10
127.620350
20
-18.923520
11
128.721000
21
-17.017140
0
LINE
8
Layer 1
10
128.721000
20
-17.017140
11
130.923000
21
-17.017100
0
LINE
8
Layer 1
10
130.923000
20
-17.017100
11
132.023000
21
-18.923500
0
LINE
8
Layer 1
10
128.721000
20
-21.829700
11
128.210568
21
-22.713738
0
LINE
8
Layer 1
10
128.210568
20
-22.713738
11
129.821708
21
-22.863352
0
LINE
8
Layer 1
10
129.821708
20
-22.863352
11
131.432698
21
-22.713738
0
LINE
8
Layer 1
10
131.432698
20
-22.713738
11
130.922268
21
-21.829700
0
LINE
8
Layer 1
10
130.922268
20
-21.829700
11
128.721000
21
-21.829700
0
LINE
8
Layer 1
10
136.191000
20
-16.517300
11
135.090350
21
-18.423680
0
LINE
8
Layer 1
10
135.090350
20
-18.423680
11
132.889000
21
-18.423700
0
LINE
8
Layer 1
10
132.889000
20
-18.423700
11
131.788350
21
-16.517320
0
LINE
8
Layer 1
10
131.788350
20
-16.517320
11
132.889000
21
-14.610940
0
LINE
8
Layer 1
10
132.889000
20
-14.610940
11
135.090000
21
-14.611000
0
LINE
8
Layer 1
10
135.090000
20
-14.611000
11
136.191000
21
-16.517300
0
LINE
8
Layer 1
10
136.191000
20
-11.704700
11
135.090350
21
-13.611080
0
LINE
8
Layer 1
10
135.090350
20
-13.611080
11
132.889000
21
-13.611100
0
LINE
8
Layer 1
10
132.889000
20
-13.611100
11
131.788350
21
-11.704720
0
LINE
8
Layer 1
10
131.788350
20
-11.704720
11
132.889000
21
-9.798340
0
LINE
8
Layer 1
10
132.889000
20
-9.798340
11
135.090000
21
-9.798340
0
LINE
8
Layer 1
10
135.090000
20
-9.798340
11
136.191000
21
-11.704700
0
LINE
8
Layer 1
10
132.442000
20
-5.760280
11
131.788554
21
-6.892140
0
LINE
8
Layer 1
10
131.788554
20
-6.892140
11
132.889264
21
-8.798480
0
LINE
8
Layer 1
10
132.889264
20
-8.798480
11
135.090000
21
-8.798480
0
LINE
8
Layer 1
10
135.090000
20
-8.798480
11
135.743595
21
-7.666620
0
LINE
8
Layer 1
10
135.743595
20
-7.666620
11
134.197613
21
-6.531446
0
LINE
8
Layer 1
10
134.197613
20
-6.531446
11
132.441485
21
-5.760280
0
LINE
8
Layer 1
10
132.441485
20
-5.760280
11
132.442000
21
-5.760280
0
LINE
8
Layer 1
10
132.889000
20
-19.423600
11
131.788290
21
-21.329950
0
LINE
8
Layer 1
10
131.788290
20
-21.329950
11
132.441877
21
-22.461950
0
LINE
8
Layer 1
10
132.441877
20
-22.461950
11
134.197931
21
-21.690770
0
LINE
8
Layer 1
10
134.197931
20
-21.690770
11
135.743847
21
-20.555610
0
LINE
8
Layer 1
10
135.743847
20
-20.555610
11
135.090252
21
-19.423600
0
LINE
8
Layer 1
10
135.090252
20
-19.423600
11
132.889000
21
-19.423600
0
LINE
8
Layer 1
10
136.467000
20
-8.414530
11
135.956568
21
-9.298568
0
LINE
8
Layer 1
10
135.956568
20
-9.298568
11
137.057128
21
-11.204918
0
LINE
8
Layer 1
10
137.057128
20
-11.204918
11
138.078000
21
-11.204900
0
LINE
8
Layer 1
10
138.078000
20
-11.204900
11
137.402013
21
-9.734932
0
LINE
8
Layer 1
10
137.402013
20
-9.734932
11
136.467000
21
-8.414510
0
LINE
8
Layer 1
10
136.467000
20
-8.414510
11
136.467000
21
-8.414530
0
LINE
8
Layer 1
10
137.057000
20
-12.204700
11
135.956440
21
-14.111190
0
LINE
8
Layer 1
10
135.956440
20
-14.111190
11
137.057000
21
-16.017530
0
LINE
8
Layer 1
10
137.057000
20
-16.017530
11
138.364000
21
-16.017500
0
LINE
8
Layer 1
10
138.364000
20
-16.017500
11
138.574207
21
-14.111160
0
LINE
8
Layer 1
10
138.574207
20
-14.111160
11
138.364000
21
-12.204670
0
LINE
8
Layer 1
10
138.364000
20
-12.204670
11
137.057000
21
-12.204700
0
LINE
8
Layer 1
10
137.057000
20
-17.017100
11
135.956440
21
-18.923440
0
LINE
8
Layer 1
10
135.956440
20
-18.923440
11
136.466872
21
-19.807478
0
LINE
8
Layer 1
10
136.466872
20
-19.807478
11
137.401962
21
-18.487070
0
LINE
8
Layer 1
10
137.401962
20
-18.487070
11
138.078022
21
-17.017098
0
LINE
8
Layer 1
10
138.078022
20
-17.017098
11
137.057000
21
-17.017100
0
LINE
8
Layer 1
10
127.202000
20
-5.760280
11
125.445946
21
-6.531460
0
LINE
8
Layer 1
10
125.445946
20
-6.531460
11
123.900030
21
-7.666620
0
LINE
8
Layer 1
10
123.900030
20
-7.666620
11
124.553476
21
-8.798480
0
LINE
8
Layer 1
10
124.553476
20
-8.798480
11
126.755000
21
-8.798480
0
LINE
8
Layer 1
10
126.755000
20
-8.798480
11
127.855710
21
-6.892140
0
LINE
8
Layer 1
10
127.855710
20
-6.892140
11
127.202000
21
-5.760280
0
LINE
8
Layer 1
10
127.856000
20
-11.704700
11
126.755350
21
-13.611080
0
LINE
8
Layer 1
10
126.755350
20
-13.611080
11
124.554000
21
-13.611100
0
LINE
8
Layer 1
10
124.554000
20
-13.611100
11
123.453350
21
-11.704720
0
LINE
8
Layer 1
10
123.453350
20
-11.704720
11
124.554000
21
-9.798340
0
LINE
8
Layer 1
10
124.554000
20
-9.798340
11
126.755000
21
-9.798340
0
LINE
8
Layer 1
10
126.755000
20
-9.798340
11
127.856000
21
-11.704700
0
LINE
8
Layer 1
10
127.856000
20
-16.517300
11
126.755350
21
-18.423680
0
LINE
8
Layer 1
10
126.755350
20
-18.423680
11
124.554000
21
-18.423700
0
LINE
8
Layer 1
10
124.554000
20
-18.423700
11
123.453350
21
-16.517320
0
LINE
8
Layer 1
10
123.453350
20
-16.517320
11
124.554000
21
-14.610940
0
LINE
8
Layer 1
10
124.554000
20
-14.610940
11
126.755000
21
-14.611000
0
LINE
8
Layer 1
10
126.755000
20
-14.611000
11
127.856000
21
-16.517300
0
LINE
8
Layer 1
10
124.554000
20
-19.423600
11
123.900554
21
-20.555610
0
LINE
8
Layer 1
10
123.900554
20
-20.555610
11
125.446403
21
-21.690757
0
LINE
8
Layer 1
10
125.446403
20
-21.690757
11
127.202384
21
-22.461950
0
LINE
8
Layer 1
10
127.202384
20
-22.461950
11
127.855971
21
-21.329950
0
LINE
8
Layer 1
10
127.855971
20
-21.329950
11
126.755261
21
-19.423600
0
LINE
8
Layer 1
10
126.755261
20
-19.423600
11
124.554000
21
-19.423600
0
LINE
8
Layer 1
10
123.178000
20
-8.414530
11
122.242914
21
-9.734944
0
LINE
8
Layer 1
10
122.242914
20
-9.734944
11
121.566860
21
-11.204920
0
LINE
8
Layer 1
10
121.566860
20
-11.204920
11
122.587000
21
-11.204900
0
LINE
8
Layer 1
10
122.587000
20
-11.204900
11
123.687560
21
-9.298550
0
LINE
8
Layer 1
10
123.687560
20
-9.298550
11
123.178000
21
-8.414530
0
LINE
8
Layer 1
10
121.280000
20
-12.204800
11
121.069793
21
-14.111150
0
LINE
8
Layer 1
10
121.069793
20
-14.111150
11
121.280000
21
-16.017490
0
LINE
8
Layer 1
10
121.280000
20
-16.017490
11
122.587000
21
-16.017500
0
LINE
8
Layer 1
10
122.587000
20
-16.017500
11
123.687560
21
-14.111160
0
LINE
8
Layer 1
10
123.687560
20
-14.111160
11
122.587000
21
-12.204810
0
LINE
8
Layer 1
10
122.587000
20
-12.204810
11
121.280000
21
-12.204800
0
LINE
8
Layer 1
10
121.566000
20
-17.017100
11
122.241976
21
-18.487136
0
LINE
8
Layer 1
10
122.241976
20
-18.487136
11
123.177000
21
-19.807620
0
LINE
8
Layer 1
10
123.177000
20
-19.807620
11
123.687430
21
-18.923435
0
LINE
8
Layer 1
10
123.687430
20
-18.923435
11
122.586870
21
-17.017095
0
LINE
8
Layer 1
10
122.586870
20
-17.017095
11
121.566000
21
-17.017100
0
LINE
8
Layer 1
10
129.500000
20
-13.814800
11
129.384207
21
-14.111150
0
LINE
8
Layer 1
10
129.384207
20
-14.111150
11
129.384207
21
-14.114367
0
LINE
8
Layer 1
10
129.384207
20
-14.114367
11
129.513460
21
-14.421553
0
LINE
8
Layer 1
10
129.513460
20
-14.421553
11
129.821589
21
-14.548540
0
LINE
8
Layer 1
10
129.821589
20
-14.548540
11
129.825000
21
-14.548500
0
LINE
8
Layer 1
10
129.825000
20
-14.548500
11
130.132187
21
-14.419248
0
LINE
8
Layer 1
10
130.132187
20
-14.419248
11
130.259176
21
-14.111118
0
LINE
8
Layer 1
10
130.259176
20
-14.111118
11
130.259176
21
-14.107901
0
LINE
8
Layer 1
10
130.259176
20
-14.107901
11
130.143519
21
-13.814760
0
LINE
8
Layer 1
10
130.143519
20
-13.814760
11
129.500000
21
-13.814800
0
LINE
8
Layer 1
10
108.656000
20
135.752000
11
107.045000
21
135.602384
0
LINE
8
Layer 1
10
107.045000
20
135.602384
11
107.555291
21
134.718493
0
LINE
8
Layer 1
10
107.555291
20
134.718493
11
109.756000
21
134.719000
0
LINE
8
Layer 1
10
109.756000
20
134.719000
11
110.266430
21
135.602891
0
LINE
8
Layer 1
10
110.266430
20
135.602891
11
108.655440
21
135.752507
0
LINE
8
Layer 1
10
108.655440
20
135.752507
11
108.656000
21
135.752000
0
LINE
8
Layer 1
10
110.857000
20
131.812000
11
109.756350
21
129.905620
0
LINE
8
Layer 1
10
109.756350
20
129.905620
11
107.555000
21
129.906000
0
LINE
8
Layer 1
10
107.555000
20
129.906000
11
106.454350
21
131.812380
0
LINE
8
Layer 1
10
106.454350
20
131.812380
11
107.555000
21
133.718760
0
LINE
8
Layer 1
10
107.555000
20
133.718760
11
109.756300
21
133.718760
0
LINE
8
Layer 1
10
109.756300
20
133.718760
11
110.857000
21
131.812000
0
LINE
8
Layer 1
10
110.857000
20
122.188000
11
109.756350
21
120.281620
0
LINE
8
Layer 1
10
109.756350
20
120.281620
11
107.555000
21
120.281000
0
LINE
8
Layer 1
10
107.555000
20
120.281000
11
106.454350
21
122.187380
0
LINE
8
Layer 1
10
106.454350
20
122.187380
11
107.555000
21
124.093760
0
LINE
8
Layer 1
10
107.555000
20
124.093760
11
109.756300
21
124.093760
0
LINE
8
Layer 1
10
109.756300
20
124.093760
11
110.857000
21
122.188000
0
LINE
8
Layer 1
10
107.555000
20
119.281000
11
107.044568
21
118.396962
0
LINE
8
Layer 1
10
107.044568
20
118.396962
11
108.655708
21
118.247346
0
LINE
8
Layer 1
10
108.655708
20
118.247346
11
110.266698
21
118.396962
0
LINE
8
Layer 1
10
110.266698
20
118.396962
11
109.756268
21
119.281000
0
LINE
8
Layer 1
10
109.756268
20
119.281000
11
107.555000
21
119.281000
0
LINE
8
Layer 1
10
115.024000
20
124.594000
11
113.923350
21
122.687620
0
LINE
8
Layer 1
10
113.923350
20
122.687620
11
111.723000
21
122.687000
0
LINE
8
Layer 1
10
111.723000
20
122.687000
11
110.622350
21
124.593380
0
LINE
8
Layer 1
10
110.622350
20
124.593380
11
111.723000
21
126.499760
0
LINE
8
Layer 1
10
111.723000
20
126.499760
11
113.924300
21
126.499760
0
LINE
8
Layer 1
10
113.924300
20
126.499760
11
115.024000
21
124.594000
0
LINE
8
Layer 1
10
115.024000
20
129.406000
11
113.923350
21
127.499620
0
LINE
8
Layer 1
10
113.923350
20
127.499620
11
111.723000
21
127.500000
0
LINE
8
Layer 1
10
111.723000
20
127.500000
11
110.622350
21
129.406380
0
LINE
8
Layer 1
10
110.622350
20
129.406380
11
111.723000
21
131.312760
0
LINE
8
Layer 1
10
111.723000
20
131.312760
11
113.924300
21
131.312760
0
LINE
8
Layer 1
10
113.924300
20
131.312760
11
115.024000
21
129.406000
0
LINE
8
Layer 1
10
111.275000
20
135.351000
11
110.621554
21
134.219140
0
LINE
8
Layer 1
10
110.621554
20
134.219140
11
111.722264
21
132.312800
0
LINE
8
Layer 1
10
111.722264
20
132.312800
11
113.924000
21
132.313000
0
LINE
8
Layer 1
10
113.924000
20
132.313000
11
114.577595
21
133.444860
0
LINE
8
Layer 1
10
114.577595
20
133.444860
11
113.031613
21
134.580034
0
LINE
8
Layer 1
10
113.031613
20
134.580034
11
111.275485
21
135.351200
0
LINE
8
Layer 1
10
111.275485
20
135.351200
11
111.275000
21
135.351000
0
LINE
8
Layer 1
10
111.723000
20
121.687000
11
110.622290
21
119.780650
0
LINE
8
Layer 1
10
110.622290
20
119.780650
11
111.275877
21
118.648650
0
LINE
8
Layer 1
10
111.275877
20
118.648650
11
113.031931
21
119.419830
0
LINE
8
Layer 1
10
113.031931
20
119.419830
11
114.577847
21
120.554990
0
LINE
8
Layer 1
10
114.577847
20
120.554990
11
113.924252
21
121.687000
0
LINE
8
Layer 1
10
113.924252
20
121.687000
11
111.723000
21
121.687000
0
LINE
8
Layer 1
10
115.300000
20
132.696000
11
114.789568
21
131.811962
0
LINE
8
Layer 1
10
114.789568
20
131.811962
11
115.890128
21
129.905612
0
LINE
8
Layer 1
10
115.890128
20
129.905612
11
116.911000
21
129.906000
0
LINE
8
Layer 1
10
116.911000
20
129.906000
11
116.234981
21
131.375765
0
LINE
8
Layer 1
10
116.234981
20
131.375765
11
115.300000
21
132.696000
0
LINE
8
Layer 1
10
115.300000
20
132.696000
11
115.300000
21
132.696000
0
LINE
8
Layer 1
10
115.890000
20
128.906000
11
114.789440
21
126.999510
0
LINE
8
Layer 1
10
114.789440
20
126.999510
11
115.890000
21
125.093170
0
LINE
8
Layer 1
10
115.890000
20
125.093170
11
117.198000
21
125.094000
0
LINE
8
Layer 1
10
117.198000
20
125.094000
11
117.408207
21
127.000340
0
LINE
8
Layer 1
10
117.408207
20
127.000340
11
117.198000
21
128.906830
0
LINE
8
Layer 1
10
117.198000
20
128.906830
11
115.890000
21
128.906000
0
LINE
8
Layer 1
10
115.890000
20
124.094000
11
114.789440
21
122.187660
0
LINE
8
Layer 1
10
114.789440
20
122.187660
11
115.299872
21
121.303622
0
LINE
8
Layer 1
10
115.299872
20
121.303622
11
116.234962
21
122.624030
0
LINE
8
Layer 1
10
116.234962
20
122.624030
11
116.911022
21
124.094002
0
LINE
8
Layer 1
10
116.911022
20
124.094002
11
115.890000
21
124.094000
0
LINE
8
Layer 1
10
106.036000
20
135.351000
11
104.279946
21
134.579820
0
LINE
8
Layer 1
10
104.279946
20
134.579820
11
102.734030
21
133.444660
0
LINE
8
Layer 1
10
102.734030
20
133.444660
11
103.387476
21
132.312800
0
LINE
8
Layer 1
10
103.387476
20
132.312800
11
105.588000
21
132.313000
0
LINE
8
Layer 1
10
105.588000
20
132.313000
11
106.688710
21
134.219340
0
LINE
8
Layer 1
10
106.688710
20
134.219340
11
106.036000
21
135.351000
0
LINE
8
Layer 1
10
106.689000
20
129.406000
11
105.588350
21
127.499620
0
LINE
8
Layer 1
10
105.588350
20
127.499620
11
103.387000
21
127.500000
0
LINE
8
Layer 1
10
103.387000
20
127.500000
11
102.286350
21
129.406380
0
LINE
8
Layer 1
10
102.286350
20
129.406380
11
103.387000
21
131.312760
0
LINE
8
Layer 1
10
103.387000
20
131.312760
11
105.588300
21
131.312760
0
LINE
8
Layer 1
10
105.588300
20
131.312760
11
106.689000
21
129.406000
0
LINE
8
Layer 1
10
106.689000
20
124.594000
11
105.588350
21
122.687620
0
LINE
8
Layer 1
10
105.588350
20
122.687620
11
103.387000
21
122.687000
0
LINE
8
Layer 1
10
103.387000
20
122.687000
11
102.286350
21
124.593380
0
LINE
8
Layer 1
10
102.286350
20
124.593380
11
103.387000
21
126.499760
0
LINE
8
Layer 1
10
103.387000
20
126.499760
11
105.588300
21
126.499760
0
LINE
8
Layer 1
10
105.588300
20
126.499760
11
106.689000
21
124.594000
0
LINE
8
Layer 1
10
103.387000
20
121.687000
11
102.733554
21
120.554990
0
LINE
8
Layer 1
10
102.733554
20
120.554990
11
104.279403
21
119.419843
0
LINE
8
Layer 1
10
104.279403
20
119.419843
11
106.035384
21
118.648650
0
LINE
8
Layer 1
10
106.035384
20
118.648650
11
106.688971
21
119.780650
0
LINE
8
Layer 1
10
106.688971
20
119.780650
11
105.588261
21
121.687000
0
LINE
8
Layer 1
10
105.588261
20
121.687000
11
103.387000
21
121.687000
0
LINE
8
Layer 1
10
102.011000
20
132.696000
11
101.075914
21
131.375586
0
LINE
8
Layer 1
10
101.075914
20
131.375586
11
100.399860
21
129.905610
0
LINE
8
Layer 1
10
100.399860
20
129.905610
11
101.421000
21
129.906000
0
LINE
8
Layer 1
10
101.421000
20
129.906000
11
102.521560
21
131.812350
0
LINE
8
Layer 1
10
102.521560
20
131.812350
11
102.011000
21
132.696000
0
LINE
8
Layer 1
10
100.113000
20
128.906000
11
99.902793
21
126.999650
0
LINE
8
Layer 1
10
99.902793
20
126.999650
11
100.113000
21
125.093310
0
LINE
8
Layer 1
10
100.113000
20
125.093310
11
101.421000
21
125.094000
0
LINE
8
Layer 1
10
101.421000
20
125.094000
11
102.521560
21
127.000340
0
LINE
8
Layer 1
10
102.521560
20
127.000340
11
101.421000
21
128.906690
0
LINE
8
Layer 1
10
101.421000
20
128.906690
11
100.113000
21
128.906000
0
LINE
8
Layer 1
10
100.400000
20
124.094000
11
101.075975
21
122.623959
0
LINE
8
Layer 1
10
101.075975
20
122.623959
11
102.011000
21
121.303470
0
LINE
8
Layer 1
10
102.011000
20
121.303470
11
102.521430
21
122.187655
0
LINE
8
Layer 1
10
102.521430
20
122.187655
11
101.420870
21
124.093995
0
LINE
8
Layer 1
10
101.420870
20
124.093995
11
100.400000
21
124.094000
0
LINE
8
Layer 1
10
108.334000
20
23.520800
11
108.218207
21
23.224448
0
LINE
8
Layer 1
10
108.218207
20
23.224448
11
108.218207
21
23.221237
0
LINE
8
Layer 1
10
108.218207
20
23.221237
11
108.347459
21
22.914052
0
LINE
8
Layer 1
10
108.347459
20
22.914052
11
108.655587
21
22.787064
0
LINE
8
Layer 1
10
108.655587
20
22.787064
11
108.659000
21
22.787100
0
LINE
8
Layer 1
10
108.659000
20
22.787100
11
108.966187
21
22.916352
0
LINE
8
Layer 1
10
108.966187
20
22.916352
11
109.093176
21
23.224481
0
LINE
8
Layer 1
10
109.093176
20
23.224481
11
109.093176
21
23.227692
0
LINE
8
Layer 1
10
109.093176
20
23.227692
11
108.977518
21
23.520835
0
LINE
8
Layer 1
10
108.977518
20
23.520835
11
108.334000
21
23.520800
0
LINE
8
Layer 1
10
108.656000
20
135.752000
11
107.045000
21
135.602384
0
LINE
8
Layer 1
10
107.045000
20
135.602384
11
107.555291
21
134.718493
0
LINE
8
Layer 1
10
107.555291
20
134.718493
11
109.756000
21
134.719000
0
LINE
8
Layer 1
10
109.756000
20
134.719000
11
110.266430
21
135.602891
0
LINE
8
Layer 1
10
110.266430
20
135.602891
11
108.655440
21
135.752507
0
LINE
8
Layer 1
10
108.655440
20
135.752507
11
108.656000
21
135.752000
0
LINE
8
Layer 1
10
110.857000
20
131.812000
11
109.756350
21
129.905620
0
LINE
8
Layer 1
10
109.756350
20
129.905620
11
107.555000
21
129.906000
0
LINE
8
Layer 1
10
107.555000
20
129.906000
11
106.454350
21
131.812380
0
LINE
8
Layer 1
10
106.454350
20
131.812380
11
107.555000
21
133.718760
0
LINE
8
Layer 1
10
107.555000
20
133.718760
11
109.756300
21
133.718760
0
LINE
8
Layer 1
10
109.756300
20
133.718760
11
110.857000
21
131.812000
0
LINE
8
Layer 1
10
110.857000
20
122.188000
11
109.756350
21
120.281620
0
LINE
8
Layer 1
10
109.756350
20
120.281620
11
107.555000
21
120.281000
0
LINE
8
Layer 1
10
107.555000
20
120.281000
11
106.454350
21
122.187380
0
LINE
8
Layer 1
10
106.454350
20
122.187380
11
107.555000
21
124.093760
0
LINE
8
Layer 1
10
107.555000
20
124.093760
11
109.756300
21
124.093760
0
LINE
8
Layer 1
10
109.756300
20
124.093760
11
110.857000
21
122.188000
0
LINE
8
Layer 1
10
107.555000
20
119.281000
11
107.044568
21
118.396962
0
LINE
8
Layer 1
10
107.044568
20
118.396962
11
108.655708
21
118.247346
0
LINE
8
Layer 1
10
108.655708
20
118.247346
11
110.266698
21
118.396962
0
LINE
8
Layer 1
10
110.266698
20
118.396962
11
109.756268
21
119.281000
0
LINE
8
Layer 1
10
109.756268
20
119.281000
11
107.555000
21
119.281000
0
LINE
8
Layer 1
10
115.024000
20
124.594000
11
113.923350
21
122.687620
0
LINE
8
Layer 1
10
113.923350
20
122.687620
11
111.723000
21
122.687000
0
LINE
8
Layer 1
10
111.723000
20
122.687000
11
110.622350
21
124.593380
0
LINE
8
Layer 1
10
110.622350
20
124.593380
11
111.723000
21
126.499760
0
LINE
8
Layer 1
10
111.723000
20
126.499760
11
113.924300
21
126.499760
0
LINE
8
Layer 1
10
113.924300
20
126.499760
11
115.024000
21
124.594000
0
LINE
8
Layer 1
10
115.024000
20
129.406000
11
113.923350
21
127.499620
0
LINE
8
Layer 1
10
113.923350
20
127.499620
11
111.723000
21
127.500000
0
LINE
8
Layer 1
10
111.723000
20
127.500000
11
110.622350
21
129.406380
0
LINE
8
Layer 1
10
110.622350
20
129.406380
11
111.723000
21
131.312760
0
LINE
8
Layer 1
10
111.723000
20
131.312760
11
113.924300
21
131.312760
0
LINE
8
Layer 1
10
113.924300
20
131.312760
11
115.024000
21
129.406000
0
LINE
8
Layer 1
10
111.275000
20
135.351000
11
110.621554
21
134.219140
0
LINE
8
Layer 1
10
110.621554
20
134.219140
11
111.722264
21
132.312800
0
LINE
8
Layer 1
10
111.722264
20
132.312800
11
113.924000
21
132.313000
0
LINE
8
Layer 1
10
113.924000
20
132.313000
11
114.577595
21
133.444860
0
LINE
8
Layer 1
10
114.577595
20
133.444860
11
113.031613
21
134.580034
0
LINE
8
Layer 1
10
113.031613
20
134.580034
11
111.275485
21
135.351200
0
LINE
8
Layer 1
10
111.275485
20
135.351200
11
111.275000
21
135.351000
0
LINE
8
Layer 1
10
111.723000
20
121.687000
11
110.622290
21
119.780650
0
LINE
8
Layer 1
10
110.622290
20
119.780650
11
111.275877
21
118.648650
0
LINE
8
Layer 1
10
111.275877
20
118.648650
11
113.031931
21
119.419830
0
LINE
8
Layer 1
10
113.031931
20
119.419830
11
114.577847
21
120.554990
0
LINE
8
Layer 1
10
114.577847
20
120.554990
11
113.924252
21
121.687000
0
LINE
8
Layer 1
10
113.924252
20
121.687000
11
111.723000
21
121.687000
0
LINE
8
Layer 1
10
115.300000
20
132.696000
11
114.789568
21
131.811962
0
LINE
8
Layer 1
10
114.789568
20
131.811962
11
115.890128
21
129.905612
0
LINE
8
Layer 1
10
115.890128
20
129.905612
11
116.911000
21
129.906000
0
LINE
8
Layer 1
10
116.911000
20
129.906000
11
116.234981
21
131.375765
0
LINE
8
Layer 1
10
116.234981
20
131.375765
11
115.300000
21
132.696000
0
LINE
8
Layer 1
10
115.300000
20
132.696000
11
115.300000
21
132.696000
0
LINE
8
Layer 1
10
115.890000
20
128.906000
11
114.789440
21
126.999510
0
LINE
8
Layer 1
10
114.789440
20
126.999510
11
115.890000
21
125.093170
0
LINE
8
Layer 1
10
115.890000
20
125.093170
11
117.198000
21
125.094000
0
LINE
8
Layer 1
10
117.198000
20
125.094000
11
117.408207
21
127.000340
0
LINE
8
Layer 1
10
117.408207
20
127.000340
11
117.198000
21
128.906830
0
LINE
8
Layer 1
10
117.198000
20
128.906830
11
115.890000
21
128.906000
0
LINE
8
Layer 1
10
115.890000
20
124.094000
11
114.789440
21
122.187660
0
LINE
8
Layer 1
10
114.789440
20
122.187660
11
115.299872
21
121.303622
0
LINE
8
Layer 1
10
115.299872
20
121.303622
11
116.234962
21
122.624030
0
LINE
8
Layer 1
10
116.234962
20
122.624030
11
116.911022
21
124.094002
0
LINE
8
Layer 1
10
116.911022
20
124.094002
11
115.890000
21
124.094000
0
LINE
8
Layer 1
10
106.036000
20
135.351000
11
104.279946
21
134.579820
0
LINE
8
Layer 1
10
104.279946
20
134.579820
11
102.734030
21
133.444660
0
LINE
8
Layer 1
10
102.734030
20
133.444660
11
103.387476
21
132.312800
0
LINE
8
Layer 1
10
103.387476
20
132.312800
11
105.588000
21
132.313000
0
LINE
8
Layer 1
10
105.588000
20
132.313000
11
106.688710
21
134.219340
0
LINE
8
Layer 1
10
106.688710
20
134.219340
11
106.036000
21
135.351000
0
LINE
8
Layer 1
10
106.689000
20
129.406000
11
105.588350
21
127.499620
0
LINE
8
Layer 1
10
105.588350
20
127.499620
11
103.387000
21
127.500000
0
LINE
8
Layer 1
10
103.387000
20
127.500000
11
102.286350
21
129.406380
0
LINE
8
Layer 1
10
102.286350
20
129.406380
11
103.387000
21
131.312760
0
LINE
8
Layer 1
10
103.387000
20
131.312760
11
105.588300
21
131.312760
0
LINE
8
Layer 1
10
105.588300
20
131.312760
11
106.689000
21
129.406000
0
LINE
8
Layer 1
10
106.689000
20
124.594000
11
105.588350
21
122.687620
0
LINE
8
Layer 1
10
105.588350
20
122.687620
11
103.387000
21
122.687000
0
LINE
8
Layer 1
10
103.387000
20
122.687000
11
102.286350
21
124.593380
0
LINE
8
Layer 1
10
102.286350
20
124.593380
11
103.387000
21
126.499760
0
LINE
8
Layer 1
10
103.387000
20
126.499760
11
105.588300
21
126.499760
0
LINE
8
Layer 1
10
105.588300
20
126.499760
11
106.689000
21
124.594000
0
LINE
8
Layer 1
10
103.387000
20
121.687000
11
102.733554
21
120.554990
0
LINE
8
Layer 1
10
102.733554
20
120.554990
11
104.279403
21
119.419843
0
LINE
8
Layer 1
10
104.279403
20
119.419843
11
106.035384
21
118.648650
0
LINE
8
Layer 1
10
106.035384
20
118.648650
11
106.688971
21
119.780650
0
LINE
8
Layer 1
10
106.688971
20
119.780650
11
105.588261
21
121.687000
0
LINE
8
Layer 1
10
105.588261
20
121.687000
11
103.387000
21
121.687000
0
LINE
8
Layer 1
10
102.011000
20
132.696000
11
101.075914
21
131.375586
0
LINE
8
Layer 1
10
101.075914
20
131.375586
11
100.399860
21
129.905610
0
LINE
8
Layer 1
10
100.399860
20
129.905610
11
101.421000
21
129.906000
0
LINE
8
Layer 1
10
101.421000
20
129.906000
11
102.521560
21
131.812350
0
LINE
8
Layer 1
10
102.521560
20
131.812350
11
102.011000
21
132.696000
0
LINE
8
Layer 1
10
100.113000
20
128.906000
11
99.902793
21
126.999650
0
LINE
8
Layer 1
10
99.902793
20
126.999650
11
100.113000
21
125.093310
0
LINE
8
Layer 1
10
100.113000
20
125.093310
11
101.421000
21
125.094000
0
LINE
8
Layer 1
10
101.421000
20
125.094000
11
102.521560
21
127.000340
0
LINE
8
Layer 1
10
102.521560
20
127.000340
11
101.421000
21
128.906690
0
LINE
8
Layer 1
10
101.421000
20
128.906690
11
100.113000
21
128.906000
0
LINE
8
Layer 1
10
100.400000
20
124.094000
11
101.075975
21
122.623959
0
LINE
8
Layer 1
10
101.075975
20
122.623959
11
102.011000
21
121.303470
0
LINE
8
Layer 1
10
102.011000
20
121.303470
11
102.521430
21
122.187655
0
LINE
8
Layer 1
10
102.521430
20
122.187655
11
101.420870
21
124.093995
0
LINE
8
Layer 1
10
101.420870
20
124.093995
11
100.400000
21
124.094000
0
LINE
8
Layer 1
10
108.334000
20
23.520800
11
108.218207
21
23.224448
0
LINE
8
Layer 1
10
108.218207
20
23.224448
11
108.218207
21
23.221237
0
LINE
8
Layer 1
10
108.218207
20
23.221237
11
108.347459
21
22.914052
0
LINE
8
Layer 1
10
108.347459
20
22.914052
11
108.655587
21
22.787064
0
LINE
8
Layer 1
10
108.655587
20
22.787064
11
108.659000
21
22.787100
0
LINE
8
Layer 1
10
108.659000
20
22.787100
11
108.966187
21
22.916352
0
LINE
8
Layer 1
10
108.966187
20
22.916352
11
109.093176
21
23.224481
0
LINE
8
Layer 1
10
109.093176
20
23.224481
11
109.093176
21
23.227692
0
LINE
8
Layer 1
10
109.093176
20
23.227692
11
108.977518
21
23.520835
0
LINE
8
Layer 1
10
108.977518
20
23.520835
11
108.334000
21
23.520800
0
LINE
8
Layer 1
10
129.822000
20
-5.358810
11
128.211000
21
-5.508424
0
LINE
8
Layer 1
10
128.211000
20
-5.508424
11
128.721291
21
-6.392315
0
LINE
8
Layer 1
10
128.721291
20
-6.392315
11
130.923000
21
-6.392320
0
LINE
8
Layer 1
10
130.923000
20
-6.392320
11
131.433430
21
-5.508429
0
LINE
8
Layer 1
10
131.433430
20
-5.508429
11
129.822440
21
-5.358815
0
LINE
8
Layer 1
10
129.822440
20
-5.358815
11
129.822000
21
-5.358810
0
LINE
8
Layer 1
10
132.023000
20
-9.298550
11
130.922350
21
-11.204930
0
LINE
8
Layer 1
10
130.922350
20
-11.204930
11
128.721000
21
-11.204900
0
LINE
8
Layer 1
10
128.721000
20
-11.204900
11
127.620350
21
-9.298520
0
LINE
8
Layer 1
10
127.620350
20
-9.298520
11
128.721000
21
-7.392140
0
LINE
8
Layer 1
10
128.721000
20
-7.392140
11
130.923000
21
-7.392160
0
LINE
8
Layer 1
10
130.923000
20
-7.392160
11
132.023000
21
-9.298550
0
LINE
8
Layer 1
10
132.023000
20
-18.923500
11
130.922350
21
-20.829880
0
LINE
8
Layer 1
10
130.922350
20
-20.829880
11
128.721000
21
-20.829900
0
LINE
8
Layer 1
10
128.721000
20
-20.829900
11
127.620350
21
-18.923520
0
LINE
8
Layer 1
10
127.620350
20
-18.923520
11
128.721000
21
-17.017140
0
LINE
8
Layer 1
10
128.721000
20
-17.017140
11
130.923000
21
-17.017100
0
LINE
8
Layer 1
10
130.923000
20
-17.017100
11
132.023000
21
-18.923500
0
LINE
8
Layer 1
10
128.721000
20
-21.829700
11
128.210568
21
-22.713738
0
LINE
8
Layer 1
10
128.210568
20
-22.713738
11
129.821708
21
-22.863352
0
LINE
8
Layer 1
10
129.821708
20
-22.863352
11
131.432698
21
-22.713738
0
LINE
8
Layer 1
10
131.432698
20
-22.713738
11
130.922268
21
-21.829700
0
LINE
8
Layer 1
10
130.922268
20
-21.829700
11
128.721000
21
-21.829700
0
LINE
8
Layer 1
10
136.191000
20
-16.517300
11
135.090350
21
-18.423680
0
LINE
8
Layer 1
10
135.090350
20
-18.423680
11
132.889000
21
-18.423700
0
LINE
8
Layer 1
10
132.889000
20
-18.423700
11
131.788350
21
-16.517320
0
LINE
8
Layer 1
10
131.788350
20
-16.517320
11
132.889000
21
-14.610940
0
LINE
8
Layer 1
10
132.889000
20
-14.610940
11
135.090000
21
-14.611000
0
LINE
8
Layer 1
10
135.090000
20
-14.611000
11
136.191000
21
-16.517300
0
LINE
8
Layer 1
10
136.191000
20
-11.704700
11
135.090350
21
-13.611080
0
LINE
8
Layer 1
10
135.090350
20
-13.611080
11
132.889000
21
-13.611100
0
LINE
8
Layer 1
10
132.889000
20
-13.611100
11
131.788350
21
-11.704720
0
LINE
8
Layer 1
10
131.788350
20
-11.704720
11
132.889000
21
-9.798340
0
LINE
8
Layer 1
10
132.889000
20
-9.798340
11
135.090000
21
-9.798340
0
LINE
8
Layer 1
10
135.090000
20
-9.798340
11
136.191000
21
-11.704700
0
LINE
8
Layer 1
10
132.442000
20
-5.760280
11
131.788554
21
-6.892140
0
LINE
8
Layer 1
10
131.788554
20
-6.892140
11
132.889264
21
-8.798480
0
LINE
8
Layer 1
10
132.889264
20
-8.798480
11
135.090000
21
-8.798480
0
LINE
8
Layer 1
10
135.090000
20
-8.798480
11
135.743595
21
-7.666620
0
LINE
8
Layer 1
10
135.743595
20
-7.666620
11
134.197613
21
-6.531446
0
LINE
8
Layer 1
10
134.197613
20
-6.531446
11
132.441485
21
-5.760280
0
LINE
8
Layer 1
10
132.441485
20
-5.760280
11
132.442000
21
-5.760280
0
LINE
8
Layer 1
10
132.889000
20
-19.423600
11
131.788290
21
-21.329950
0
LINE
8
Layer 1
10
131.788290
20
-21.329950
11
132.441877
21
-22.461950
0
LINE
8
Layer 1
10
132.441877
20
-22.461950
11
134.197931
21
-21.690770
0
LINE
8
Layer 1
10
134.197931
20
-21.690770
11
135.743847
21
-20.555610
0
LINE
8
Layer 1
10
135.743847
20
-20.555610
11
135.090252
21
-19.423600
0
LINE
8
Layer 1
10
135.090252
20
-19.423600
11
132.889000
21
-19.423600
0
LINE
8
Layer 1
10
136.467000
20
-8.414530
11
135.956568
21
-9.298568
0
LINE
8
Layer 1
10
135.956568
20
-9.298568
11
137.057128
21
-11.204918
0
LINE
8
Layer 1
10
137.057128
20
-11.204918
11
138.078000
21
-11.204900
0
LINE
8
Layer 1
10
138.078000
20
-11.204900
11
137.402013
21
-9.734932
0
LINE
8
Layer 1
10
137.402013
20
-9.734932
11
136.467000
21
-8.414510
0
LINE
8
Layer 1
10
136.467000
20
-8.414510
11
136.467000
21
-8.414530
0
LINE
8
Layer 1
10
137.057000
20
-12.204700
11
135.956440
21
-14.111190
0
LINE
8
Layer 1
10
135.956440
20
-14.111190
11
137.057000
21
-16.017530
0
LINE
8
Layer 1
10
137.057000
20
-16.017530
11
138.364000
21
-16.017500
0
LINE
8
Layer 1
10
138.364000
20
-16.017500
11
138.574207
21
-14.111160
0
LINE
8
Layer 1
10
138.574207
20
-14.111160
11
138.364000
21
-12.204670
0
LINE
8
Layer 1
10
138.364000
20
-12.204670
11
137.057000
21
-12.204700
0
LINE
8
Layer 1
10
137.057000
20
-17.017100
11
135.956440
21
-18.923440
0
LINE
8
Layer 1
10
135.956440
20
-18.923440
11
136.466872
21
-19.807478
0
LINE
8
Layer 1
10
136.466872
20
-19.807478
11
137.401962
21
-18.487070
0
LINE
8
Layer 1
10
137.401962
20
-18.487070
11
138.078022
21
-17.017098
0
LINE
8
Layer 1
10
138.078022
20
-17.017098
11
137.057000
21
-17.017100
0
LINE
8
Layer 1
10
127.202000
20
-5.760280
11
125.445946
21
-6.531460
0
LINE
8
Layer 1
10
125.445946
20
-6.531460
11
123.900030
21
-7.666620
0
LINE
8
Layer 1
10
123.900030
20
-7.666620
11
124.553476
21
-8.798480
0
LINE
8
Layer 1
10
124.553476
20
-8.798480
11
126.755000
21
-8.798480
0
LINE
8
Layer 1
10
126.755000
20
-8.798480
11
127.855710
21
-6.892140
0
LINE
8
Layer 1
10
127.855710
20
-6.892140
11
127.202000
21
-5.760280
0
LINE
8
Layer 1
10
127.856000
20
-11.704700
11
126.755350
21
-13.611080
0
LINE
8
Layer 1
10
126.755350
20
-13.611080
11
124.554000
21
-13.611100
0
LINE
8
Layer 1
10
124.554000
20
-13.611100
11
123.453350
21
-11.704720
0
LINE
8
Layer 1
10
123.453350
20
-11.704720
11
124.554000
21
-9.798340
0
LINE
8
Layer 1
10
124.554000
20
-9.798340
11
126.755000
21
-9.798340
0
LINE
8
Layer 1
10
126.755000
20
-9.798340
11
127.856000
21
-11.704700
0
LINE
8
Layer 1
10
127.856000
20
-16.517300
11
126.755350
21
-18.423680
0
LINE
8
Layer 1
10
126.755350
20
-18.423680
11
124.554000
21
-18.423700
0
LINE
8
Layer 1
10
124.554000
20
-18.423700
11
123.453350
21
-16.517320
0
LINE
8
Layer 1
10
123.453350
20
-16.517320
11
124.554000
21
-14.610940
0
LINE
8
Layer 1
10
124.554000
20
-14.610940
11
126.755000
21
-14.611000
0
LINE
8
Layer 1
10
126.755000
20
-14.611000
11
127.856000
21
-16.517300
0
LINE
8
Layer 1
10
124.554000
20
-19.423600
11
123.900554
21
-20.555610
0
LINE
8
Layer 1
10
123.900554
20
-20.555610
11
125.446403
21
-21.690757
0
LINE
8
Layer 1
10
125.446403
20
-21.690757
11
127.202384
21
-22.461950
0
LINE
8
Layer 1
10
127.202384
20
-22.461950
11
127.855971
21
-21.329950
0
LINE
8
Layer 1
10
127.855971
20
-21.329950
11
126.755261
21
-19.423600
0
LINE
8
Layer 1
10
126.755261
20
-19.423600
11
124.554000
21
-19.423600
0
LINE
8
Layer 1
10
123.178000
20
-8.414530
11
122.242914
21
-9.734944
0
LINE
8
Layer 1
10
122.242914
20
-9.734944
11
121.566860
21
-11.204920
0
LINE
8
Layer 1
10
121.566860
20
-11.204920
11
122.587000
21
-11.204900
0
LINE
8
Layer 1
10
122.587000
20
-11.204900
11
123.687560
21
-9.298550
0
LINE
8
Layer 1
10
123.687560
20
-9.298550
11
123.178000
21
-8.414530
0
LINE
8
Layer 1
10
121.280000
20
-12.204800
11
121.069793
21
-14.111150
0
LINE
8
Layer 1
10
121.069793
20
-14.111150
11
121.280000
21
-16.017490
0
LINE
8
Layer 1
10
121.280000
20
-16.017490
11
122.587000
21
-16.017500
0
LINE
8
Layer 1
10
122.587000
20
-16.017500
11
123.687560
21
-14.111160
0
LINE
8
Layer 1
10
123.687560
20
-14.111160
11
122.587000
21
-12.204810
0
LINE
8
Layer 1
10
122.587000
20
-12.204810
11
121.280000
21
-12.204800
0
LINE
8
Layer 1
10
121.566000
20
-17.017100
11
122.241976
21
-18.487136
0
LINE
8
Layer 1
10
122.241976
20
-18.487136
11
123.177000
21
-19.807620
0
LINE
8
Layer 1
10
123.177000
20
-19.807620
11
123.687430
21
-18.923435
0
LINE
8
Layer 1
10
123.687430
20
-18.923435
11
122.586870
21
-17.017095
0
LINE
8
Layer 1
10
122.586870
20
-17.017095
11
121.566000
21
-17.017100
0
LINE
8
Layer 1
10
129.500000
20
-13.814800
11
129.384207
21
-14.111150
0
LINE
8
Layer 1
10
129.384207
20
-14.111150
11
129.384207
21
-14.114367
0
LINE
8
Layer 1
10
129.384207
20
-14.114367
11
129.513460
21
-14.421553
0
LINE
8
Layer 1
10
129.513460
20
-14.421553
11
129.821589
21
-14.548540
0
LINE
8
Layer 1
10
129.821589
20
-14.548540
11
129.825000
21
-14.548500
0
LINE
8
Layer 1
10
129.825000
20
-14.548500
11
130.132187
21
-14.419248
0
LINE
8
Layer 1
10
130.132187
20
-14.419248
11
130.259176
21
-14.111118
0
LINE
8
Layer 1
10
130.259176
20
-14.111118
11
130.259176
21
-14.107901
0
LINE
8
Layer 1
10
130.259176
20
-14.107901
11
130.143519
21
-13.814760
0
LINE
8
Layer 1
10
130.143519
20
-13.814760
11
129.500000
21
-13.814800
0
LINE
8
Layer 1
10
108.656000
20
135.752000
11
107.045000
21
135.602384
0
LINE
8
Layer 1
10
107.045000
20
135.602384
11
107.555291
21
134.718493
0
LINE
8
Layer 1
10
107.555291
20
134.718493
11
109.756000
21
134.719000
0
LINE
8
Layer 1
10
109.756000
20
134.719000
11
110.266430
21
135.602891
0
LINE
8
Layer 1
10
110.266430
20
135.602891
11
108.655440
21
135.752507
0
LINE
8
Layer 1
10
108.655440
20
135.752507
11
108.656000
21
135.752000
0
LINE
8
Layer 1
10
110.857000
20
131.812000
11
109.756350
21
129.905620
0
LINE
8
Layer 1
10
109.756350
20
129.905620
11
107.555000
21
129.906000
0
LINE
8
Layer 1
10
107.555000
20
129.906000
11
106.454350
21
131.812380
0
LINE
8
Layer 1
10
106.454350
20
131.812380
11
107.555000
21
133.718760
0
LINE
8
Layer 1
10
107.555000
20
133.718760
11
109.756300
21
133.718760
0
LINE
8
Layer 1
10
109.756300
20
133.718760
11
110.857000
21
131.812000
0
LINE
8
Layer 1
10
110.857000
20
122.188000
11
109.756350
21
120.281620
0
LINE
8
Layer 1
10
109.756350
20
120.281620
11
107.555000
21
120.281000
0
LINE
8
Layer 1
10
107.555000
20
120.281000
11
106.454350
21
122.187380
0
LINE
8
Layer 1
10
106.454350
20
122.187380
11
107.555000
21
124.093760
0
LINE
8
Layer 1
10
107.555000
20
124.093760
11
109.756300
21
124.093760
0
LINE
8
Layer 1
10
109.756300
20
124.093760
11
110.857000
21
122.188000
0
LINE
8
Layer 1
10
107.555000
20
119.281000
11
107.044568
21
118.396962
0
LINE
8
Layer 1
10
107.044568
20
118.396962
11
108.655708
21
118.247346
0
LINE
8
Layer 1
10
108.655708
20
118.247346
11
110.266698
21
118.396962
0
LINE
8
Layer 1
10
110.266698
20
118.396962
11
109.756268
21
119.281000
0
LINE
8
Layer 1
10
109.756268
20
119.281000
11
107.555000
21
119.281000
0
LINE
8
Layer 1
10
115.024000
20
124.594000
11
113.923350
21
122.687620
0
LINE
8
Layer 1
10
113.923350
20
122.687620
11
111.723000
21
122.687000
0
LINE
8
Layer 1
10
111.723000
20
122.687000
11
110.622350
21
124.593380
0
LINE
8
Layer 1
10
110.622350
20
124.593380
11
111.723000
21
126.499760
0
LINE
8
Layer 1
10
111.723000
20
126.499760
11
113.924300
21
126.499760
0
LINE
8
Layer 1
10
113.924300
20
126.499760
11
115.024000
21
124.594000
0
LINE
8
Layer 1
10
115.024000
20
129.406000
11
113.923350
21
127.499620
0
LINE
8
Layer 1
10
113.923350
20
127.499620
11
111.723000
21
127.500000
0
LINE
8
Layer 1
10
111.723000
20
127.500000
11
110.622350
21
129.406380
0
LINE
8
Layer 1
10
110.622350
20
129.406380
11
111.723000
21
131.312760
0
LINE
8
Layer 1
10
111.723000
20
131.312760
11
113.924300
21
131.312760
0
LINE
8
Layer 1
10
113.924300
20
131.312760
11
115.024000
21
129.406000
0
LINE
8
Layer 1
10
111.275000
20
135.351000
11
110.621554
21
134.219140
0
LINE
8
Layer 1
10
110.621554
20
134.219140
11
111.722264
21
132.312800
0
LINE
8
Layer 1
10
111.722264
20
132.312800
11
113.924000
21
132.313000
0
LINE
8
Layer 1
10
113.924000
20
132.313000
11
114.577595
21
133.444860
0
LINE
8
Layer 1
10
114.577595
20
133.444860
11
113.031613
21
134.580034
0
LINE
8
Layer 1
10
113.031613
20
134.580034
11
111.275485
21
135.351200
0
LINE
8
Layer 1
10
111.275485
20
135.351200
11
111.275000
21
135.351000
0
LINE
8
Layer 1
10
111.723000
20
121.687000
11
110.622290
21
119.780650
0
LINE
8
Layer 1
10
110.622290
20
119.780650
11
111.275877
21
118.648650
0
LINE
8
Layer 1
10
111.275877
20
118.648650
11
113.031931
21
119.419830
0
LINE
8
Layer 1
10
113.031931
20
119.419830
11
114.577847
21
120.554990
0
LINE
8
Layer 1
10
114.577847
20
120.554990
11
113.924252
21
121.687000
0
LINE
8
Layer 1
10
113.924252
20
121.687000
11
111.723000
21
121.687000
0
LINE
8
Layer 1
10
115.300000
20
132.696000
11
114.789568
21
131.811962
0
LINE
8
Layer 1
10
114.789568
20
131.811962
11
115.890128
21
129.905612
0
LINE
8
Layer 1
10
115.890128
20
129.905612
11
116.911000
21
129.906000
0
LINE
8
Layer 1
10
116.911000
20
129.906000
11
116.234981
21
131.375765
0
LINE
8
Layer 1
10
116.234981
20
131.375765
11
115.300000
21
132.696000
0
LINE
8
Layer 1
10
115.300000
20
132.696000
11
115.300000
21
132.696000
0
LINE
8
Layer 1
10
115.890000
20
128.906000
11
114.789440
21
126.999510
0
LINE
8
Layer 1
10
114.789440
20
126.999510
11
115.890000
21
125.093170
0
LINE
8
Layer 1
10
115.890000
20
125.093170
11
117.198000
21
125.094000
0
LINE
8
Layer 1
10
117.198000
20
125.094000
11
117.408207
21
127.000340
0
LINE
8
Layer 1
10
117.408207
20
127.000340
11
117.198000
21
128.906830
0
LINE
8
Layer 1
10
117.198000
20
128.906830
11
115.890000
21
128.906000
0
LINE
8
Layer 1
10
115.890000
20
124.094000
11
114.789440
21
122.187660
0
LINE
8
Layer 1
10
114.789440
20
122.187660
11
115.299872
21
121.303622
0
LINE
8
Layer 1
10
115.299872
20
121.303622
11
116.234962
21
122.624030
0
LINE
8
Layer 1
10
116.234962
20
122.624030
11
116.911022
21
124.094002
0
LINE
8
Layer 1
10
116.911022
20
124.094002
11
115.890000
21
124.094000
0
LINE
8
Layer 1
10
106.036000
20
135.351000
11
104.279946
21
134.579820
0
LINE
8
Layer 1
10
104.279946
20
134.579820
11
102.734030
21
133.444660
0
LINE
8
Layer 1
10
102.734030
20
133.444660
11
103.387476
21
132.312800
0
LINE
8
Layer 1
10
103.387476
20
132.312800
11
105.588000
21
132.313000
0
LINE
8
Layer 1
10
105.588000
20
132.313000
11
106.688710
21
134.219340
0
LINE
8
Layer 1
10
106.688710
20
134.219340
11
106.036000
21
135.351000
0
LINE
8
Layer 1
10
106.689000
20
129.406000
11
105.588350
21
127.499620
0
LINE
8
Layer 1
10
105.588350
20
127.499620
11
103.387000
21
127.500000
0
LINE
8
Layer 1
10
103.387000
20
127.500000
11
102.286350
21
129.406380
0
LINE
8
Layer 1
10
102.286350
20
129.406380
11
103.387000
21
131.312760
0
LINE
8
Layer 1
10
103.387000
20
131.312760
11
105.588300
21
131.312760
0
LINE
8
Layer 1
10
105.588300
20
131.312760
11
106.689000
21
129.406000
0
LINE
8
Layer 1
10
106.689000
20
124.594000
11
105.588350
21
122.687620
0
LINE
8
Layer 1
10
105.588350
20
122.687620
11
103.387000
21
122.687000
0
LINE
8
Layer 1
10
103.387000
20
122.687000
11
102.286350
21
124.593380
0
LINE
8
Layer 1
10
102.286350
20
124.593380
11
103.387000
21
126.499760
0
LINE
8
Layer 1
10
103.387000
20
126.499760
11
105.588300
21
126.499760
0
LINE
8
Layer 1
10
105.588300
20
126.499760
11
106.689000
21
124.594000
0
LINE
8
Layer 1
10
103.387000
20
121.687000
11
102.733554
21
120.554990
0
LINE
8
Layer 1
10
102.733554
20
120.554990
11
104.279403
21
119.419843
0
LINE
8
Layer 1
10
104.279403
20
119.419843
11
106.035384
21
118.648650
0
LINE
8
Layer 1
10
106.035384
20
118.648650
11
106.688971
21
119.780650
0
LINE
8
Layer 1
10
106.688971
20
119.780650
11
105.588261
21
121.687000
0
LINE
8
Layer 1
10
105.588261
20
121.687000
11
103.387000
21
121.687000
0
LINE
8
Layer 1
10
102.011000
20
132.696000
11
101.075914
21
131.375586
0
LINE
8
Layer 1
10
101.075914
20
131.375586
11
100.399860
21
129.905610
0
LINE
8
Layer 1
10
100.399860
20
129.905610
11
101.421000
21
129.906000
0
LINE
8
Layer 1
10
101.421000
20
129.906000
11
102.521560
21
131.812350
0
LINE
8
Layer 1
10
102.521560
20
131.812350
11
102.011000
21
132.696000
0
LINE
8
Layer 1
10
100.113000
20
128.906000
11
99.902793
21
126.999650
0
LINE
8
Layer 1
10
99.902793
20
126.999650
11
100.113000
21
125.093310
0
LINE
8
Layer 1
10
100.113000
20
125.093310
11
101.421000
21
125.094000
0
LINE
8
Layer 1
10
101.421000
20
125.094000
11
102.521560
21
127.000340
0
LINE
8
Layer 1
10
102.521560
20
127.000340
11
101.421000
21
128.906690
0
LINE
8
Layer 1
10
101.421000
20
128.906690
11
100.113000
21
128.906000
0
LINE
8
Layer 1
10
100.400000
20
124.094000
11
101.075975
21
122.623959
0
LINE
8
Layer 1
10
101.075975
20
122.623959
11
102.011000
21
121.303470
0
LINE
8
Layer 1
10
102.011000
20
121.303470
11
102.521430
21
122.187655
0
LINE
8
Layer 1
10
102.521430
20
122.187655
11
101.420870
21
124.093995
0
LINE
8
Layer 1
10
101.420870
20
124.093995
11
100.400000
21
124.094000
0
LINE
8
Layer 1
10
108.334000
20
23.520800
11
108.218207
21
23.224448
0
LINE
8
Layer 1
10
108.218207
20
23.224448
11
108.218207
21
23.221237
0
LINE
8
Layer 1
10
108.218207
20
23.221237
11
108.347459
21
22.914052
0
LINE
8
Layer 1
10
108.347459
20
22.914052
11
108.655587
21
22.787064
0
LINE
8
Layer 1
10
108.655587
20
22.787064
11
108.659000
21
22.787100
0
LINE
8
Layer 1
10
108.659000
20
22.787100
11
108.966187
21
22.916352
0
LINE
8
Layer 1
10
108.966187
20
22.916352
11
109.093176
21
23.224481
0
LINE
8
Layer 1
10
109.093176
20
23.224481
11
109.093176
21
23.227692
0
LINE
8
Layer 1
10
109.093176
20
23.227692
11
108.977518
21
23.520835
0
LINE
8
Layer 1
10
108.977518
20
23.520835
11
108.334000
21
23.520800
0
LINE
8
Layer 1
10
41.500700
20
48.528100
11
41.500700
21
47.286400
0
LINE
8
Layer 1
10
41.500700
20
47.286400
11
42.347400
21
47.286400
0
LINE
8
Layer 1
10
42.347400
20
47.286400
11
42.347400
21
44.435900
0
LINE
8
Layer 1
10
42.347400
20
44.435900
11
41.500700
21
44.435900
0
LINE
8
Layer 1
10
41.500700
20
44.435900
11
41.500700
21
43.194000
0
LINE
8
Layer 1
10
41.500700
20
43.194000
11
44.308800
21
43.194000
0
LINE
8
Layer 1
10
44.308800
20
43.194000
11
44.308800
21
44.040800
0
LINE
8
Layer 1
10
44.308800
20
44.040800
11
48.570300
21
44.040800
0
LINE
8
Layer 1
10
48.570300
20
44.040800
11
48.570300
21
43.194000
0
LINE
8
Layer 1
10
48.570300
20
43.194000
11
51.068000
21
43.194000
0
LINE
8
Layer 1
10
51.068000
20
43.194000
11
51.068000
21
44.435900
0
LINE
8
Layer 1
10
51.068000
20
44.435900
11
50.235400
21
44.435900
0
LINE
8
Layer 1
10
50.235400
20
44.435900
11
50.235400
21
47.286400
0
LINE
8
Layer 1
10
50.235400
20
47.286400
11
51.068000
21
47.286400
0
LINE
8
Layer 1
10
51.068000
20
47.286400
11
51.068000
21
48.528100
0
LINE
8
Layer 1
10
51.068000
20
48.528100
11
48.556300
21
48.528100
0
LINE
8
Layer 1
10
48.556300
20
48.528100
11
48.556300
21
47.681500
0
LINE
8
Layer 1
10
48.556300
20
47.681500
11
44.294600
21
47.681500
0
LINE
8
Layer 1
10
44.294600
20
47.681500
11
44.294600
21
48.528100
0
LINE
8
Layer 1
10
44.294600
20
48.528100
11
41.500700
21
48.528100
0
LINE
8
Layer 1
10
11.782900
20
51.378400
11
10.964400
21
51.378400
0
LINE
8
Layer 1
10
10.964400
20
51.378400
11
10.964400
21
53.325800
0
LINE
8
Layer 1
10
10.964400
20
53.325800
11
8.170350
21
53.325800
0
LINE
8
Layer 1
10
8.170350
20
53.325800
11
8.170350
21
51.378400
0
LINE
8
Layer 1
10
8.170350
20
51.378400
11
7.351880
21
51.378400
0
LINE
8
Layer 1
10
7.351880
20
51.378400
11
7.351880
21
47.173300
0
LINE
8
Layer 1
10
7.351880
20
47.173300
11
8.170350
21
47.173300
0
LINE
8
Layer 1
10
8.170350
20
47.173300
11
8.170350
21
45.508300
0
LINE
8
Layer 1
10
8.170350
20
45.508300
11
10.964400
21
45.508300
0
LINE
8
Layer 1
10
10.964400
20
45.508300
11
10.964400
21
47.173300
0
LINE
8
Layer 1
10
10.964400
20
47.173300
11
11.782900
21
47.173300
0
LINE
8
Layer 1
10
11.782900
20
47.173300
11
11.782900
21
51.378400
0
LINE
8
Layer 1
10
41.416200
20
48.274000
11
40.597700
21
48.274000
0
LINE
8
Layer 1
10
40.597700
20
48.274000
11
40.597700
21
50.221400
0
LINE
8
Layer 1
10
40.597700
20
50.221400
11
37.803700
21
50.221400
0
LINE
8
Layer 1
10
37.803700
20
50.221400
11
37.803700
21
48.274000
0
LINE
8
Layer 1
10
37.803700
20
48.274000
11
36.985200
21
48.274000
0
LINE
8
Layer 1
10
36.985200
20
48.274000
11
36.985200
21
44.068900
0
LINE
8
Layer 1
10
36.985200
20
44.068900
11
37.803700
21
44.068900
0
LINE
8
Layer 1
10
37.803700
20
44.068900
11
37.803700
21
42.403800
0
LINE
8
Layer 1
10
37.803700
20
42.403800
11
40.597700
21
42.403800
0
LINE
8
Layer 1
10
40.597700
20
42.403800
11
40.597700
21
44.068900
0
LINE
8
Layer 1
10
40.597700
20
44.068900
11
41.416200
21
44.068900
0
LINE
8
Layer 1
10
41.416200
20
44.068900
11
41.416200
21
48.274000
0
LINE
8
Layer 1
10
17.709500
20
51.378400
11
16.891100
21
51.378400
0
LINE
8
Layer 1
10
16.891100
20
51.378400
11
16.891100
21
53.325800
0
LINE
8
Layer 1
10
16.891100
20
53.325800
11
14.097000
21
53.325800
0
LINE
8
Layer 1
10
14.097000
20
53.325800
11
14.097000
21
51.378400
0
LINE
8
Layer 1
10
14.097000
20
51.378400
11
13.278500
21
51.378400
0
LINE
8
Layer 1
10
13.278500
20
51.378400
11
13.278500
21
47.173300
0
LINE
8
Layer 1
10
13.278500
20
47.173300
11
14.097000
21
47.173300
0
LINE
8
Layer 1
10
14.097000
20
47.173300
11
14.097000
21
45.508300
0
LINE
8
Layer 1
10
14.097000
20
45.508300
11
16.891100
21
45.508300
0
LINE
8
Layer 1
10
16.891100
20
45.508300
11
16.891100
21
47.173300
0
LINE
8
Layer 1
10
16.891100
20
47.173300
11
17.709500
21
47.173300
0
LINE
8
Layer 1
10
17.709500
20
47.173300
11
17.709500
21
51.378400
0
LINE
8
Layer 1
10
7.267310
20
53.071700
11
6.448840
21
53.071700
0
LINE
8
Layer 1
10
6.448840
20
53.071700
11
6.448840
21
55.019200
0
LINE
8
Layer 1
10
6.448840
20
55.019200
11
3.654800
21
55.019200
0
LINE
8
Layer 1
10
3.654800
20
55.019200
11
3.654800
21
53.071700
0
LINE
8
Layer 1
10
3.654800
20
53.071700
11
2.836330
21
53.071700
0
LINE
8
Layer 1
10
2.836330
20
53.071700
11
2.836330
21
48.866700
0
LINE
8
Layer 1
10
2.836330
20
48.866700
11
3.654800
21
48.866700
0
LINE
8
Layer 1
10
3.654800
20
48.866700
11
3.654800
21
47.201600
0
LINE
8
Layer 1
10
3.654800
20
47.201600
11
6.448840
21
47.201600
0
LINE
8
Layer 1
10
6.448840
20
47.201600
11
6.448840
21
48.866700
0
LINE
8
Layer 1
10
6.448840
20
48.866700
11
7.267310
21
48.866700
0
LINE
8
Layer 1
10
7.267310
20
48.866700
11
7.267310
21
53.071700
0
LINE
8
Layer 1
10
48.274000
20
29.619200
11
48.274000
21
28.349200
0
LINE
8
Layer 1
10
48.274000
20
28.349200
11
47.427400
21
28.349200
0
LINE
8
Layer 1
10
47.427400
20
28.349200
11
47.427400
21
25.555200
0
LINE
8
Layer 1
10
47.427400
20
25.555200
11
48.274000
21
25.555200
0
LINE
8
Layer 1
10
48.274000
20
25.555200
11
48.274000
21
24.285200
0
LINE
8
Layer 1
10
48.274000
20
24.285200
11
51.068100
21
24.285200
0
LINE
8
Layer 1
10
51.068100
20
24.285200
11
51.068100
21
25.555200
0
LINE
8
Layer 1
10
51.068100
20
25.555200
11
51.914700
21
25.555200
0
LINE
8
Layer 1
10
51.914700
20
25.555200
11
51.914700
21
28.349200
0
LINE
8
Layer 1
10
51.914700
20
28.349200
11
51.068100
21
28.349200
0
LINE
8
Layer 1
10
51.068100
20
28.349200
11
51.068100
21
29.619200
0
LINE
8
Layer 1
10
51.068100
20
29.619200
11
48.274000
21
29.619200
0
LINE
8
Layer 1
10
79.036200
20
77.455800
11
79.036200
21
76.185800
0
LINE
8
Layer 1
10
79.036200
20
76.185800
11
78.189600
21
76.185800
0
LINE
8
Layer 1
10
78.189600
20
76.185800
11
78.189600
21
73.391800
0
LINE
8
Layer 1
10
78.189600
20
73.391800
11
79.036200
21
73.391800
0
LINE
8
Layer 1
10
79.036200
20
73.391800
11
79.036200
21
72.121800
0
LINE
8
Layer 1
10
79.036200
20
72.121800
11
81.830300
21
72.121800
0
LINE
8
Layer 1
10
81.830300
20
72.121800
11
81.830300
21
73.391800
0
LINE
8
Layer 1
10
81.830300
20
73.391800
11
82.676900
21
73.391800
0
LINE
8
Layer 1
10
82.676900
20
73.391800
11
82.676900
21
76.185800
0
LINE
8
Layer 1
10
82.676900
20
76.185800
11
81.830300
21
76.185800
0
LINE
8
Layer 1
10
81.830300
20
76.185800
11
81.830300
21
77.455800
0
LINE
8
Layer 1
10
81.830300
20
77.455800
11
79.036200
21
77.455800
0
LINE
8
Layer 1
10
43.758500
20
29.619200
11
43.758500
21
28.349200
0
LINE
8
Layer 1
10
43.758500
20
28.349200
11
42.911900
21
28.349200
0
LINE
8
Layer 1
10
42.911900
20
28.349200
11
42.911900
21
25.555200
0
LINE
8
Layer 1
10
42.911900
20
25.555200
11
43.758500
21
25.555200
0
LINE
8
Layer 1
10
43.758500
20
25.555200
11
43.758500
21
24.285200
0
LINE
8
Layer 1
10
43.758500
20
24.285200
11
46.552500
21
24.285200
0
LINE
8
Layer 1
10
46.552500
20
24.285200
11
46.552500
21
25.555200
0
LINE
8
Layer 1
10
46.552500
20
25.555200
11
47.399100
21
25.555200
0
LINE
8
Layer 1
10
47.399100
20
25.555200
11
47.399100
21
28.349200
0
LINE
8
Layer 1
10
47.399100
20
28.349200
11
46.552500
21
28.349200
0
LINE
8
Layer 1
10
46.552500
20
28.349200
11
46.552500
21
29.619200
0
LINE
8
Layer 1
10
46.552500
20
29.619200
11
43.758500
21
29.619200
0
LINE
8
Layer 1
10
79.036200
20
77.455800
11
79.036200
21
76.185800
0
LINE
8
Layer 1
10
79.036200
20
76.185800
11
78.189600
21
76.185800
0
LINE
8
Layer 1
10
78.189600
20
76.185800
11
78.189600
21
73.391800
0
LINE
8
Layer 1
10
78.189600
20
73.391800
11
79.036200
21
73.391800
0
LINE
8
Layer 1
10
79.036200
20
73.391800
11
79.036200
21
72.121800
0
LINE
8
Layer 1
10
79.036200
20
72.121800
11
81.830300
21
72.121800
0
LINE
8
Layer 1
10
81.830300
20
72.121800
11
81.830300
21
73.391800
0
LINE
8
Layer 1
10
81.830300
20
73.391800
11
82.676900
21
73.391800
0
LINE
8
Layer 1
10
82.676900
20
73.391800
11
82.676900
21
76.185800
0
LINE
8
Layer 1
10
82.676900
20
76.185800
11
81.830300
21
76.185800
0
LINE
8
Layer 1
10
81.830300
20
76.185800
11
81.830300
21
77.455800
0
LINE
8
Layer 1
10
81.830300
20
77.455800
11
79.036200
21
77.455800
0
LINE
8
Layer 1
10
4.247440
20
46.270300
11
4.247440
21
45.028600
0
LINE
8
Layer 1
10
4.247440
20
45.028600
11
5.094060
21
45.028600
0
LINE
8
Layer 1
10
5.094060
20
45.028600
11
5.094060
21
42.178100
0
LINE
8
Layer 1
10
5.094060
20
42.178100
11
4.247440
21
42.178100
0
LINE
8
Layer 1
10
4.247440
20
42.178100
11
4.247440
21
40.936300
0
LINE
8
Layer 1
10
4.247440
20
40.936300
11
7.055490
21
40.936300
0
LINE
8
Layer 1
10
7.055490
20
40.936300
11
7.055490
21
41.783000
0
LINE
8
Layer 1
10
7.055490
20
41.783000
11
11.317000
21
41.783000
0
LINE
8
Layer 1
10
11.317000
20
41.783000
11
11.317000
21
40.936300
0
LINE
8
Layer 1
10
11.317000
20
40.936300
11
13.814700
21
40.936300
0
LINE
8
Layer 1
10
13.814700
20
40.936300
11
13.814700
21
42.178100
0
LINE
8
Layer 1
10
13.814700
20
42.178100
11
12.982100
21
42.178100
0
LINE
8
Layer 1
10
12.982100
20
42.178100
11
12.982100
21
45.028600
0
LINE
8
Layer 1
10
12.982100
20
45.028600
11
13.814700
21
45.028600
0
LINE
8
Layer 1
10
13.814700
20
45.028600
11
13.814700
21
46.270300
0
LINE
8
Layer 1
10
13.814700
20
46.270300
11
11.303000
21
46.270300
0
LINE
8
Layer 1
10
11.303000
20
46.270300
11
11.303000
21
45.423700
0
LINE
8
Layer 1
10
11.303000
20
45.423700
11
7.041340
21
45.423700
0
LINE
8
Layer 1
10
7.041340
20
45.423700
11
7.041340
21
46.270300
0
LINE
8
Layer 1
10
7.041340
20
46.270300
11
4.247440
21
46.270300
0
LINE
8
Layer 1
10
43.038900
20
28.194000
11
43.038900
21
27.347300
0
LINE
8
Layer 1
10
43.038900
20
27.347300
11
36.703000
21
27.347300
0
LINE
8
Layer 1
10
36.703000
20
27.347300
11
36.703000
21
21.731100
0
LINE
8
Layer 1
10
36.703000
20
21.731100
11
43.038900
21
21.731100
0
LINE
8
Layer 1
10
43.038900
20
21.731100
11
43.038900
21
20.884500
0
LINE
8
Layer 1
10
43.038900
20
20.884500
11
47.244000
21
20.884500
0
LINE
8
Layer 1
10
47.244000
20
20.884500
11
47.244000
21
21.731100
0
LINE
8
Layer 1
10
47.244000
20
21.731100
11
53.608100
21
21.731100
0
LINE
8
Layer 1
10
53.608100
20
21.731100
11
53.608100
21
27.347300
0
LINE
8
Layer 1
10
53.608100
20
27.347300
11
47.244000
21
27.347300
0
LINE
8
Layer 1
10
47.244000
20
27.347300
11
47.244000
21
28.194000
0
LINE
8
Layer 1
10
47.244000
20
28.194000
11
43.038900
21
28.194000
0
LINE
8
Layer 1
10
59.972300
20
28.194000
11
59.972300
21
27.347300
0
LINE
8
Layer 1
10
59.972300
20
27.347300
11
53.636300
21
27.347300
0
LINE
8
Layer 1
10
53.636300
20
27.347300
11
53.636300
21
21.731100
0
LINE
8
Layer 1
10
53.636300
20
21.731100
11
59.972300
21
21.731100
0
LINE
8
Layer 1
10
59.972300
20
21.731100
11
59.972300
21
20.884500
0
LINE
8
Layer 1
10
59.972300
20
20.884500
11
64.177300
21
20.884500
0
LINE
8
Layer 1
10
64.177300
20
20.884500
11
64.177300
21
21.731100
0
LINE
8
Layer 1
10
64.177300
20
21.731100
11
70.541500
21
21.731100
0
LINE
8
Layer 1
10
70.541500
20
21.731100
11
70.541500
21
27.347300
0
LINE
8
Layer 1
10
70.541500
20
27.347300
11
64.177300
21
27.347300
0
LINE
8
Layer 1
10
64.177300
20
27.347300
11
64.177300
21
28.194000
0
LINE
8
Layer 1
10
64.177300
20
28.194000
11
59.972300
21
28.194000
0
LINE
8
Layer 1
10
90.042800
20
33.288100
11
90.042800
21
32.441500
0
LINE
8
Layer 1
10
90.042800
20
32.441500
11
88.631800
21
32.441500
0
LINE
8
Layer 1
10
88.631800
20
32.441500
11
88.631800
21
25.414200
0
LINE
8
Layer 1
10
88.631800
20
25.414200
11
90.042800
21
25.414200
0
LINE
8
Layer 1
10
90.042800
20
25.414200
11
90.042800
21
24.567500
0
LINE
8
Layer 1
10
90.042800
20
24.567500
11
92.836900
21
24.567500
0
LINE
8
Layer 1
10
92.836900
20
24.567500
11
92.836900
21
25.414200
0
LINE
8
Layer 1
10
92.836900
20
25.414200
11
94.247900
21
25.414200
0
LINE
8
Layer 1
10
94.247900
20
25.414200
11
94.247900
21
32.441500
0
LINE
8
Layer 1
10
94.247900
20
32.441500
11
92.836900
21
32.441500
0
LINE
8
Layer 1
10
92.836900
20
32.441500
11
92.836900
21
33.288100
0
LINE
8
Layer 1
10
92.836900
20
33.288100
11
90.042800
21
33.288100
0
LINE
8
Layer 1
10
95.687300
20
33.288100
11
95.687300
21
32.441500
0
LINE
8
Layer 1
10
95.687300
20
32.441500
11
94.276300
21
32.441500
0
LINE
8
Layer 1
10
94.276300
20
32.441500
11
94.276300
21
25.414200
0
LINE
8
Layer 1
10
94.276300
20
25.414200
11
95.687300
21
25.414200
0
LINE
8
Layer 1
10
95.687300
20
25.414200
11
95.687300
21
24.567500
0
LINE
8
Layer 1
10
95.687300
20
24.567500
11
98.481300
21
24.567500
0
LINE
8
Layer 1
10
98.481300
20
24.567500
11
98.481300
21
25.414200
0
LINE
8
Layer 1
10
98.481300
20
25.414200
11
99.892400
21
25.414200
0
LINE
8
Layer 1
10
99.892400
20
25.414200
11
99.892400
21
32.441500
0
LINE
8
Layer 1
10
99.892400
20
32.441500
11
98.481300
21
32.441500
0
LINE
8
Layer 1
10
98.481300
20
32.441500
11
98.481300
21
33.288100
0
LINE
8
Layer 1
10
98.481300
20
33.288100
11
95.687300
21
33.288100
0
LINE
8
Layer 1
10
84.398400
20
33.288100
11
84.398400
21
32.441500
0
LINE
8
Layer 1
10
84.398400
20
32.441500
11
82.987400
21
32.441500
0
LINE
8
Layer 1
10
82.987400
20
32.441500
11
82.987400
21
25.414200
0
LINE
8
Layer 1
10
82.987400
20
25.414200
11
84.398400
21
25.414200
0
LINE
8
Layer 1
10
84.398400
20
25.414200
11
84.398400
21
24.567500
0
LINE
8
Layer 1
10
84.398400
20
24.567500
11
87.192500
21
24.567500
0
LINE
8
Layer 1
10
87.192500
20
24.567500
11
87.192500
21
25.414200
0
LINE
8
Layer 1
10
87.192500
20
25.414200
11
88.603500
21
25.414200
0
LINE
8
Layer 1
10
88.603500
20
25.414200
11
88.603500
21
32.441500
0
LINE
8
Layer 1
10
88.603500
20
32.441500
11
87.192500
21
32.441500
0
LINE
8
Layer 1
10
87.192500
20
32.441500
11
87.192500
21
33.288100
0
LINE
8
Layer 1
10
87.192500
20
33.288100
11
84.398400
21
33.288100
0
LINE
8
Layer 1
10
101.332000
20
33.288100
11
101.332000
21
32.441500
0
LINE
8
Layer 1
10
101.332000
20
32.441500
11
99.920700
21
32.441500
0
LINE
8
Layer 1
10
99.920700
20
32.441500
11
99.920700
21
25.414200
0
LINE
8
Layer 1
10
99.920700
20
25.414200
11
101.332000
21
25.414200
0
LINE
8
Layer 1
10
101.332000
20
25.414200
11
101.332000
21
24.567500
0
LINE
8
Layer 1
10
101.332000
20
24.567500
11
104.126000
21
24.567500
0
LINE
8
Layer 1
10
104.126000
20
24.567500
11
104.126000
21
25.414200
0
LINE
8
Layer 1
10
104.126000
20
25.414200
11
105.537000
21
25.414200
0
LINE
8
Layer 1
10
105.537000
20
25.414200
11
105.537000
21
32.441500
0
LINE
8
Layer 1
10
105.537000
20
32.441500
11
104.126000
21
32.441500
0
LINE
8
Layer 1
10
104.126000
20
32.441500
11
104.126000
21
33.288100
0
LINE
8
Layer 1
10
104.126000
20
33.288100
11
101.332000
21
33.288100
0
LINE
8
Layer 1
10
112.621000
20
33.288100
11
112.621000
21
32.441500
0
LINE
8
Layer 1
10
112.621000
20
32.441500
11
111.210000
21
32.441500
0
LINE
8
Layer 1
10
111.210000
20
32.441500
11
111.210000
21
25.414200
0
LINE
8
Layer 1
10
111.210000
20
25.414200
11
112.621000
21
25.414200
0
LINE
8
Layer 1
10
112.621000
20
25.414200
11
112.621000
21
24.567400
0
LINE
8
Layer 1
10
112.621000
20
24.567400
11
115.415000
21
24.567400
0
LINE
8
Layer 1
10
115.415000
20
24.567400
11
115.415000
21
25.414200
0
LINE
8
Layer 1
10
115.415000
20
25.414200
11
116.826000
21
25.414200
0
LINE
8
Layer 1
10
116.826000
20
25.414200
11
116.826000
21
32.441500
0
LINE
8
Layer 1
10
116.826000
20
32.441500
11
115.415000
21
32.441500
0
LINE
8
Layer 1
10
115.415000
20
32.441500
11
115.415000
21
33.288100
0
LINE
8
Layer 1
10
115.415000
20
33.288100
11
112.621000
21
33.288100
0
LINE
8
Layer 1
10
106.976000
20
33.288100
11
106.976000
21
32.441500
0
LINE
8
Layer 1
10
106.976000
20
32.441500
11
105.565000
21
32.441500
0
LINE
8
Layer 1
10
105.565000
20
32.441500
11
105.565000
21
25.414200
0
LINE
8
Layer 1
10
105.565000
20
25.414200
11
106.976000
21
25.414200
0
LINE
8
Layer 1
10
106.976000
20
25.414200
11
106.976000
21
24.567400
0
LINE
8
Layer 1
10
106.976000
20
24.567400
11
109.770000
21
24.567400
0
LINE
8
Layer 1
10
109.770000
20
24.567400
11
109.770000
21
25.414200
0
LINE
8
Layer 1
10
109.770000
20
25.414200
11
111.181000
21
25.414200
0
LINE
8
Layer 1
10
111.181000
20
25.414200
11
111.181000
21
32.441500
0
LINE
8
Layer 1
10
111.181000
20
32.441500
11
109.770000
21
32.441500
0
LINE
8
Layer 1
10
109.770000
20
32.441500
11
109.770000
21
33.288100
0
LINE
8
Layer 1
10
109.770000
20
33.288100
11
106.976000
21
33.288100
0
LINE
8
Layer 1
10
3.682950
20
138.275000
11
3.682950
21
135.452000
0
LINE
8
Layer 1
10
3.682950
20
135.452000
11
2.836330
21
135.452000
0
LINE
8
Layer 1
10
2.836330
20
135.452000
11
2.836330
21
132.658000
0
LINE
8
Layer 1
10
2.836330
20
132.658000
11
3.682950
21
132.658000
0
LINE
8
Layer 1
10
3.682950
20
132.658000
11
3.682950
21
129.836000
0
LINE
8
Layer 1
10
3.682950
20
129.836000
11
9.299190
21
129.836000
0
LINE
8
Layer 1
10
9.299190
20
129.836000
11
9.299190
21
132.658000
0
LINE
8
Layer 1
10
9.299190
20
132.658000
11
10.145800
21
132.658000
0
LINE
8
Layer 1
10
10.145800
20
132.658000
11
10.145800
21
135.452000
0
LINE
8
Layer 1
10
10.145800
20
135.452000
11
9.299190
21
135.452000
0
LINE
8
Layer 1
10
9.299190
20
135.452000
11
9.299190
21
138.275000
0
LINE
8
Layer 1
10
9.299190
20
138.275000
11
3.682950
21
138.275000
0
LINE
8
Layer 1
10
122.498000
20
138.275000
11
122.498000
21
135.452000
0
LINE
8
Layer 1
10
122.498000
20
135.452000
11
121.652000
21
135.452000
0
LINE
8
Layer 1
10
121.652000
20
135.452000
11
121.652000
21
132.658000
0
LINE
8
Layer 1
10
121.652000
20
132.658000
11
122.498000
21
132.658000
0
LINE
8
Layer 1
10
122.498000
20
132.658000
11
122.498000
21
129.836000
0
LINE
8
Layer 1
10
122.498000
20
129.836000
11
128.115000
21
129.836000
0
LINE
8
Layer 1
10
128.115000
20
129.836000
11
128.115000
21
132.658000
0
LINE
8
Layer 1
10
128.115000
20
132.658000
11
128.961000
21
132.658000
0
LINE
8
Layer 1
10
128.961000
20
132.658000
11
128.961000
21
135.452000
0
LINE
8
Layer 1
10
128.961000
20
135.452000
11
128.115000
21
135.452000
0
LINE
8
Layer 1
10
128.115000
20
135.452000
11
128.115000
21
138.275000
0
LINE
8
Layer 1
10
128.115000
20
138.275000
11
122.498000
21
138.275000
0
LINE
8
Layer 1
10
3.683090
20
33.852500
11
3.683090
21
32.441400
0
LINE
8
Layer 1
10
3.683090
20
32.441400
11
2.836330
21
32.441400
0
LINE
8
Layer 1
10
2.836330
20
32.441400
11
2.836330
21
29.647500
0
LINE
8
Layer 1
10
2.836330
20
29.647500
11
3.683090
21
29.647500
0
LINE
8
Layer 1
10
3.683090
20
29.647500
11
3.683090
21
28.236300
0
LINE
8
Layer 1
10
3.683090
20
28.236300
11
23.410300
21
28.236300
0
LINE
8
Layer 1
10
23.410300
20
28.236300
11
23.410300
21
29.647500
0
LINE
8
Layer 1
10
23.410300
20
29.647500
11
24.257100
21
29.647500
0
LINE
8
Layer 1
10
24.257100
20
29.647500
11
24.257100
21
32.441400
0
LINE
8
Layer 1
10
24.257100
20
32.441400
11
23.410300
21
32.441400
0
LINE
8
Layer 1
10
23.410300
20
32.441400
11
23.410300
21
33.852500
0
LINE
8
Layer 1
10
23.410300
20
33.852500
11
18.640800
21
33.852500
0
LINE
8
Layer 1
10
18.640800
20
33.852500
11
18.640800
21
32.469700
0
LINE
8
Layer 1
10
18.640800
20
32.469700
11
17.765900
21
32.469700
0
LINE
8
Layer 1
10
17.765900
20
32.469700
11
17.765900
21
33.852500
0
LINE
8
Layer 1
10
17.765900
20
33.852500
11
3.683090
21
33.852500
0
LINE
8
Layer 1
10
46.580800
20
33.852500
11
46.580800
21
32.441400
0
LINE
8
Layer 1
10
46.580800
20
32.441400
11
45.734100
21
32.441400
0
LINE
8
Layer 1
10
45.734100
20
32.441400
11
45.734100
21
29.647500
0
LINE
8
Layer 1
10
45.734100
20
29.647500
11
46.580800
21
29.647500
0
LINE
8
Layer 1
10
46.580800
20
29.647500
11
46.580800
21
28.236300
0
LINE
8
Layer 1
10
46.580800
20
28.236300
11
66.308000
21
28.236300
0
LINE
8
Layer 1
10
66.308000
20
28.236300
11
66.308000
21
29.647500
0
LINE
8
Layer 1
10
66.308000
20
29.647500
11
67.154800
21
29.647500
0
LINE
8
Layer 1
10
67.154800
20
29.647500
11
67.154800
21
32.441400
0
LINE
8
Layer 1
10
67.154800
20
32.441400
11
66.308000
21
32.441400
0
LINE
8
Layer 1
10
66.308000
20
32.441400
11
66.308000
21
33.852500
0
LINE
8
Layer 1
10
66.308000
20
33.852500
11
46.580800
21
33.852500
0
LINE
8
Layer 1
10
25.132000
20
33.852500
11
25.132000
21
32.441400
0
LINE
8
Layer 1
10
25.132000
20
32.441400
11
24.285200
21
32.441400
0
LINE
8
Layer 1
10
24.285200
20
32.441400
11
24.285200
21
29.647500
0
LINE
8
Layer 1
10
24.285200
20
29.647500
11
25.132000
21
29.647500
0
LINE
8
Layer 1
10
25.132000
20
29.647500
11
25.132000
21
28.236300
0
LINE
8
Layer 1
10
25.132000
20
28.236300
11
44.859200
21
28.236300
0
LINE
8
Layer 1
10
44.859200
20
28.236300
11
44.859200
21
29.647500
0
LINE
8
Layer 1
10
44.859200
20
29.647500
11
45.705900
21
29.647500
0
LINE
8
Layer 1
10
45.705900
20
29.647500
11
45.705900
21
32.441400
0
LINE
8
Layer 1
10
45.705900
20
32.441400
11
44.859200
21
32.441400
0
LINE
8
Layer 1
10
44.859200
20
32.441400
11
44.859200
21
33.852500
0
LINE
8
Layer 1
10
44.859200
20
33.852500
11
40.089700
21
33.852500
0
LINE
8
Layer 1
10
40.089700
20
33.852500
11
40.089700
21
32.469700
0
LINE
8
Layer 1
10
40.089700
20
32.469700
11
39.214800
21
32.469700
0
LINE
8
Layer 1
10
39.214800
20
32.469700
11
39.214800
21
33.852500
0
LINE
8
Layer 1
10
39.214800
20
33.852500
11
25.132000
21
33.852500
0
LINE
8
Layer 1
10
135.085000
20
1303.460000
11
122.889000
21
1324.590000
0
LINE
8
Layer 1
10
122.889000
20
1324.590000
11
147.281400
21
1324.590000
0
LINE
8
Layer 1
10
147.281400
20
1324.590000
11
135.085000
21
1303.460000
0
LINE
8
Layer 1
10
44.901600
20
40.611700
11
44.901600
21
39.200500
0
LINE
8
Layer 1
10
44.901600
20
39.200500
11
44.055000
21
39.200500
0
LINE
8
Layer 1
10
44.055000
20
39.200500
11
44.055000
21
36.406600
0
LINE
8
Layer 1
10
44.055000
20
36.406600
11
44.901600
21
36.406600
0
LINE
8
Layer 1
10
44.901600
20
36.406600
11
44.901600
21
34.995500
0
LINE
8
Layer 1
10
44.901600
20
34.995500
11
58.984400
21
34.995500
0
LINE
8
Layer 1
10
58.984400
20
34.995500
11
58.984400
21
36.406600
0
LINE
8
Layer 1
10
58.984400
20
36.406600
11
59.831200
21
36.406600
0
LINE
8
Layer 1
10
59.831200
20
36.406600
11
59.831200
21
39.200500
0
LINE
8
Layer 1
10
59.831200
20
39.200500
11
58.984400
21
39.200500
0
LINE
8
Layer 1
10
58.984400
20
39.200500
11
58.984400
21
40.611700
0
LINE
8
Layer 1
10
58.984400
20
40.611700
11
44.901600
21
40.611700
0
LINE
8
Layer 1
10
29.082900
20
40.625900
11
29.082900
21
39.214700
0
LINE
8
Layer 1
10
29.082900
20
39.214700
11
28.236300
21
39.214700
0
LINE
8
Layer 1
10
28.236300
20
39.214700
11
28.236300
21
36.420800
0
LINE
8
Layer 1
10
28.236300
20
36.420800
11
29.082900
21
36.420800
0
LINE
8
Layer 1
10
29.082900
20
36.420800
11
29.082900
21
35.009600
0
LINE
8
Layer 1
10
29.082900
20
35.009600
11
43.165800
21
35.009600
0
LINE
8
Layer 1
10
43.165800
20
35.009600
11
43.165800
21
36.420800
0
LINE
8
Layer 1
10
43.165800
20
36.420800
11
44.012500
21
36.420800
0
LINE
8
Layer 1
10
44.012500
20
36.420800
11
44.012500
21
39.214700
0
LINE
8
Layer 1
10
44.012500
20
39.214700
11
43.165800
21
39.214700
0
LINE
8
Layer 1
10
43.165800
20
39.214700
11
43.165800
21
40.625900
0
LINE
8
Layer 1
10
43.165800
20
40.625900
11
29.082900
21
40.625900
0
LINE
8
Layer 1
10
109.375000
20
42.864100
11
109.375000
21
42.319200
0
LINE
8
Layer 1
10
109.375000
20
42.319200
11
100.203000
21
42.319200
0
LINE
8
Layer 1
10
100.203000
20
42.319200
11
100.203000
21
36.703000
0
LINE
8
Layer 1
10
100.203000
20
36.703000
11
109.375000
21
36.703000
0
LINE
8
Layer 1
10
109.375000
20
36.703000
11
109.375000
21
36.158000
0
LINE
8
Layer 1
10
109.375000
20
36.158000
11
116.402000
21
36.158000
0
LINE
8
Layer 1
10
116.402000
20
36.158000
11
116.402000
21
36.703000
0
LINE
8
Layer 1
10
116.402000
20
36.703000
11
125.575000
21
36.703000
0
LINE
8
Layer 1
10
125.575000
20
36.703000
11
125.575000
21
42.319200
0
LINE
8
Layer 1
10
125.575000
20
42.319200
11
116.402000
21
42.319200
0
LINE
8
Layer 1
10
116.402000
20
42.319200
11
116.402000
21
42.864100
0
LINE
8
Layer 1
10
116.402000
20
42.864100
11
109.375000
21
42.864100
0
LINE
8
Layer 1
10
7.041400
20
71.134000
11
7.041400
21
71.980600
0
LINE
8
Layer 1
10
7.041400
20
71.980600
11
8.452420
21
71.980600
0
LINE
8
Layer 1
10
8.452420
20
71.980600
11
8.452420
21
72.799100
0
LINE
8
Layer 1
10
8.452420
20
72.799100
11
7.041400
21
72.799100
0
LINE
8
Layer 1
10
7.041400
20
72.799100
11
7.041400
21
73.645800
0
LINE
8
Layer 1
10
7.041400
20
73.645800
11
4.247350
21
73.645800
0
LINE
8
Layer 1
10
4.247350
20
73.645800
11
4.247350
21
72.799100
0
LINE
8
Layer 1
10
4.247350
20
72.799100
11
2.836330
21
72.799100
0
LINE
8
Layer 1
10
2.836330
20
72.799100
11
2.836330
21
71.980600
0
LINE
8
Layer 1
10
2.836330
20
71.980600
11
4.247350
21
71.980600
0
LINE
8
Layer 1
10
4.247350
20
71.980600
11
4.247350
21
71.134000
0
LINE
8
Layer 1
10
4.247350
20
71.134000
11
7.041400
21
71.134000
0
LINE
8
Layer 1
10
7.041410
20
73.674000
11
7.041410
21
74.520600
0
LINE
8
Layer 1
10
7.041410
20
74.520600
11
8.452420
21
74.520600
0
LINE
8
Layer 1
10
8.452420
20
74.520600
11
8.452420
21
75.339100
0
LINE
8
Layer 1
10
8.452420
20
75.339100
11
7.041410
21
75.339100
0
LINE
8
Layer 1
10
7.041410
20
75.339100
11
7.041410
21
76.185800
0
LINE
8
Layer 1
10
7.041410
20
76.185800
11
4.247360
21
76.185800
0
LINE
8
Layer 1
10
4.247360
20
76.185800
11
4.247360
21
75.339100
0
LINE
8
Layer 1
10
4.247360
20
75.339100
11
2.836330
21
75.339100
0
LINE
8
Layer 1
10
2.836330
20
75.339100
11
2.836330
21
74.520600
0
LINE
8
Layer 1
10
2.836330
20
74.520600
11
4.247360
21
74.520600
0
LINE
8
Layer 1
10
4.247360
20
74.520600
11
4.247360
21
73.674000
0
LINE
8
Layer 1
10
4.247360
20
73.674000
11
7.041410
21
73.674000
0
LINE
8
Layer 1
10
57.601500
20
62.625000
11
57.601500
21
61.778400
0
LINE
8
Layer 1
10
57.601500
20
61.778400
11
56.190400
21
61.778400
0
LINE
8
Layer 1
10
56.190400
20
61.778400
11
56.190400
21
60.960000
0
LINE
8
Layer 1
10
56.190400
20
60.960000
11
57.601500
21
60.960000
0
LINE
8
Layer 1
10
57.601500
20
60.960000
11
57.601500
21
60.113200
0
LINE
8
Layer 1
10
57.601500
20
60.113200
11
60.395500
21
60.113200
0
LINE
8
Layer 1
10
60.395500
20
60.113200
11
60.395500
21
60.960000
0
LINE
8
Layer 1
10
60.395500
20
60.960000
11
61.806500
21
60.960000
0
LINE
8
Layer 1
10
61.806500
20
60.960000
11
61.806500
21
61.778400
0
LINE
8
Layer 1
10
61.806500
20
61.778400
11
60.395500
21
61.778400
0
LINE
8
Layer 1
10
60.395500
20
61.778400
11
60.395500
21
62.625000
0
LINE
8
Layer 1
10
60.395500
20
62.625000
11
57.601500
21
62.625000
0
LINE
8
Layer 1
10
7.041410
20
76.214000
11
7.041410
21
77.060600
0
LINE
8
Layer 1
10
7.041410
20
77.060600
11
8.452420
21
77.060600
0
LINE
8
Layer 1
10
8.452420
20
77.060600
11
8.452420
21
77.879100
0
LINE
8
Layer 1
10
8.452420
20
77.879100
11
7.041410
21
77.879100
0
LINE
8
Layer 1
10
7.041410
20
77.879100
11
7.041410
21
78.725800
0
LINE
8
Layer 1
10
7.041410
20
78.725800
11
4.247360
21
78.725800
0
LINE
8
Layer 1
10
4.247360
20
78.725800
11
4.247360
21
77.879100
0
LINE
8
Layer 1
10
4.247360
20
77.879100
11
2.836330
21
77.879100
0
LINE
8
Layer 1
10
2.836330
20
77.879100
11
2.836330
21
77.060600
0
LINE
8
Layer 1
10
2.836330
20
77.060600
11
4.247360
21
77.060600
0
LINE
8
Layer 1
10
4.247360
20
77.060600
11
4.247360
21
76.214000
0
LINE
8
Layer 1
10
4.247360
20
76.214000
11
7.041410
21
76.214000
0
LINE
8
Layer 1
10
127.028000
20
67.705100
11
127.028000
21
45.155500
0
LINE
8
Layer 1
10
127.028000
20
45.155500
11
128.439000
21
45.155500
0
LINE
8
Layer 1
10
128.439000
20
45.155500
11
128.439000
21
44.308900
0
LINE
8
Layer 1
10
128.439000
20
44.308900
11
131.233000
21
44.308900
0
LINE
8
Layer 1
10
131.233000
20
44.308900
11
131.233000
21
45.155500
0
LINE
8
Layer 1
10
131.233000
20
45.155500
11
132.644000
21
45.155500
0
LINE
8
Layer 1
10
132.644000
20
45.155500
11
132.644000
21
67.705100
0
LINE
8
Layer 1
10
132.644000
20
67.705100
11
130.977000
21
67.705100
0
LINE
8
Layer 1
10
130.977000
20
67.705100
11
129.836370
21
65.729520
0
LINE
8
Layer 1
10
129.836370
20
65.729520
11
128.695890
21
67.705100
0
LINE
8
Layer 1
10
128.695890
20
67.705100
11
127.028000
21
67.705100
0
LINE
8
Layer 1
10
112.917000
20
67.705100
11
112.917000
21
45.155600
0
LINE
8
Layer 1
10
112.917000
20
45.155600
11
114.328000
21
45.155600
0
LINE
8
Layer 1
10
114.328000
20
45.155600
11
114.328000
21
44.308900
0
LINE
8
Layer 1
10
114.328000
20
44.308900
11
117.122000
21
44.308900
0
LINE
8
Layer 1
10
117.122000
20
44.308900
11
117.122000
21
45.155600
0
LINE
8
Layer 1
10
117.122000
20
45.155600
11
118.533000
21
45.155600
0
LINE
8
Layer 1
10
118.533000
20
45.155600
11
118.533000
21
67.705100
0
LINE
8
Layer 1
10
118.533000
20
67.705100
11
116.866000
21
67.705100
0
LINE
8
Layer 1
10
116.866000
20
67.705100
11
115.725370
21
65.729520
0
LINE
8
Layer 1
10
115.725370
20
65.729520
11
114.584890
21
67.705100
0
LINE
8
Layer 1
10
114.584890
20
67.705100
11
112.917000
21
67.705100
0
LINE
8
Layer 1
10
100.217000
20
50.771700
11
100.217000
21
28.222200
0
LINE
8
Layer 1
10
100.217000
20
28.222200
11
101.628000
21
28.222200
0
LINE
8
Layer 1
10
101.628000
20
28.222200
11
101.628000
21
27.375600
0
LINE
8
Layer 1
10
101.628000
20
27.375600
11
104.422000
21
27.375600
0
LINE
8
Layer 1
10
104.422000
20
27.375600
11
104.422000
21
28.222200
0
LINE
8
Layer 1
10
104.422000
20
28.222200
11
105.833000
21
28.222200
0
LINE
8
Layer 1
10
105.833000
20
28.222200
11
105.833000
21
50.771700
0
LINE
8
Layer 1
10
105.833000
20
50.771700
11
104.166000
21
50.771700
0
LINE
8
Layer 1
10
104.166000
20
50.771700
11
103.025370
21
48.796120
0
LINE
8
Layer 1
10
103.025370
20
48.796120
11
101.884890
21
50.771700
0
LINE
8
Layer 1
10
101.884890
20
50.771700
11
100.217000
21
50.771700
0
LINE
8
Layer 1
10
86.105900
20
50.771800
11
86.105900
21
28.222200
0
LINE
8
Layer 1
10
86.105900
20
28.222200
11
87.517100
21
28.222200
0
LINE
8
Layer 1
10
87.517100
20
28.222200
11
87.517100
21
27.375600
0
LINE
8
Layer 1
10
87.517100
20
27.375600
11
90.311000
21
27.375600
0
LINE
8
Layer 1
10
90.311000
20
27.375600
11
90.311000
21
28.222200
0
LINE
8
Layer 1
10
90.311000
20
28.222200
11
91.722200
21
28.222200
0
LINE
8
Layer 1
10
91.722200
20
28.222200
11
91.722200
21
50.771800
0
LINE
8
Layer 1
10
91.722200
20
50.771800
11
90.054600
21
50.771800
0
LINE
8
Layer 1
10
90.054600
20
50.771800
11
88.913970
21
48.796220
0
LINE
8
Layer 1
10
88.913970
20
48.796220
11
87.773490
21
50.771800
0
LINE
8
Layer 1
10
87.773490
20
50.771800
11
86.105900
21
50.771800
0
LINE
8
Layer 1
10
132.673000
20
42.305100
11
132.673000
21
19.755500
0
LINE
8
Layer 1
10
132.673000
20
19.755500
11
134.084000
21
19.755500
0
LINE
8
Layer 1
10
134.084000
20
19.755500
11
134.084000
21
18.908900
0
LINE
8
Layer 1
10
134.084000
20
18.908900
11
136.878000
21
18.908900
0
LINE
8
Layer 1
10
136.878000
20
18.908900
11
136.878000
21
19.755500
0
LINE
8
Layer 1
10
136.878000
20
19.755500
11
138.289000
21
19.755500
0
LINE
8
Layer 1
10
138.289000
20
19.755500
11
138.289000
21
42.305100
0
LINE
8
Layer 1
10
138.289000
20
42.305100
11
136.621000
21
42.305100
0
LINE
8
Layer 1
10
136.621000
20
42.305100
11
135.480370
21
40.329520
0
LINE
8
Layer 1
10
135.480370
20
40.329520
11
134.339890
21
42.305100
0
LINE
8
Layer 1
10
134.339890
20
42.305100
11
132.673000
21
42.305100
0
LINE
8
Layer 1
10
118.561000
20
42.305100
11
118.561000
21
19.755600
0
LINE
8
Layer 1
10
118.561000
20
19.755600
11
119.973000
21
19.755600
0
LINE
8
Layer 1
10
119.973000
20
19.755600
11
119.973000
21
18.908900
0
LINE
8
Layer 1
10
119.973000
20
18.908900
11
122.767000
21
18.908900
0
LINE
8
Layer 1
10
122.767000
20
18.908900
11
122.767000
21
19.755600
0
LINE
8
Layer 1
10
122.767000
20
19.755600
11
124.178000
21
19.755600
0
LINE
8
Layer 1
10
124.178000
20
19.755600
11
124.178000
21
42.305100
0
LINE
8
Layer 1
10
124.178000
20
42.305100
11
122.510000
21
42.305100
0
LINE
8
Layer 1
10
122.510000
20
42.305100
11
121.369370
21
40.329520
0
LINE
8
Layer 1
10
121.369370
20
40.329520
11
120.228890
21
42.305100
0
LINE
8
Layer 1
10
120.228890
20
42.305100
11
118.561000
21
42.305100
0
LINE
8
Layer 1
10
142.550000
20
93.105000
11
142.550000
21
70.555500
0
LINE
8
Layer 1
10
142.550000
20
70.555500
11
143.961000
21
70.555500
0
LINE
8
Layer 1
10
143.961000
20
70.555500
11
143.961000
21
69.708900
0
LINE
8
Layer 1
10
143.961000
20
69.708900
11
146.755000
21
69.708900
0
LINE
8
Layer 1
10
146.755000
20
69.708900
11
146.755000
21
70.555500
0
LINE
8
Layer 1
10
146.755000
20
70.555500
11
148.167000
21
70.555500
0
LINE
8
Layer 1
10
148.167000
20
70.555500
11
148.167000
21
93.105000
0
LINE
8
Layer 1
10
148.167000
20
93.105000
11
146.499000
21
93.105000
0
LINE
8
Layer 1
10
146.499000
20
93.105000
11
145.358370
21
91.129420
0
LINE
8
Layer 1
10
145.358370
20
91.129420
11
144.217890
21
93.105000
0
LINE
8
Layer 1
10
144.217890
20
93.105000
11
142.550000
21
93.105000
0
LINE
8
Layer 1
10
128.439000
20
93.105100
11
128.439000
21
70.555500
0
LINE
8
Layer 1
10
128.439000
20
70.555500
11
129.850000
21
70.555500
0
LINE
8
Layer 1
10
129.850000
20
70.555500
11
129.850000
21
69.708900
0
LINE
8
Layer 1
10
129.850000
20
69.708900
11
132.644000
21
69.708900
0
LINE
8
Layer 1
10
132.644000
20
69.708900
11
132.644000
21
70.555500
0
LINE
8
Layer 1
10
132.644000
20
70.555500
11
134.055000
21
70.555500
0
LINE
8
Layer 1
10
134.055000
20
70.555500
11
134.055000
21
93.105100
0
LINE
8
Layer 1
10
134.055000
20
93.105100
11
132.388000
21
93.105100
0
LINE
8
Layer 1
10
132.388000
20
93.105100
11
131.247370
21
91.129520
0
LINE
8
Layer 1
10
131.247370
20
91.129520
11
130.106890
21
93.105100
0
LINE
8
Layer 1
10
130.106890
20
93.105100
11
128.439000
21
93.105100
0
LINE
8
Layer 1
10
71.980600
20
31.594800
11
71.980600
21
30.748100
0
LINE
8
Layer 1
10
71.980600
20
30.748100
11
70.569600
21
30.748100
0
LINE
8
Layer 1
10
70.569600
20
30.748100
11
70.569600
21
22.281400
0
LINE
8
Layer 1
10
70.569600
20
22.281400
11
70.569600
21
22.274344
0
LINE
8
Layer 1
10
70.569600
20
22.274344
11
70.796381
21
21.188162
0
LINE
8
Layer 1
10
70.796381
20
21.188162
11
71.399562
21
20.302513
0
LINE
8
Layer 1
10
71.399562
20
20.302513
11
72.289774
21
19.706087
0
LINE
8
Layer 1
10
72.289774
20
19.706087
11
73.377650
21
19.487574
0
LINE
8
Layer 1
10
73.377650
20
19.487574
11
74.467202
21
19.706803
0
LINE
8
Layer 1
10
74.467202
20
19.706803
11
75.358182
21
20.304985
0
LINE
8
Layer 1
10
75.358182
20
20.304985
11
75.960908
21
21.192897
0
LINE
8
Layer 1
10
75.960908
20
21.192897
11
76.185700
21
22.281314
0
LINE
8
Layer 1
10
76.185700
20
22.281314
11
76.185700
21
30.748100
0
LINE
8
Layer 1
10
76.185700
20
30.748100
11
74.774700
21
30.748100
0
LINE
8
Layer 1
10
74.774700
20
30.748100
11
74.774700
21
31.594700
0
LINE
8
Layer 1
10
74.774700
20
31.594700
11
71.980600
21
31.594800
0
LINE
8
Layer 1
10
77.625100
20
31.594800
11
77.625100
21
30.748100
0
LINE
8
Layer 1
10
77.625100
20
30.748100
11
76.214100
21
30.748100
0
LINE
8
Layer 1
10
76.214100
20
30.748100
11
76.214100
21
22.281400
0
LINE
8
Layer 1
10
76.214100
20
22.281400
11
76.214100
21
22.274344
0
LINE
8
Layer 1
10
76.214100
20
22.274344
11
76.440878
21
21.188159
0
LINE
8
Layer 1
10
76.440878
20
21.188159
11
77.044058
21
20.302506
0
LINE
8
Layer 1
10
77.044058
20
20.302506
11
77.934272
21
19.706078
0
LINE
8
Layer 1
10
77.934272
20
19.706078
11
79.022150
21
19.487564
0
LINE
8
Layer 1
10
79.022150
20
19.487564
11
80.111704
21
19.706794
0
LINE
8
Layer 1
10
80.111704
20
19.706794
11
81.002685
21
20.304978
0
LINE
8
Layer 1
10
81.002685
20
20.304978
11
81.605411
21
21.192894
0
LINE
8
Layer 1
10
81.605411
20
21.192894
11
81.830200
21
22.281314
0
LINE
8
Layer 1
10
81.830200
20
22.281314
11
81.830200
21
30.748100
0
LINE
8
Layer 1
10
81.830200
20
30.748100
11
80.419100
21
30.748100
0
LINE
8
Layer 1
10
80.419100
20
30.748100
11
80.419100
21
31.594700
0
LINE
8
Layer 1
10
80.419100
20
31.594700
11
77.625100
21
31.594800
 0 
ENDSEC
 0 
EOF